M48
; DRILL file {KiCad 7.0.7} date Mon Oct  9 21:12:52 2023
; FORMAT={-:-/ absolute / metric / decimal}
; #@! TF.CreationDate,2023-10-09T21:12:52+02:00
; #@! TF.GenerationSoftware,Kicad,Pcbnew,7.0.7
; #@! TF.FileFunction,MixedPlating,1,2
FMAT,2
METRIC
; #@! TA.AperFunction,Plated,PTH,ViaDrill
T1C0.400
; #@! TA.AperFunction,Plated,PTH,ViaDrill
T2C0.500
; #@! TA.AperFunction,Plated,PTH,ComponentDrill
T3C1.000
; #@! TA.AperFunction,Plated,PTH,ComponentDrill
T4C1.100
; #@! TA.AperFunction,Plated,PTH,ComponentDrill
T5C1.200
; #@! TA.AperFunction,Plated,PTH,ComponentDrill
T6C1.300
; #@! TA.AperFunction,Plated,PTH,ComponentDrill
T7C1.600
; #@! TA.AperFunction,Plated,PTH,ComponentDrill
T8C2.300
; #@! TA.AperFunction,Plated,PTH,ComponentDrill
T9C2.400
; #@! TA.AperFunction,Plated,PTH,ComponentDrill
T10C4.100
; #@! TA.AperFunction,NonPlated,NPTH,ComponentDrill
T11C1.850
; #@! TA.AperFunction,NonPlated,NPTH,ComponentDrill
T12C2.200
; #@! TA.AperFunction,NonPlated,NPTH,ComponentDrill
T13C4.200
; #@! TA.AperFunction,NonPlated,NPTH,ComponentDrill
T14C4.300
%
G90
G05
T1
X82.391Y-58.35
X82.391Y-68.35
X82.391Y-78.35
X82.391Y-98.35
X82.391Y-128.35
X82.391Y-138.35
X82.391Y-168.35
X83.1Y-120.35
X83.3Y-119.1
X83.3Y-121.65
X84.4Y-122.1
X84.4Y-137.65
X84.45Y-118.6
X84.55Y-144.25
X86.1Y-146.3
X86.15Y-135.8
X86.35Y-122.1
X86.4Y-118.6
X88.15Y-122.1
X88.2Y-118.6
X91.85Y-69.85
X92.391Y-38.35
X92.391Y-88.35
X92.391Y-108.35
X92.391Y-128.35
X92.391Y-138.35
X92.391Y-158.35
X92.391Y-168.35
X93.0Y-117.35
X93.0Y-118.3
X93.45Y-68.3
X95.65Y-107.95
X95.65Y-120.65
X95.65Y-133.35
X95.65Y-146.05
X96.7Y-107.95
X96.7Y-120.65
X96.7Y-133.35
X96.7Y-146.05
X102.391Y-38.35
X102.391Y-58.35
X102.391Y-78.35
X102.391Y-118.35
X102.391Y-128.35
X102.391Y-158.35
X102.391Y-168.35
X103.701Y-87.803
X103.75Y-53.4
X103.8Y-70.7
X109.05Y-145.0
X112.391Y-38.35
X112.391Y-58.35
X112.391Y-78.35
X112.391Y-88.35
X112.391Y-98.35
X112.391Y-118.35
X112.391Y-168.35
X120.675Y-108.125
X121.2Y-137.35
X121.25Y-136.0
X121.25Y-138.5
X121.3Y-120.65
X121.3Y-133.35
X121.3Y-146.05
X121.35Y-108.8
X122.35Y-120.65
X122.35Y-133.35
X122.35Y-146.05
X122.391Y-38.35
X122.391Y-118.35
X122.391Y-128.35
X124.1Y-152.5
X125.999Y-136.0
X125.999Y-138.55
X126.0Y-137.25
X127.25Y-74.5
X130.7Y-161.2
X130.85Y-54.7
X130.85Y-55.95
X130.85Y-110.8
X130.85Y-112.05
X130.9Y-68.8
X130.9Y-70.05
X130.9Y-82.7
X130.9Y-83.95
X130.9Y-96.9
X130.9Y-98.15
X132.391Y-38.35
X133.75Y-74.5
X134.0Y-130.0
X137.85Y-54.7
X137.85Y-55.95
X137.85Y-110.8
X137.85Y-112.05
X137.85Y-138.75
X137.85Y-140.0
X137.85Y-152.5
X137.9Y-68.8
X137.9Y-70.05
X137.9Y-82.7
X137.9Y-83.95
X137.9Y-96.9
X137.9Y-98.15
X137.9Y-124.5
X137.9Y-125.75
X138.2Y-160.2
X139.2Y-150.2
X141.25Y-74.5
X141.25Y-130.25
X142.391Y-38.35
X144.85Y-54.7
X144.85Y-55.95
X144.85Y-110.8
X144.85Y-112.05
X144.85Y-138.75
X144.85Y-140.0
X144.85Y-152.5
X144.9Y-68.8
X144.9Y-70.05
X144.9Y-82.7
X144.9Y-83.95
X144.9Y-96.9
X144.9Y-98.15
X144.9Y-124.5
X144.9Y-125.75
X146.3Y-150.15
X148.25Y-74.5
X148.25Y-130.25
X151.85Y-54.7
X151.85Y-55.95
X151.85Y-110.8
X151.85Y-112.05
X151.85Y-138.75
X151.85Y-140.0
X151.9Y-68.8
X151.9Y-70.05
X151.9Y-82.7
X151.9Y-83.95
X151.9Y-96.9
X151.9Y-98.15
X151.9Y-124.5
X151.9Y-125.75
X151.9Y-152.55
X152.391Y-38.35
X153.35Y-150.15
X156.05Y-156.15
X156.4Y-160.95
X157.47Y-159.02
X157.5Y-155.35
X158.7Y-159.95
X162.391Y-38.35
X162.391Y-58.35
X162.391Y-88.35
X162.391Y-98.35
X162.391Y-118.35
X162.391Y-128.35
X162.391Y-138.35
X162.391Y-148.35
X162.65Y-153.75
X163.7Y-72.8
X164.2Y-152.8
X167.4Y-160.999
X168.0Y-159.02
X168.4Y-160.05
X170.15Y-156.2
X171.47Y-159.02
X171.55Y-155.3
X171.55Y-160.999
X172.391Y-38.35
X172.391Y-58.35
X172.391Y-88.35
X172.391Y-98.35
X172.391Y-128.35
X172.82Y-160.05
X181.3Y-161.0
X182.0Y-159.02
X182.25Y-160.05
X182.391Y-38.35
X182.391Y-48.35
X182.391Y-68.35
X182.391Y-78.35
X184.35Y-156.15
X185.47Y-159.02
X185.5Y-155.35
X185.5Y-161.0
X185.9Y-160.05
X190.63Y-160.95
X192.391Y-38.35
X192.391Y-58.35
X192.391Y-88.35
X192.391Y-98.35
X192.391Y-128.35
X195.65Y-161.05
X196.0Y-159.05
X196.35Y-160.0
X198.3Y-156.15
X199.47Y-159.05
X199.5Y-155.35
X199.5Y-161.05
X202.391Y-38.35
X202.391Y-58.35
X202.391Y-88.35
X202.391Y-98.35
X202.391Y-128.35
X204.635Y-161.05
X206.0Y-160.1
X207.75Y-164.55
X209.33Y-161.11
X214.475Y-109.825
X217.45Y-81.6
X222.391Y-38.35
X222.391Y-48.35
X222.391Y-108.35
X222.391Y-118.35
X222.391Y-128.35
X222.391Y-138.35
X222.391Y-148.35
T2
X162.62Y-161.0
X176.6Y-160.999
T3
X100.11Y-102.87
X100.11Y-105.41
X100.11Y-107.95
X100.11Y-110.49
X100.11Y-113.03
X100.11Y-115.57
X100.11Y-118.11
X100.11Y-120.65
X100.11Y-123.19
X100.11Y-125.73
X100.11Y-128.27
X100.11Y-130.81
X100.11Y-133.35
X100.11Y-135.89
X100.11Y-138.43
X100.11Y-140.97
X100.11Y-143.51
X100.11Y-146.05
X100.11Y-148.59
X100.11Y-151.13
X117.89Y-102.87
X117.89Y-105.41
X117.89Y-107.95
X117.89Y-110.49
X117.89Y-113.03
X117.89Y-115.57
X117.89Y-118.11
X117.89Y-120.65
X117.89Y-123.19
X117.89Y-125.73
X117.89Y-128.27
X117.89Y-130.81
X117.89Y-133.35
X117.89Y-135.89
X117.89Y-138.43
X117.89Y-140.97
X117.89Y-143.51
X117.89Y-146.05
X117.89Y-148.59
X117.89Y-151.13
X216.23Y-59.92
X216.23Y-62.46
X216.23Y-65.0
X216.23Y-67.54
X216.23Y-70.08
X216.23Y-129.92
X216.23Y-132.46
X216.23Y-135.0
X216.23Y-137.54
X216.23Y-140.08
X216.68Y-94.92
X216.68Y-97.46
X216.68Y-100.0
X216.68Y-102.54
X216.68Y-105.08
X218.77Y-59.92
X218.77Y-62.46
X218.77Y-65.0
X218.77Y-67.54
X218.77Y-70.08
X218.77Y-129.92
X218.77Y-132.46
X218.77Y-135.0
X218.77Y-137.54
X218.77Y-140.08
X219.22Y-94.92
X219.22Y-97.46
X219.22Y-100.0
X219.22Y-102.54
X219.22Y-105.08
T4
X127.0Y-155.701
X127.0Y-157.701
X129.5Y-155.701
X129.5Y-157.701
T5
X80.066Y-81.53
X80.066Y-84.03
X80.066Y-86.53
X87.75Y-104.0
X87.75Y-111.5
T6
X159.95Y-147.705
X164.95Y-147.705
T7
X90.29Y-55.19
X92.83Y-61.54
T9
X122.134Y-160.201
X134.366Y-160.201
T10
X162.0Y-51.0
X162.0Y-65.0
X162.0Y-79.0
X162.0Y-93.0
X162.0Y-107.0
X176.0Y-51.0
X176.0Y-65.0
X176.0Y-79.0
X176.0Y-93.0
X176.0Y-107.0
X176.0Y-121.0
X176.0Y-135.0
X176.0Y-149.0
X190.0Y-51.0
X190.0Y-65.0
X190.0Y-79.0
X190.0Y-93.0
X190.0Y-107.0
X190.0Y-121.0
X190.0Y-135.0
X190.0Y-149.0
X204.0Y-51.0
X204.0Y-65.0
X204.0Y-79.0
X204.0Y-93.0
X204.0Y-107.0
X204.0Y-121.0
X204.0Y-135.0
X204.0Y-149.0
T11
X106.575Y-147.97
X111.425Y-147.97
T12
X106.275Y-151.0
X111.725Y-151.0
T13
X87.75Y-59.0
T14
X85.0Y-40.0
X85.0Y-160.0
X215.0Y-40.0
X215.0Y-160.0
T5
X110.3Y-52.65G85X110.3Y-51.35
G05
X110.3Y-69.9G85X110.3Y-68.6
G05
X110.3Y-86.903G85X110.3Y-85.603
G05
X115.0Y-52.65G85X115.0Y-51.35
G05
X115.0Y-69.9G85X115.0Y-68.6
G05
X115.0Y-86.903G85X115.0Y-85.603
G05
X119.7Y-52.65G85X119.7Y-51.35
G05
X119.7Y-69.9G85X119.7Y-68.6
G05
X119.7Y-86.903G85X119.7Y-85.603
G05
T8
X87.467Y-78.43G85X87.666Y-78.43
G05
X87.467Y-89.63G85X87.666Y-89.63
G05
T0
M30
