G04 #@! TF.GenerationSoftware,KiCad,Pcbnew,7.0.7*
G04 #@! TF.CreationDate,2023-10-09T21:12:52+02:00*
G04 #@! TF.ProjectId,Kaboom_box_bottom,4b61626f-6f6d-45f6-926f-785f626f7474,rev?*
G04 #@! TF.SameCoordinates,Original*
G04 #@! TF.FileFunction,Legend,Bot*
G04 #@! TF.FilePolarity,Positive*
%FSLAX46Y46*%
G04 Gerber Fmt 4.6, Leading zero omitted, Abs format (unit mm)*
G04 Created by KiCad (PCBNEW 7.0.7) date 2023-10-09 21:12:52*
%MOMM*%
%LPD*%
G01*
G04 APERTURE LIST*
%ADD10C,0.150000*%
%ADD11C,0.120000*%
G04 APERTURE END LIST*
D10*
X163735714Y-140899819D02*
X163735714Y-141614104D01*
X163735714Y-141614104D02*
X163783333Y-141756961D01*
X163783333Y-141756961D02*
X163878571Y-141852200D01*
X163878571Y-141852200D02*
X164021428Y-141899819D01*
X164021428Y-141899819D02*
X164116666Y-141899819D01*
X162735714Y-141899819D02*
X163307142Y-141899819D01*
X163021428Y-141899819D02*
X163021428Y-140899819D01*
X163021428Y-140899819D02*
X163116666Y-141042676D01*
X163116666Y-141042676D02*
X163211904Y-141137914D01*
X163211904Y-141137914D02*
X163307142Y-141185533D01*
X161878571Y-140899819D02*
X162069047Y-140899819D01*
X162069047Y-140899819D02*
X162164285Y-140947438D01*
X162164285Y-140947438D02*
X162211904Y-140995057D01*
X162211904Y-140995057D02*
X162307142Y-141137914D01*
X162307142Y-141137914D02*
X162354761Y-141328390D01*
X162354761Y-141328390D02*
X162354761Y-141709342D01*
X162354761Y-141709342D02*
X162307142Y-141804580D01*
X162307142Y-141804580D02*
X162259523Y-141852200D01*
X162259523Y-141852200D02*
X162164285Y-141899819D01*
X162164285Y-141899819D02*
X161973809Y-141899819D01*
X161973809Y-141899819D02*
X161878571Y-141852200D01*
X161878571Y-141852200D02*
X161830952Y-141804580D01*
X161830952Y-141804580D02*
X161783333Y-141709342D01*
X161783333Y-141709342D02*
X161783333Y-141471247D01*
X161783333Y-141471247D02*
X161830952Y-141376009D01*
X161830952Y-141376009D02*
X161878571Y-141328390D01*
X161878571Y-141328390D02*
X161973809Y-141280771D01*
X161973809Y-141280771D02*
X162164285Y-141280771D01*
X162164285Y-141280771D02*
X162259523Y-141328390D01*
X162259523Y-141328390D02*
X162307142Y-141376009D01*
X162307142Y-141376009D02*
X162354761Y-141471247D01*
X161402380Y-140995057D02*
X161354761Y-140947438D01*
X161354761Y-140947438D02*
X161259523Y-140899819D01*
X161259523Y-140899819D02*
X161021428Y-140899819D01*
X161021428Y-140899819D02*
X160926190Y-140947438D01*
X160926190Y-140947438D02*
X160878571Y-140995057D01*
X160878571Y-140995057D02*
X160830952Y-141090295D01*
X160830952Y-141090295D02*
X160830952Y-141185533D01*
X160830952Y-141185533D02*
X160878571Y-141328390D01*
X160878571Y-141328390D02*
X161449999Y-141899819D01*
X161449999Y-141899819D02*
X160830952Y-141899819D01*
D11*
G04 #@! TO.C,J162*
X167750000Y-152605000D02*
X167250000Y-152605000D01*
X167750000Y-151865000D02*
X167750000Y-152605000D01*
X167510000Y-152365000D02*
X157390000Y-152365000D01*
X167510000Y-151805000D02*
X157390000Y-151805000D01*
X167510000Y-150305000D02*
X157390000Y-150305000D01*
X167510000Y-145404000D02*
X157390000Y-145404000D01*
X167510000Y-142444000D02*
X167510000Y-152365000D01*
X167510000Y-142444000D02*
X157390000Y-142444000D01*
X161177000Y-148728000D02*
X161224000Y-148774000D01*
X160984000Y-148944000D02*
X161019000Y-148979000D01*
X158880000Y-146430000D02*
X158915000Y-146466000D01*
X158675000Y-146636000D02*
X158722000Y-146682000D01*
X157390000Y-142444000D02*
X157390000Y-152365000D01*
X166485427Y-148388042D02*
G75*
G03*
X166485000Y-147021000I-1535420J683041D01*
G01*
X164921195Y-149385252D02*
G75*
G03*
X165634000Y-149239999I28806J1680253D01*
G01*
X164266682Y-149239756D02*
G75*
G03*
X164950000Y-149385000I683318J1534756D01*
G01*
X165633042Y-146169573D02*
G75*
G03*
X164266000Y-146170000I-683041J-1535420D01*
G01*
X163414573Y-147021958D02*
G75*
G03*
X163415000Y-148389000I1535431J-683041D01*
G01*
X161630000Y-147705000D02*
G75*
G03*
X161630000Y-147705000I-1680000J0D01*
G01*
G04 #@! TD*
M02*
