G04 #@! TF.GenerationSoftware,KiCad,Pcbnew,7.0.7*
G04 #@! TF.CreationDate,2023-10-09T21:12:52+02:00*
G04 #@! TF.ProjectId,Kaboom_box_bottom,4b61626f-6f6d-45f6-926f-785f626f7474,rev?*
G04 #@! TF.SameCoordinates,Original*
G04 #@! TF.FileFunction,Paste,Top*
G04 #@! TF.FilePolarity,Positive*
%FSLAX46Y46*%
G04 Gerber Fmt 4.6, Leading zero omitted, Abs format (unit mm)*
G04 Created by KiCad (PCBNEW 7.0.7) date 2023-10-09 21:12:52*
%MOMM*%
%LPD*%
G01*
G04 APERTURE LIST*
%ADD10R,0.900000X0.800000*%
%ADD11R,0.900000X1.500000*%
%ADD12R,0.900000X2.500000*%
%ADD13R,0.900000X1.800000*%
%ADD14R,0.900000X2.800000*%
%ADD15R,1.000000X1.700000*%
%ADD16R,0.600000X1.070003*%
%ADD17R,0.806477X0.864008*%
%ADD18R,0.864008X0.806477*%
%ADD19R,1.132537X1.377013*%
%ADD20R,1.377013X1.132537*%
%ADD21R,0.800000X0.800000*%
%ADD22R,1.070003X0.600000*%
%ADD23O,0.602007X1.970993*%
%ADD24R,0.800000X0.900000*%
%ADD25R,1.000000X0.750013*%
%ADD26R,0.750013X1.000000*%
%ADD27R,1.539014X2.062510*%
%ADD28R,4.200000X1.400000*%
G04 APERTURE END LIST*
D10*
G04 #@! TO.C,C111*
X169500000Y-158950025D03*
X169500000Y-157549975D03*
G04 #@! TD*
D11*
G04 #@! TO.C,U117*
X144875032Y-77425070D03*
D12*
X143124968Y-77825121D03*
D13*
X143124968Y-80574930D03*
D14*
X144875032Y-80175133D03*
G04 #@! TD*
D15*
G04 #@! TO.C,U104*
X89600190Y-126700025D03*
X89600215Y-133299975D03*
X85899783Y-126700025D03*
X85899808Y-133299975D03*
G04 #@! TD*
D16*
G04 #@! TO.C,U106*
X89550038Y-117835077D03*
X91449962Y-117835077D03*
X90500000Y-115364923D03*
G04 #@! TD*
D11*
G04 #@! TO.C,U113*
X151875032Y-133425070D03*
D12*
X150124968Y-133825121D03*
D13*
X150124968Y-136574930D03*
D14*
X151875032Y-136175133D03*
G04 #@! TD*
D11*
G04 #@! TO.C,U112*
X151875032Y-119425070D03*
D12*
X150124968Y-119825121D03*
D13*
X150124968Y-122574930D03*
D14*
X151875032Y-122175133D03*
G04 #@! TD*
D17*
G04 #@! TO.C,R109*
X124253366Y-136000000D03*
X122746634Y-136000000D03*
G04 #@! TD*
D11*
G04 #@! TO.C,U129*
X137875032Y-133425070D03*
D12*
X136124968Y-133825121D03*
D13*
X136124968Y-136574930D03*
D14*
X137875032Y-136175133D03*
G04 #@! TD*
D11*
G04 #@! TO.C,U124*
X137875032Y-63425070D03*
D12*
X136124968Y-63825121D03*
D13*
X136124968Y-66574930D03*
D14*
X137875032Y-66175133D03*
G04 #@! TD*
D10*
G04 #@! TO.C,C104*
X141250000Y-128950025D03*
X141250000Y-127549975D03*
G04 #@! TD*
D17*
G04 #@! TO.C,R108*
X124253366Y-138500000D03*
X122746634Y-138500000D03*
G04 #@! TD*
D10*
G04 #@! TO.C,C101*
X148250000Y-73200025D03*
X148250000Y-71799975D03*
G04 #@! TD*
G04 #@! TO.C,C103*
X141250000Y-73200025D03*
X141250000Y-71799975D03*
G04 #@! TD*
D18*
G04 #@! TO.C,R118*
X105250000Y-85246634D03*
X105250000Y-86753366D03*
G04 #@! TD*
D17*
G04 #@! TO.C,R105*
X124253366Y-148800000D03*
X122746634Y-148800000D03*
G04 #@! TD*
D11*
G04 #@! TO.C,U121*
X144875032Y-133425070D03*
D12*
X143124968Y-133825121D03*
D13*
X143124968Y-136574930D03*
D14*
X144875032Y-136175133D03*
G04 #@! TD*
D11*
G04 #@! TO.C,U130*
X137875032Y-147425070D03*
D12*
X136124968Y-147825121D03*
D13*
X136124968Y-150574930D03*
D14*
X137875032Y-150175133D03*
G04 #@! TD*
D17*
G04 #@! TO.C,R111*
X124253366Y-123200000D03*
X122746634Y-123200000D03*
G04 #@! TD*
D11*
G04 #@! TO.C,U125*
X137875032Y-77425070D03*
D12*
X136124968Y-77825121D03*
D13*
X136124968Y-80574930D03*
D14*
X137875032Y-80175133D03*
G04 #@! TD*
D18*
G04 #@! TO.C,R116*
X105300000Y-68246634D03*
X105300000Y-69753366D03*
G04 #@! TD*
D19*
G04 #@! TO.C,R102*
X129850000Y-149750000D03*
X131850000Y-149750000D03*
G04 #@! TD*
D20*
G04 #@! TO.C,R101*
X90400000Y-148700000D03*
X90400000Y-150700000D03*
G04 #@! TD*
D21*
G04 #@! TO.C,LED102*
X103700533Y-66253429D03*
X105299467Y-66246571D03*
G04 #@! TD*
D22*
G04 #@! TO.C,U149*
X162614923Y-150600038D03*
X162614923Y-152499962D03*
X165085077Y-151550000D03*
G04 #@! TD*
D23*
G04 #@! TO.C,U139*
X166445009Y-157264415D03*
X165175006Y-157264415D03*
X163905004Y-157264415D03*
X162635001Y-157264415D03*
X161364999Y-157264415D03*
X160094996Y-157264415D03*
X158824994Y-157264415D03*
X157554991Y-157264415D03*
X157554991Y-162735585D03*
X158824994Y-162735585D03*
X160094996Y-162735585D03*
X161364999Y-162735585D03*
X162635001Y-162735585D03*
X163905004Y-162735585D03*
X165175006Y-162735585D03*
X166445009Y-162735585D03*
G04 #@! TD*
D17*
G04 #@! TO.C,R107*
X83053366Y-92000000D03*
X81546634Y-92000000D03*
G04 #@! TD*
D11*
G04 #@! TO.C,U135*
X130875032Y-105425070D03*
D12*
X129124968Y-105825121D03*
D13*
X129124968Y-108574930D03*
D14*
X130875032Y-108175133D03*
G04 #@! TD*
D24*
G04 #@! TO.C,C115*
X103799975Y-89100000D03*
X105200025Y-89100000D03*
G04 #@! TD*
D18*
G04 #@! TO.C,R114*
X105250000Y-50996634D03*
X105250000Y-52503366D03*
G04 #@! TD*
D11*
G04 #@! TO.C,U114*
X151875032Y-147425070D03*
D12*
X150124968Y-147825121D03*
D13*
X150124968Y-150574930D03*
D14*
X151875032Y-150175133D03*
G04 #@! TD*
D21*
G04 #@! TO.C,LED101*
X103700533Y-49049467D03*
X105299467Y-49042609D03*
G04 #@! TD*
D11*
G04 #@! TO.C,U132*
X130875032Y-63425070D03*
D12*
X129124968Y-63825121D03*
D13*
X129124968Y-66574930D03*
D14*
X130875032Y-66175133D03*
G04 #@! TD*
D10*
G04 #@! TO.C,C106*
X134000000Y-128700025D03*
X134000000Y-127299975D03*
G04 #@! TD*
D20*
G04 #@! TO.C,R120*
X159800000Y-150700000D03*
X159800000Y-152700000D03*
G04 #@! TD*
D11*
G04 #@! TO.C,U128*
X137875032Y-119425070D03*
D12*
X136124968Y-119825121D03*
D13*
X136124968Y-122574930D03*
D14*
X137875032Y-122175133D03*
G04 #@! TD*
D10*
G04 #@! TO.C,C107*
X126500000Y-73200025D03*
X126500000Y-71799975D03*
G04 #@! TD*
D11*
G04 #@! TO.C,U131*
X130875032Y-49425070D03*
D12*
X129124968Y-49825121D03*
D13*
X129124968Y-52574930D03*
D14*
X130875032Y-52175133D03*
G04 #@! TD*
D10*
G04 #@! TO.C,C109*
X197500000Y-158950025D03*
X197500000Y-157549975D03*
G04 #@! TD*
D17*
G04 #@! TO.C,R104*
X124253366Y-151150000D03*
X122746634Y-151150000D03*
G04 #@! TD*
D24*
G04 #@! TO.C,C114*
X103799975Y-71750000D03*
X105200025Y-71750000D03*
G04 #@! TD*
D23*
G04 #@! TO.C,U136*
X208445009Y-157264415D03*
X207175006Y-157264415D03*
X205905004Y-157264415D03*
X204635001Y-157264415D03*
X203364999Y-157264415D03*
X202094996Y-157264415D03*
X200824994Y-157264415D03*
X199554991Y-157264415D03*
X199554991Y-162735585D03*
X200824994Y-162735585D03*
X202094996Y-162735585D03*
X203364999Y-162735585D03*
X204635001Y-162735585D03*
X205905004Y-162735585D03*
X207175006Y-162735585D03*
X208445009Y-162735585D03*
G04 #@! TD*
D11*
G04 #@! TO.C,U133*
X130875032Y-77425070D03*
D12*
X129124968Y-77825121D03*
D13*
X129124968Y-80574930D03*
D14*
X130875032Y-80175133D03*
G04 #@! TD*
D18*
G04 #@! TO.C,R119*
X103750000Y-86753366D03*
X103750000Y-85246634D03*
G04 #@! TD*
D23*
G04 #@! TO.C,U137*
X194445009Y-157264415D03*
X193175006Y-157264415D03*
X191905004Y-157264415D03*
X190635001Y-157264415D03*
X189364999Y-157264415D03*
X188094996Y-157264415D03*
X186824994Y-157264415D03*
X185554991Y-157264415D03*
X185554991Y-162735585D03*
X186824994Y-162735585D03*
X188094996Y-162735585D03*
X189364999Y-162735585D03*
X190635001Y-162735585D03*
X191905004Y-162735585D03*
X193175006Y-162735585D03*
X194445009Y-162735585D03*
G04 #@! TD*
D11*
G04 #@! TO.C,U108*
X151875032Y-63425070D03*
D12*
X150124968Y-63825121D03*
D13*
X150124968Y-66574930D03*
D14*
X151875032Y-66175133D03*
G04 #@! TD*
D11*
G04 #@! TO.C,U126*
X137875032Y-91425070D03*
D12*
X136124968Y-91825121D03*
D13*
X136124968Y-94574930D03*
D14*
X137875032Y-94175133D03*
G04 #@! TD*
D11*
G04 #@! TO.C,U111*
X151875032Y-105425070D03*
D12*
X150124968Y-105825121D03*
D13*
X150124968Y-108574930D03*
D14*
X151875032Y-108175133D03*
G04 #@! TD*
D10*
G04 #@! TO.C,C105*
X134000000Y-73200025D03*
X134000000Y-71799975D03*
G04 #@! TD*
D11*
G04 #@! TO.C,U116*
X144875032Y-63425070D03*
D12*
X143124968Y-63825121D03*
D13*
X143124968Y-66574930D03*
D14*
X144875032Y-66175133D03*
G04 #@! TD*
D11*
G04 #@! TO.C,U123*
X137875032Y-49425070D03*
D12*
X136124968Y-49825121D03*
D13*
X136124968Y-52574930D03*
D14*
X137875032Y-52175133D03*
G04 #@! TD*
D21*
G04 #@! TO.C,LED103*
X103600533Y-83103429D03*
X105199467Y-83096571D03*
G04 #@! TD*
D15*
G04 #@! TO.C,U105*
X89850191Y-137700025D03*
X89850216Y-144299975D03*
X86149784Y-137700025D03*
X86149809Y-144299975D03*
G04 #@! TD*
D17*
G04 #@! TO.C,R110*
X124253366Y-125737354D03*
X122746634Y-125737354D03*
G04 #@! TD*
D10*
G04 #@! TO.C,C110*
X183500000Y-158950025D03*
X183500000Y-157549975D03*
G04 #@! TD*
D11*
G04 #@! TO.C,U115*
X144875032Y-49425070D03*
D12*
X143124968Y-49825121D03*
D13*
X143124968Y-52574930D03*
D14*
X144875032Y-52175133D03*
G04 #@! TD*
D25*
G04 #@! TO.C,D102*
X161027407Y-144700000D03*
X163372593Y-144700000D03*
G04 #@! TD*
D18*
G04 #@! TO.C,R117*
X103800000Y-69753366D03*
X103800000Y-68246634D03*
G04 #@! TD*
D17*
G04 #@! TO.C,R112*
X91853366Y-68300000D03*
X90346634Y-68300000D03*
G04 #@! TD*
D26*
G04 #@! TO.C,D101*
X93749999Y-113077407D03*
X93749999Y-115422593D03*
G04 #@! TD*
D10*
G04 #@! TO.C,C112*
X155500000Y-158950025D03*
X155500000Y-157549975D03*
G04 #@! TD*
D19*
G04 #@! TO.C,R113*
X89800000Y-119900000D03*
X91800000Y-119900000D03*
G04 #@! TD*
D11*
G04 #@! TO.C,U107*
X151875032Y-49425070D03*
D12*
X150124968Y-49825121D03*
D13*
X150124968Y-52574930D03*
D14*
X151875032Y-52175133D03*
G04 #@! TD*
D24*
G04 #@! TO.C,C113*
X103799975Y-54500000D03*
X105200025Y-54500000D03*
G04 #@! TD*
D11*
G04 #@! TO.C,U122*
X144875032Y-147425070D03*
D12*
X143124968Y-147825121D03*
D13*
X143124968Y-150574930D03*
D14*
X144875032Y-150175133D03*
G04 #@! TD*
D11*
G04 #@! TO.C,U134*
X130875032Y-91425070D03*
D12*
X129124968Y-91825121D03*
D13*
X129124968Y-94574930D03*
D14*
X130875032Y-94175133D03*
G04 #@! TD*
D27*
G04 #@! TO.C,U101*
X94200000Y-153703683D03*
X94200000Y-148696317D03*
G04 #@! TD*
D19*
G04 #@! TO.C,R103*
X129850000Y-152300000D03*
X131850000Y-152300000D03*
G04 #@! TD*
D17*
G04 #@! TO.C,R106*
X81596634Y-76050000D03*
X83103366Y-76050000D03*
G04 #@! TD*
D11*
G04 #@! TO.C,U118*
X144875032Y-91425070D03*
D12*
X143124968Y-91825121D03*
D13*
X143124968Y-94574930D03*
D14*
X144875032Y-94175133D03*
G04 #@! TD*
D11*
G04 #@! TO.C,U119*
X144875032Y-105425070D03*
D12*
X143124968Y-105825121D03*
D13*
X143124968Y-108574930D03*
D14*
X144875032Y-108175133D03*
G04 #@! TD*
D18*
G04 #@! TO.C,R115*
X103749467Y-52503366D03*
X103749467Y-50996634D03*
G04 #@! TD*
D11*
G04 #@! TO.C,U110*
X151875032Y-91425070D03*
D12*
X150124968Y-91825121D03*
D13*
X150124968Y-94574930D03*
D14*
X151875032Y-94175133D03*
G04 #@! TD*
D11*
G04 #@! TO.C,U127*
X137875032Y-105425070D03*
D12*
X136124968Y-105825121D03*
D13*
X136124968Y-108574930D03*
D14*
X137875032Y-108175133D03*
G04 #@! TD*
D28*
G04 #@! TO.C,C127*
X79832791Y-120350000D03*
X86367209Y-120350000D03*
G04 #@! TD*
D11*
G04 #@! TO.C,U109*
X151875032Y-77425070D03*
D12*
X150124968Y-77825121D03*
D13*
X150124968Y-80574930D03*
D14*
X151875032Y-80175133D03*
G04 #@! TD*
D11*
G04 #@! TO.C,U120*
X144875032Y-119425070D03*
D12*
X143124968Y-119825121D03*
D13*
X143124968Y-122574930D03*
D14*
X144875032Y-122175133D03*
G04 #@! TD*
D10*
G04 #@! TO.C,C102*
X148250000Y-128950025D03*
X148250000Y-127549975D03*
G04 #@! TD*
D23*
G04 #@! TO.C,U138*
X180445009Y-157264415D03*
X179175006Y-157264415D03*
X177905004Y-157264415D03*
X176635001Y-157264415D03*
X175364999Y-157264415D03*
X174094996Y-157264415D03*
X172824994Y-157264415D03*
X171554991Y-157264415D03*
X171554991Y-162735585D03*
X172824994Y-162735585D03*
X174094996Y-162735585D03*
X175364999Y-162735585D03*
X176635001Y-162735585D03*
X177905004Y-162735585D03*
X179175006Y-162735585D03*
X180445009Y-162735585D03*
G04 #@! TD*
M02*
