G04 #@! TF.GenerationSoftware,KiCad,Pcbnew,7.0.7*
G04 #@! TF.CreationDate,2023-10-09T21:12:52+02:00*
G04 #@! TF.ProjectId,Kaboom_box_bottom,4b61626f-6f6d-45f6-926f-785f626f7474,rev?*
G04 #@! TF.SameCoordinates,Original*
G04 #@! TF.FileFunction,Other,Comment*
%FSLAX46Y46*%
G04 Gerber Fmt 4.6, Leading zero omitted, Abs format (unit mm)*
G04 Created by KiCad (PCBNEW 7.0.7) date 2023-10-09 21:12:52*
%MOMM*%
%LPD*%
G01*
G04 APERTURE LIST*
%ADD10C,0.050000*%
%ADD11C,0.150000*%
%ADD12C,0.100000*%
G04 APERTURE END LIST*
D10*
X109936413Y-151640494D02*
X109825313Y-151640494D01*
X109777699Y-151465908D02*
X109936413Y-151465908D01*
X109936413Y-151465908D02*
X109936413Y-151799208D01*
X109936413Y-151799208D02*
X109777699Y-151799208D01*
X109666599Y-151465908D02*
X109492014Y-151688108D01*
X109666599Y-151688108D02*
X109492014Y-151465908D01*
X109365042Y-151688108D02*
X109365042Y-151354808D01*
X109365042Y-151672237D02*
X109333300Y-151688108D01*
X109333300Y-151688108D02*
X109269814Y-151688108D01*
X109269814Y-151688108D02*
X109238071Y-151672237D01*
X109238071Y-151672237D02*
X109222200Y-151656365D01*
X109222200Y-151656365D02*
X109206328Y-151624622D01*
X109206328Y-151624622D02*
X109206328Y-151529394D01*
X109206328Y-151529394D02*
X109222200Y-151497651D01*
X109222200Y-151497651D02*
X109238071Y-151481780D01*
X109238071Y-151481780D02*
X109269814Y-151465908D01*
X109269814Y-151465908D02*
X109333300Y-151465908D01*
X109333300Y-151465908D02*
X109365042Y-151481780D01*
X109015871Y-151465908D02*
X109047614Y-151481780D01*
X109047614Y-151481780D02*
X109063485Y-151497651D01*
X109063485Y-151497651D02*
X109079357Y-151529394D01*
X109079357Y-151529394D02*
X109079357Y-151624622D01*
X109079357Y-151624622D02*
X109063485Y-151656365D01*
X109063485Y-151656365D02*
X109047614Y-151672237D01*
X109047614Y-151672237D02*
X109015871Y-151688108D01*
X109015871Y-151688108D02*
X108968257Y-151688108D01*
X108968257Y-151688108D02*
X108936514Y-151672237D01*
X108936514Y-151672237D02*
X108920643Y-151656365D01*
X108920643Y-151656365D02*
X108904771Y-151624622D01*
X108904771Y-151624622D02*
X108904771Y-151529394D01*
X108904771Y-151529394D02*
X108920643Y-151497651D01*
X108920643Y-151497651D02*
X108936514Y-151481780D01*
X108936514Y-151481780D02*
X108968257Y-151465908D01*
X108968257Y-151465908D02*
X109015871Y-151465908D01*
X108777800Y-151481780D02*
X108746057Y-151465908D01*
X108746057Y-151465908D02*
X108682571Y-151465908D01*
X108682571Y-151465908D02*
X108650828Y-151481780D01*
X108650828Y-151481780D02*
X108634957Y-151513522D01*
X108634957Y-151513522D02*
X108634957Y-151529394D01*
X108634957Y-151529394D02*
X108650828Y-151561137D01*
X108650828Y-151561137D02*
X108682571Y-151577008D01*
X108682571Y-151577008D02*
X108730186Y-151577008D01*
X108730186Y-151577008D02*
X108761928Y-151592880D01*
X108761928Y-151592880D02*
X108777800Y-151624622D01*
X108777800Y-151624622D02*
X108777800Y-151640494D01*
X108777800Y-151640494D02*
X108761928Y-151672237D01*
X108761928Y-151672237D02*
X108730186Y-151688108D01*
X108730186Y-151688108D02*
X108682571Y-151688108D01*
X108682571Y-151688108D02*
X108650828Y-151672237D01*
X108365143Y-151481780D02*
X108396886Y-151465908D01*
X108396886Y-151465908D02*
X108460372Y-151465908D01*
X108460372Y-151465908D02*
X108492114Y-151481780D01*
X108492114Y-151481780D02*
X108507986Y-151513522D01*
X108507986Y-151513522D02*
X108507986Y-151640494D01*
X108507986Y-151640494D02*
X108492114Y-151672237D01*
X108492114Y-151672237D02*
X108460372Y-151688108D01*
X108460372Y-151688108D02*
X108396886Y-151688108D01*
X108396886Y-151688108D02*
X108365143Y-151672237D01*
X108365143Y-151672237D02*
X108349272Y-151640494D01*
X108349272Y-151640494D02*
X108349272Y-151608751D01*
X108349272Y-151608751D02*
X108507986Y-151577008D01*
X108063586Y-151465908D02*
X108063586Y-151799208D01*
X108063586Y-151481780D02*
X108095328Y-151465908D01*
X108095328Y-151465908D02*
X108158814Y-151465908D01*
X108158814Y-151465908D02*
X108190557Y-151481780D01*
X108190557Y-151481780D02*
X108206428Y-151497651D01*
X108206428Y-151497651D02*
X108222300Y-151529394D01*
X108222300Y-151529394D02*
X108222300Y-151624622D01*
X108222300Y-151624622D02*
X108206428Y-151656365D01*
X108206428Y-151656365D02*
X108190557Y-151672237D01*
X108190557Y-151672237D02*
X108158814Y-151688108D01*
X108158814Y-151688108D02*
X108095328Y-151688108D01*
X108095328Y-151688108D02*
X108063586Y-151672237D01*
X112206027Y-102257994D02*
X112094927Y-102257994D01*
X112047313Y-102083408D02*
X112206027Y-102083408D01*
X112206027Y-102083408D02*
X112206027Y-102416708D01*
X112206027Y-102416708D02*
X112047313Y-102416708D01*
X111936213Y-102083408D02*
X111761628Y-102305608D01*
X111936213Y-102305608D02*
X111761628Y-102083408D01*
X111634656Y-102305608D02*
X111634656Y-101972308D01*
X111634656Y-102289737D02*
X111602914Y-102305608D01*
X111602914Y-102305608D02*
X111539428Y-102305608D01*
X111539428Y-102305608D02*
X111507685Y-102289737D01*
X111507685Y-102289737D02*
X111491814Y-102273865D01*
X111491814Y-102273865D02*
X111475942Y-102242122D01*
X111475942Y-102242122D02*
X111475942Y-102146894D01*
X111475942Y-102146894D02*
X111491814Y-102115151D01*
X111491814Y-102115151D02*
X111507685Y-102099280D01*
X111507685Y-102099280D02*
X111539428Y-102083408D01*
X111539428Y-102083408D02*
X111602914Y-102083408D01*
X111602914Y-102083408D02*
X111634656Y-102099280D01*
X111285485Y-102083408D02*
X111317228Y-102099280D01*
X111317228Y-102099280D02*
X111333099Y-102115151D01*
X111333099Y-102115151D02*
X111348971Y-102146894D01*
X111348971Y-102146894D02*
X111348971Y-102242122D01*
X111348971Y-102242122D02*
X111333099Y-102273865D01*
X111333099Y-102273865D02*
X111317228Y-102289737D01*
X111317228Y-102289737D02*
X111285485Y-102305608D01*
X111285485Y-102305608D02*
X111237871Y-102305608D01*
X111237871Y-102305608D02*
X111206128Y-102289737D01*
X111206128Y-102289737D02*
X111190257Y-102273865D01*
X111190257Y-102273865D02*
X111174385Y-102242122D01*
X111174385Y-102242122D02*
X111174385Y-102146894D01*
X111174385Y-102146894D02*
X111190257Y-102115151D01*
X111190257Y-102115151D02*
X111206128Y-102099280D01*
X111206128Y-102099280D02*
X111237871Y-102083408D01*
X111237871Y-102083408D02*
X111285485Y-102083408D01*
X111047414Y-102099280D02*
X111015671Y-102083408D01*
X111015671Y-102083408D02*
X110952185Y-102083408D01*
X110952185Y-102083408D02*
X110920442Y-102099280D01*
X110920442Y-102099280D02*
X110904571Y-102131022D01*
X110904571Y-102131022D02*
X110904571Y-102146894D01*
X110904571Y-102146894D02*
X110920442Y-102178637D01*
X110920442Y-102178637D02*
X110952185Y-102194508D01*
X110952185Y-102194508D02*
X110999800Y-102194508D01*
X110999800Y-102194508D02*
X111031542Y-102210380D01*
X111031542Y-102210380D02*
X111047414Y-102242122D01*
X111047414Y-102242122D02*
X111047414Y-102257994D01*
X111047414Y-102257994D02*
X111031542Y-102289737D01*
X111031542Y-102289737D02*
X110999800Y-102305608D01*
X110999800Y-102305608D02*
X110952185Y-102305608D01*
X110952185Y-102305608D02*
X110920442Y-102289737D01*
X110634757Y-102099280D02*
X110666500Y-102083408D01*
X110666500Y-102083408D02*
X110729986Y-102083408D01*
X110729986Y-102083408D02*
X110761728Y-102099280D01*
X110761728Y-102099280D02*
X110777600Y-102131022D01*
X110777600Y-102131022D02*
X110777600Y-102257994D01*
X110777600Y-102257994D02*
X110761728Y-102289737D01*
X110761728Y-102289737D02*
X110729986Y-102305608D01*
X110729986Y-102305608D02*
X110666500Y-102305608D01*
X110666500Y-102305608D02*
X110634757Y-102289737D01*
X110634757Y-102289737D02*
X110618886Y-102257994D01*
X110618886Y-102257994D02*
X110618886Y-102226251D01*
X110618886Y-102226251D02*
X110777600Y-102194508D01*
X110333200Y-102083408D02*
X110333200Y-102416708D01*
X110333200Y-102099280D02*
X110364942Y-102083408D01*
X110364942Y-102083408D02*
X110428428Y-102083408D01*
X110428428Y-102083408D02*
X110460171Y-102099280D01*
X110460171Y-102099280D02*
X110476042Y-102115151D01*
X110476042Y-102115151D02*
X110491914Y-102146894D01*
X110491914Y-102146894D02*
X110491914Y-102242122D01*
X110491914Y-102242122D02*
X110476042Y-102273865D01*
X110476042Y-102273865D02*
X110460171Y-102289737D01*
X110460171Y-102289737D02*
X110428428Y-102305608D01*
X110428428Y-102305608D02*
X110364942Y-102305608D01*
X110364942Y-102305608D02*
X110333200Y-102289737D01*
X109730085Y-102115151D02*
X109745957Y-102099280D01*
X109745957Y-102099280D02*
X109793571Y-102083408D01*
X109793571Y-102083408D02*
X109825314Y-102083408D01*
X109825314Y-102083408D02*
X109872928Y-102099280D01*
X109872928Y-102099280D02*
X109904671Y-102131022D01*
X109904671Y-102131022D02*
X109920542Y-102162765D01*
X109920542Y-102162765D02*
X109936414Y-102226251D01*
X109936414Y-102226251D02*
X109936414Y-102273865D01*
X109936414Y-102273865D02*
X109920542Y-102337351D01*
X109920542Y-102337351D02*
X109904671Y-102369094D01*
X109904671Y-102369094D02*
X109872928Y-102400837D01*
X109872928Y-102400837D02*
X109825314Y-102416708D01*
X109825314Y-102416708D02*
X109793571Y-102416708D01*
X109793571Y-102416708D02*
X109745957Y-102400837D01*
X109745957Y-102400837D02*
X109730085Y-102384965D01*
X109539628Y-102083408D02*
X109571371Y-102099280D01*
X109571371Y-102099280D02*
X109587242Y-102115151D01*
X109587242Y-102115151D02*
X109603114Y-102146894D01*
X109603114Y-102146894D02*
X109603114Y-102242122D01*
X109603114Y-102242122D02*
X109587242Y-102273865D01*
X109587242Y-102273865D02*
X109571371Y-102289737D01*
X109571371Y-102289737D02*
X109539628Y-102305608D01*
X109539628Y-102305608D02*
X109492014Y-102305608D01*
X109492014Y-102305608D02*
X109460271Y-102289737D01*
X109460271Y-102289737D02*
X109444400Y-102273865D01*
X109444400Y-102273865D02*
X109428528Y-102242122D01*
X109428528Y-102242122D02*
X109428528Y-102146894D01*
X109428528Y-102146894D02*
X109444400Y-102115151D01*
X109444400Y-102115151D02*
X109460271Y-102099280D01*
X109460271Y-102099280D02*
X109492014Y-102083408D01*
X109492014Y-102083408D02*
X109539628Y-102083408D01*
X109285685Y-102305608D02*
X109285685Y-101972308D01*
X109285685Y-102289737D02*
X109253943Y-102305608D01*
X109253943Y-102305608D02*
X109190457Y-102305608D01*
X109190457Y-102305608D02*
X109158714Y-102289737D01*
X109158714Y-102289737D02*
X109142843Y-102273865D01*
X109142843Y-102273865D02*
X109126971Y-102242122D01*
X109126971Y-102242122D02*
X109126971Y-102146894D01*
X109126971Y-102146894D02*
X109142843Y-102115151D01*
X109142843Y-102115151D02*
X109158714Y-102099280D01*
X109158714Y-102099280D02*
X109190457Y-102083408D01*
X109190457Y-102083408D02*
X109253943Y-102083408D01*
X109253943Y-102083408D02*
X109285685Y-102099280D01*
X108984128Y-102305608D02*
X108984128Y-101972308D01*
X108984128Y-102289737D02*
X108952386Y-102305608D01*
X108952386Y-102305608D02*
X108888900Y-102305608D01*
X108888900Y-102305608D02*
X108857157Y-102289737D01*
X108857157Y-102289737D02*
X108841286Y-102273865D01*
X108841286Y-102273865D02*
X108825414Y-102242122D01*
X108825414Y-102242122D02*
X108825414Y-102146894D01*
X108825414Y-102146894D02*
X108841286Y-102115151D01*
X108841286Y-102115151D02*
X108857157Y-102099280D01*
X108857157Y-102099280D02*
X108888900Y-102083408D01*
X108888900Y-102083408D02*
X108952386Y-102083408D01*
X108952386Y-102083408D02*
X108984128Y-102099280D01*
X108555600Y-102099280D02*
X108587343Y-102083408D01*
X108587343Y-102083408D02*
X108650829Y-102083408D01*
X108650829Y-102083408D02*
X108682571Y-102099280D01*
X108682571Y-102099280D02*
X108698443Y-102131022D01*
X108698443Y-102131022D02*
X108698443Y-102257994D01*
X108698443Y-102257994D02*
X108682571Y-102289737D01*
X108682571Y-102289737D02*
X108650829Y-102305608D01*
X108650829Y-102305608D02*
X108587343Y-102305608D01*
X108587343Y-102305608D02*
X108555600Y-102289737D01*
X108555600Y-102289737D02*
X108539729Y-102257994D01*
X108539729Y-102257994D02*
X108539729Y-102226251D01*
X108539729Y-102226251D02*
X108698443Y-102194508D01*
X108396885Y-102083408D02*
X108396885Y-102305608D01*
X108396885Y-102242122D02*
X108381014Y-102273865D01*
X108381014Y-102273865D02*
X108365143Y-102289737D01*
X108365143Y-102289737D02*
X108333400Y-102305608D01*
X108333400Y-102305608D02*
X108301657Y-102305608D01*
X107936613Y-102083408D02*
X107936613Y-102416708D01*
X107746156Y-102083408D02*
X107888999Y-102273865D01*
X107746156Y-102416708D02*
X107936613Y-102226251D01*
X107476342Y-102099280D02*
X107508085Y-102083408D01*
X107508085Y-102083408D02*
X107571571Y-102083408D01*
X107571571Y-102083408D02*
X107603313Y-102099280D01*
X107603313Y-102099280D02*
X107619185Y-102131022D01*
X107619185Y-102131022D02*
X107619185Y-102257994D01*
X107619185Y-102257994D02*
X107603313Y-102289737D01*
X107603313Y-102289737D02*
X107571571Y-102305608D01*
X107571571Y-102305608D02*
X107508085Y-102305608D01*
X107508085Y-102305608D02*
X107476342Y-102289737D01*
X107476342Y-102289737D02*
X107460471Y-102257994D01*
X107460471Y-102257994D02*
X107460471Y-102226251D01*
X107460471Y-102226251D02*
X107619185Y-102194508D01*
X107190656Y-102099280D02*
X107222399Y-102083408D01*
X107222399Y-102083408D02*
X107285885Y-102083408D01*
X107285885Y-102083408D02*
X107317627Y-102099280D01*
X107317627Y-102099280D02*
X107333499Y-102131022D01*
X107333499Y-102131022D02*
X107333499Y-102257994D01*
X107333499Y-102257994D02*
X107317627Y-102289737D01*
X107317627Y-102289737D02*
X107285885Y-102305608D01*
X107285885Y-102305608D02*
X107222399Y-102305608D01*
X107222399Y-102305608D02*
X107190656Y-102289737D01*
X107190656Y-102289737D02*
X107174785Y-102257994D01*
X107174785Y-102257994D02*
X107174785Y-102226251D01*
X107174785Y-102226251D02*
X107333499Y-102194508D01*
X107031941Y-102305608D02*
X107031941Y-101972308D01*
X107031941Y-102289737D02*
X107000199Y-102305608D01*
X107000199Y-102305608D02*
X106936713Y-102305608D01*
X106936713Y-102305608D02*
X106904970Y-102289737D01*
X106904970Y-102289737D02*
X106889099Y-102273865D01*
X106889099Y-102273865D02*
X106873227Y-102242122D01*
X106873227Y-102242122D02*
X106873227Y-102146894D01*
X106873227Y-102146894D02*
X106889099Y-102115151D01*
X106889099Y-102115151D02*
X106904970Y-102099280D01*
X106904970Y-102099280D02*
X106936713Y-102083408D01*
X106936713Y-102083408D02*
X107000199Y-102083408D01*
X107000199Y-102083408D02*
X107031941Y-102099280D01*
X106412956Y-102416708D02*
X106349470Y-102416708D01*
X106349470Y-102416708D02*
X106317727Y-102400837D01*
X106317727Y-102400837D02*
X106285984Y-102369094D01*
X106285984Y-102369094D02*
X106270113Y-102305608D01*
X106270113Y-102305608D02*
X106270113Y-102194508D01*
X106270113Y-102194508D02*
X106285984Y-102131022D01*
X106285984Y-102131022D02*
X106317727Y-102099280D01*
X106317727Y-102099280D02*
X106349470Y-102083408D01*
X106349470Y-102083408D02*
X106412956Y-102083408D01*
X106412956Y-102083408D02*
X106444699Y-102099280D01*
X106444699Y-102099280D02*
X106476441Y-102131022D01*
X106476441Y-102131022D02*
X106492313Y-102194508D01*
X106492313Y-102194508D02*
X106492313Y-102305608D01*
X106492313Y-102305608D02*
X106476441Y-102369094D01*
X106476441Y-102369094D02*
X106444699Y-102400837D01*
X106444699Y-102400837D02*
X106412956Y-102416708D01*
X105984428Y-102305608D02*
X105984428Y-102083408D01*
X106127270Y-102305608D02*
X106127270Y-102131022D01*
X106127270Y-102131022D02*
X106111399Y-102099280D01*
X106111399Y-102099280D02*
X106079656Y-102083408D01*
X106079656Y-102083408D02*
X106032042Y-102083408D01*
X106032042Y-102083408D02*
X106000299Y-102099280D01*
X106000299Y-102099280D02*
X105984428Y-102115151D01*
X105873328Y-102305608D02*
X105746356Y-102305608D01*
X105825713Y-102416708D02*
X105825713Y-102131022D01*
X105825713Y-102131022D02*
X105809842Y-102099280D01*
X105809842Y-102099280D02*
X105778099Y-102083408D01*
X105778099Y-102083408D02*
X105746356Y-102083408D01*
D11*
X111761904Y-104930895D02*
X111285714Y-104930895D01*
X111857142Y-104645180D02*
X111523809Y-105645180D01*
X111523809Y-105645180D02*
X111190476Y-104645180D01*
X110857142Y-105311847D02*
X110857142Y-104645180D01*
X110857142Y-105216609D02*
X110809523Y-105264228D01*
X110809523Y-105264228D02*
X110714285Y-105311847D01*
X110714285Y-105311847D02*
X110571428Y-105311847D01*
X110571428Y-105311847D02*
X110476190Y-105264228D01*
X110476190Y-105264228D02*
X110428571Y-105168990D01*
X110428571Y-105168990D02*
X110428571Y-104645180D01*
X110095237Y-105311847D02*
X109714285Y-105311847D01*
X109952380Y-105645180D02*
X109952380Y-104788038D01*
X109952380Y-104788038D02*
X109904761Y-104692800D01*
X109904761Y-104692800D02*
X109809523Y-104645180D01*
X109809523Y-104645180D02*
X109714285Y-104645180D01*
X108999999Y-104692800D02*
X109095237Y-104645180D01*
X109095237Y-104645180D02*
X109285713Y-104645180D01*
X109285713Y-104645180D02*
X109380951Y-104692800D01*
X109380951Y-104692800D02*
X109428570Y-104788038D01*
X109428570Y-104788038D02*
X109428570Y-105168990D01*
X109428570Y-105168990D02*
X109380951Y-105264228D01*
X109380951Y-105264228D02*
X109285713Y-105311847D01*
X109285713Y-105311847D02*
X109095237Y-105311847D01*
X109095237Y-105311847D02*
X108999999Y-105264228D01*
X108999999Y-105264228D02*
X108952380Y-105168990D01*
X108952380Y-105168990D02*
X108952380Y-105073752D01*
X108952380Y-105073752D02*
X109428570Y-104978514D01*
X108523808Y-105311847D02*
X108523808Y-104645180D01*
X108523808Y-105216609D02*
X108476189Y-105264228D01*
X108476189Y-105264228D02*
X108380951Y-105311847D01*
X108380951Y-105311847D02*
X108238094Y-105311847D01*
X108238094Y-105311847D02*
X108142856Y-105264228D01*
X108142856Y-105264228D02*
X108095237Y-105168990D01*
X108095237Y-105168990D02*
X108095237Y-104645180D01*
X107619046Y-105311847D02*
X107619046Y-104645180D01*
X107619046Y-105216609D02*
X107571427Y-105264228D01*
X107571427Y-105264228D02*
X107476189Y-105311847D01*
X107476189Y-105311847D02*
X107333332Y-105311847D01*
X107333332Y-105311847D02*
X107238094Y-105264228D01*
X107238094Y-105264228D02*
X107190475Y-105168990D01*
X107190475Y-105168990D02*
X107190475Y-104645180D01*
X106285713Y-104645180D02*
X106285713Y-105168990D01*
X106285713Y-105168990D02*
X106333332Y-105264228D01*
X106333332Y-105264228D02*
X106428570Y-105311847D01*
X106428570Y-105311847D02*
X106619046Y-105311847D01*
X106619046Y-105311847D02*
X106714284Y-105264228D01*
X106285713Y-104692800D02*
X106380951Y-104645180D01*
X106380951Y-104645180D02*
X106619046Y-104645180D01*
X106619046Y-104645180D02*
X106714284Y-104692800D01*
X106714284Y-104692800D02*
X106761903Y-104788038D01*
X106761903Y-104788038D02*
X106761903Y-104883276D01*
X106761903Y-104883276D02*
X106714284Y-104978514D01*
X106714284Y-104978514D02*
X106619046Y-105026133D01*
X106619046Y-105026133D02*
X106380951Y-105026133D01*
X106380951Y-105026133D02*
X106285713Y-105073752D01*
X112214285Y-106860180D02*
X112214285Y-107860180D01*
X111642857Y-106860180D02*
X112071428Y-107431609D01*
X111642857Y-107860180D02*
X112214285Y-107288752D01*
X110833333Y-106907800D02*
X110928571Y-106860180D01*
X110928571Y-106860180D02*
X111119047Y-106860180D01*
X111119047Y-106860180D02*
X111214285Y-106907800D01*
X111214285Y-106907800D02*
X111261904Y-107003038D01*
X111261904Y-107003038D02*
X111261904Y-107383990D01*
X111261904Y-107383990D02*
X111214285Y-107479228D01*
X111214285Y-107479228D02*
X111119047Y-107526847D01*
X111119047Y-107526847D02*
X110928571Y-107526847D01*
X110928571Y-107526847D02*
X110833333Y-107479228D01*
X110833333Y-107479228D02*
X110785714Y-107383990D01*
X110785714Y-107383990D02*
X110785714Y-107288752D01*
X110785714Y-107288752D02*
X111261904Y-107193514D01*
X109976190Y-106907800D02*
X110071428Y-106860180D01*
X110071428Y-106860180D02*
X110261904Y-106860180D01*
X110261904Y-106860180D02*
X110357142Y-106907800D01*
X110357142Y-106907800D02*
X110404761Y-107003038D01*
X110404761Y-107003038D02*
X110404761Y-107383990D01*
X110404761Y-107383990D02*
X110357142Y-107479228D01*
X110357142Y-107479228D02*
X110261904Y-107526847D01*
X110261904Y-107526847D02*
X110071428Y-107526847D01*
X110071428Y-107526847D02*
X109976190Y-107479228D01*
X109976190Y-107479228D02*
X109928571Y-107383990D01*
X109928571Y-107383990D02*
X109928571Y-107288752D01*
X109928571Y-107288752D02*
X110404761Y-107193514D01*
X109499999Y-107526847D02*
X109499999Y-106526847D01*
X109499999Y-107479228D02*
X109404761Y-107526847D01*
X109404761Y-107526847D02*
X109214285Y-107526847D01*
X109214285Y-107526847D02*
X109119047Y-107479228D01*
X109119047Y-107479228D02*
X109071428Y-107431609D01*
X109071428Y-107431609D02*
X109023809Y-107336371D01*
X109023809Y-107336371D02*
X109023809Y-107050657D01*
X109023809Y-107050657D02*
X109071428Y-106955419D01*
X109071428Y-106955419D02*
X109119047Y-106907800D01*
X109119047Y-106907800D02*
X109214285Y-106860180D01*
X109214285Y-106860180D02*
X109404761Y-106860180D01*
X109404761Y-106860180D02*
X109499999Y-106907800D01*
X107642856Y-107860180D02*
X107452380Y-107860180D01*
X107452380Y-107860180D02*
X107357142Y-107812561D01*
X107357142Y-107812561D02*
X107261904Y-107717323D01*
X107261904Y-107717323D02*
X107214285Y-107526847D01*
X107214285Y-107526847D02*
X107214285Y-107193514D01*
X107214285Y-107193514D02*
X107261904Y-107003038D01*
X107261904Y-107003038D02*
X107357142Y-106907800D01*
X107357142Y-106907800D02*
X107452380Y-106860180D01*
X107452380Y-106860180D02*
X107642856Y-106860180D01*
X107642856Y-106860180D02*
X107738094Y-106907800D01*
X107738094Y-106907800D02*
X107833332Y-107003038D01*
X107833332Y-107003038D02*
X107880951Y-107193514D01*
X107880951Y-107193514D02*
X107880951Y-107526847D01*
X107880951Y-107526847D02*
X107833332Y-107717323D01*
X107833332Y-107717323D02*
X107738094Y-107812561D01*
X107738094Y-107812561D02*
X107642856Y-107860180D01*
X106357142Y-107526847D02*
X106357142Y-106860180D01*
X106785713Y-107526847D02*
X106785713Y-107003038D01*
X106785713Y-107003038D02*
X106738094Y-106907800D01*
X106738094Y-106907800D02*
X106642856Y-106860180D01*
X106642856Y-106860180D02*
X106499999Y-106860180D01*
X106499999Y-106860180D02*
X106404761Y-106907800D01*
X106404761Y-106907800D02*
X106357142Y-106955419D01*
X106023808Y-107526847D02*
X105642856Y-107526847D01*
X105880951Y-107860180D02*
X105880951Y-107003038D01*
X105880951Y-107003038D02*
X105833332Y-106907800D01*
X105833332Y-106907800D02*
X105738094Y-106860180D01*
X105738094Y-106860180D02*
X105642856Y-106860180D01*
D10*
X109523756Y-148165908D02*
X109523756Y-148499208D01*
X109333299Y-148165908D02*
X109476142Y-148356365D01*
X109333299Y-148499208D02*
X109523756Y-148308751D01*
X109063485Y-148181780D02*
X109095228Y-148165908D01*
X109095228Y-148165908D02*
X109158714Y-148165908D01*
X109158714Y-148165908D02*
X109190456Y-148181780D01*
X109190456Y-148181780D02*
X109206328Y-148213522D01*
X109206328Y-148213522D02*
X109206328Y-148340494D01*
X109206328Y-148340494D02*
X109190456Y-148372237D01*
X109190456Y-148372237D02*
X109158714Y-148388108D01*
X109158714Y-148388108D02*
X109095228Y-148388108D01*
X109095228Y-148388108D02*
X109063485Y-148372237D01*
X109063485Y-148372237D02*
X109047614Y-148340494D01*
X109047614Y-148340494D02*
X109047614Y-148308751D01*
X109047614Y-148308751D02*
X109206328Y-148277008D01*
X108777799Y-148181780D02*
X108809542Y-148165908D01*
X108809542Y-148165908D02*
X108873028Y-148165908D01*
X108873028Y-148165908D02*
X108904770Y-148181780D01*
X108904770Y-148181780D02*
X108920642Y-148213522D01*
X108920642Y-148213522D02*
X108920642Y-148340494D01*
X108920642Y-148340494D02*
X108904770Y-148372237D01*
X108904770Y-148372237D02*
X108873028Y-148388108D01*
X108873028Y-148388108D02*
X108809542Y-148388108D01*
X108809542Y-148388108D02*
X108777799Y-148372237D01*
X108777799Y-148372237D02*
X108761928Y-148340494D01*
X108761928Y-148340494D02*
X108761928Y-148308751D01*
X108761928Y-148308751D02*
X108920642Y-148277008D01*
X108619084Y-148388108D02*
X108619084Y-148054808D01*
X108619084Y-148372237D02*
X108587342Y-148388108D01*
X108587342Y-148388108D02*
X108523856Y-148388108D01*
X108523856Y-148388108D02*
X108492113Y-148372237D01*
X108492113Y-148372237D02*
X108476242Y-148356365D01*
X108476242Y-148356365D02*
X108460370Y-148324622D01*
X108460370Y-148324622D02*
X108460370Y-148229394D01*
X108460370Y-148229394D02*
X108476242Y-148197651D01*
X108476242Y-148197651D02*
X108492113Y-148181780D01*
X108492113Y-148181780D02*
X108523856Y-148165908D01*
X108523856Y-148165908D02*
X108587342Y-148165908D01*
X108587342Y-148165908D02*
X108619084Y-148181780D01*
D11*
X112738095Y-166280180D02*
X112738095Y-165470657D01*
X112738095Y-165470657D02*
X112690476Y-165375419D01*
X112690476Y-165375419D02*
X112642857Y-165327800D01*
X112642857Y-165327800D02*
X112547619Y-165280180D01*
X112547619Y-165280180D02*
X112357143Y-165280180D01*
X112357143Y-165280180D02*
X112261905Y-165327800D01*
X112261905Y-165327800D02*
X112214286Y-165375419D01*
X112214286Y-165375419D02*
X112166667Y-165470657D01*
X112166667Y-165470657D02*
X112166667Y-166280180D01*
X111738095Y-165327800D02*
X111595238Y-165280180D01*
X111595238Y-165280180D02*
X111357143Y-165280180D01*
X111357143Y-165280180D02*
X111261905Y-165327800D01*
X111261905Y-165327800D02*
X111214286Y-165375419D01*
X111214286Y-165375419D02*
X111166667Y-165470657D01*
X111166667Y-165470657D02*
X111166667Y-165565895D01*
X111166667Y-165565895D02*
X111214286Y-165661133D01*
X111214286Y-165661133D02*
X111261905Y-165708752D01*
X111261905Y-165708752D02*
X111357143Y-165756371D01*
X111357143Y-165756371D02*
X111547619Y-165803990D01*
X111547619Y-165803990D02*
X111642857Y-165851609D01*
X111642857Y-165851609D02*
X111690476Y-165899228D01*
X111690476Y-165899228D02*
X111738095Y-165994466D01*
X111738095Y-165994466D02*
X111738095Y-166089704D01*
X111738095Y-166089704D02*
X111690476Y-166184942D01*
X111690476Y-166184942D02*
X111642857Y-166232561D01*
X111642857Y-166232561D02*
X111547619Y-166280180D01*
X111547619Y-166280180D02*
X111309524Y-166280180D01*
X111309524Y-166280180D02*
X111166667Y-166232561D01*
X110404762Y-165803990D02*
X110261905Y-165756371D01*
X110261905Y-165756371D02*
X110214286Y-165708752D01*
X110214286Y-165708752D02*
X110166667Y-165613514D01*
X110166667Y-165613514D02*
X110166667Y-165470657D01*
X110166667Y-165470657D02*
X110214286Y-165375419D01*
X110214286Y-165375419D02*
X110261905Y-165327800D01*
X110261905Y-165327800D02*
X110357143Y-165280180D01*
X110357143Y-165280180D02*
X110738095Y-165280180D01*
X110738095Y-165280180D02*
X110738095Y-166280180D01*
X110738095Y-166280180D02*
X110404762Y-166280180D01*
X110404762Y-166280180D02*
X110309524Y-166232561D01*
X110309524Y-166232561D02*
X110261905Y-166184942D01*
X110261905Y-166184942D02*
X110214286Y-166089704D01*
X110214286Y-166089704D02*
X110214286Y-165994466D01*
X110214286Y-165994466D02*
X110261905Y-165899228D01*
X110261905Y-165899228D02*
X110309524Y-165851609D01*
X110309524Y-165851609D02*
X110404762Y-165803990D01*
X110404762Y-165803990D02*
X110738095Y-165803990D01*
X108404762Y-165375419D02*
X108452381Y-165327800D01*
X108452381Y-165327800D02*
X108595238Y-165280180D01*
X108595238Y-165280180D02*
X108690476Y-165280180D01*
X108690476Y-165280180D02*
X108833333Y-165327800D01*
X108833333Y-165327800D02*
X108928571Y-165423038D01*
X108928571Y-165423038D02*
X108976190Y-165518276D01*
X108976190Y-165518276D02*
X109023809Y-165708752D01*
X109023809Y-165708752D02*
X109023809Y-165851609D01*
X109023809Y-165851609D02*
X108976190Y-166042085D01*
X108976190Y-166042085D02*
X108928571Y-166137323D01*
X108928571Y-166137323D02*
X108833333Y-166232561D01*
X108833333Y-166232561D02*
X108690476Y-166280180D01*
X108690476Y-166280180D02*
X108595238Y-166280180D01*
X108595238Y-166280180D02*
X108452381Y-166232561D01*
X108452381Y-166232561D02*
X108404762Y-166184942D01*
X107547619Y-165280180D02*
X107547619Y-165803990D01*
X107547619Y-165803990D02*
X107595238Y-165899228D01*
X107595238Y-165899228D02*
X107690476Y-165946847D01*
X107690476Y-165946847D02*
X107880952Y-165946847D01*
X107880952Y-165946847D02*
X107976190Y-165899228D01*
X107547619Y-165327800D02*
X107642857Y-165280180D01*
X107642857Y-165280180D02*
X107880952Y-165280180D01*
X107880952Y-165280180D02*
X107976190Y-165327800D01*
X107976190Y-165327800D02*
X108023809Y-165423038D01*
X108023809Y-165423038D02*
X108023809Y-165518276D01*
X108023809Y-165518276D02*
X107976190Y-165613514D01*
X107976190Y-165613514D02*
X107880952Y-165661133D01*
X107880952Y-165661133D02*
X107642857Y-165661133D01*
X107642857Y-165661133D02*
X107547619Y-165708752D01*
X107071428Y-165280180D02*
X107071428Y-166280180D01*
X107071428Y-165899228D02*
X106976190Y-165946847D01*
X106976190Y-165946847D02*
X106785714Y-165946847D01*
X106785714Y-165946847D02*
X106690476Y-165899228D01*
X106690476Y-165899228D02*
X106642857Y-165851609D01*
X106642857Y-165851609D02*
X106595238Y-165756371D01*
X106595238Y-165756371D02*
X106595238Y-165470657D01*
X106595238Y-165470657D02*
X106642857Y-165375419D01*
X106642857Y-165375419D02*
X106690476Y-165327800D01*
X106690476Y-165327800D02*
X106785714Y-165280180D01*
X106785714Y-165280180D02*
X106976190Y-165280180D01*
X106976190Y-165280180D02*
X107071428Y-165327800D01*
X106023809Y-165280180D02*
X106119047Y-165327800D01*
X106119047Y-165327800D02*
X106166666Y-165423038D01*
X106166666Y-165423038D02*
X106166666Y-166280180D01*
X105261904Y-165327800D02*
X105357142Y-165280180D01*
X105357142Y-165280180D02*
X105547618Y-165280180D01*
X105547618Y-165280180D02*
X105642856Y-165327800D01*
X105642856Y-165327800D02*
X105690475Y-165423038D01*
X105690475Y-165423038D02*
X105690475Y-165803990D01*
X105690475Y-165803990D02*
X105642856Y-165899228D01*
X105642856Y-165899228D02*
X105547618Y-165946847D01*
X105547618Y-165946847D02*
X105357142Y-165946847D01*
X105357142Y-165946847D02*
X105261904Y-165899228D01*
X105261904Y-165899228D02*
X105214285Y-165803990D01*
X105214285Y-165803990D02*
X105214285Y-165708752D01*
X105214285Y-165708752D02*
X105690475Y-165613514D01*
D10*
X109277749Y-147864208D02*
X109214263Y-147864208D01*
X109214263Y-147864208D02*
X109182520Y-147848337D01*
X109182520Y-147848337D02*
X109150777Y-147816594D01*
X109150777Y-147816594D02*
X109134906Y-147753108D01*
X109134906Y-147753108D02*
X109134906Y-147642008D01*
X109134906Y-147642008D02*
X109150777Y-147578522D01*
X109150777Y-147578522D02*
X109182520Y-147546780D01*
X109182520Y-147546780D02*
X109214263Y-147530908D01*
X109214263Y-147530908D02*
X109277749Y-147530908D01*
X109277749Y-147530908D02*
X109309492Y-147546780D01*
X109309492Y-147546780D02*
X109341234Y-147578522D01*
X109341234Y-147578522D02*
X109357106Y-147642008D01*
X109357106Y-147642008D02*
X109357106Y-147753108D01*
X109357106Y-147753108D02*
X109341234Y-147816594D01*
X109341234Y-147816594D02*
X109309492Y-147848337D01*
X109309492Y-147848337D02*
X109277749Y-147864208D01*
X108849221Y-147753108D02*
X108849221Y-147530908D01*
X108992063Y-147753108D02*
X108992063Y-147578522D01*
X108992063Y-147578522D02*
X108976192Y-147546780D01*
X108976192Y-147546780D02*
X108944449Y-147530908D01*
X108944449Y-147530908D02*
X108896835Y-147530908D01*
X108896835Y-147530908D02*
X108865092Y-147546780D01*
X108865092Y-147546780D02*
X108849221Y-147562651D01*
X108738121Y-147753108D02*
X108611149Y-147753108D01*
X108690506Y-147864208D02*
X108690506Y-147578522D01*
X108690506Y-147578522D02*
X108674635Y-147546780D01*
X108674635Y-147546780D02*
X108642892Y-147530908D01*
X108642892Y-147530908D02*
X108611149Y-147530908D01*
X111522994Y-138793972D02*
X111522994Y-138905072D01*
X111348408Y-138952686D02*
X111348408Y-138793972D01*
X111348408Y-138793972D02*
X111681708Y-138793972D01*
X111681708Y-138793972D02*
X111681708Y-138952686D01*
X111348408Y-139063786D02*
X111570608Y-139238372D01*
X111570608Y-139063786D02*
X111348408Y-139238372D01*
X111570608Y-139365343D02*
X111237308Y-139365343D01*
X111554737Y-139365343D02*
X111570608Y-139397086D01*
X111570608Y-139397086D02*
X111570608Y-139460571D01*
X111570608Y-139460571D02*
X111554737Y-139492314D01*
X111554737Y-139492314D02*
X111538865Y-139508186D01*
X111538865Y-139508186D02*
X111507122Y-139524057D01*
X111507122Y-139524057D02*
X111411894Y-139524057D01*
X111411894Y-139524057D02*
X111380151Y-139508186D01*
X111380151Y-139508186D02*
X111364280Y-139492314D01*
X111364280Y-139492314D02*
X111348408Y-139460571D01*
X111348408Y-139460571D02*
X111348408Y-139397086D01*
X111348408Y-139397086D02*
X111364280Y-139365343D01*
X111348408Y-139714514D02*
X111364280Y-139682771D01*
X111364280Y-139682771D02*
X111380151Y-139666900D01*
X111380151Y-139666900D02*
X111411894Y-139651028D01*
X111411894Y-139651028D02*
X111507122Y-139651028D01*
X111507122Y-139651028D02*
X111538865Y-139666900D01*
X111538865Y-139666900D02*
X111554737Y-139682771D01*
X111554737Y-139682771D02*
X111570608Y-139714514D01*
X111570608Y-139714514D02*
X111570608Y-139762128D01*
X111570608Y-139762128D02*
X111554737Y-139793871D01*
X111554737Y-139793871D02*
X111538865Y-139809743D01*
X111538865Y-139809743D02*
X111507122Y-139825614D01*
X111507122Y-139825614D02*
X111411894Y-139825614D01*
X111411894Y-139825614D02*
X111380151Y-139809743D01*
X111380151Y-139809743D02*
X111364280Y-139793871D01*
X111364280Y-139793871D02*
X111348408Y-139762128D01*
X111348408Y-139762128D02*
X111348408Y-139714514D01*
X111364280Y-139952585D02*
X111348408Y-139984328D01*
X111348408Y-139984328D02*
X111348408Y-140047814D01*
X111348408Y-140047814D02*
X111364280Y-140079557D01*
X111364280Y-140079557D02*
X111396022Y-140095428D01*
X111396022Y-140095428D02*
X111411894Y-140095428D01*
X111411894Y-140095428D02*
X111443637Y-140079557D01*
X111443637Y-140079557D02*
X111459508Y-140047814D01*
X111459508Y-140047814D02*
X111459508Y-140000200D01*
X111459508Y-140000200D02*
X111475380Y-139968457D01*
X111475380Y-139968457D02*
X111507122Y-139952585D01*
X111507122Y-139952585D02*
X111522994Y-139952585D01*
X111522994Y-139952585D02*
X111554737Y-139968457D01*
X111554737Y-139968457D02*
X111570608Y-140000200D01*
X111570608Y-140000200D02*
X111570608Y-140047814D01*
X111570608Y-140047814D02*
X111554737Y-140079557D01*
X111364280Y-140365242D02*
X111348408Y-140333499D01*
X111348408Y-140333499D02*
X111348408Y-140270014D01*
X111348408Y-140270014D02*
X111364280Y-140238271D01*
X111364280Y-140238271D02*
X111396022Y-140222399D01*
X111396022Y-140222399D02*
X111522994Y-140222399D01*
X111522994Y-140222399D02*
X111554737Y-140238271D01*
X111554737Y-140238271D02*
X111570608Y-140270014D01*
X111570608Y-140270014D02*
X111570608Y-140333499D01*
X111570608Y-140333499D02*
X111554737Y-140365242D01*
X111554737Y-140365242D02*
X111522994Y-140381114D01*
X111522994Y-140381114D02*
X111491251Y-140381114D01*
X111491251Y-140381114D02*
X111459508Y-140222399D01*
X111348408Y-140666800D02*
X111681708Y-140666800D01*
X111364280Y-140666800D02*
X111348408Y-140635057D01*
X111348408Y-140635057D02*
X111348408Y-140571571D01*
X111348408Y-140571571D02*
X111364280Y-140539828D01*
X111364280Y-140539828D02*
X111380151Y-140523957D01*
X111380151Y-140523957D02*
X111411894Y-140508085D01*
X111411894Y-140508085D02*
X111507122Y-140508085D01*
X111507122Y-140508085D02*
X111538865Y-140523957D01*
X111538865Y-140523957D02*
X111554737Y-140539828D01*
X111554737Y-140539828D02*
X111570608Y-140571571D01*
X111570608Y-140571571D02*
X111570608Y-140635057D01*
X111570608Y-140635057D02*
X111554737Y-140666800D01*
X111380151Y-141269914D02*
X111364280Y-141254042D01*
X111364280Y-141254042D02*
X111348408Y-141206428D01*
X111348408Y-141206428D02*
X111348408Y-141174685D01*
X111348408Y-141174685D02*
X111364280Y-141127071D01*
X111364280Y-141127071D02*
X111396022Y-141095328D01*
X111396022Y-141095328D02*
X111427765Y-141079457D01*
X111427765Y-141079457D02*
X111491251Y-141063585D01*
X111491251Y-141063585D02*
X111538865Y-141063585D01*
X111538865Y-141063585D02*
X111602351Y-141079457D01*
X111602351Y-141079457D02*
X111634094Y-141095328D01*
X111634094Y-141095328D02*
X111665837Y-141127071D01*
X111665837Y-141127071D02*
X111681708Y-141174685D01*
X111681708Y-141174685D02*
X111681708Y-141206428D01*
X111681708Y-141206428D02*
X111665837Y-141254042D01*
X111665837Y-141254042D02*
X111649965Y-141269914D01*
X111348408Y-141460371D02*
X111364280Y-141428628D01*
X111364280Y-141428628D02*
X111380151Y-141412757D01*
X111380151Y-141412757D02*
X111411894Y-141396885D01*
X111411894Y-141396885D02*
X111507122Y-141396885D01*
X111507122Y-141396885D02*
X111538865Y-141412757D01*
X111538865Y-141412757D02*
X111554737Y-141428628D01*
X111554737Y-141428628D02*
X111570608Y-141460371D01*
X111570608Y-141460371D02*
X111570608Y-141507985D01*
X111570608Y-141507985D02*
X111554737Y-141539728D01*
X111554737Y-141539728D02*
X111538865Y-141555600D01*
X111538865Y-141555600D02*
X111507122Y-141571471D01*
X111507122Y-141571471D02*
X111411894Y-141571471D01*
X111411894Y-141571471D02*
X111380151Y-141555600D01*
X111380151Y-141555600D02*
X111364280Y-141539728D01*
X111364280Y-141539728D02*
X111348408Y-141507985D01*
X111348408Y-141507985D02*
X111348408Y-141460371D01*
X111570608Y-141714314D02*
X111237308Y-141714314D01*
X111554737Y-141714314D02*
X111570608Y-141746057D01*
X111570608Y-141746057D02*
X111570608Y-141809542D01*
X111570608Y-141809542D02*
X111554737Y-141841285D01*
X111554737Y-141841285D02*
X111538865Y-141857157D01*
X111538865Y-141857157D02*
X111507122Y-141873028D01*
X111507122Y-141873028D02*
X111411894Y-141873028D01*
X111411894Y-141873028D02*
X111380151Y-141857157D01*
X111380151Y-141857157D02*
X111364280Y-141841285D01*
X111364280Y-141841285D02*
X111348408Y-141809542D01*
X111348408Y-141809542D02*
X111348408Y-141746057D01*
X111348408Y-141746057D02*
X111364280Y-141714314D01*
X111570608Y-142015871D02*
X111237308Y-142015871D01*
X111554737Y-142015871D02*
X111570608Y-142047614D01*
X111570608Y-142047614D02*
X111570608Y-142111099D01*
X111570608Y-142111099D02*
X111554737Y-142142842D01*
X111554737Y-142142842D02*
X111538865Y-142158714D01*
X111538865Y-142158714D02*
X111507122Y-142174585D01*
X111507122Y-142174585D02*
X111411894Y-142174585D01*
X111411894Y-142174585D02*
X111380151Y-142158714D01*
X111380151Y-142158714D02*
X111364280Y-142142842D01*
X111364280Y-142142842D02*
X111348408Y-142111099D01*
X111348408Y-142111099D02*
X111348408Y-142047614D01*
X111348408Y-142047614D02*
X111364280Y-142015871D01*
X111364280Y-142444399D02*
X111348408Y-142412656D01*
X111348408Y-142412656D02*
X111348408Y-142349171D01*
X111348408Y-142349171D02*
X111364280Y-142317428D01*
X111364280Y-142317428D02*
X111396022Y-142301556D01*
X111396022Y-142301556D02*
X111522994Y-142301556D01*
X111522994Y-142301556D02*
X111554737Y-142317428D01*
X111554737Y-142317428D02*
X111570608Y-142349171D01*
X111570608Y-142349171D02*
X111570608Y-142412656D01*
X111570608Y-142412656D02*
X111554737Y-142444399D01*
X111554737Y-142444399D02*
X111522994Y-142460271D01*
X111522994Y-142460271D02*
X111491251Y-142460271D01*
X111491251Y-142460271D02*
X111459508Y-142301556D01*
X111348408Y-142603114D02*
X111570608Y-142603114D01*
X111507122Y-142603114D02*
X111538865Y-142618985D01*
X111538865Y-142618985D02*
X111554737Y-142634857D01*
X111554737Y-142634857D02*
X111570608Y-142666599D01*
X111570608Y-142666599D02*
X111570608Y-142698342D01*
X111348408Y-143063386D02*
X111681708Y-143063386D01*
X111348408Y-143253843D02*
X111538865Y-143111000D01*
X111681708Y-143253843D02*
X111491251Y-143063386D01*
X111364280Y-143523657D02*
X111348408Y-143491914D01*
X111348408Y-143491914D02*
X111348408Y-143428429D01*
X111348408Y-143428429D02*
X111364280Y-143396686D01*
X111364280Y-143396686D02*
X111396022Y-143380814D01*
X111396022Y-143380814D02*
X111522994Y-143380814D01*
X111522994Y-143380814D02*
X111554737Y-143396686D01*
X111554737Y-143396686D02*
X111570608Y-143428429D01*
X111570608Y-143428429D02*
X111570608Y-143491914D01*
X111570608Y-143491914D02*
X111554737Y-143523657D01*
X111554737Y-143523657D02*
X111522994Y-143539529D01*
X111522994Y-143539529D02*
X111491251Y-143539529D01*
X111491251Y-143539529D02*
X111459508Y-143380814D01*
X111364280Y-143809343D02*
X111348408Y-143777600D01*
X111348408Y-143777600D02*
X111348408Y-143714115D01*
X111348408Y-143714115D02*
X111364280Y-143682372D01*
X111364280Y-143682372D02*
X111396022Y-143666500D01*
X111396022Y-143666500D02*
X111522994Y-143666500D01*
X111522994Y-143666500D02*
X111554737Y-143682372D01*
X111554737Y-143682372D02*
X111570608Y-143714115D01*
X111570608Y-143714115D02*
X111570608Y-143777600D01*
X111570608Y-143777600D02*
X111554737Y-143809343D01*
X111554737Y-143809343D02*
X111522994Y-143825215D01*
X111522994Y-143825215D02*
X111491251Y-143825215D01*
X111491251Y-143825215D02*
X111459508Y-143666500D01*
X111570608Y-143968058D02*
X111237308Y-143968058D01*
X111554737Y-143968058D02*
X111570608Y-143999801D01*
X111570608Y-143999801D02*
X111570608Y-144063286D01*
X111570608Y-144063286D02*
X111554737Y-144095029D01*
X111554737Y-144095029D02*
X111538865Y-144110901D01*
X111538865Y-144110901D02*
X111507122Y-144126772D01*
X111507122Y-144126772D02*
X111411894Y-144126772D01*
X111411894Y-144126772D02*
X111380151Y-144110901D01*
X111380151Y-144110901D02*
X111364280Y-144095029D01*
X111364280Y-144095029D02*
X111348408Y-144063286D01*
X111348408Y-144063286D02*
X111348408Y-143999801D01*
X111348408Y-143999801D02*
X111364280Y-143968058D01*
X111681708Y-144587043D02*
X111681708Y-144650529D01*
X111681708Y-144650529D02*
X111665837Y-144682272D01*
X111665837Y-144682272D02*
X111634094Y-144714015D01*
X111634094Y-144714015D02*
X111570608Y-144729886D01*
X111570608Y-144729886D02*
X111459508Y-144729886D01*
X111459508Y-144729886D02*
X111396022Y-144714015D01*
X111396022Y-144714015D02*
X111364280Y-144682272D01*
X111364280Y-144682272D02*
X111348408Y-144650529D01*
X111348408Y-144650529D02*
X111348408Y-144587043D01*
X111348408Y-144587043D02*
X111364280Y-144555301D01*
X111364280Y-144555301D02*
X111396022Y-144523558D01*
X111396022Y-144523558D02*
X111459508Y-144507686D01*
X111459508Y-144507686D02*
X111570608Y-144507686D01*
X111570608Y-144507686D02*
X111634094Y-144523558D01*
X111634094Y-144523558D02*
X111665837Y-144555301D01*
X111665837Y-144555301D02*
X111681708Y-144587043D01*
X111570608Y-145015572D02*
X111348408Y-145015572D01*
X111570608Y-144872729D02*
X111396022Y-144872729D01*
X111396022Y-144872729D02*
X111364280Y-144888600D01*
X111364280Y-144888600D02*
X111348408Y-144920343D01*
X111348408Y-144920343D02*
X111348408Y-144967957D01*
X111348408Y-144967957D02*
X111364280Y-144999700D01*
X111364280Y-144999700D02*
X111380151Y-145015572D01*
X111570608Y-145126671D02*
X111570608Y-145253643D01*
X111681708Y-145174286D02*
X111396022Y-145174286D01*
X111396022Y-145174286D02*
X111364280Y-145190157D01*
X111364280Y-145190157D02*
X111348408Y-145221900D01*
X111348408Y-145221900D02*
X111348408Y-145253643D01*
D11*
X112214285Y-162740180D02*
X112214285Y-163740180D01*
X111642857Y-162740180D02*
X112071428Y-163311609D01*
X111642857Y-163740180D02*
X112214285Y-163168752D01*
X110833333Y-162787800D02*
X110928571Y-162740180D01*
X110928571Y-162740180D02*
X111119047Y-162740180D01*
X111119047Y-162740180D02*
X111214285Y-162787800D01*
X111214285Y-162787800D02*
X111261904Y-162883038D01*
X111261904Y-162883038D02*
X111261904Y-163263990D01*
X111261904Y-163263990D02*
X111214285Y-163359228D01*
X111214285Y-163359228D02*
X111119047Y-163406847D01*
X111119047Y-163406847D02*
X110928571Y-163406847D01*
X110928571Y-163406847D02*
X110833333Y-163359228D01*
X110833333Y-163359228D02*
X110785714Y-163263990D01*
X110785714Y-163263990D02*
X110785714Y-163168752D01*
X110785714Y-163168752D02*
X111261904Y-163073514D01*
X109976190Y-162787800D02*
X110071428Y-162740180D01*
X110071428Y-162740180D02*
X110261904Y-162740180D01*
X110261904Y-162740180D02*
X110357142Y-162787800D01*
X110357142Y-162787800D02*
X110404761Y-162883038D01*
X110404761Y-162883038D02*
X110404761Y-163263990D01*
X110404761Y-163263990D02*
X110357142Y-163359228D01*
X110357142Y-163359228D02*
X110261904Y-163406847D01*
X110261904Y-163406847D02*
X110071428Y-163406847D01*
X110071428Y-163406847D02*
X109976190Y-163359228D01*
X109976190Y-163359228D02*
X109928571Y-163263990D01*
X109928571Y-163263990D02*
X109928571Y-163168752D01*
X109928571Y-163168752D02*
X110404761Y-163073514D01*
X109499999Y-163406847D02*
X109499999Y-162406847D01*
X109499999Y-163359228D02*
X109404761Y-163406847D01*
X109404761Y-163406847D02*
X109214285Y-163406847D01*
X109214285Y-163406847D02*
X109119047Y-163359228D01*
X109119047Y-163359228D02*
X109071428Y-163311609D01*
X109071428Y-163311609D02*
X109023809Y-163216371D01*
X109023809Y-163216371D02*
X109023809Y-162930657D01*
X109023809Y-162930657D02*
X109071428Y-162835419D01*
X109071428Y-162835419D02*
X109119047Y-162787800D01*
X109119047Y-162787800D02*
X109214285Y-162740180D01*
X109214285Y-162740180D02*
X109404761Y-162740180D01*
X109404761Y-162740180D02*
X109499999Y-162787800D01*
X107642856Y-163740180D02*
X107452380Y-163740180D01*
X107452380Y-163740180D02*
X107357142Y-163692561D01*
X107357142Y-163692561D02*
X107261904Y-163597323D01*
X107261904Y-163597323D02*
X107214285Y-163406847D01*
X107214285Y-163406847D02*
X107214285Y-163073514D01*
X107214285Y-163073514D02*
X107261904Y-162883038D01*
X107261904Y-162883038D02*
X107357142Y-162787800D01*
X107357142Y-162787800D02*
X107452380Y-162740180D01*
X107452380Y-162740180D02*
X107642856Y-162740180D01*
X107642856Y-162740180D02*
X107738094Y-162787800D01*
X107738094Y-162787800D02*
X107833332Y-162883038D01*
X107833332Y-162883038D02*
X107880951Y-163073514D01*
X107880951Y-163073514D02*
X107880951Y-163406847D01*
X107880951Y-163406847D02*
X107833332Y-163597323D01*
X107833332Y-163597323D02*
X107738094Y-163692561D01*
X107738094Y-163692561D02*
X107642856Y-163740180D01*
X106357142Y-163406847D02*
X106357142Y-162740180D01*
X106785713Y-163406847D02*
X106785713Y-162883038D01*
X106785713Y-162883038D02*
X106738094Y-162787800D01*
X106738094Y-162787800D02*
X106642856Y-162740180D01*
X106642856Y-162740180D02*
X106499999Y-162740180D01*
X106499999Y-162740180D02*
X106404761Y-162787800D01*
X106404761Y-162787800D02*
X106357142Y-162835419D01*
X106023808Y-163406847D02*
X105642856Y-163406847D01*
X105880951Y-163740180D02*
X105880951Y-162883038D01*
X105880951Y-162883038D02*
X105833332Y-162787800D01*
X105833332Y-162787800D02*
X105738094Y-162740180D01*
X105738094Y-162740180D02*
X105642856Y-162740180D01*
D10*
X109595178Y-150862651D02*
X109611050Y-150846780D01*
X109611050Y-150846780D02*
X109658664Y-150830908D01*
X109658664Y-150830908D02*
X109690407Y-150830908D01*
X109690407Y-150830908D02*
X109738021Y-150846780D01*
X109738021Y-150846780D02*
X109769764Y-150878522D01*
X109769764Y-150878522D02*
X109785635Y-150910265D01*
X109785635Y-150910265D02*
X109801507Y-150973751D01*
X109801507Y-150973751D02*
X109801507Y-151021365D01*
X109801507Y-151021365D02*
X109785635Y-151084851D01*
X109785635Y-151084851D02*
X109769764Y-151116594D01*
X109769764Y-151116594D02*
X109738021Y-151148337D01*
X109738021Y-151148337D02*
X109690407Y-151164208D01*
X109690407Y-151164208D02*
X109658664Y-151164208D01*
X109658664Y-151164208D02*
X109611050Y-151148337D01*
X109611050Y-151148337D02*
X109595178Y-151132465D01*
X109404721Y-150830908D02*
X109436464Y-150846780D01*
X109436464Y-150846780D02*
X109452335Y-150862651D01*
X109452335Y-150862651D02*
X109468207Y-150894394D01*
X109468207Y-150894394D02*
X109468207Y-150989622D01*
X109468207Y-150989622D02*
X109452335Y-151021365D01*
X109452335Y-151021365D02*
X109436464Y-151037237D01*
X109436464Y-151037237D02*
X109404721Y-151053108D01*
X109404721Y-151053108D02*
X109357107Y-151053108D01*
X109357107Y-151053108D02*
X109325364Y-151037237D01*
X109325364Y-151037237D02*
X109309493Y-151021365D01*
X109309493Y-151021365D02*
X109293621Y-150989622D01*
X109293621Y-150989622D02*
X109293621Y-150894394D01*
X109293621Y-150894394D02*
X109309493Y-150862651D01*
X109309493Y-150862651D02*
X109325364Y-150846780D01*
X109325364Y-150846780D02*
X109357107Y-150830908D01*
X109357107Y-150830908D02*
X109404721Y-150830908D01*
X109150778Y-151053108D02*
X109150778Y-150719808D01*
X109150778Y-151037237D02*
X109119036Y-151053108D01*
X109119036Y-151053108D02*
X109055550Y-151053108D01*
X109055550Y-151053108D02*
X109023807Y-151037237D01*
X109023807Y-151037237D02*
X109007936Y-151021365D01*
X109007936Y-151021365D02*
X108992064Y-150989622D01*
X108992064Y-150989622D02*
X108992064Y-150894394D01*
X108992064Y-150894394D02*
X109007936Y-150862651D01*
X109007936Y-150862651D02*
X109023807Y-150846780D01*
X109023807Y-150846780D02*
X109055550Y-150830908D01*
X109055550Y-150830908D02*
X109119036Y-150830908D01*
X109119036Y-150830908D02*
X109150778Y-150846780D01*
X108849221Y-151053108D02*
X108849221Y-150719808D01*
X108849221Y-151037237D02*
X108817479Y-151053108D01*
X108817479Y-151053108D02*
X108753993Y-151053108D01*
X108753993Y-151053108D02*
X108722250Y-151037237D01*
X108722250Y-151037237D02*
X108706379Y-151021365D01*
X108706379Y-151021365D02*
X108690507Y-150989622D01*
X108690507Y-150989622D02*
X108690507Y-150894394D01*
X108690507Y-150894394D02*
X108706379Y-150862651D01*
X108706379Y-150862651D02*
X108722250Y-150846780D01*
X108722250Y-150846780D02*
X108753993Y-150830908D01*
X108753993Y-150830908D02*
X108817479Y-150830908D01*
X108817479Y-150830908D02*
X108849221Y-150846780D01*
X108420693Y-150846780D02*
X108452436Y-150830908D01*
X108452436Y-150830908D02*
X108515922Y-150830908D01*
X108515922Y-150830908D02*
X108547664Y-150846780D01*
X108547664Y-150846780D02*
X108563536Y-150878522D01*
X108563536Y-150878522D02*
X108563536Y-151005494D01*
X108563536Y-151005494D02*
X108547664Y-151037237D01*
X108547664Y-151037237D02*
X108515922Y-151053108D01*
X108515922Y-151053108D02*
X108452436Y-151053108D01*
X108452436Y-151053108D02*
X108420693Y-151037237D01*
X108420693Y-151037237D02*
X108404822Y-151005494D01*
X108404822Y-151005494D02*
X108404822Y-150973751D01*
X108404822Y-150973751D02*
X108563536Y-150942008D01*
X108261978Y-150830908D02*
X108261978Y-151053108D01*
X108261978Y-150989622D02*
X108246107Y-151021365D01*
X108246107Y-151021365D02*
X108230236Y-151037237D01*
X108230236Y-151037237D02*
X108198493Y-151053108D01*
X108198493Y-151053108D02*
X108166750Y-151053108D01*
D12*
X101969004Y-170989136D02*
X102000752Y-170893893D01*
X102000752Y-170893893D02*
X102032500Y-170862146D01*
X102032500Y-170862146D02*
X102095995Y-170830398D01*
X102095995Y-170830398D02*
X102191238Y-170830398D01*
X102191238Y-170830398D02*
X102254733Y-170862146D01*
X102254733Y-170862146D02*
X102286481Y-170893893D01*
X102286481Y-170893893D02*
X102318228Y-170957388D01*
X102318228Y-170957388D02*
X102318228Y-171211369D01*
X102318228Y-171211369D02*
X101651528Y-171211369D01*
X101651528Y-171211369D02*
X101651528Y-170989136D01*
X101651528Y-170989136D02*
X101683276Y-170925641D01*
X101683276Y-170925641D02*
X101715023Y-170893893D01*
X101715023Y-170893893D02*
X101778519Y-170862146D01*
X101778519Y-170862146D02*
X101842014Y-170862146D01*
X101842014Y-170862146D02*
X101905509Y-170893893D01*
X101905509Y-170893893D02*
X101937257Y-170925641D01*
X101937257Y-170925641D02*
X101969004Y-170989136D01*
X101969004Y-170989136D02*
X101969004Y-171211369D01*
X102318228Y-170449427D02*
X102286481Y-170512922D01*
X102286481Y-170512922D02*
X102254733Y-170544669D01*
X102254733Y-170544669D02*
X102191238Y-170576417D01*
X102191238Y-170576417D02*
X102000752Y-170576417D01*
X102000752Y-170576417D02*
X101937257Y-170544669D01*
X101937257Y-170544669D02*
X101905509Y-170512922D01*
X101905509Y-170512922D02*
X101873761Y-170449427D01*
X101873761Y-170449427D02*
X101873761Y-170354184D01*
X101873761Y-170354184D02*
X101905509Y-170290688D01*
X101905509Y-170290688D02*
X101937257Y-170258941D01*
X101937257Y-170258941D02*
X102000752Y-170227193D01*
X102000752Y-170227193D02*
X102191238Y-170227193D01*
X102191238Y-170227193D02*
X102254733Y-170258941D01*
X102254733Y-170258941D02*
X102286481Y-170290688D01*
X102286481Y-170290688D02*
X102318228Y-170354184D01*
X102318228Y-170354184D02*
X102318228Y-170449427D01*
X102318228Y-169655736D02*
X101969004Y-169655736D01*
X101969004Y-169655736D02*
X101905509Y-169687483D01*
X101905509Y-169687483D02*
X101873761Y-169750979D01*
X101873761Y-169750979D02*
X101873761Y-169877969D01*
X101873761Y-169877969D02*
X101905509Y-169941464D01*
X102286481Y-169655736D02*
X102318228Y-169719231D01*
X102318228Y-169719231D02*
X102318228Y-169877969D01*
X102318228Y-169877969D02*
X102286481Y-169941464D01*
X102286481Y-169941464D02*
X102222985Y-169973212D01*
X102222985Y-169973212D02*
X102159490Y-169973212D01*
X102159490Y-169973212D02*
X102095995Y-169941464D01*
X102095995Y-169941464D02*
X102064247Y-169877969D01*
X102064247Y-169877969D02*
X102064247Y-169719231D01*
X102064247Y-169719231D02*
X102032500Y-169655736D01*
X102318228Y-169338259D02*
X101873761Y-169338259D01*
X102000752Y-169338259D02*
X101937257Y-169306512D01*
X101937257Y-169306512D02*
X101905509Y-169274764D01*
X101905509Y-169274764D02*
X101873761Y-169211269D01*
X101873761Y-169211269D02*
X101873761Y-169147774D01*
X102318228Y-168639812D02*
X101651528Y-168639812D01*
X102286481Y-168639812D02*
X102318228Y-168703307D01*
X102318228Y-168703307D02*
X102318228Y-168830298D01*
X102318228Y-168830298D02*
X102286481Y-168893793D01*
X102286481Y-168893793D02*
X102254733Y-168925540D01*
X102254733Y-168925540D02*
X102191238Y-168957288D01*
X102191238Y-168957288D02*
X102000752Y-168957288D01*
X102000752Y-168957288D02*
X101937257Y-168925540D01*
X101937257Y-168925540D02*
X101905509Y-168893793D01*
X101905509Y-168893793D02*
X101873761Y-168830298D01*
X101873761Y-168830298D02*
X101873761Y-168703307D01*
X101873761Y-168703307D02*
X101905509Y-168639812D01*
X102318228Y-167814373D02*
X101651528Y-167814373D01*
X102318228Y-167433402D02*
X101937257Y-167719131D01*
X101651528Y-167433402D02*
X102032500Y-167814373D01*
X102286481Y-166893692D02*
X102318228Y-166957188D01*
X102318228Y-166957188D02*
X102318228Y-167084178D01*
X102318228Y-167084178D02*
X102286481Y-167147673D01*
X102286481Y-167147673D02*
X102222985Y-167179421D01*
X102222985Y-167179421D02*
X101969004Y-167179421D01*
X101969004Y-167179421D02*
X101905509Y-167147673D01*
X101905509Y-167147673D02*
X101873761Y-167084178D01*
X101873761Y-167084178D02*
X101873761Y-166957188D01*
X101873761Y-166957188D02*
X101905509Y-166893692D01*
X101905509Y-166893692D02*
X101969004Y-166861945D01*
X101969004Y-166861945D02*
X102032500Y-166861945D01*
X102032500Y-166861945D02*
X102095995Y-167179421D01*
X102286481Y-166322235D02*
X102318228Y-166385731D01*
X102318228Y-166385731D02*
X102318228Y-166512721D01*
X102318228Y-166512721D02*
X102286481Y-166576216D01*
X102286481Y-166576216D02*
X102222985Y-166607964D01*
X102222985Y-166607964D02*
X101969004Y-166607964D01*
X101969004Y-166607964D02*
X101905509Y-166576216D01*
X101905509Y-166576216D02*
X101873761Y-166512721D01*
X101873761Y-166512721D02*
X101873761Y-166385731D01*
X101873761Y-166385731D02*
X101905509Y-166322235D01*
X101905509Y-166322235D02*
X101969004Y-166290488D01*
X101969004Y-166290488D02*
X102032500Y-166290488D01*
X102032500Y-166290488D02*
X102095995Y-166607964D01*
X101873761Y-166004759D02*
X102540461Y-166004759D01*
X101905509Y-166004759D02*
X101873761Y-165941264D01*
X101873761Y-165941264D02*
X101873761Y-165814274D01*
X101873761Y-165814274D02*
X101905509Y-165750778D01*
X101905509Y-165750778D02*
X101937257Y-165719031D01*
X101937257Y-165719031D02*
X102000752Y-165687283D01*
X102000752Y-165687283D02*
X102191238Y-165687283D01*
X102191238Y-165687283D02*
X102254733Y-165719031D01*
X102254733Y-165719031D02*
X102286481Y-165750778D01*
X102286481Y-165750778D02*
X102318228Y-165814274D01*
X102318228Y-165814274D02*
X102318228Y-165941264D01*
X102318228Y-165941264D02*
X102286481Y-166004759D01*
X101651528Y-164766602D02*
X101651528Y-164639611D01*
X101651528Y-164639611D02*
X101683276Y-164576116D01*
X101683276Y-164576116D02*
X101746771Y-164512621D01*
X101746771Y-164512621D02*
X101873761Y-164480873D01*
X101873761Y-164480873D02*
X102095995Y-164480873D01*
X102095995Y-164480873D02*
X102222985Y-164512621D01*
X102222985Y-164512621D02*
X102286481Y-164576116D01*
X102286481Y-164576116D02*
X102318228Y-164639611D01*
X102318228Y-164639611D02*
X102318228Y-164766602D01*
X102318228Y-164766602D02*
X102286481Y-164830097D01*
X102286481Y-164830097D02*
X102222985Y-164893592D01*
X102222985Y-164893592D02*
X102095995Y-164925340D01*
X102095995Y-164925340D02*
X101873761Y-164925340D01*
X101873761Y-164925340D02*
X101746771Y-164893592D01*
X101746771Y-164893592D02*
X101683276Y-164830097D01*
X101683276Y-164830097D02*
X101651528Y-164766602D01*
X101873761Y-163909416D02*
X102318228Y-163909416D01*
X101873761Y-164195144D02*
X102222985Y-164195144D01*
X102222985Y-164195144D02*
X102286481Y-164163397D01*
X102286481Y-164163397D02*
X102318228Y-164099902D01*
X102318228Y-164099902D02*
X102318228Y-164004659D01*
X102318228Y-164004659D02*
X102286481Y-163941163D01*
X102286481Y-163941163D02*
X102254733Y-163909416D01*
X101873761Y-163687182D02*
X101873761Y-163433201D01*
X101651528Y-163591939D02*
X102222985Y-163591939D01*
X102222985Y-163591939D02*
X102286481Y-163560192D01*
X102286481Y-163560192D02*
X102318228Y-163496697D01*
X102318228Y-163496697D02*
X102318228Y-163433201D01*
X101651528Y-162703006D02*
X102191238Y-162703006D01*
X102191238Y-162703006D02*
X102254733Y-162671259D01*
X102254733Y-162671259D02*
X102286481Y-162639511D01*
X102286481Y-162639511D02*
X102318228Y-162576016D01*
X102318228Y-162576016D02*
X102318228Y-162449025D01*
X102318228Y-162449025D02*
X102286481Y-162385530D01*
X102286481Y-162385530D02*
X102254733Y-162353783D01*
X102254733Y-162353783D02*
X102191238Y-162322035D01*
X102191238Y-162322035D02*
X101651528Y-162322035D01*
X102286481Y-162036306D02*
X102318228Y-161941063D01*
X102318228Y-161941063D02*
X102318228Y-161782325D01*
X102318228Y-161782325D02*
X102286481Y-161718830D01*
X102286481Y-161718830D02*
X102254733Y-161687082D01*
X102254733Y-161687082D02*
X102191238Y-161655335D01*
X102191238Y-161655335D02*
X102127742Y-161655335D01*
X102127742Y-161655335D02*
X102064247Y-161687082D01*
X102064247Y-161687082D02*
X102032500Y-161718830D01*
X102032500Y-161718830D02*
X102000752Y-161782325D01*
X102000752Y-161782325D02*
X101969004Y-161909316D01*
X101969004Y-161909316D02*
X101937257Y-161972811D01*
X101937257Y-161972811D02*
X101905509Y-162004558D01*
X101905509Y-162004558D02*
X101842014Y-162036306D01*
X101842014Y-162036306D02*
X101778519Y-162036306D01*
X101778519Y-162036306D02*
X101715023Y-162004558D01*
X101715023Y-162004558D02*
X101683276Y-161972811D01*
X101683276Y-161972811D02*
X101651528Y-161909316D01*
X101651528Y-161909316D02*
X101651528Y-161750577D01*
X101651528Y-161750577D02*
X101683276Y-161655335D01*
X101969004Y-161147373D02*
X102000752Y-161052130D01*
X102000752Y-161052130D02*
X102032500Y-161020383D01*
X102032500Y-161020383D02*
X102095995Y-160988635D01*
X102095995Y-160988635D02*
X102191238Y-160988635D01*
X102191238Y-160988635D02*
X102254733Y-161020383D01*
X102254733Y-161020383D02*
X102286481Y-161052130D01*
X102286481Y-161052130D02*
X102318228Y-161115625D01*
X102318228Y-161115625D02*
X102318228Y-161369606D01*
X102318228Y-161369606D02*
X101651528Y-161369606D01*
X101651528Y-161369606D02*
X101651528Y-161147373D01*
X101651528Y-161147373D02*
X101683276Y-161083878D01*
X101683276Y-161083878D02*
X101715023Y-161052130D01*
X101715023Y-161052130D02*
X101778519Y-161020383D01*
X101778519Y-161020383D02*
X101842014Y-161020383D01*
X101842014Y-161020383D02*
X101905509Y-161052130D01*
X101905509Y-161052130D02*
X101937257Y-161083878D01*
X101937257Y-161083878D02*
X101969004Y-161147373D01*
X101969004Y-161147373D02*
X101969004Y-161369606D01*
X102254733Y-159813973D02*
X102286481Y-159845721D01*
X102286481Y-159845721D02*
X102318228Y-159940963D01*
X102318228Y-159940963D02*
X102318228Y-160004459D01*
X102318228Y-160004459D02*
X102286481Y-160099702D01*
X102286481Y-160099702D02*
X102222985Y-160163197D01*
X102222985Y-160163197D02*
X102159490Y-160194944D01*
X102159490Y-160194944D02*
X102032500Y-160226692D01*
X102032500Y-160226692D02*
X101937257Y-160226692D01*
X101937257Y-160226692D02*
X101810266Y-160194944D01*
X101810266Y-160194944D02*
X101746771Y-160163197D01*
X101746771Y-160163197D02*
X101683276Y-160099702D01*
X101683276Y-160099702D02*
X101651528Y-160004459D01*
X101651528Y-160004459D02*
X101651528Y-159940963D01*
X101651528Y-159940963D02*
X101683276Y-159845721D01*
X101683276Y-159845721D02*
X101715023Y-159813973D01*
X102318228Y-159242516D02*
X101969004Y-159242516D01*
X101969004Y-159242516D02*
X101905509Y-159274263D01*
X101905509Y-159274263D02*
X101873761Y-159337759D01*
X101873761Y-159337759D02*
X101873761Y-159464749D01*
X101873761Y-159464749D02*
X101905509Y-159528244D01*
X102286481Y-159242516D02*
X102318228Y-159306011D01*
X102318228Y-159306011D02*
X102318228Y-159464749D01*
X102318228Y-159464749D02*
X102286481Y-159528244D01*
X102286481Y-159528244D02*
X102222985Y-159559992D01*
X102222985Y-159559992D02*
X102159490Y-159559992D01*
X102159490Y-159559992D02*
X102095995Y-159528244D01*
X102095995Y-159528244D02*
X102064247Y-159464749D01*
X102064247Y-159464749D02*
X102064247Y-159306011D01*
X102064247Y-159306011D02*
X102032500Y-159242516D01*
X102318228Y-158925039D02*
X101651528Y-158925039D01*
X101905509Y-158925039D02*
X101873761Y-158861544D01*
X101873761Y-158861544D02*
X101873761Y-158734554D01*
X101873761Y-158734554D02*
X101905509Y-158671058D01*
X101905509Y-158671058D02*
X101937257Y-158639311D01*
X101937257Y-158639311D02*
X102000752Y-158607563D01*
X102000752Y-158607563D02*
X102191238Y-158607563D01*
X102191238Y-158607563D02*
X102254733Y-158639311D01*
X102254733Y-158639311D02*
X102286481Y-158671058D01*
X102286481Y-158671058D02*
X102318228Y-158734554D01*
X102318228Y-158734554D02*
X102318228Y-158861544D01*
X102318228Y-158861544D02*
X102286481Y-158925039D01*
X102318228Y-158226592D02*
X102286481Y-158290087D01*
X102286481Y-158290087D02*
X102222985Y-158321834D01*
X102222985Y-158321834D02*
X101651528Y-158321834D01*
X102286481Y-157718629D02*
X102318228Y-157782125D01*
X102318228Y-157782125D02*
X102318228Y-157909115D01*
X102318228Y-157909115D02*
X102286481Y-157972610D01*
X102286481Y-157972610D02*
X102222985Y-158004358D01*
X102222985Y-158004358D02*
X101969004Y-158004358D01*
X101969004Y-158004358D02*
X101905509Y-157972610D01*
X101905509Y-157972610D02*
X101873761Y-157909115D01*
X101873761Y-157909115D02*
X101873761Y-157782125D01*
X101873761Y-157782125D02*
X101905509Y-157718629D01*
X101905509Y-157718629D02*
X101969004Y-157686882D01*
X101969004Y-157686882D02*
X102032500Y-157686882D01*
X102032500Y-157686882D02*
X102095995Y-158004358D01*
D10*
X109081927Y-121322994D02*
X108970827Y-121322994D01*
X108923213Y-121148408D02*
X109081927Y-121148408D01*
X109081927Y-121148408D02*
X109081927Y-121481708D01*
X109081927Y-121481708D02*
X108923213Y-121481708D01*
X108812113Y-121148408D02*
X108637528Y-121370608D01*
X108812113Y-121370608D02*
X108637528Y-121148408D01*
X108510556Y-121370608D02*
X108510556Y-121037308D01*
X108510556Y-121354737D02*
X108478814Y-121370608D01*
X108478814Y-121370608D02*
X108415328Y-121370608D01*
X108415328Y-121370608D02*
X108383585Y-121354737D01*
X108383585Y-121354737D02*
X108367714Y-121338865D01*
X108367714Y-121338865D02*
X108351842Y-121307122D01*
X108351842Y-121307122D02*
X108351842Y-121211894D01*
X108351842Y-121211894D02*
X108367714Y-121180151D01*
X108367714Y-121180151D02*
X108383585Y-121164280D01*
X108383585Y-121164280D02*
X108415328Y-121148408D01*
X108415328Y-121148408D02*
X108478814Y-121148408D01*
X108478814Y-121148408D02*
X108510556Y-121164280D01*
X108161385Y-121148408D02*
X108193128Y-121164280D01*
X108193128Y-121164280D02*
X108208999Y-121180151D01*
X108208999Y-121180151D02*
X108224871Y-121211894D01*
X108224871Y-121211894D02*
X108224871Y-121307122D01*
X108224871Y-121307122D02*
X108208999Y-121338865D01*
X108208999Y-121338865D02*
X108193128Y-121354737D01*
X108193128Y-121354737D02*
X108161385Y-121370608D01*
X108161385Y-121370608D02*
X108113771Y-121370608D01*
X108113771Y-121370608D02*
X108082028Y-121354737D01*
X108082028Y-121354737D02*
X108066157Y-121338865D01*
X108066157Y-121338865D02*
X108050285Y-121307122D01*
X108050285Y-121307122D02*
X108050285Y-121211894D01*
X108050285Y-121211894D02*
X108066157Y-121180151D01*
X108066157Y-121180151D02*
X108082028Y-121164280D01*
X108082028Y-121164280D02*
X108113771Y-121148408D01*
X108113771Y-121148408D02*
X108161385Y-121148408D01*
X107923314Y-121164280D02*
X107891571Y-121148408D01*
X107891571Y-121148408D02*
X107828085Y-121148408D01*
X107828085Y-121148408D02*
X107796342Y-121164280D01*
X107796342Y-121164280D02*
X107780471Y-121196022D01*
X107780471Y-121196022D02*
X107780471Y-121211894D01*
X107780471Y-121211894D02*
X107796342Y-121243637D01*
X107796342Y-121243637D02*
X107828085Y-121259508D01*
X107828085Y-121259508D02*
X107875700Y-121259508D01*
X107875700Y-121259508D02*
X107907442Y-121275380D01*
X107907442Y-121275380D02*
X107923314Y-121307122D01*
X107923314Y-121307122D02*
X107923314Y-121322994D01*
X107923314Y-121322994D02*
X107907442Y-121354737D01*
X107907442Y-121354737D02*
X107875700Y-121370608D01*
X107875700Y-121370608D02*
X107828085Y-121370608D01*
X107828085Y-121370608D02*
X107796342Y-121354737D01*
X107510657Y-121164280D02*
X107542400Y-121148408D01*
X107542400Y-121148408D02*
X107605886Y-121148408D01*
X107605886Y-121148408D02*
X107637628Y-121164280D01*
X107637628Y-121164280D02*
X107653500Y-121196022D01*
X107653500Y-121196022D02*
X107653500Y-121322994D01*
X107653500Y-121322994D02*
X107637628Y-121354737D01*
X107637628Y-121354737D02*
X107605886Y-121370608D01*
X107605886Y-121370608D02*
X107542400Y-121370608D01*
X107542400Y-121370608D02*
X107510657Y-121354737D01*
X107510657Y-121354737D02*
X107494786Y-121322994D01*
X107494786Y-121322994D02*
X107494786Y-121291251D01*
X107494786Y-121291251D02*
X107653500Y-121259508D01*
X107209100Y-121148408D02*
X107209100Y-121481708D01*
X107209100Y-121164280D02*
X107240842Y-121148408D01*
X107240842Y-121148408D02*
X107304328Y-121148408D01*
X107304328Y-121148408D02*
X107336071Y-121164280D01*
X107336071Y-121164280D02*
X107351942Y-121180151D01*
X107351942Y-121180151D02*
X107367814Y-121211894D01*
X107367814Y-121211894D02*
X107367814Y-121307122D01*
X107367814Y-121307122D02*
X107351942Y-121338865D01*
X107351942Y-121338865D02*
X107336071Y-121354737D01*
X107336071Y-121354737D02*
X107304328Y-121370608D01*
X107304328Y-121370608D02*
X107240842Y-121370608D01*
X107240842Y-121370608D02*
X107209100Y-121354737D01*
X106605985Y-121180151D02*
X106621857Y-121164280D01*
X106621857Y-121164280D02*
X106669471Y-121148408D01*
X106669471Y-121148408D02*
X106701214Y-121148408D01*
X106701214Y-121148408D02*
X106748828Y-121164280D01*
X106748828Y-121164280D02*
X106780571Y-121196022D01*
X106780571Y-121196022D02*
X106796442Y-121227765D01*
X106796442Y-121227765D02*
X106812314Y-121291251D01*
X106812314Y-121291251D02*
X106812314Y-121338865D01*
X106812314Y-121338865D02*
X106796442Y-121402351D01*
X106796442Y-121402351D02*
X106780571Y-121434094D01*
X106780571Y-121434094D02*
X106748828Y-121465837D01*
X106748828Y-121465837D02*
X106701214Y-121481708D01*
X106701214Y-121481708D02*
X106669471Y-121481708D01*
X106669471Y-121481708D02*
X106621857Y-121465837D01*
X106621857Y-121465837D02*
X106605985Y-121449965D01*
X106415528Y-121148408D02*
X106447271Y-121164280D01*
X106447271Y-121164280D02*
X106463142Y-121180151D01*
X106463142Y-121180151D02*
X106479014Y-121211894D01*
X106479014Y-121211894D02*
X106479014Y-121307122D01*
X106479014Y-121307122D02*
X106463142Y-121338865D01*
X106463142Y-121338865D02*
X106447271Y-121354737D01*
X106447271Y-121354737D02*
X106415528Y-121370608D01*
X106415528Y-121370608D02*
X106367914Y-121370608D01*
X106367914Y-121370608D02*
X106336171Y-121354737D01*
X106336171Y-121354737D02*
X106320300Y-121338865D01*
X106320300Y-121338865D02*
X106304428Y-121307122D01*
X106304428Y-121307122D02*
X106304428Y-121211894D01*
X106304428Y-121211894D02*
X106320300Y-121180151D01*
X106320300Y-121180151D02*
X106336171Y-121164280D01*
X106336171Y-121164280D02*
X106367914Y-121148408D01*
X106367914Y-121148408D02*
X106415528Y-121148408D01*
X106161585Y-121370608D02*
X106161585Y-121037308D01*
X106161585Y-121354737D02*
X106129843Y-121370608D01*
X106129843Y-121370608D02*
X106066357Y-121370608D01*
X106066357Y-121370608D02*
X106034614Y-121354737D01*
X106034614Y-121354737D02*
X106018743Y-121338865D01*
X106018743Y-121338865D02*
X106002871Y-121307122D01*
X106002871Y-121307122D02*
X106002871Y-121211894D01*
X106002871Y-121211894D02*
X106018743Y-121180151D01*
X106018743Y-121180151D02*
X106034614Y-121164280D01*
X106034614Y-121164280D02*
X106066357Y-121148408D01*
X106066357Y-121148408D02*
X106129843Y-121148408D01*
X106129843Y-121148408D02*
X106161585Y-121164280D01*
X105860028Y-121370608D02*
X105860028Y-121037308D01*
X105860028Y-121354737D02*
X105828286Y-121370608D01*
X105828286Y-121370608D02*
X105764800Y-121370608D01*
X105764800Y-121370608D02*
X105733057Y-121354737D01*
X105733057Y-121354737D02*
X105717186Y-121338865D01*
X105717186Y-121338865D02*
X105701314Y-121307122D01*
X105701314Y-121307122D02*
X105701314Y-121211894D01*
X105701314Y-121211894D02*
X105717186Y-121180151D01*
X105717186Y-121180151D02*
X105733057Y-121164280D01*
X105733057Y-121164280D02*
X105764800Y-121148408D01*
X105764800Y-121148408D02*
X105828286Y-121148408D01*
X105828286Y-121148408D02*
X105860028Y-121164280D01*
X105431500Y-121164280D02*
X105463243Y-121148408D01*
X105463243Y-121148408D02*
X105526729Y-121148408D01*
X105526729Y-121148408D02*
X105558471Y-121164280D01*
X105558471Y-121164280D02*
X105574343Y-121196022D01*
X105574343Y-121196022D02*
X105574343Y-121322994D01*
X105574343Y-121322994D02*
X105558471Y-121354737D01*
X105558471Y-121354737D02*
X105526729Y-121370608D01*
X105526729Y-121370608D02*
X105463243Y-121370608D01*
X105463243Y-121370608D02*
X105431500Y-121354737D01*
X105431500Y-121354737D02*
X105415629Y-121322994D01*
X105415629Y-121322994D02*
X105415629Y-121291251D01*
X105415629Y-121291251D02*
X105574343Y-121259508D01*
X105272785Y-121148408D02*
X105272785Y-121370608D01*
X105272785Y-121307122D02*
X105256914Y-121338865D01*
X105256914Y-121338865D02*
X105241043Y-121354737D01*
X105241043Y-121354737D02*
X105209300Y-121370608D01*
X105209300Y-121370608D02*
X105177557Y-121370608D01*
X104812513Y-121148408D02*
X104812513Y-121481708D01*
X104622056Y-121148408D02*
X104764899Y-121338865D01*
X104622056Y-121481708D02*
X104812513Y-121291251D01*
X104352242Y-121164280D02*
X104383985Y-121148408D01*
X104383985Y-121148408D02*
X104447471Y-121148408D01*
X104447471Y-121148408D02*
X104479213Y-121164280D01*
X104479213Y-121164280D02*
X104495085Y-121196022D01*
X104495085Y-121196022D02*
X104495085Y-121322994D01*
X104495085Y-121322994D02*
X104479213Y-121354737D01*
X104479213Y-121354737D02*
X104447471Y-121370608D01*
X104447471Y-121370608D02*
X104383985Y-121370608D01*
X104383985Y-121370608D02*
X104352242Y-121354737D01*
X104352242Y-121354737D02*
X104336371Y-121322994D01*
X104336371Y-121322994D02*
X104336371Y-121291251D01*
X104336371Y-121291251D02*
X104495085Y-121259508D01*
X104066556Y-121164280D02*
X104098299Y-121148408D01*
X104098299Y-121148408D02*
X104161785Y-121148408D01*
X104161785Y-121148408D02*
X104193527Y-121164280D01*
X104193527Y-121164280D02*
X104209399Y-121196022D01*
X104209399Y-121196022D02*
X104209399Y-121322994D01*
X104209399Y-121322994D02*
X104193527Y-121354737D01*
X104193527Y-121354737D02*
X104161785Y-121370608D01*
X104161785Y-121370608D02*
X104098299Y-121370608D01*
X104098299Y-121370608D02*
X104066556Y-121354737D01*
X104066556Y-121354737D02*
X104050685Y-121322994D01*
X104050685Y-121322994D02*
X104050685Y-121291251D01*
X104050685Y-121291251D02*
X104209399Y-121259508D01*
X103907841Y-121370608D02*
X103907841Y-121037308D01*
X103907841Y-121354737D02*
X103876099Y-121370608D01*
X103876099Y-121370608D02*
X103812613Y-121370608D01*
X103812613Y-121370608D02*
X103780870Y-121354737D01*
X103780870Y-121354737D02*
X103764999Y-121338865D01*
X103764999Y-121338865D02*
X103749127Y-121307122D01*
X103749127Y-121307122D02*
X103749127Y-121211894D01*
X103749127Y-121211894D02*
X103764999Y-121180151D01*
X103764999Y-121180151D02*
X103780870Y-121164280D01*
X103780870Y-121164280D02*
X103812613Y-121148408D01*
X103812613Y-121148408D02*
X103876099Y-121148408D01*
X103876099Y-121148408D02*
X103907841Y-121164280D01*
X103288856Y-121481708D02*
X103225370Y-121481708D01*
X103225370Y-121481708D02*
X103193627Y-121465837D01*
X103193627Y-121465837D02*
X103161884Y-121434094D01*
X103161884Y-121434094D02*
X103146013Y-121370608D01*
X103146013Y-121370608D02*
X103146013Y-121259508D01*
X103146013Y-121259508D02*
X103161884Y-121196022D01*
X103161884Y-121196022D02*
X103193627Y-121164280D01*
X103193627Y-121164280D02*
X103225370Y-121148408D01*
X103225370Y-121148408D02*
X103288856Y-121148408D01*
X103288856Y-121148408D02*
X103320599Y-121164280D01*
X103320599Y-121164280D02*
X103352341Y-121196022D01*
X103352341Y-121196022D02*
X103368213Y-121259508D01*
X103368213Y-121259508D02*
X103368213Y-121370608D01*
X103368213Y-121370608D02*
X103352341Y-121434094D01*
X103352341Y-121434094D02*
X103320599Y-121465837D01*
X103320599Y-121465837D02*
X103288856Y-121481708D01*
X102860328Y-121370608D02*
X102860328Y-121148408D01*
X103003170Y-121370608D02*
X103003170Y-121196022D01*
X103003170Y-121196022D02*
X102987299Y-121164280D01*
X102987299Y-121164280D02*
X102955556Y-121148408D01*
X102955556Y-121148408D02*
X102907942Y-121148408D01*
X102907942Y-121148408D02*
X102876199Y-121164280D01*
X102876199Y-121164280D02*
X102860328Y-121180151D01*
X102749228Y-121370608D02*
X102622256Y-121370608D01*
X102701613Y-121481708D02*
X102701613Y-121196022D01*
X102701613Y-121196022D02*
X102685742Y-121164280D01*
X102685742Y-121164280D02*
X102653999Y-121148408D01*
X102653999Y-121148408D02*
X102622256Y-121148408D01*
D11*
X110785714Y-108542919D02*
X110833333Y-108495300D01*
X110833333Y-108495300D02*
X110976190Y-108447680D01*
X110976190Y-108447680D02*
X111071428Y-108447680D01*
X111071428Y-108447680D02*
X111214285Y-108495300D01*
X111214285Y-108495300D02*
X111309523Y-108590538D01*
X111309523Y-108590538D02*
X111357142Y-108685776D01*
X111357142Y-108685776D02*
X111404761Y-108876252D01*
X111404761Y-108876252D02*
X111404761Y-109019109D01*
X111404761Y-109019109D02*
X111357142Y-109209585D01*
X111357142Y-109209585D02*
X111309523Y-109304823D01*
X111309523Y-109304823D02*
X111214285Y-109400061D01*
X111214285Y-109400061D02*
X111071428Y-109447680D01*
X111071428Y-109447680D02*
X110976190Y-109447680D01*
X110976190Y-109447680D02*
X110833333Y-109400061D01*
X110833333Y-109400061D02*
X110785714Y-109352442D01*
X110214285Y-108447680D02*
X110309523Y-108495300D01*
X110309523Y-108495300D02*
X110357142Y-108542919D01*
X110357142Y-108542919D02*
X110404761Y-108638157D01*
X110404761Y-108638157D02*
X110404761Y-108923871D01*
X110404761Y-108923871D02*
X110357142Y-109019109D01*
X110357142Y-109019109D02*
X110309523Y-109066728D01*
X110309523Y-109066728D02*
X110214285Y-109114347D01*
X110214285Y-109114347D02*
X110071428Y-109114347D01*
X110071428Y-109114347D02*
X109976190Y-109066728D01*
X109976190Y-109066728D02*
X109928571Y-109019109D01*
X109928571Y-109019109D02*
X109880952Y-108923871D01*
X109880952Y-108923871D02*
X109880952Y-108638157D01*
X109880952Y-108638157D02*
X109928571Y-108542919D01*
X109928571Y-108542919D02*
X109976190Y-108495300D01*
X109976190Y-108495300D02*
X110071428Y-108447680D01*
X110071428Y-108447680D02*
X110214285Y-108447680D01*
X109452380Y-109114347D02*
X109452380Y-108114347D01*
X109452380Y-109066728D02*
X109357142Y-109114347D01*
X109357142Y-109114347D02*
X109166666Y-109114347D01*
X109166666Y-109114347D02*
X109071428Y-109066728D01*
X109071428Y-109066728D02*
X109023809Y-109019109D01*
X109023809Y-109019109D02*
X108976190Y-108923871D01*
X108976190Y-108923871D02*
X108976190Y-108638157D01*
X108976190Y-108638157D02*
X109023809Y-108542919D01*
X109023809Y-108542919D02*
X109071428Y-108495300D01*
X109071428Y-108495300D02*
X109166666Y-108447680D01*
X109166666Y-108447680D02*
X109357142Y-108447680D01*
X109357142Y-108447680D02*
X109452380Y-108495300D01*
X108547618Y-109114347D02*
X108547618Y-108114347D01*
X108547618Y-109066728D02*
X108452380Y-109114347D01*
X108452380Y-109114347D02*
X108261904Y-109114347D01*
X108261904Y-109114347D02*
X108166666Y-109066728D01*
X108166666Y-109066728D02*
X108119047Y-109019109D01*
X108119047Y-109019109D02*
X108071428Y-108923871D01*
X108071428Y-108923871D02*
X108071428Y-108638157D01*
X108071428Y-108638157D02*
X108119047Y-108542919D01*
X108119047Y-108542919D02*
X108166666Y-108495300D01*
X108166666Y-108495300D02*
X108261904Y-108447680D01*
X108261904Y-108447680D02*
X108452380Y-108447680D01*
X108452380Y-108447680D02*
X108547618Y-108495300D01*
X107261904Y-108495300D02*
X107357142Y-108447680D01*
X107357142Y-108447680D02*
X107547618Y-108447680D01*
X107547618Y-108447680D02*
X107642856Y-108495300D01*
X107642856Y-108495300D02*
X107690475Y-108590538D01*
X107690475Y-108590538D02*
X107690475Y-108971490D01*
X107690475Y-108971490D02*
X107642856Y-109066728D01*
X107642856Y-109066728D02*
X107547618Y-109114347D01*
X107547618Y-109114347D02*
X107357142Y-109114347D01*
X107357142Y-109114347D02*
X107261904Y-109066728D01*
X107261904Y-109066728D02*
X107214285Y-108971490D01*
X107214285Y-108971490D02*
X107214285Y-108876252D01*
X107214285Y-108876252D02*
X107690475Y-108781014D01*
X106785713Y-108447680D02*
X106785713Y-109114347D01*
X106785713Y-108923871D02*
X106738094Y-109019109D01*
X106738094Y-109019109D02*
X106690475Y-109066728D01*
X106690475Y-109066728D02*
X106595237Y-109114347D01*
X106595237Y-109114347D02*
X106499999Y-109114347D01*
D12*
X116030995Y-157940863D02*
X115999247Y-158036106D01*
X115999247Y-158036106D02*
X115967499Y-158067853D01*
X115967499Y-158067853D02*
X115904004Y-158099601D01*
X115904004Y-158099601D02*
X115808761Y-158099601D01*
X115808761Y-158099601D02*
X115745266Y-158067853D01*
X115745266Y-158067853D02*
X115713519Y-158036106D01*
X115713519Y-158036106D02*
X115681771Y-157972611D01*
X115681771Y-157972611D02*
X115681771Y-157718630D01*
X115681771Y-157718630D02*
X116348471Y-157718630D01*
X116348471Y-157718630D02*
X116348471Y-157940863D01*
X116348471Y-157940863D02*
X116316723Y-158004358D01*
X116316723Y-158004358D02*
X116284976Y-158036106D01*
X116284976Y-158036106D02*
X116221480Y-158067853D01*
X116221480Y-158067853D02*
X116157985Y-158067853D01*
X116157985Y-158067853D02*
X116094490Y-158036106D01*
X116094490Y-158036106D02*
X116062742Y-158004358D01*
X116062742Y-158004358D02*
X116030995Y-157940863D01*
X116030995Y-157940863D02*
X116030995Y-157718630D01*
X115681771Y-158480572D02*
X115713519Y-158417077D01*
X115713519Y-158417077D02*
X115745266Y-158385330D01*
X115745266Y-158385330D02*
X115808761Y-158353582D01*
X115808761Y-158353582D02*
X115999247Y-158353582D01*
X115999247Y-158353582D02*
X116062742Y-158385330D01*
X116062742Y-158385330D02*
X116094490Y-158417077D01*
X116094490Y-158417077D02*
X116126238Y-158480572D01*
X116126238Y-158480572D02*
X116126238Y-158575815D01*
X116126238Y-158575815D02*
X116094490Y-158639311D01*
X116094490Y-158639311D02*
X116062742Y-158671058D01*
X116062742Y-158671058D02*
X115999247Y-158702806D01*
X115999247Y-158702806D02*
X115808761Y-158702806D01*
X115808761Y-158702806D02*
X115745266Y-158671058D01*
X115745266Y-158671058D02*
X115713519Y-158639311D01*
X115713519Y-158639311D02*
X115681771Y-158575815D01*
X115681771Y-158575815D02*
X115681771Y-158480572D01*
X115681771Y-159274263D02*
X116030995Y-159274263D01*
X116030995Y-159274263D02*
X116094490Y-159242516D01*
X116094490Y-159242516D02*
X116126238Y-159179020D01*
X116126238Y-159179020D02*
X116126238Y-159052030D01*
X116126238Y-159052030D02*
X116094490Y-158988535D01*
X115713519Y-159274263D02*
X115681771Y-159210768D01*
X115681771Y-159210768D02*
X115681771Y-159052030D01*
X115681771Y-159052030D02*
X115713519Y-158988535D01*
X115713519Y-158988535D02*
X115777014Y-158956787D01*
X115777014Y-158956787D02*
X115840509Y-158956787D01*
X115840509Y-158956787D02*
X115904004Y-158988535D01*
X115904004Y-158988535D02*
X115935752Y-159052030D01*
X115935752Y-159052030D02*
X115935752Y-159210768D01*
X115935752Y-159210768D02*
X115967499Y-159274263D01*
X115681771Y-159591740D02*
X116126238Y-159591740D01*
X115999247Y-159591740D02*
X116062742Y-159623487D01*
X116062742Y-159623487D02*
X116094490Y-159655235D01*
X116094490Y-159655235D02*
X116126238Y-159718730D01*
X116126238Y-159718730D02*
X116126238Y-159782225D01*
X115681771Y-160290187D02*
X116348471Y-160290187D01*
X115713519Y-160290187D02*
X115681771Y-160226692D01*
X115681771Y-160226692D02*
X115681771Y-160099701D01*
X115681771Y-160099701D02*
X115713519Y-160036206D01*
X115713519Y-160036206D02*
X115745266Y-160004459D01*
X115745266Y-160004459D02*
X115808761Y-159972711D01*
X115808761Y-159972711D02*
X115999247Y-159972711D01*
X115999247Y-159972711D02*
X116062742Y-160004459D01*
X116062742Y-160004459D02*
X116094490Y-160036206D01*
X116094490Y-160036206D02*
X116126238Y-160099701D01*
X116126238Y-160099701D02*
X116126238Y-160226692D01*
X116126238Y-160226692D02*
X116094490Y-160290187D01*
X115681771Y-161115626D02*
X116348471Y-161115626D01*
X115681771Y-161496597D02*
X116062742Y-161210868D01*
X116348471Y-161496597D02*
X115967499Y-161115626D01*
X115713519Y-162036307D02*
X115681771Y-161972811D01*
X115681771Y-161972811D02*
X115681771Y-161845821D01*
X115681771Y-161845821D02*
X115713519Y-161782326D01*
X115713519Y-161782326D02*
X115777014Y-161750578D01*
X115777014Y-161750578D02*
X116030995Y-161750578D01*
X116030995Y-161750578D02*
X116094490Y-161782326D01*
X116094490Y-161782326D02*
X116126238Y-161845821D01*
X116126238Y-161845821D02*
X116126238Y-161972811D01*
X116126238Y-161972811D02*
X116094490Y-162036307D01*
X116094490Y-162036307D02*
X116030995Y-162068054D01*
X116030995Y-162068054D02*
X115967499Y-162068054D01*
X115967499Y-162068054D02*
X115904004Y-161750578D01*
X115713519Y-162607764D02*
X115681771Y-162544268D01*
X115681771Y-162544268D02*
X115681771Y-162417278D01*
X115681771Y-162417278D02*
X115713519Y-162353783D01*
X115713519Y-162353783D02*
X115777014Y-162322035D01*
X115777014Y-162322035D02*
X116030995Y-162322035D01*
X116030995Y-162322035D02*
X116094490Y-162353783D01*
X116094490Y-162353783D02*
X116126238Y-162417278D01*
X116126238Y-162417278D02*
X116126238Y-162544268D01*
X116126238Y-162544268D02*
X116094490Y-162607764D01*
X116094490Y-162607764D02*
X116030995Y-162639511D01*
X116030995Y-162639511D02*
X115967499Y-162639511D01*
X115967499Y-162639511D02*
X115904004Y-162322035D01*
X116126238Y-162925240D02*
X115459538Y-162925240D01*
X116094490Y-162925240D02*
X116126238Y-162988735D01*
X116126238Y-162988735D02*
X116126238Y-163115725D01*
X116126238Y-163115725D02*
X116094490Y-163179221D01*
X116094490Y-163179221D02*
X116062742Y-163210968D01*
X116062742Y-163210968D02*
X115999247Y-163242716D01*
X115999247Y-163242716D02*
X115808761Y-163242716D01*
X115808761Y-163242716D02*
X115745266Y-163210968D01*
X115745266Y-163210968D02*
X115713519Y-163179221D01*
X115713519Y-163179221D02*
X115681771Y-163115725D01*
X115681771Y-163115725D02*
X115681771Y-162988735D01*
X115681771Y-162988735D02*
X115713519Y-162925240D01*
X116348471Y-164163397D02*
X116348471Y-164290388D01*
X116348471Y-164290388D02*
X116316723Y-164353883D01*
X116316723Y-164353883D02*
X116253228Y-164417378D01*
X116253228Y-164417378D02*
X116126238Y-164449126D01*
X116126238Y-164449126D02*
X115904004Y-164449126D01*
X115904004Y-164449126D02*
X115777014Y-164417378D01*
X115777014Y-164417378D02*
X115713519Y-164353883D01*
X115713519Y-164353883D02*
X115681771Y-164290388D01*
X115681771Y-164290388D02*
X115681771Y-164163397D01*
X115681771Y-164163397D02*
X115713519Y-164099902D01*
X115713519Y-164099902D02*
X115777014Y-164036407D01*
X115777014Y-164036407D02*
X115904004Y-164004659D01*
X115904004Y-164004659D02*
X116126238Y-164004659D01*
X116126238Y-164004659D02*
X116253228Y-164036407D01*
X116253228Y-164036407D02*
X116316723Y-164099902D01*
X116316723Y-164099902D02*
X116348471Y-164163397D01*
X116126238Y-165020583D02*
X115681771Y-165020583D01*
X116126238Y-164734855D02*
X115777014Y-164734855D01*
X115777014Y-164734855D02*
X115713519Y-164766602D01*
X115713519Y-164766602D02*
X115681771Y-164830097D01*
X115681771Y-164830097D02*
X115681771Y-164925340D01*
X115681771Y-164925340D02*
X115713519Y-164988836D01*
X115713519Y-164988836D02*
X115745266Y-165020583D01*
X116126238Y-165242817D02*
X116126238Y-165496798D01*
X116348471Y-165338060D02*
X115777014Y-165338060D01*
X115777014Y-165338060D02*
X115713519Y-165369807D01*
X115713519Y-165369807D02*
X115681771Y-165433302D01*
X115681771Y-165433302D02*
X115681771Y-165496798D01*
X116348471Y-166226993D02*
X115808761Y-166226993D01*
X115808761Y-166226993D02*
X115745266Y-166258740D01*
X115745266Y-166258740D02*
X115713519Y-166290488D01*
X115713519Y-166290488D02*
X115681771Y-166353983D01*
X115681771Y-166353983D02*
X115681771Y-166480974D01*
X115681771Y-166480974D02*
X115713519Y-166544469D01*
X115713519Y-166544469D02*
X115745266Y-166576216D01*
X115745266Y-166576216D02*
X115808761Y-166607964D01*
X115808761Y-166607964D02*
X116348471Y-166607964D01*
X115713519Y-166893693D02*
X115681771Y-166988936D01*
X115681771Y-166988936D02*
X115681771Y-167147674D01*
X115681771Y-167147674D02*
X115713519Y-167211169D01*
X115713519Y-167211169D02*
X115745266Y-167242917D01*
X115745266Y-167242917D02*
X115808761Y-167274664D01*
X115808761Y-167274664D02*
X115872257Y-167274664D01*
X115872257Y-167274664D02*
X115935752Y-167242917D01*
X115935752Y-167242917D02*
X115967499Y-167211169D01*
X115967499Y-167211169D02*
X115999247Y-167147674D01*
X115999247Y-167147674D02*
X116030995Y-167020683D01*
X116030995Y-167020683D02*
X116062742Y-166957188D01*
X116062742Y-166957188D02*
X116094490Y-166925441D01*
X116094490Y-166925441D02*
X116157985Y-166893693D01*
X116157985Y-166893693D02*
X116221480Y-166893693D01*
X116221480Y-166893693D02*
X116284976Y-166925441D01*
X116284976Y-166925441D02*
X116316723Y-166957188D01*
X116316723Y-166957188D02*
X116348471Y-167020683D01*
X116348471Y-167020683D02*
X116348471Y-167179422D01*
X116348471Y-167179422D02*
X116316723Y-167274664D01*
X116030995Y-167782626D02*
X115999247Y-167877869D01*
X115999247Y-167877869D02*
X115967499Y-167909616D01*
X115967499Y-167909616D02*
X115904004Y-167941364D01*
X115904004Y-167941364D02*
X115808761Y-167941364D01*
X115808761Y-167941364D02*
X115745266Y-167909616D01*
X115745266Y-167909616D02*
X115713519Y-167877869D01*
X115713519Y-167877869D02*
X115681771Y-167814374D01*
X115681771Y-167814374D02*
X115681771Y-167560393D01*
X115681771Y-167560393D02*
X116348471Y-167560393D01*
X116348471Y-167560393D02*
X116348471Y-167782626D01*
X116348471Y-167782626D02*
X116316723Y-167846121D01*
X116316723Y-167846121D02*
X116284976Y-167877869D01*
X116284976Y-167877869D02*
X116221480Y-167909616D01*
X116221480Y-167909616D02*
X116157985Y-167909616D01*
X116157985Y-167909616D02*
X116094490Y-167877869D01*
X116094490Y-167877869D02*
X116062742Y-167846121D01*
X116062742Y-167846121D02*
X116030995Y-167782626D01*
X116030995Y-167782626D02*
X116030995Y-167560393D01*
X115745266Y-169116026D02*
X115713519Y-169084278D01*
X115713519Y-169084278D02*
X115681771Y-168989036D01*
X115681771Y-168989036D02*
X115681771Y-168925540D01*
X115681771Y-168925540D02*
X115713519Y-168830297D01*
X115713519Y-168830297D02*
X115777014Y-168766802D01*
X115777014Y-168766802D02*
X115840509Y-168735055D01*
X115840509Y-168735055D02*
X115967499Y-168703307D01*
X115967499Y-168703307D02*
X116062742Y-168703307D01*
X116062742Y-168703307D02*
X116189733Y-168735055D01*
X116189733Y-168735055D02*
X116253228Y-168766802D01*
X116253228Y-168766802D02*
X116316723Y-168830297D01*
X116316723Y-168830297D02*
X116348471Y-168925540D01*
X116348471Y-168925540D02*
X116348471Y-168989036D01*
X116348471Y-168989036D02*
X116316723Y-169084278D01*
X116316723Y-169084278D02*
X116284976Y-169116026D01*
X115681771Y-169687483D02*
X116030995Y-169687483D01*
X116030995Y-169687483D02*
X116094490Y-169655736D01*
X116094490Y-169655736D02*
X116126238Y-169592240D01*
X116126238Y-169592240D02*
X116126238Y-169465250D01*
X116126238Y-169465250D02*
X116094490Y-169401755D01*
X115713519Y-169687483D02*
X115681771Y-169623988D01*
X115681771Y-169623988D02*
X115681771Y-169465250D01*
X115681771Y-169465250D02*
X115713519Y-169401755D01*
X115713519Y-169401755D02*
X115777014Y-169370007D01*
X115777014Y-169370007D02*
X115840509Y-169370007D01*
X115840509Y-169370007D02*
X115904004Y-169401755D01*
X115904004Y-169401755D02*
X115935752Y-169465250D01*
X115935752Y-169465250D02*
X115935752Y-169623988D01*
X115935752Y-169623988D02*
X115967499Y-169687483D01*
X115681771Y-170004960D02*
X116348471Y-170004960D01*
X116094490Y-170004960D02*
X116126238Y-170068455D01*
X116126238Y-170068455D02*
X116126238Y-170195445D01*
X116126238Y-170195445D02*
X116094490Y-170258941D01*
X116094490Y-170258941D02*
X116062742Y-170290688D01*
X116062742Y-170290688D02*
X115999247Y-170322436D01*
X115999247Y-170322436D02*
X115808761Y-170322436D01*
X115808761Y-170322436D02*
X115745266Y-170290688D01*
X115745266Y-170290688D02*
X115713519Y-170258941D01*
X115713519Y-170258941D02*
X115681771Y-170195445D01*
X115681771Y-170195445D02*
X115681771Y-170068455D01*
X115681771Y-170068455D02*
X115713519Y-170004960D01*
X115681771Y-170703407D02*
X115713519Y-170639912D01*
X115713519Y-170639912D02*
X115777014Y-170608165D01*
X115777014Y-170608165D02*
X116348471Y-170608165D01*
X115713519Y-171211370D02*
X115681771Y-171147874D01*
X115681771Y-171147874D02*
X115681771Y-171020884D01*
X115681771Y-171020884D02*
X115713519Y-170957389D01*
X115713519Y-170957389D02*
X115777014Y-170925641D01*
X115777014Y-170925641D02*
X116030995Y-170925641D01*
X116030995Y-170925641D02*
X116094490Y-170957389D01*
X116094490Y-170957389D02*
X116126238Y-171020884D01*
X116126238Y-171020884D02*
X116126238Y-171147874D01*
X116126238Y-171147874D02*
X116094490Y-171211370D01*
X116094490Y-171211370D02*
X116030995Y-171243117D01*
X116030995Y-171243117D02*
X115967499Y-171243117D01*
X115967499Y-171243117D02*
X115904004Y-170925641D01*
D11*
G04 #@! TO.C,H101*
X219300000Y-160000000D02*
G75*
G03*
X219300000Y-160000000I-4300000J0D01*
G01*
G04 #@! TO.C,H102*
X89300000Y-40000000D02*
G75*
G03*
X89300000Y-40000000I-4300000J0D01*
G01*
G04 #@! TO.C,H104*
X89300000Y-160000000D02*
G75*
G03*
X89300000Y-160000000I-4300000J0D01*
G01*
G04 #@! TO.C,H103*
X219300000Y-40000000D02*
G75*
G03*
X219300000Y-40000000I-4300000J0D01*
G01*
G04 #@! TD*
M02*
