G04 #@! TF.GenerationSoftware,KiCad,Pcbnew,7.0.7*
G04 #@! TF.CreationDate,2023-10-09T21:12:52+02:00*
G04 #@! TF.ProjectId,Kaboom_box_bottom,4b61626f-6f6d-45f6-926f-785f626f7474,rev?*
G04 #@! TF.SameCoordinates,Original*
G04 #@! TF.FileFunction,Soldermask,Bot*
G04 #@! TF.FilePolarity,Negative*
%FSLAX46Y46*%
G04 Gerber Fmt 4.6, Leading zero omitted, Abs format (unit mm)*
G04 Created by KiCad (PCBNEW 7.0.7) date 2023-10-09 21:12:52*
%MOMM*%
%LPD*%
G01*
G04 APERTURE LIST*
G04 Aperture macros list*
%AMRoundRect*
0 Rectangle with rounded corners*
0 $1 Rounding radius*
0 $2 $3 $4 $5 $6 $7 $8 $9 X,Y pos of 4 corners*
0 Add a 4 corners polygon primitive as box body*
4,1,4,$2,$3,$4,$5,$6,$7,$8,$9,$2,$3,0*
0 Add four circle primitives for the rounded corners*
1,1,$1+$1,$2,$3*
1,1,$1+$1,$4,$5*
1,1,$1+$1,$6,$7*
1,1,$1+$1,$8,$9*
0 Add four rect primitives between the rounded corners*
20,1,$1+$1,$2,$3,$4,$5,0*
20,1,$1+$1,$4,$5,$6,$7,0*
20,1,$1+$1,$6,$7,$8,$9,0*
20,1,$1+$1,$8,$9,$2,$3,0*%
%AMFreePoly0*
4,1,51,0.612104,0.844986,0.644504,0.844986,0.666198,0.840034,0.746392,0.801414,0.763789,0.787541,0.819285,0.717952,0.828940,0.697903,0.848746,0.611126,0.850000,0.600000,0.850000,-0.600000,0.848746,-0.611126,0.828940,-0.697903,0.819285,-0.717952,0.763789,-0.787541,0.746392,-0.801414,0.666198,-0.840034,0.644504,-0.844986,0.612104,-0.844986,0.600000,-0.850000,-0.001403,-0.850000,
-0.004204,-0.849843,-0.183615,-0.829628,-0.194531,-0.827136,-0.363621,-0.767969,-0.373709,-0.763111,-0.525394,-0.667801,-0.534147,-0.660820,-0.660820,-0.534147,-0.667801,-0.525394,-0.763111,-0.373709,-0.767969,-0.363621,-0.827136,-0.194531,-0.829628,-0.183615,-0.849686,-0.005598,-0.849686,0.005598,-0.829628,0.183615,-0.827136,0.194531,-0.767969,0.363621,-0.763111,0.373709,-0.667801,0.525394,
-0.660820,0.534147,-0.534147,0.660820,-0.525394,0.667801,-0.373709,0.763111,-0.363621,0.767969,-0.194531,0.827136,-0.183615,0.829628,-0.004204,0.849843,-0.001403,0.850000,0.600000,0.850000,0.612104,0.844986,0.612104,0.844986,$1*%
%AMFreePoly1*
4,1,51,0.004204,0.849843,0.183615,0.829628,0.194531,0.827136,0.363621,0.767969,0.373709,0.763111,0.525394,0.667801,0.534147,0.660820,0.660820,0.534147,0.667801,0.525394,0.763111,0.373709,0.767969,0.363621,0.827136,0.194531,0.829628,0.183615,0.849686,0.005598,0.849686,-0.005598,0.829628,-0.183615,0.827136,-0.194531,0.767969,-0.363621,0.763111,-0.373709,0.667801,-0.525394,
0.660820,-0.534147,0.534147,-0.660820,0.525394,-0.667801,0.373709,-0.763111,0.363621,-0.767969,0.194531,-0.827136,0.183615,-0.829628,0.004204,-0.849843,0.001403,-0.850000,-0.600000,-0.850000,-0.612104,-0.844986,-0.644504,-0.844986,-0.666198,-0.840034,-0.746392,-0.801414,-0.763789,-0.787541,-0.819285,-0.717952,-0.828940,-0.697903,-0.848746,-0.611126,-0.850000,-0.600000,-0.850000,0.600000,
-0.848746,0.611126,-0.828940,0.697903,-0.819285,0.717952,-0.763789,0.787541,-0.746392,0.801414,-0.666198,0.840034,-0.644504,0.844986,-0.612104,0.844986,-0.600000,0.850000,0.001403,0.850000,0.004204,0.849843,0.004204,0.849843,$1*%
G04 Aperture macros list end*
%ADD10C,7.600000*%
%ADD11C,1.624003*%
%ADD12C,1.800000*%
%ADD13C,3.700000*%
%ADD14C,1.900000*%
%ADD15C,2.200000*%
%ADD16C,1.850000*%
%ADD17RoundRect,0.250000X0.600000X0.600000X-0.600000X0.600000X-0.600000X-0.600000X0.600000X-0.600000X0*%
%ADD18C,1.700000*%
%ADD19FreePoly0,180.000000*%
%ADD20FreePoly1,180.000000*%
%ADD21C,4.400000*%
%ADD22C,4.300000*%
%ADD23C,2.500000*%
%ADD24RoundRect,0.050000X0.900000X1.500000X-0.900000X1.500000X-0.900000X-1.500000X0.900000X-1.500000X0*%
%ADD25O,1.900000X3.100000*%
%ADD26O,3.600000X3.400000*%
%ADD27RoundRect,0.050000X1.300000X1.300000X-1.300000X1.300000X-1.300000X-1.300000X1.300000X-1.300000X0*%
%ADD28C,2.700000*%
G04 APERTURE END LIST*
D10*
G04 #@! TO.C,J104*
X204000000Y-65000000D03*
G04 #@! TD*
G04 #@! TO.C,J128*
X176000000Y-135000000D03*
G04 #@! TD*
G04 #@! TO.C,J103*
X190000000Y-65000000D03*
G04 #@! TD*
G04 #@! TO.C,J106*
X190000000Y-51000000D03*
G04 #@! TD*
G04 #@! TO.C,J119*
X176000000Y-79000000D03*
G04 #@! TD*
G04 #@! TO.C,J122*
X162000000Y-51000000D03*
G04 #@! TD*
G04 #@! TO.C,J109*
X204000000Y-93000000D03*
G04 #@! TD*
D11*
G04 #@! TO.C,P104*
X219220003Y-105080010D03*
X216679997Y-105080010D03*
X219220003Y-102540005D03*
X216679997Y-102540005D03*
X219220003Y-100000000D03*
X216679997Y-100000000D03*
X219220003Y-97459995D03*
X216679997Y-97459995D03*
X219220003Y-94919990D03*
X216679997Y-94919990D03*
G04 #@! TD*
D10*
G04 #@! TO.C,J107*
X204000000Y-79000000D03*
G04 #@! TD*
G04 #@! TO.C,J129*
X176000000Y-149000000D03*
G04 #@! TD*
D12*
G04 #@! TO.C,c108*
X129499936Y-155701143D03*
X127000064Y-155701143D03*
X127000064Y-157701143D03*
X129499936Y-157701143D03*
D13*
X122133668Y-160201016D03*
X134366332Y-160201016D03*
G04 #@! TD*
D10*
G04 #@! TO.C,J126*
X162000000Y-107000000D03*
G04 #@! TD*
G04 #@! TO.C,J116*
X190000000Y-149000000D03*
G04 #@! TD*
G04 #@! TO.C,J101*
X204000000Y-51000000D03*
G04 #@! TD*
G04 #@! TO.C,J111*
X204000000Y-107000000D03*
G04 #@! TD*
D14*
G04 #@! TO.C,BUZ101*
X87749999Y-104000064D03*
X87749999Y-111499936D03*
G04 #@! TD*
D10*
G04 #@! TO.C,J102*
X204000000Y-149000000D03*
G04 #@! TD*
G04 #@! TO.C,J124*
X162000000Y-93000000D03*
G04 #@! TD*
G04 #@! TO.C,J117*
X176000000Y-65000000D03*
G04 #@! TD*
D15*
G04 #@! TO.C,U103*
X111725000Y-151000000D03*
D16*
X111425000Y-147970000D03*
X106575000Y-147970000D03*
D15*
X106275000Y-151000000D03*
D17*
X117890000Y-151130000D03*
D18*
X117890000Y-148590000D03*
D19*
X117890000Y-146050000D03*
D18*
X117890000Y-143510000D03*
X117890000Y-140970000D03*
X117890000Y-138430000D03*
X117890000Y-135890000D03*
D19*
X117890000Y-133350000D03*
D18*
X117890000Y-130810000D03*
X117890000Y-128270000D03*
X117890000Y-125730000D03*
X117890000Y-123190000D03*
D19*
X117890000Y-120650000D03*
D18*
X117890000Y-118110000D03*
X117890000Y-115570000D03*
X117890000Y-113030000D03*
X117890000Y-110490000D03*
D19*
X117890000Y-107950000D03*
D18*
X117890000Y-105410000D03*
X117890000Y-102870000D03*
X100110000Y-102870000D03*
X100110000Y-105410000D03*
D20*
X100110000Y-107950000D03*
D18*
X100110000Y-110490000D03*
X100110000Y-113030000D03*
X100110000Y-115570000D03*
X100110000Y-118110000D03*
D20*
X100110000Y-120650000D03*
D18*
X100110000Y-123190000D03*
X100110000Y-125730000D03*
X100110000Y-128270000D03*
X100110000Y-130810000D03*
D20*
X100110000Y-133350000D03*
D18*
X100110000Y-135890000D03*
X100110000Y-138430000D03*
X100110000Y-140970000D03*
X100110000Y-143510000D03*
D20*
X100110000Y-146050000D03*
D18*
X100110000Y-148590000D03*
X100110000Y-151130000D03*
G04 #@! TD*
D21*
G04 #@! TO.C,H101*
X215000000Y-160000000D03*
G04 #@! TD*
D10*
G04 #@! TO.C,J112*
X190000000Y-121000000D03*
G04 #@! TD*
D11*
G04 #@! TO.C,P106*
X218770003Y-140080010D03*
X216229997Y-140080010D03*
X218770003Y-137540005D03*
X216229997Y-137540005D03*
X218770003Y-135000000D03*
X216229997Y-135000000D03*
X218770003Y-132459995D03*
X216229997Y-132459995D03*
X218770003Y-129919990D03*
X216229997Y-129919990D03*
G04 #@! TD*
D10*
G04 #@! TO.C,J123*
X176000000Y-93000000D03*
G04 #@! TD*
G04 #@! TO.C,J114*
X190000000Y-135000000D03*
G04 #@! TD*
G04 #@! TO.C,J105*
X190000000Y-79000000D03*
G04 #@! TD*
D11*
G04 #@! TO.C,P102*
X218770003Y-70080010D03*
X216229997Y-70080010D03*
X218770003Y-67540005D03*
X216229997Y-67540005D03*
X218770003Y-65000000D03*
X216229997Y-65000000D03*
X218770003Y-62459995D03*
X216229997Y-62459995D03*
X218770003Y-59919990D03*
X216229997Y-59919990D03*
G04 #@! TD*
D21*
G04 #@! TO.C,H102*
X85000000Y-40000000D03*
G04 #@! TD*
D10*
G04 #@! TO.C,J118*
X162000000Y-65000000D03*
G04 #@! TD*
G04 #@! TO.C,J120*
X176000000Y-51000000D03*
G04 #@! TD*
G04 #@! TO.C,J115*
X204000000Y-135000000D03*
G04 #@! TD*
D22*
G04 #@! TO.C,KEY101*
X87749999Y-59000000D03*
D23*
X90290004Y-55189993D03*
X92830010Y-61540005D03*
G04 #@! TD*
D21*
G04 #@! TO.C,H104*
X85000000Y-160000000D03*
G04 #@! TD*
D24*
G04 #@! TO.C,U141*
X119700025Y-69250000D03*
D25*
X115000000Y-69250000D03*
X110299975Y-69250000D03*
G04 #@! TD*
D10*
G04 #@! TO.C,J108*
X190000000Y-93000000D03*
G04 #@! TD*
G04 #@! TO.C,J110*
X190000000Y-107000000D03*
G04 #@! TD*
D24*
G04 #@! TO.C,U142*
X119700025Y-86253366D03*
D25*
X115000000Y-86253366D03*
X110299975Y-86253366D03*
G04 #@! TD*
D21*
G04 #@! TO.C,H103*
X215000000Y-40000000D03*
G04 #@! TD*
D24*
G04 #@! TO.C,U140*
X119700025Y-52000000D03*
D25*
X115000000Y-52000000D03*
X110299975Y-52000000D03*
G04 #@! TD*
D14*
G04 #@! TO.C,U102*
X80066382Y-81530105D03*
X80066382Y-86530105D03*
X80066382Y-84029978D03*
D26*
X87566510Y-89629927D03*
X87566510Y-78430029D03*
G04 #@! TD*
D10*
G04 #@! TO.C,J125*
X176000000Y-107000000D03*
G04 #@! TD*
G04 #@! TO.C,J113*
X204000000Y-121000000D03*
G04 #@! TD*
G04 #@! TO.C,J121*
X162000000Y-79000000D03*
G04 #@! TD*
G04 #@! TO.C,J127*
X176000000Y-121000000D03*
G04 #@! TD*
D27*
G04 #@! TO.C,J162*
X164950000Y-147705000D03*
D28*
X159950000Y-147705000D03*
G04 #@! TD*
M02*
