M48
; DRILL file {KiCad 7.0.7} date Mon Oct  9 21:47:46 2023
; FORMAT={-:-/ absolute / metric / decimal}
; #@! TF.CreationDate,2023-10-09T21:47:46+02:00
; #@! TF.GenerationSoftware,Kicad,Pcbnew,7.0.7
; #@! TF.FileFunction,MixedPlating,1,2
FMAT,2
METRIC
; #@! TA.AperFunction,Plated,PTH,ViaDrill
T1C0.400
; #@! TA.AperFunction,Plated,PTH,ComponentDrill
T2C1.000
; #@! TA.AperFunction,Plated,PTH,ComponentDrill
T3C1.050
; #@! TA.AperFunction,Plated,PTH,ComponentDrill
T4C4.100
; #@! TA.AperFunction,NonPlated,NPTH,ComponentDrill
T5C3.000
; #@! TA.AperFunction,NonPlated,NPTH,ComponentDrill
T6C4.300
%
G90
G05
T1
X78.836Y-111.186
X79.086Y-150.386
X80.927Y-36.886
X80.927Y-46.886
X80.927Y-76.886
X80.927Y-86.886
X80.927Y-156.886
X82.186Y-113.086
X90.927Y-36.886
X90.927Y-86.886
X90.927Y-116.886
X90.927Y-136.886
X92.236Y-161.136
X100.927Y-36.886
X100.927Y-46.886
X100.927Y-66.886
X100.927Y-76.886
X100.927Y-96.886
X100.927Y-106.886
X100.927Y-116.886
X100.927Y-146.886
X100.927Y-166.886
X110.927Y-36.886
X110.927Y-86.886
X110.927Y-96.886
X110.927Y-166.886
X114.536Y-88.786
X114.536Y-117.036
X114.586Y-144.786
X114.786Y-61.036
X116.536Y-90.036
X116.536Y-118.286
X116.586Y-146.036
X116.786Y-62.286
X120.036Y-50.036
X120.286Y-53.486
X120.927Y-36.886
X120.927Y-146.886
X120.927Y-166.886
X121.236Y-76.386
X121.286Y-104.636
X121.286Y-132.336
X121.486Y-48.586
X123.836Y-80.536
X123.886Y-136.436
X123.936Y-108.386
X130.927Y-36.886
X130.927Y-86.886
X130.927Y-96.886
X130.927Y-166.886
X140.927Y-36.886
X140.927Y-56.886
X140.927Y-86.886
X140.927Y-96.886
X140.927Y-166.886
X146.436Y-112.036
X147.036Y-140.436
X150.927Y-36.886
X150.927Y-126.886
X150.927Y-166.886
X151.986Y-69.636
X153.486Y-71.136
X157.036Y-53.286
X157.036Y-54.536
X157.036Y-67.286
X157.036Y-81.286
X157.036Y-82.536
X157.036Y-95.286
X157.036Y-96.536
X157.036Y-109.286
X157.036Y-110.536
X157.186Y-68.436
X160.286Y-129.536
X160.586Y-71.136
X160.636Y-72.236
X160.927Y-36.886
X160.927Y-46.886
X160.927Y-116.886
X160.927Y-166.886
X164.036Y-53.286
X164.036Y-54.536
X164.036Y-67.286
X164.036Y-81.286
X164.036Y-82.536
X164.036Y-95.286
X164.036Y-96.536
X164.036Y-109.286
X164.036Y-110.536
X164.036Y-123.286
X164.036Y-124.536
X164.036Y-137.286
X164.036Y-138.536
X164.036Y-151.286
X164.236Y-68.386
X165.786Y-148.786
X167.536Y-129.536
X167.636Y-71.136
X167.636Y-72.186
X170.927Y-36.886
X170.927Y-166.886
X171.036Y-53.286
X171.036Y-54.536
X171.036Y-67.286
X171.036Y-81.286
X171.036Y-82.536
X171.036Y-95.286
X171.036Y-96.536
X171.036Y-109.286
X171.036Y-110.536
X171.036Y-123.286
X171.036Y-137.286
X171.036Y-138.536
X171.036Y-151.286
X171.086Y-124.486
X171.136Y-68.436
X172.786Y-148.786
X174.536Y-129.536
X174.636Y-71.136
X174.686Y-72.286
X178.036Y-53.286
X178.036Y-54.536
X178.036Y-67.286
X178.036Y-81.286
X178.036Y-82.536
X178.036Y-95.286
X178.036Y-96.536
X178.036Y-109.286
X178.036Y-110.536
X178.036Y-123.286
X178.036Y-137.286
X178.036Y-138.536
X178.036Y-151.286
X178.136Y-124.536
X178.286Y-68.436
X179.786Y-148.786
X180.927Y-36.886
X180.927Y-46.886
X180.927Y-56.886
X180.927Y-66.886
X180.927Y-76.886
X180.927Y-86.886
X180.927Y-96.886
X180.927Y-106.886
X180.927Y-116.886
X180.927Y-126.886
X180.927Y-136.886
X180.927Y-146.886
X180.927Y-166.886
X188.236Y-156.536
X188.786Y-40.011
X188.786Y-43.461
X190.086Y-40.011
X190.086Y-43.461
X190.927Y-36.886
X190.927Y-46.886
X190.927Y-56.886
X190.927Y-66.886
X190.927Y-76.886
X190.927Y-96.886
X190.927Y-106.886
X190.927Y-116.886
X190.927Y-126.886
X190.927Y-136.886
X190.927Y-146.886
X190.927Y-166.886
X191.286Y-40.011
X191.286Y-43.461
X193.286Y-40.711
X193.336Y-41.711
X193.336Y-42.711
X200.927Y-36.886
X200.927Y-46.886
X200.927Y-56.886
X200.927Y-66.886
X200.927Y-76.886
X200.927Y-86.886
X200.927Y-96.886
X200.927Y-106.886
X200.927Y-116.886
X200.927Y-126.886
X200.927Y-136.886
X200.927Y-156.886
X200.927Y-166.886
X203.836Y-140.586
X210.927Y-36.886
X210.927Y-46.886
X210.927Y-56.886
X210.927Y-66.886
X210.927Y-76.886
X210.927Y-96.886
X210.927Y-146.886
X210.927Y-156.886
X210.927Y-166.886
X213.036Y-106.286
X213.736Y-127.936
X220.927Y-36.886
X220.927Y-46.886
X220.927Y-56.886
X220.927Y-66.886
X220.927Y-76.886
X220.927Y-86.886
X220.927Y-96.886
X220.927Y-106.886
X220.927Y-116.886
X220.927Y-126.886
X220.927Y-136.886
X220.927Y-146.886
X220.927Y-156.886
X220.927Y-166.886
T2
X80.996Y-58.456
X80.996Y-60.996
X80.996Y-63.536
X80.996Y-66.076
X80.996Y-68.616
X80.996Y-93.416
X80.996Y-95.956
X80.996Y-98.496
X80.996Y-101.036
X80.996Y-103.576
X80.996Y-128.416
X80.996Y-130.956
X80.996Y-133.496
X80.996Y-136.036
X80.996Y-138.576
X83.536Y-58.456
X83.536Y-60.996
X83.536Y-63.536
X83.536Y-66.076
X83.536Y-68.616
X83.536Y-93.416
X83.536Y-95.956
X83.536Y-98.496
X83.536Y-101.036
X83.536Y-103.576
X83.536Y-128.416
X83.536Y-130.956
X83.536Y-133.496
X83.536Y-136.036
X83.536Y-138.576
T3
X212.736Y-94.686
X212.736Y-97.226
X212.736Y-99.766
X212.736Y-102.306
T4
X95.536Y-49.536
X95.536Y-63.536
X95.536Y-77.536
X95.536Y-91.536
X95.536Y-105.536
X109.536Y-49.536
X109.536Y-63.536
X109.536Y-77.536
X109.536Y-91.536
X109.536Y-105.536
X109.536Y-119.536
X109.536Y-133.536
X109.536Y-147.536
X128.536Y-49.536
X128.536Y-63.536
X128.536Y-77.536
X128.536Y-91.536
X128.536Y-105.536
X128.536Y-119.536
X128.536Y-133.536
X128.536Y-147.536
X142.536Y-49.536
X142.536Y-63.536
X142.536Y-77.536
X142.536Y-91.536
X142.536Y-105.536
X142.536Y-119.536
X142.536Y-133.536
X142.536Y-147.536
T5
X189.136Y-86.746
X189.136Y-110.246
X212.936Y-86.746
X212.936Y-110.246
T6
X85.0Y-40.0
X85.0Y-160.0
X215.0Y-40.0
X215.0Y-160.0
T0
M30
