G04 #@! TF.GenerationSoftware,KiCad,Pcbnew,7.0.7*
G04 #@! TF.CreationDate,2023-10-09T21:47:46+02:00*
G04 #@! TF.ProjectId,Kaboom_box_top,4b61626f-6f6d-45f6-926f-785f746f702e,rev?*
G04 #@! TF.SameCoordinates,Original*
G04 #@! TF.FileFunction,Soldermask,Top*
G04 #@! TF.FilePolarity,Negative*
%FSLAX46Y46*%
G04 Gerber Fmt 4.6, Leading zero omitted, Abs format (unit mm)*
G04 Created by KiCad (PCBNEW 7.0.7) date 2023-10-09 21:47:46*
%MOMM*%
%LPD*%
G01*
G04 APERTURE LIST*
G04 Aperture macros list*
%AMRoundRect*
0 Rectangle with rounded corners*
0 $1 Rounding radius*
0 $2 $3 $4 $5 $6 $7 $8 $9 X,Y pos of 4 corners*
0 Add a 4 corners polygon primitive as box body*
4,1,4,$2,$3,$4,$5,$6,$7,$8,$9,$2,$3,0*
0 Add four circle primitives for the rounded corners*
1,1,$1+$1,$2,$3*
1,1,$1+$1,$4,$5*
1,1,$1+$1,$6,$7*
1,1,$1+$1,$8,$9*
0 Add four rect primitives between the rounded corners*
20,1,$1+$1,$2,$3,$4,$5,0*
20,1,$1+$1,$4,$5,$6,$7,0*
20,1,$1+$1,$6,$7,$8,$9,0*
20,1,$1+$1,$8,$9,$2,$3,0*%
G04 Aperture macros list end*
%ADD10C,7.600000*%
%ADD11RoundRect,0.050000X-0.450000X0.750000X-0.450000X-0.750000X0.450000X-0.750000X0.450000X0.750000X0*%
%ADD12RoundRect,0.050000X-0.450000X1.250000X-0.450000X-1.250000X0.450000X-1.250000X0.450000X1.250000X0*%
%ADD13RoundRect,0.050000X-0.450000X0.900000X-0.450000X-0.900000X0.450000X-0.900000X0.450000X0.900000X0*%
%ADD14RoundRect,0.050000X-0.450000X1.400000X-0.450000X-1.400000X0.450000X-1.400000X0.450000X1.400000X0*%
%ADD15RoundRect,0.050000X0.400000X0.450000X-0.400000X0.450000X-0.400000X-0.450000X0.400000X-0.450000X0*%
%ADD16C,1.624003*%
%ADD17C,3.100000*%
%ADD18C,1.900000*%
%ADD19RoundRect,0.050000X-2.100000X-0.700000X2.100000X-0.700000X2.100000X0.700000X-2.100000X0.700000X0*%
%ADD20RoundRect,0.050000X0.450000X-0.400000X0.450000X0.400000X-0.450000X0.400000X-0.450000X-0.400000X0*%
%ADD21C,4.400000*%
%ADD22O,2.070993X0.702007*%
G04 APERTURE END LIST*
D10*
G04 #@! TO.C,J136*
X142535534Y-133535534D03*
G04 #@! TD*
D11*
G04 #@! TO.C,U176*
X157135598Y-75960604D03*
D12*
X155385534Y-76360655D03*
D13*
X155385534Y-79110464D03*
D14*
X157135598Y-78710667D03*
G04 #@! TD*
D11*
G04 #@! TO.C,U174*
X157135598Y-47960604D03*
D12*
X155385534Y-48360655D03*
D13*
X155385534Y-51110464D03*
D14*
X157135598Y-50710667D03*
G04 #@! TD*
D11*
G04 #@! TO.C,U153*
X178135598Y-89960604D03*
D12*
X176385534Y-90360655D03*
D13*
X176385534Y-93110464D03*
D14*
X178135598Y-92710667D03*
G04 #@! TD*
D15*
G04 #@! TO.C,C116*
X122939503Y-50035534D03*
X121539453Y-50035534D03*
G04 #@! TD*
D11*
G04 #@! TO.C,U162*
X171135598Y-103960604D03*
D12*
X169385534Y-104360655D03*
D13*
X169385534Y-107110464D03*
D14*
X171135598Y-106710667D03*
G04 #@! TD*
D10*
G04 #@! TO.C,J137*
X142535534Y-147535534D03*
G04 #@! TD*
D11*
G04 #@! TO.C,U163*
X171135598Y-117960604D03*
D12*
X169385534Y-118360655D03*
D13*
X169385534Y-121110464D03*
D14*
X171135598Y-120710667D03*
G04 #@! TD*
D10*
G04 #@! TO.C,J135*
X142535534Y-119535534D03*
G04 #@! TD*
G04 #@! TO.C,J155*
X95535534Y-63535534D03*
G04 #@! TD*
D16*
G04 #@! TO.C,P101*
X83535534Y-68615544D03*
X80995528Y-68615544D03*
X83535534Y-66075539D03*
X80995528Y-66075539D03*
X83535534Y-63535534D03*
X80995528Y-63535534D03*
X83535534Y-60995529D03*
X80995528Y-60995529D03*
X83535534Y-58455524D03*
X80995528Y-58455524D03*
G04 #@! TD*
D17*
G04 #@! TO.C,U144*
X212936068Y-86745529D03*
X189136068Y-86745529D03*
X212936068Y-110245529D03*
X189136068Y-110245529D03*
D18*
X212736068Y-94685521D03*
X212736068Y-97225526D03*
X212736068Y-99765532D03*
X212736068Y-102305537D03*
G04 #@! TD*
D10*
G04 #@! TO.C,J139*
X128535534Y-63535534D03*
G04 #@! TD*
G04 #@! TO.C,J154*
X95535534Y-49535534D03*
G04 #@! TD*
G04 #@! TO.C,J138*
X128535534Y-49535534D03*
G04 #@! TD*
D11*
G04 #@! TO.C,U173*
X164135598Y-145960604D03*
D12*
X162385534Y-146360655D03*
D13*
X162385534Y-149110464D03*
D14*
X164135598Y-148710667D03*
G04 #@! TD*
D11*
G04 #@! TO.C,U169*
X164135598Y-89960604D03*
D12*
X162385534Y-90360655D03*
D13*
X162385534Y-93110464D03*
D14*
X164135598Y-92710667D03*
G04 #@! TD*
D11*
G04 #@! TO.C,U159*
X171135598Y-61960604D03*
D12*
X169385534Y-62360655D03*
D13*
X169385534Y-65110464D03*
D14*
X171135598Y-64710667D03*
G04 #@! TD*
D19*
G04 #@! TO.C,C128*
X183551116Y-41710534D03*
X190085534Y-41710534D03*
G04 #@! TD*
D11*
G04 #@! TO.C,U155*
X178135598Y-117960604D03*
D12*
X176385534Y-118360655D03*
D13*
X176385534Y-121110464D03*
D14*
X178135598Y-120710667D03*
G04 #@! TD*
D20*
G04 #@! TO.C,C120*
X174535534Y-69585559D03*
X174535534Y-68185509D03*
G04 #@! TD*
G04 #@! TO.C,C122*
X167535534Y-69585559D03*
X167535534Y-68185509D03*
G04 #@! TD*
G04 #@! TO.C,C124*
X160535534Y-69585559D03*
X160535534Y-68185509D03*
G04 #@! TD*
D10*
G04 #@! TO.C,J156*
X95535534Y-77535534D03*
G04 #@! TD*
D21*
G04 #@! TO.C,H108*
X85000000Y-160000000D03*
G04 #@! TD*
D10*
G04 #@! TO.C,J131*
X142535534Y-63535534D03*
G04 #@! TD*
D20*
G04 #@! TO.C,C121*
X174535534Y-125685559D03*
X174535534Y-124285509D03*
G04 #@! TD*
D11*
G04 #@! TO.C,U151*
X178135598Y-61960604D03*
D12*
X176385534Y-62360655D03*
D13*
X176385534Y-65110464D03*
D14*
X178135598Y-64710667D03*
G04 #@! TD*
D11*
G04 #@! TO.C,U164*
X171135598Y-131960604D03*
D12*
X169385534Y-132360655D03*
D13*
X169385534Y-135110464D03*
D14*
X171135598Y-134710667D03*
G04 #@! TD*
D11*
G04 #@! TO.C,U177*
X157135598Y-89960604D03*
D12*
X155385534Y-90360655D03*
D13*
X155385534Y-93110464D03*
D14*
X157135598Y-92710667D03*
G04 #@! TD*
D10*
G04 #@! TO.C,J132*
X142535534Y-77535534D03*
G04 #@! TD*
D11*
G04 #@! TO.C,U158*
X171135598Y-47960604D03*
D12*
X169385534Y-48360655D03*
D13*
X169385534Y-51110464D03*
D14*
X171135598Y-50710667D03*
G04 #@! TD*
D10*
G04 #@! TO.C,J151*
X109535534Y-119535534D03*
G04 #@! TD*
G04 #@! TO.C,J150*
X109535534Y-105535534D03*
G04 #@! TD*
D22*
G04 #@! TO.C,U148*
X116589402Y-135812881D03*
X116589402Y-137082884D03*
X116589402Y-138352886D03*
X116589402Y-139622889D03*
X116589402Y-140892891D03*
X116589402Y-142162894D03*
X116589402Y-143432896D03*
X116589402Y-144702899D03*
X122060572Y-144702899D03*
X122060572Y-143432896D03*
X122060572Y-142162894D03*
X122060572Y-140892891D03*
X122060572Y-139622889D03*
X122060572Y-138352886D03*
X122060572Y-137082884D03*
X122060572Y-135812881D03*
G04 #@! TD*
D11*
G04 #@! TO.C,U170*
X164135598Y-103960604D03*
D12*
X162385534Y-104360655D03*
D13*
X162385534Y-107110464D03*
D14*
X164135598Y-106710667D03*
G04 #@! TD*
D10*
G04 #@! TO.C,J144*
X128535534Y-133535534D03*
G04 #@! TD*
G04 #@! TO.C,J157*
X95535534Y-91535534D03*
G04 #@! TD*
G04 #@! TO.C,J147*
X109535534Y-63535534D03*
G04 #@! TD*
D11*
G04 #@! TO.C,U168*
X164135598Y-75960604D03*
D12*
X162385534Y-76360655D03*
D13*
X162385534Y-79110464D03*
D14*
X164135598Y-78710667D03*
G04 #@! TD*
D10*
G04 #@! TO.C,J152*
X109535534Y-133535534D03*
G04 #@! TD*
D16*
G04 #@! TO.C,P103*
X83535534Y-103575539D03*
X80995528Y-103575539D03*
X83535534Y-101035534D03*
X80995528Y-101035534D03*
X83535534Y-98495529D03*
X80995528Y-98495529D03*
X83535534Y-95955524D03*
X80995528Y-95955524D03*
X83535534Y-93415519D03*
X80995528Y-93415519D03*
G04 #@! TD*
D10*
G04 #@! TO.C,J145*
X128535534Y-147535534D03*
G04 #@! TD*
G04 #@! TO.C,J143*
X128535534Y-119535534D03*
G04 #@! TD*
G04 #@! TO.C,J148*
X109535534Y-77535534D03*
G04 #@! TD*
D11*
G04 #@! TO.C,U167*
X164135598Y-61960604D03*
D12*
X162385534Y-62360655D03*
D13*
X162385534Y-65110464D03*
D14*
X164135598Y-64710667D03*
G04 #@! TD*
D20*
G04 #@! TO.C,C125*
X160285534Y-125685559D03*
X160285534Y-124285509D03*
G04 #@! TD*
D11*
G04 #@! TO.C,U156*
X178135598Y-131960604D03*
D12*
X176385534Y-132360655D03*
D13*
X176385534Y-135110464D03*
D14*
X178135598Y-134710667D03*
G04 #@! TD*
D11*
G04 #@! TO.C,U160*
X171135598Y-75960604D03*
D12*
X169385534Y-76360655D03*
D13*
X169385534Y-79110464D03*
D14*
X171135598Y-78710667D03*
G04 #@! TD*
D15*
G04 #@! TO.C,C117*
X122760597Y-77785534D03*
X121360547Y-77785534D03*
G04 #@! TD*
D10*
G04 #@! TO.C,J142*
X128535534Y-105535534D03*
G04 #@! TD*
D15*
G04 #@! TO.C,C119*
X122760597Y-133785534D03*
X121360547Y-133785534D03*
G04 #@! TD*
D11*
G04 #@! TO.C,U161*
X171135598Y-89960604D03*
D12*
X169385534Y-90360655D03*
D13*
X169385534Y-93110464D03*
D14*
X171135598Y-92710667D03*
G04 #@! TD*
D10*
G04 #@! TO.C,J149*
X109535534Y-91535534D03*
G04 #@! TD*
D11*
G04 #@! TO.C,U178*
X157135598Y-103960604D03*
D12*
X155385534Y-104360655D03*
D13*
X155385534Y-107110464D03*
D14*
X157135598Y-106710667D03*
G04 #@! TD*
D20*
G04 #@! TO.C,C126*
X153485534Y-69585559D03*
X153485534Y-68185509D03*
G04 #@! TD*
D15*
G04 #@! TO.C,C118*
X122760597Y-106035534D03*
X121360547Y-106035534D03*
G04 #@! TD*
D11*
G04 #@! TO.C,U152*
X178135598Y-75960604D03*
D12*
X176385534Y-76360655D03*
D13*
X176385534Y-79110464D03*
D14*
X178135598Y-78710667D03*
G04 #@! TD*
D11*
G04 #@! TO.C,U175*
X157135598Y-61960604D03*
D12*
X155385534Y-62360655D03*
D13*
X155385534Y-65110464D03*
D14*
X157135598Y-64710667D03*
G04 #@! TD*
D10*
G04 #@! TO.C,J146*
X109535534Y-49535534D03*
G04 #@! TD*
D11*
G04 #@! TO.C,U154*
X178135598Y-103960604D03*
D12*
X176385534Y-104360655D03*
D13*
X176385534Y-107110464D03*
D14*
X178135598Y-106710667D03*
G04 #@! TD*
D10*
G04 #@! TO.C,J141*
X128535534Y-91535534D03*
G04 #@! TD*
G04 #@! TO.C,J153*
X109535534Y-147535534D03*
G04 #@! TD*
D21*
G04 #@! TO.C,H105*
X215000000Y-40000000D03*
G04 #@! TD*
D10*
G04 #@! TO.C,J130*
X142535534Y-49535534D03*
G04 #@! TD*
D22*
G04 #@! TO.C,U145*
X116768308Y-52217592D03*
X116768308Y-53487595D03*
X116768308Y-54757597D03*
X116768308Y-56027600D03*
X116768308Y-57297602D03*
X116768308Y-58567605D03*
X116768308Y-59837607D03*
X116768308Y-61107610D03*
X122239478Y-61107610D03*
X122239478Y-59837607D03*
X122239478Y-58567605D03*
X122239478Y-57297602D03*
X122239478Y-56027600D03*
X122239478Y-54757597D03*
X122239478Y-53487595D03*
X122239478Y-52217592D03*
G04 #@! TD*
D20*
G04 #@! TO.C,C123*
X167535534Y-125685559D03*
X167535534Y-124285509D03*
G04 #@! TD*
D10*
G04 #@! TO.C,J158*
X95535534Y-105535534D03*
G04 #@! TD*
D11*
G04 #@! TO.C,U166*
X164135598Y-47960604D03*
D12*
X162385534Y-48360655D03*
D13*
X162385534Y-51110464D03*
D14*
X164135598Y-50710667D03*
G04 #@! TD*
D10*
G04 #@! TO.C,J140*
X128535534Y-77535534D03*
G04 #@! TD*
D11*
G04 #@! TO.C,U165*
X171135598Y-145960604D03*
D12*
X169385534Y-146360655D03*
D13*
X169385534Y-149110464D03*
D14*
X171135598Y-148710667D03*
G04 #@! TD*
D16*
G04 #@! TO.C,P105*
X83535534Y-138575538D03*
X80995528Y-138575538D03*
X83535534Y-136035533D03*
X80995528Y-136035533D03*
X83535534Y-133495528D03*
X80995528Y-133495528D03*
X83535534Y-130955523D03*
X80995528Y-130955523D03*
X83535534Y-128415518D03*
X80995528Y-128415518D03*
G04 #@! TD*
D10*
G04 #@! TO.C,J133*
X142535534Y-91535534D03*
G04 #@! TD*
D11*
G04 #@! TO.C,U172*
X164135598Y-131960604D03*
D12*
X162385534Y-132360655D03*
D13*
X162385534Y-135110464D03*
D14*
X164135598Y-134710667D03*
G04 #@! TD*
D22*
G04 #@! TO.C,U147*
X116589402Y-108217592D03*
X116589402Y-109487595D03*
X116589402Y-110757597D03*
X116589402Y-112027600D03*
X116589402Y-113297602D03*
X116589402Y-114567605D03*
X116589402Y-115837607D03*
X116589402Y-117107610D03*
X122060572Y-117107610D03*
X122060572Y-115837607D03*
X122060572Y-114567605D03*
X122060572Y-113297602D03*
X122060572Y-112027600D03*
X122060572Y-110757597D03*
X122060572Y-109487595D03*
X122060572Y-108217592D03*
G04 #@! TD*
D11*
G04 #@! TO.C,U171*
X164135598Y-117960604D03*
D12*
X162385534Y-118360655D03*
D13*
X162385534Y-121110464D03*
D14*
X164135598Y-120710667D03*
G04 #@! TD*
D22*
G04 #@! TO.C,U146*
X116589402Y-79925783D03*
X116589402Y-81195786D03*
X116589402Y-82465788D03*
X116589402Y-83735791D03*
X116589402Y-85005793D03*
X116589402Y-86275796D03*
X116589402Y-87545798D03*
X116589402Y-88815801D03*
X122060572Y-88815801D03*
X122060572Y-87545798D03*
X122060572Y-86275796D03*
X122060572Y-85005793D03*
X122060572Y-83735791D03*
X122060572Y-82465788D03*
X122060572Y-81195786D03*
X122060572Y-79925783D03*
G04 #@! TD*
D11*
G04 #@! TO.C,U157*
X178135598Y-145960604D03*
D12*
X176385534Y-146360655D03*
D13*
X176385534Y-149110464D03*
D14*
X178135598Y-148710667D03*
G04 #@! TD*
D21*
G04 #@! TO.C,H106*
X85000000Y-40000000D03*
G04 #@! TD*
G04 #@! TO.C,H107*
X215000000Y-160000000D03*
G04 #@! TD*
D10*
G04 #@! TO.C,J134*
X142535534Y-105535534D03*
G04 #@! TD*
D11*
G04 #@! TO.C,U150*
X178135598Y-47960604D03*
D12*
X176385534Y-48360655D03*
D13*
X176385534Y-51110464D03*
D14*
X178135598Y-50710667D03*
G04 #@! TD*
M02*
