G04 #@! TF.GenerationSoftware,KiCad,Pcbnew,7.0.7*
G04 #@! TF.CreationDate,2023-10-09T21:47:46+02:00*
G04 #@! TF.ProjectId,Kaboom_box_top,4b61626f-6f6d-45f6-926f-785f746f702e,rev?*
G04 #@! TF.SameCoordinates,Original*
G04 #@! TF.FileFunction,Legend,Top*
G04 #@! TF.FilePolarity,Positive*
%FSLAX46Y46*%
G04 Gerber Fmt 4.6, Leading zero omitted, Abs format (unit mm)*
G04 Created by KiCad (PCBNEW 7.0.7) date 2023-10-09 21:47:46*
%MOMM*%
%LPD*%
G01*
G04 APERTURE LIST*
%ADD10C,0.500000*%
%ADD11C,1.000000*%
%ADD12C,0.150000*%
%ADD13C,0.120000*%
%ADD14C,0.254000*%
%ADD15C,0.059995*%
%ADD16C,0.152400*%
%ADD17C,0.300000*%
G04 APERTURE END LIST*
D10*
X176603914Y-44033153D02*
X176603914Y-45937915D01*
X175461057Y-43652201D02*
X179461057Y-44985534D01*
X179461057Y-44985534D02*
X175461057Y-46318868D01*
X168461057Y-88223629D02*
X168461057Y-86318867D01*
X168461057Y-86318867D02*
X172461057Y-86318867D01*
X177556295Y-100128390D02*
X177556295Y-101461724D01*
X175461057Y-102033152D02*
X175461057Y-100128390D01*
X175461057Y-100128390D02*
X179461057Y-100128390D01*
X179461057Y-100128390D02*
X179461057Y-102033152D01*
X158211057Y-57652200D02*
X158211057Y-60318867D01*
X158211057Y-60318867D02*
X154211057Y-57652200D01*
X154211057Y-57652200D02*
X154211057Y-60318867D01*
X160830105Y-46509343D02*
X161020581Y-46128391D01*
X161020581Y-46128391D02*
X161401534Y-45747438D01*
X161401534Y-45747438D02*
X161972962Y-45176010D01*
X161972962Y-45176010D02*
X162163438Y-44795057D01*
X162163438Y-44795057D02*
X162163438Y-44414105D01*
X161211057Y-44604581D02*
X161401534Y-44223629D01*
X161401534Y-44223629D02*
X161782486Y-43842676D01*
X161782486Y-43842676D02*
X162544391Y-43652200D01*
X162544391Y-43652200D02*
X163877724Y-43652200D01*
X163877724Y-43652200D02*
X164639629Y-43842676D01*
X164639629Y-43842676D02*
X165020581Y-44223629D01*
X165020581Y-44223629D02*
X165211057Y-44604581D01*
X165211057Y-44604581D02*
X165211057Y-45366486D01*
X165211057Y-45366486D02*
X165020581Y-45747438D01*
X165020581Y-45747438D02*
X164639629Y-46128391D01*
X164639629Y-46128391D02*
X163877724Y-46318867D01*
X163877724Y-46318867D02*
X162544391Y-46318867D01*
X162544391Y-46318867D02*
X161782486Y-46128391D01*
X161782486Y-46128391D02*
X161401534Y-45747438D01*
X161401534Y-45747438D02*
X161211057Y-45366486D01*
X161211057Y-45366486D02*
X161211057Y-44604581D01*
X126711057Y-70737914D02*
X130711057Y-70737914D01*
X126711057Y-73023629D02*
X128996772Y-71309343D01*
X130711057Y-73023629D02*
X128425343Y-70737914D01*
X175461057Y-141842676D02*
X179461057Y-141842676D01*
X177556295Y-141842676D02*
X177556295Y-144128391D01*
X175461057Y-144128391D02*
X179461057Y-144128391D01*
X158211057Y-88509343D02*
X154211057Y-85461724D01*
X154211057Y-86604581D02*
X154401534Y-86223629D01*
X154401534Y-86223629D02*
X154782486Y-85842676D01*
X154782486Y-85842676D02*
X155544391Y-85652200D01*
X155544391Y-85652200D02*
X156877724Y-85652200D01*
X156877724Y-85652200D02*
X157639629Y-85842676D01*
X157639629Y-85842676D02*
X158020581Y-86223629D01*
X158020581Y-86223629D02*
X158211057Y-86604581D01*
X158211057Y-86604581D02*
X158211057Y-87366486D01*
X158211057Y-87366486D02*
X158020581Y-87747438D01*
X158020581Y-87747438D02*
X157639629Y-88128391D01*
X157639629Y-88128391D02*
X156877724Y-88318867D01*
X156877724Y-88318867D02*
X155544391Y-88318867D01*
X155544391Y-88318867D02*
X154782486Y-88128391D01*
X154782486Y-88128391D02*
X154401534Y-87747438D01*
X154401534Y-87747438D02*
X154211057Y-87366486D01*
X154211057Y-87366486D02*
X154211057Y-86604581D01*
X165211057Y-141652200D02*
X161211057Y-144318867D01*
X165211057Y-144318867D02*
X161211057Y-141652200D01*
X165211057Y-127271248D02*
X161211057Y-128223629D01*
X161211057Y-128223629D02*
X164068200Y-128985534D01*
X164068200Y-128985534D02*
X161211057Y-129747439D01*
X161211057Y-129747439D02*
X165211057Y-130699820D01*
X175842010Y-74223629D02*
X175651534Y-74033153D01*
X175651534Y-74033153D02*
X175461057Y-73461724D01*
X175461057Y-73461724D02*
X175461057Y-73080772D01*
X175461057Y-73080772D02*
X175651534Y-72509343D01*
X175651534Y-72509343D02*
X176032486Y-72128391D01*
X176032486Y-72128391D02*
X176413438Y-71937914D01*
X176413438Y-71937914D02*
X177175343Y-71747438D01*
X177175343Y-71747438D02*
X177746772Y-71747438D01*
X177746772Y-71747438D02*
X178508676Y-71937914D01*
X178508676Y-71937914D02*
X178889629Y-72128391D01*
X178889629Y-72128391D02*
X179270581Y-72509343D01*
X179270581Y-72509343D02*
X179461057Y-73080772D01*
X179461057Y-73080772D02*
X179461057Y-73461724D01*
X179461057Y-73461724D02*
X179270581Y-74033153D01*
X179270581Y-74033153D02*
X179080105Y-74223629D01*
X177556295Y-115556963D02*
X177556295Y-114223629D01*
X175461057Y-114223629D02*
X179461057Y-114223629D01*
X179461057Y-114223629D02*
X179461057Y-116128391D01*
X179270581Y-130033153D02*
X179461057Y-129652200D01*
X179461057Y-129652200D02*
X179461057Y-129080772D01*
X179461057Y-129080772D02*
X179270581Y-128509343D01*
X179270581Y-128509343D02*
X178889629Y-128128391D01*
X178889629Y-128128391D02*
X178508676Y-127937914D01*
X178508676Y-127937914D02*
X177746772Y-127747438D01*
X177746772Y-127747438D02*
X177175343Y-127747438D01*
X177175343Y-127747438D02*
X176413438Y-127937914D01*
X176413438Y-127937914D02*
X176032486Y-128128391D01*
X176032486Y-128128391D02*
X175651534Y-128509343D01*
X175651534Y-128509343D02*
X175461057Y-129080772D01*
X175461057Y-129080772D02*
X175461057Y-129461724D01*
X175461057Y-129461724D02*
X175651534Y-130033153D01*
X175651534Y-130033153D02*
X175842010Y-130223629D01*
X175842010Y-130223629D02*
X177175343Y-130223629D01*
X177175343Y-130223629D02*
X177175343Y-129461724D01*
X111461057Y-140452200D02*
X107461057Y-143118867D01*
X111461057Y-143118867D02*
X107461057Y-140452200D01*
X126711057Y-43785533D02*
X130711057Y-43785533D01*
X107651534Y-70642676D02*
X107461057Y-71214105D01*
X107461057Y-71214105D02*
X107461057Y-72166486D01*
X107461057Y-72166486D02*
X107651534Y-72547438D01*
X107651534Y-72547438D02*
X107842010Y-72737914D01*
X107842010Y-72737914D02*
X108222962Y-72928391D01*
X108222962Y-72928391D02*
X108603914Y-72928391D01*
X108603914Y-72928391D02*
X108984867Y-72737914D01*
X108984867Y-72737914D02*
X109175343Y-72547438D01*
X109175343Y-72547438D02*
X109365819Y-72166486D01*
X109365819Y-72166486D02*
X109556295Y-71404581D01*
X109556295Y-71404581D02*
X109746772Y-71023629D01*
X109746772Y-71023629D02*
X109937248Y-70833152D01*
X109937248Y-70833152D02*
X110318200Y-70642676D01*
X110318200Y-70642676D02*
X110699153Y-70642676D01*
X110699153Y-70642676D02*
X111080105Y-70833152D01*
X111080105Y-70833152D02*
X111270581Y-71023629D01*
X111270581Y-71023629D02*
X111461057Y-71404581D01*
X111461057Y-71404581D02*
X111461057Y-72356962D01*
X111461057Y-72356962D02*
X111270581Y-72928391D01*
X172461057Y-59556963D02*
X169603914Y-59556963D01*
X169603914Y-59556963D02*
X169032486Y-59366486D01*
X169032486Y-59366486D02*
X168651534Y-58985534D01*
X168651534Y-58985534D02*
X168461057Y-58414105D01*
X168461057Y-58414105D02*
X168461057Y-58033153D01*
X155353914Y-100033153D02*
X155353914Y-101937915D01*
X154211057Y-99652201D02*
X158211057Y-100985534D01*
X158211057Y-100985534D02*
X154211057Y-102318868D01*
X158211057Y-100985534D02*
X158401534Y-100604582D01*
X158401534Y-100604582D02*
X158782486Y-100414106D01*
X158782486Y-100414106D02*
X159163438Y-100604582D01*
X159163438Y-100604582D02*
X159353914Y-100985534D01*
X159353914Y-100985534D02*
X159163438Y-101366487D01*
X159163438Y-101366487D02*
X158782486Y-101556963D01*
X158782486Y-101556963D02*
X158401534Y-101366487D01*
X158401534Y-101366487D02*
X158211057Y-100985534D01*
X94603914Y-70071248D02*
X94603914Y-71595058D01*
X95556295Y-71595058D02*
X95556295Y-72928391D01*
X93461057Y-69690296D02*
X97461057Y-71023629D01*
X97461057Y-71023629D02*
X97461057Y-73499820D01*
X97461057Y-71595058D02*
X93461057Y-71595058D01*
X93461057Y-71595058D02*
X93461057Y-73499820D01*
X168461057Y-71937914D02*
X172461057Y-71937914D01*
X168461057Y-74223629D02*
X170746772Y-72509343D01*
X172461057Y-74223629D02*
X170175343Y-71937914D01*
X168461057Y-44985533D02*
X172461057Y-44985533D01*
X142806295Y-114356963D02*
X142806295Y-113023629D01*
X140711057Y-113023629D02*
X144711057Y-113023629D01*
X144711057Y-113023629D02*
X144711057Y-114928391D01*
X156115819Y-44985534D02*
X154211057Y-44985534D01*
X158211057Y-43652201D02*
X156115819Y-44985534D01*
X156115819Y-44985534D02*
X158211057Y-46318868D01*
X168461057Y-99652200D02*
X172461057Y-99652200D01*
X172461057Y-99652200D02*
X169603914Y-100985534D01*
X169603914Y-100985534D02*
X172461057Y-102318867D01*
X172461057Y-102318867D02*
X168461057Y-102318867D01*
X126711057Y-140737914D02*
X130711057Y-140737914D01*
X130711057Y-140737914D02*
X130711057Y-142261724D01*
X130711057Y-142261724D02*
X130520581Y-142642676D01*
X130520581Y-142642676D02*
X130330105Y-142833153D01*
X130330105Y-142833153D02*
X129949153Y-143023629D01*
X129949153Y-143023629D02*
X129377724Y-143023629D01*
X129377724Y-143023629D02*
X128996772Y-142833153D01*
X128996772Y-142833153D02*
X128806295Y-142642676D01*
X128806295Y-142642676D02*
X128615819Y-142261724D01*
X128615819Y-142261724D02*
X128615819Y-140737914D01*
X161401534Y-71842676D02*
X161211057Y-72414105D01*
X161211057Y-72414105D02*
X161211057Y-73366486D01*
X161211057Y-73366486D02*
X161401534Y-73747438D01*
X161401534Y-73747438D02*
X161592010Y-73937914D01*
X161592010Y-73937914D02*
X161972962Y-74128391D01*
X161972962Y-74128391D02*
X162353914Y-74128391D01*
X162353914Y-74128391D02*
X162734867Y-73937914D01*
X162734867Y-73937914D02*
X162925343Y-73747438D01*
X162925343Y-73747438D02*
X163115819Y-73366486D01*
X163115819Y-73366486D02*
X163306295Y-72604581D01*
X163306295Y-72604581D02*
X163496772Y-72223629D01*
X163496772Y-72223629D02*
X163687248Y-72033152D01*
X163687248Y-72033152D02*
X164068200Y-71842676D01*
X164068200Y-71842676D02*
X164449153Y-71842676D01*
X164449153Y-71842676D02*
X164830105Y-72033152D01*
X164830105Y-72033152D02*
X165020581Y-72223629D01*
X165020581Y-72223629D02*
X165211057Y-72604581D01*
X165211057Y-72604581D02*
X165211057Y-73556962D01*
X165211057Y-73556962D02*
X165020581Y-74128391D01*
X204138676Y-116864104D02*
X207138676Y-116864104D01*
X206138676Y-117864104D02*
X206138676Y-119006961D01*
X204138676Y-118292675D02*
X206710105Y-118292675D01*
X206710105Y-118292675D02*
X206995819Y-118435532D01*
X206995819Y-118435532D02*
X207138676Y-118721247D01*
X207138676Y-118721247D02*
X207138676Y-119006961D01*
X206138676Y-121864104D02*
X206138676Y-123006961D01*
X204138676Y-122292675D02*
X206710105Y-122292675D01*
X206710105Y-122292675D02*
X206995819Y-122435532D01*
X206995819Y-122435532D02*
X207138676Y-122721247D01*
X207138676Y-122721247D02*
X207138676Y-123006961D01*
X204138676Y-124435533D02*
X204281534Y-124149818D01*
X204281534Y-124149818D02*
X204424391Y-124006961D01*
X204424391Y-124006961D02*
X204710105Y-123864104D01*
X204710105Y-123864104D02*
X205567248Y-123864104D01*
X205567248Y-123864104D02*
X205852962Y-124006961D01*
X205852962Y-124006961D02*
X205995819Y-124149818D01*
X205995819Y-124149818D02*
X206138676Y-124435533D01*
X206138676Y-124435533D02*
X206138676Y-124864104D01*
X206138676Y-124864104D02*
X205995819Y-125149818D01*
X205995819Y-125149818D02*
X205852962Y-125292676D01*
X205852962Y-125292676D02*
X205567248Y-125435533D01*
X205567248Y-125435533D02*
X204710105Y-125435533D01*
X204710105Y-125435533D02*
X204424391Y-125292676D01*
X204424391Y-125292676D02*
X204281534Y-125149818D01*
X204281534Y-125149818D02*
X204138676Y-124864104D01*
X204138676Y-124864104D02*
X204138676Y-124435533D01*
X206138676Y-128006962D02*
X204138676Y-128006962D01*
X206138676Y-126721247D02*
X204567248Y-126721247D01*
X204567248Y-126721247D02*
X204281534Y-126864104D01*
X204281534Y-126864104D02*
X204138676Y-127149819D01*
X204138676Y-127149819D02*
X204138676Y-127578390D01*
X204138676Y-127578390D02*
X204281534Y-127864104D01*
X204281534Y-127864104D02*
X204424391Y-128006962D01*
X206138676Y-129435533D02*
X204138676Y-129435533D01*
X205852962Y-129435533D02*
X205995819Y-129578390D01*
X205995819Y-129578390D02*
X206138676Y-129864105D01*
X206138676Y-129864105D02*
X206138676Y-130292676D01*
X206138676Y-130292676D02*
X205995819Y-130578390D01*
X205995819Y-130578390D02*
X205710105Y-130721248D01*
X205710105Y-130721248D02*
X204138676Y-130721248D01*
X204138676Y-133435534D02*
X207138676Y-133435534D01*
X204281534Y-133435534D02*
X204138676Y-133149819D01*
X204138676Y-133149819D02*
X204138676Y-132578391D01*
X204138676Y-132578391D02*
X204281534Y-132292676D01*
X204281534Y-132292676D02*
X204424391Y-132149819D01*
X204424391Y-132149819D02*
X204710105Y-132006962D01*
X204710105Y-132006962D02*
X205567248Y-132006962D01*
X205567248Y-132006962D02*
X205852962Y-132149819D01*
X205852962Y-132149819D02*
X205995819Y-132292676D01*
X205995819Y-132292676D02*
X206138676Y-132578391D01*
X206138676Y-132578391D02*
X206138676Y-133149819D01*
X206138676Y-133149819D02*
X205995819Y-133435534D01*
X204424391Y-134864105D02*
X204281534Y-135006962D01*
X204281534Y-135006962D02*
X204138676Y-134864105D01*
X204138676Y-134864105D02*
X204281534Y-134721248D01*
X204281534Y-134721248D02*
X204424391Y-134864105D01*
X204424391Y-134864105D02*
X204138676Y-134864105D01*
X205995819Y-134864105D02*
X205852962Y-135006962D01*
X205852962Y-135006962D02*
X205710105Y-134864105D01*
X205710105Y-134864105D02*
X205852962Y-134721248D01*
X205852962Y-134721248D02*
X205995819Y-134864105D01*
X205995819Y-134864105D02*
X205710105Y-134864105D01*
X204138676Y-138578390D02*
X207138676Y-138578390D01*
X207138676Y-138578390D02*
X207138676Y-139721247D01*
X207138676Y-139721247D02*
X206995819Y-140006962D01*
X206995819Y-140006962D02*
X206852962Y-140149819D01*
X206852962Y-140149819D02*
X206567248Y-140292676D01*
X206567248Y-140292676D02*
X206138676Y-140292676D01*
X206138676Y-140292676D02*
X205852962Y-140149819D01*
X205852962Y-140149819D02*
X205710105Y-140006962D01*
X205710105Y-140006962D02*
X205567248Y-139721247D01*
X205567248Y-139721247D02*
X205567248Y-138578390D01*
X204138676Y-142006962D02*
X204281534Y-141721247D01*
X204281534Y-141721247D02*
X204567248Y-141578390D01*
X204567248Y-141578390D02*
X207138676Y-141578390D01*
X204281534Y-144292676D02*
X204138676Y-144006962D01*
X204138676Y-144006962D02*
X204138676Y-143435534D01*
X204138676Y-143435534D02*
X204281534Y-143149819D01*
X204281534Y-143149819D02*
X204567248Y-143006962D01*
X204567248Y-143006962D02*
X205710105Y-143006962D01*
X205710105Y-143006962D02*
X205995819Y-143149819D01*
X205995819Y-143149819D02*
X206138676Y-143435534D01*
X206138676Y-143435534D02*
X206138676Y-144006962D01*
X206138676Y-144006962D02*
X205995819Y-144292676D01*
X205995819Y-144292676D02*
X205710105Y-144435534D01*
X205710105Y-144435534D02*
X205424391Y-144435534D01*
X205424391Y-144435534D02*
X205138676Y-143006962D01*
X204138676Y-147006963D02*
X205710105Y-147006963D01*
X205710105Y-147006963D02*
X205995819Y-146864105D01*
X205995819Y-146864105D02*
X206138676Y-146578391D01*
X206138676Y-146578391D02*
X206138676Y-146006963D01*
X206138676Y-146006963D02*
X205995819Y-145721248D01*
X204281534Y-147006963D02*
X204138676Y-146721248D01*
X204138676Y-146721248D02*
X204138676Y-146006963D01*
X204138676Y-146006963D02*
X204281534Y-145721248D01*
X204281534Y-145721248D02*
X204567248Y-145578391D01*
X204567248Y-145578391D02*
X204852962Y-145578391D01*
X204852962Y-145578391D02*
X205138676Y-145721248D01*
X205138676Y-145721248D02*
X205281534Y-146006963D01*
X205281534Y-146006963D02*
X205281534Y-146721248D01*
X205281534Y-146721248D02*
X205424391Y-147006963D01*
X204281534Y-148292677D02*
X204138676Y-148578391D01*
X204138676Y-148578391D02*
X204138676Y-149149820D01*
X204138676Y-149149820D02*
X204281534Y-149435534D01*
X204281534Y-149435534D02*
X204567248Y-149578391D01*
X204567248Y-149578391D02*
X204710105Y-149578391D01*
X204710105Y-149578391D02*
X204995819Y-149435534D01*
X204995819Y-149435534D02*
X205138676Y-149149820D01*
X205138676Y-149149820D02*
X205138676Y-148721249D01*
X205138676Y-148721249D02*
X205281534Y-148435534D01*
X205281534Y-148435534D02*
X205567248Y-148292677D01*
X205567248Y-148292677D02*
X205710105Y-148292677D01*
X205710105Y-148292677D02*
X205995819Y-148435534D01*
X205995819Y-148435534D02*
X206138676Y-148721249D01*
X206138676Y-148721249D02*
X206138676Y-149149820D01*
X206138676Y-149149820D02*
X205995819Y-149435534D01*
X204281534Y-152006962D02*
X204138676Y-151721248D01*
X204138676Y-151721248D02*
X204138676Y-151149820D01*
X204138676Y-151149820D02*
X204281534Y-150864105D01*
X204281534Y-150864105D02*
X204567248Y-150721248D01*
X204567248Y-150721248D02*
X205710105Y-150721248D01*
X205710105Y-150721248D02*
X205995819Y-150864105D01*
X205995819Y-150864105D02*
X206138676Y-151149820D01*
X206138676Y-151149820D02*
X206138676Y-151721248D01*
X206138676Y-151721248D02*
X205995819Y-152006962D01*
X205995819Y-152006962D02*
X205710105Y-152149820D01*
X205710105Y-152149820D02*
X205424391Y-152149820D01*
X205424391Y-152149820D02*
X205138676Y-150721248D01*
X204281534Y-157006963D02*
X204138676Y-156721248D01*
X204138676Y-156721248D02*
X204138676Y-156149820D01*
X204138676Y-156149820D02*
X204281534Y-155864105D01*
X204281534Y-155864105D02*
X204424391Y-155721248D01*
X204424391Y-155721248D02*
X204710105Y-155578391D01*
X204710105Y-155578391D02*
X205567248Y-155578391D01*
X205567248Y-155578391D02*
X205852962Y-155721248D01*
X205852962Y-155721248D02*
X205995819Y-155864105D01*
X205995819Y-155864105D02*
X206138676Y-156149820D01*
X206138676Y-156149820D02*
X206138676Y-156721248D01*
X206138676Y-156721248D02*
X205995819Y-157006963D01*
X204138676Y-159578392D02*
X205710105Y-159578392D01*
X205710105Y-159578392D02*
X205995819Y-159435534D01*
X205995819Y-159435534D02*
X206138676Y-159149820D01*
X206138676Y-159149820D02*
X206138676Y-158578392D01*
X206138676Y-158578392D02*
X205995819Y-158292677D01*
X204281534Y-159578392D02*
X204138676Y-159292677D01*
X204138676Y-159292677D02*
X204138676Y-158578392D01*
X204138676Y-158578392D02*
X204281534Y-158292677D01*
X204281534Y-158292677D02*
X204567248Y-158149820D01*
X204567248Y-158149820D02*
X204852962Y-158149820D01*
X204852962Y-158149820D02*
X205138676Y-158292677D01*
X205138676Y-158292677D02*
X205281534Y-158578392D01*
X205281534Y-158578392D02*
X205281534Y-159292677D01*
X205281534Y-159292677D02*
X205424391Y-159578392D01*
X204138676Y-161435535D02*
X204281534Y-161149820D01*
X204281534Y-161149820D02*
X204567248Y-161006963D01*
X204567248Y-161006963D02*
X207138676Y-161006963D01*
X204138676Y-163006964D02*
X204281534Y-162721249D01*
X204281534Y-162721249D02*
X204567248Y-162578392D01*
X204567248Y-162578392D02*
X207138676Y-162578392D01*
X202308676Y-136078391D02*
X200165819Y-136078391D01*
X200165819Y-136078391D02*
X199737248Y-135935534D01*
X199737248Y-135935534D02*
X199451534Y-135649820D01*
X199451534Y-135649820D02*
X199308676Y-135221248D01*
X199308676Y-135221248D02*
X199308676Y-134935534D01*
X199308676Y-138792677D02*
X200880105Y-138792677D01*
X200880105Y-138792677D02*
X201165819Y-138649819D01*
X201165819Y-138649819D02*
X201308676Y-138364105D01*
X201308676Y-138364105D02*
X201308676Y-137792677D01*
X201308676Y-137792677D02*
X201165819Y-137506962D01*
X199451534Y-138792677D02*
X199308676Y-138506962D01*
X199308676Y-138506962D02*
X199308676Y-137792677D01*
X199308676Y-137792677D02*
X199451534Y-137506962D01*
X199451534Y-137506962D02*
X199737248Y-137364105D01*
X199737248Y-137364105D02*
X200022962Y-137364105D01*
X200022962Y-137364105D02*
X200308676Y-137506962D01*
X200308676Y-137506962D02*
X200451534Y-137792677D01*
X200451534Y-137792677D02*
X200451534Y-138506962D01*
X200451534Y-138506962D02*
X200594391Y-138792677D01*
X199308676Y-140221248D02*
X202308676Y-140221248D01*
X200451534Y-140506963D02*
X199308676Y-141364105D01*
X201308676Y-141364105D02*
X200165819Y-140221248D01*
X199308676Y-143078391D02*
X199451534Y-142792676D01*
X199451534Y-142792676D02*
X199594391Y-142649819D01*
X199594391Y-142649819D02*
X199880105Y-142506962D01*
X199880105Y-142506962D02*
X200737248Y-142506962D01*
X200737248Y-142506962D02*
X201022962Y-142649819D01*
X201022962Y-142649819D02*
X201165819Y-142792676D01*
X201165819Y-142792676D02*
X201308676Y-143078391D01*
X201308676Y-143078391D02*
X201308676Y-143506962D01*
X201308676Y-143506962D02*
X201165819Y-143792676D01*
X201165819Y-143792676D02*
X201022962Y-143935534D01*
X201022962Y-143935534D02*
X200737248Y-144078391D01*
X200737248Y-144078391D02*
X199880105Y-144078391D01*
X199880105Y-144078391D02*
X199594391Y-143935534D01*
X199594391Y-143935534D02*
X199451534Y-143792676D01*
X199451534Y-143792676D02*
X199308676Y-143506962D01*
X199308676Y-143506962D02*
X199308676Y-143078391D01*
X199308676Y-145364105D02*
X202308676Y-145364105D01*
X201165819Y-145364105D02*
X201308676Y-145649820D01*
X201308676Y-145649820D02*
X201308676Y-146221248D01*
X201308676Y-146221248D02*
X201165819Y-146506962D01*
X201165819Y-146506962D02*
X201022962Y-146649820D01*
X201022962Y-146649820D02*
X200737248Y-146792677D01*
X200737248Y-146792677D02*
X199880105Y-146792677D01*
X199880105Y-146792677D02*
X199594391Y-146649820D01*
X199594391Y-146649820D02*
X199451534Y-146506962D01*
X199451534Y-146506962D02*
X199308676Y-146221248D01*
X199308676Y-146221248D02*
X199308676Y-145649820D01*
X199308676Y-145649820D02*
X199451534Y-145364105D01*
X197478676Y-123935533D02*
X197478676Y-124221247D01*
X197478676Y-124221247D02*
X197335819Y-124506961D01*
X197335819Y-124506961D02*
X197192962Y-124649819D01*
X197192962Y-124649819D02*
X196907248Y-124792676D01*
X196907248Y-124792676D02*
X196335819Y-124935533D01*
X196335819Y-124935533D02*
X195621534Y-124935533D01*
X195621534Y-124935533D02*
X195050105Y-124792676D01*
X195050105Y-124792676D02*
X194764391Y-124649819D01*
X194764391Y-124649819D02*
X194621534Y-124506961D01*
X194621534Y-124506961D02*
X194478676Y-124221247D01*
X194478676Y-124221247D02*
X194478676Y-123935533D01*
X194478676Y-123935533D02*
X194621534Y-123649819D01*
X194621534Y-123649819D02*
X194764391Y-123506961D01*
X194764391Y-123506961D02*
X195050105Y-123364104D01*
X195050105Y-123364104D02*
X195621534Y-123221247D01*
X195621534Y-123221247D02*
X196335819Y-123221247D01*
X196335819Y-123221247D02*
X196907248Y-123364104D01*
X196907248Y-123364104D02*
X197192962Y-123506961D01*
X197192962Y-123506961D02*
X197335819Y-123649819D01*
X197335819Y-123649819D02*
X197478676Y-123935533D01*
X197478676Y-126792676D02*
X197478676Y-127078390D01*
X197478676Y-127078390D02*
X197335819Y-127364104D01*
X197335819Y-127364104D02*
X197192962Y-127506962D01*
X197192962Y-127506962D02*
X196907248Y-127649819D01*
X196907248Y-127649819D02*
X196335819Y-127792676D01*
X196335819Y-127792676D02*
X195621534Y-127792676D01*
X195621534Y-127792676D02*
X195050105Y-127649819D01*
X195050105Y-127649819D02*
X194764391Y-127506962D01*
X194764391Y-127506962D02*
X194621534Y-127364104D01*
X194621534Y-127364104D02*
X194478676Y-127078390D01*
X194478676Y-127078390D02*
X194478676Y-126792676D01*
X194478676Y-126792676D02*
X194621534Y-126506962D01*
X194621534Y-126506962D02*
X194764391Y-126364104D01*
X194764391Y-126364104D02*
X195050105Y-126221247D01*
X195050105Y-126221247D02*
X195621534Y-126078390D01*
X195621534Y-126078390D02*
X196335819Y-126078390D01*
X196335819Y-126078390D02*
X196907248Y-126221247D01*
X196907248Y-126221247D02*
X197192962Y-126364104D01*
X197192962Y-126364104D02*
X197335819Y-126506962D01*
X197335819Y-126506962D02*
X197478676Y-126792676D01*
X196478676Y-130364105D02*
X194478676Y-130364105D01*
X197621534Y-129649819D02*
X195478676Y-128935533D01*
X195478676Y-128935533D02*
X195478676Y-130792676D01*
X197478676Y-133364105D02*
X197478676Y-131935533D01*
X197478676Y-131935533D02*
X196050105Y-131792676D01*
X196050105Y-131792676D02*
X196192962Y-131935533D01*
X196192962Y-131935533D02*
X196335819Y-132221248D01*
X196335819Y-132221248D02*
X196335819Y-132935533D01*
X196335819Y-132935533D02*
X196192962Y-133221248D01*
X196192962Y-133221248D02*
X196050105Y-133364105D01*
X196050105Y-133364105D02*
X195764391Y-133506962D01*
X195764391Y-133506962D02*
X195050105Y-133506962D01*
X195050105Y-133506962D02*
X194764391Y-133364105D01*
X194764391Y-133364105D02*
X194621534Y-133221248D01*
X194621534Y-133221248D02*
X194478676Y-132935533D01*
X194478676Y-132935533D02*
X194478676Y-132221248D01*
X194478676Y-132221248D02*
X194621534Y-131935533D01*
X194621534Y-131935533D02*
X194764391Y-131792676D01*
X197192962Y-136935533D02*
X197335819Y-137078390D01*
X197335819Y-137078390D02*
X197478676Y-137364105D01*
X197478676Y-137364105D02*
X197478676Y-138078390D01*
X197478676Y-138078390D02*
X197335819Y-138364105D01*
X197335819Y-138364105D02*
X197192962Y-138506962D01*
X197192962Y-138506962D02*
X196907248Y-138649819D01*
X196907248Y-138649819D02*
X196621534Y-138649819D01*
X196621534Y-138649819D02*
X196192962Y-138506962D01*
X196192962Y-138506962D02*
X194478676Y-136792676D01*
X194478676Y-136792676D02*
X194478676Y-138649819D01*
X196192962Y-140364105D02*
X196335819Y-140078390D01*
X196335819Y-140078390D02*
X196478676Y-139935533D01*
X196478676Y-139935533D02*
X196764391Y-139792676D01*
X196764391Y-139792676D02*
X196907248Y-139792676D01*
X196907248Y-139792676D02*
X197192962Y-139935533D01*
X197192962Y-139935533D02*
X197335819Y-140078390D01*
X197335819Y-140078390D02*
X197478676Y-140364105D01*
X197478676Y-140364105D02*
X197478676Y-140935533D01*
X197478676Y-140935533D02*
X197335819Y-141221248D01*
X197335819Y-141221248D02*
X197192962Y-141364105D01*
X197192962Y-141364105D02*
X196907248Y-141506962D01*
X196907248Y-141506962D02*
X196764391Y-141506962D01*
X196764391Y-141506962D02*
X196478676Y-141364105D01*
X196478676Y-141364105D02*
X196335819Y-141221248D01*
X196335819Y-141221248D02*
X196192962Y-140935533D01*
X196192962Y-140935533D02*
X196192962Y-140364105D01*
X196192962Y-140364105D02*
X196050105Y-140078390D01*
X196050105Y-140078390D02*
X195907248Y-139935533D01*
X195907248Y-139935533D02*
X195621534Y-139792676D01*
X195621534Y-139792676D02*
X195050105Y-139792676D01*
X195050105Y-139792676D02*
X194764391Y-139935533D01*
X194764391Y-139935533D02*
X194621534Y-140078390D01*
X194621534Y-140078390D02*
X194478676Y-140364105D01*
X194478676Y-140364105D02*
X194478676Y-140935533D01*
X194478676Y-140935533D02*
X194621534Y-141221248D01*
X194621534Y-141221248D02*
X194764391Y-141364105D01*
X194764391Y-141364105D02*
X195050105Y-141506962D01*
X195050105Y-141506962D02*
X195621534Y-141506962D01*
X195621534Y-141506962D02*
X195907248Y-141364105D01*
X195907248Y-141364105D02*
X196050105Y-141221248D01*
X196050105Y-141221248D02*
X196192962Y-140935533D01*
X197478676Y-142506962D02*
X197478676Y-144506962D01*
X197478676Y-144506962D02*
X194478676Y-143221248D01*
X196478676Y-146935534D02*
X194478676Y-146935534D01*
X197621534Y-146221248D02*
X195478676Y-145506962D01*
X195478676Y-145506962D02*
X195478676Y-147364105D01*
X194478676Y-150078391D02*
X194478676Y-148364105D01*
X194478676Y-149221248D02*
X197478676Y-149221248D01*
X197478676Y-149221248D02*
X197050105Y-148935534D01*
X197050105Y-148935534D02*
X196764391Y-148649819D01*
X196764391Y-148649819D02*
X196621534Y-148364105D01*
X194478676Y-151506962D02*
X194478676Y-152078391D01*
X194478676Y-152078391D02*
X194621534Y-152364105D01*
X194621534Y-152364105D02*
X194764391Y-152506962D01*
X194764391Y-152506962D02*
X195192962Y-152792677D01*
X195192962Y-152792677D02*
X195764391Y-152935534D01*
X195764391Y-152935534D02*
X196907248Y-152935534D01*
X196907248Y-152935534D02*
X197192962Y-152792677D01*
X197192962Y-152792677D02*
X197335819Y-152649820D01*
X197335819Y-152649820D02*
X197478676Y-152364105D01*
X197478676Y-152364105D02*
X197478676Y-151792677D01*
X197478676Y-151792677D02*
X197335819Y-151506962D01*
X197335819Y-151506962D02*
X197192962Y-151364105D01*
X197192962Y-151364105D02*
X196907248Y-151221248D01*
X196907248Y-151221248D02*
X196192962Y-151221248D01*
X196192962Y-151221248D02*
X195907248Y-151364105D01*
X195907248Y-151364105D02*
X195764391Y-151506962D01*
X195764391Y-151506962D02*
X195621534Y-151792677D01*
X195621534Y-151792677D02*
X195621534Y-152364105D01*
X195621534Y-152364105D02*
X195764391Y-152649820D01*
X195764391Y-152649820D02*
X195907248Y-152792677D01*
X195907248Y-152792677D02*
X196192962Y-152935534D01*
X196192962Y-154649820D02*
X196335819Y-154364105D01*
X196335819Y-154364105D02*
X196478676Y-154221248D01*
X196478676Y-154221248D02*
X196764391Y-154078391D01*
X196764391Y-154078391D02*
X196907248Y-154078391D01*
X196907248Y-154078391D02*
X197192962Y-154221248D01*
X197192962Y-154221248D02*
X197335819Y-154364105D01*
X197335819Y-154364105D02*
X197478676Y-154649820D01*
X197478676Y-154649820D02*
X197478676Y-155221248D01*
X197478676Y-155221248D02*
X197335819Y-155506963D01*
X197335819Y-155506963D02*
X197192962Y-155649820D01*
X197192962Y-155649820D02*
X196907248Y-155792677D01*
X196907248Y-155792677D02*
X196764391Y-155792677D01*
X196764391Y-155792677D02*
X196478676Y-155649820D01*
X196478676Y-155649820D02*
X196335819Y-155506963D01*
X196335819Y-155506963D02*
X196192962Y-155221248D01*
X196192962Y-155221248D02*
X196192962Y-154649820D01*
X196192962Y-154649820D02*
X196050105Y-154364105D01*
X196050105Y-154364105D02*
X195907248Y-154221248D01*
X195907248Y-154221248D02*
X195621534Y-154078391D01*
X195621534Y-154078391D02*
X195050105Y-154078391D01*
X195050105Y-154078391D02*
X194764391Y-154221248D01*
X194764391Y-154221248D02*
X194621534Y-154364105D01*
X194621534Y-154364105D02*
X194478676Y-154649820D01*
X194478676Y-154649820D02*
X194478676Y-155221248D01*
X194478676Y-155221248D02*
X194621534Y-155506963D01*
X194621534Y-155506963D02*
X194764391Y-155649820D01*
X194764391Y-155649820D02*
X195050105Y-155792677D01*
X195050105Y-155792677D02*
X195621534Y-155792677D01*
X195621534Y-155792677D02*
X195907248Y-155649820D01*
X195907248Y-155649820D02*
X196050105Y-155506963D01*
X196050105Y-155506963D02*
X196192962Y-155221248D01*
X197192962Y-156935534D02*
X197335819Y-157078391D01*
X197335819Y-157078391D02*
X197478676Y-157364106D01*
X197478676Y-157364106D02*
X197478676Y-158078391D01*
X197478676Y-158078391D02*
X197335819Y-158364106D01*
X197335819Y-158364106D02*
X197192962Y-158506963D01*
X197192962Y-158506963D02*
X196907248Y-158649820D01*
X196907248Y-158649820D02*
X196621534Y-158649820D01*
X196621534Y-158649820D02*
X196192962Y-158506963D01*
X196192962Y-158506963D02*
X194478676Y-156792677D01*
X194478676Y-156792677D02*
X194478676Y-158649820D01*
D11*
X207263962Y-47206962D02*
X207263962Y-49349820D01*
X205978248Y-46778391D02*
X210478248Y-48278391D01*
X210478248Y-48278391D02*
X205978248Y-49778391D01*
X205978248Y-51921248D02*
X206192534Y-51492677D01*
X206192534Y-51492677D02*
X206621105Y-51278391D01*
X206621105Y-51278391D02*
X210478248Y-51278391D01*
X208978248Y-52992677D02*
X208978248Y-54706963D01*
X205978248Y-53635534D02*
X209835391Y-53635534D01*
X209835391Y-53635534D02*
X210263962Y-53849820D01*
X210263962Y-53849820D02*
X210478248Y-54278391D01*
X210478248Y-54278391D02*
X210478248Y-54706963D01*
X205978248Y-56206963D02*
X208978248Y-56206963D01*
X208121105Y-56206963D02*
X208549676Y-56421249D01*
X208549676Y-56421249D02*
X208763962Y-56635535D01*
X208763962Y-56635535D02*
X208978248Y-57064106D01*
X208978248Y-57064106D02*
X208978248Y-57492677D01*
X206192534Y-60706963D02*
X205978248Y-60278391D01*
X205978248Y-60278391D02*
X205978248Y-59421249D01*
X205978248Y-59421249D02*
X206192534Y-58992677D01*
X206192534Y-58992677D02*
X206621105Y-58778391D01*
X206621105Y-58778391D02*
X208335391Y-58778391D01*
X208335391Y-58778391D02*
X208763962Y-58992677D01*
X208763962Y-58992677D02*
X208978248Y-59421249D01*
X208978248Y-59421249D02*
X208978248Y-60278391D01*
X208978248Y-60278391D02*
X208763962Y-60706963D01*
X208763962Y-60706963D02*
X208335391Y-60921249D01*
X208335391Y-60921249D02*
X207906819Y-60921249D01*
X207906819Y-60921249D02*
X207478248Y-58778391D01*
X205978248Y-64778392D02*
X210478248Y-64778392D01*
X206192534Y-64778392D02*
X205978248Y-64349820D01*
X205978248Y-64349820D02*
X205978248Y-63492677D01*
X205978248Y-63492677D02*
X206192534Y-63064106D01*
X206192534Y-63064106D02*
X206406819Y-62849820D01*
X206406819Y-62849820D02*
X206835391Y-62635534D01*
X206835391Y-62635534D02*
X208121105Y-62635534D01*
X208121105Y-62635534D02*
X208549676Y-62849820D01*
X208549676Y-62849820D02*
X208763962Y-63064106D01*
X208763962Y-63064106D02*
X208978248Y-63492677D01*
X208978248Y-63492677D02*
X208978248Y-64349820D01*
X208978248Y-64349820D02*
X208763962Y-64778392D01*
X206192534Y-66706963D02*
X205978248Y-67135535D01*
X205978248Y-67135535D02*
X205978248Y-67992678D01*
X205978248Y-67992678D02*
X206192534Y-68421249D01*
X206192534Y-68421249D02*
X206621105Y-68635535D01*
X206621105Y-68635535D02*
X206835391Y-68635535D01*
X206835391Y-68635535D02*
X207263962Y-68421249D01*
X207263962Y-68421249D02*
X207478248Y-67992678D01*
X207478248Y-67992678D02*
X207478248Y-67349821D01*
X207478248Y-67349821D02*
X207692534Y-66921249D01*
X207692534Y-66921249D02*
X208121105Y-66706963D01*
X208121105Y-66706963D02*
X208335391Y-66706963D01*
X208335391Y-66706963D02*
X208763962Y-66921249D01*
X208763962Y-66921249D02*
X208978248Y-67349821D01*
X208978248Y-67349821D02*
X208978248Y-67992678D01*
X208978248Y-67992678D02*
X208763962Y-68421249D01*
X198733248Y-37456961D02*
X203233248Y-37456961D01*
X198733248Y-40028390D02*
X201304676Y-38099818D01*
X203233248Y-40028390D02*
X200661819Y-37456961D01*
X198733248Y-43885533D02*
X201090391Y-43885533D01*
X201090391Y-43885533D02*
X201518962Y-43671247D01*
X201518962Y-43671247D02*
X201733248Y-43242675D01*
X201733248Y-43242675D02*
X201733248Y-42385533D01*
X201733248Y-42385533D02*
X201518962Y-41956961D01*
X198947534Y-43885533D02*
X198733248Y-43456961D01*
X198733248Y-43456961D02*
X198733248Y-42385533D01*
X198733248Y-42385533D02*
X198947534Y-41956961D01*
X198947534Y-41956961D02*
X199376105Y-41742675D01*
X199376105Y-41742675D02*
X199804676Y-41742675D01*
X199804676Y-41742675D02*
X200233248Y-41956961D01*
X200233248Y-41956961D02*
X200447534Y-42385533D01*
X200447534Y-42385533D02*
X200447534Y-43456961D01*
X200447534Y-43456961D02*
X200661819Y-43885533D01*
X198733248Y-46028390D02*
X203233248Y-46028390D01*
X201518962Y-46028390D02*
X201733248Y-46456962D01*
X201733248Y-46456962D02*
X201733248Y-47314104D01*
X201733248Y-47314104D02*
X201518962Y-47742676D01*
X201518962Y-47742676D02*
X201304676Y-47956962D01*
X201304676Y-47956962D02*
X200876105Y-48171247D01*
X200876105Y-48171247D02*
X199590391Y-48171247D01*
X199590391Y-48171247D02*
X199161819Y-47956962D01*
X199161819Y-47956962D02*
X198947534Y-47742676D01*
X198947534Y-47742676D02*
X198733248Y-47314104D01*
X198733248Y-47314104D02*
X198733248Y-46456962D01*
X198733248Y-46456962D02*
X198947534Y-46028390D01*
X198733248Y-50742676D02*
X198947534Y-50314105D01*
X198947534Y-50314105D02*
X199161819Y-50099819D01*
X199161819Y-50099819D02*
X199590391Y-49885533D01*
X199590391Y-49885533D02*
X200876105Y-49885533D01*
X200876105Y-49885533D02*
X201304676Y-50099819D01*
X201304676Y-50099819D02*
X201518962Y-50314105D01*
X201518962Y-50314105D02*
X201733248Y-50742676D01*
X201733248Y-50742676D02*
X201733248Y-51385533D01*
X201733248Y-51385533D02*
X201518962Y-51814105D01*
X201518962Y-51814105D02*
X201304676Y-52028391D01*
X201304676Y-52028391D02*
X200876105Y-52242676D01*
X200876105Y-52242676D02*
X199590391Y-52242676D01*
X199590391Y-52242676D02*
X199161819Y-52028391D01*
X199161819Y-52028391D02*
X198947534Y-51814105D01*
X198947534Y-51814105D02*
X198733248Y-51385533D01*
X198733248Y-51385533D02*
X198733248Y-50742676D01*
X198733248Y-54814105D02*
X198947534Y-54385534D01*
X198947534Y-54385534D02*
X199161819Y-54171248D01*
X199161819Y-54171248D02*
X199590391Y-53956962D01*
X199590391Y-53956962D02*
X200876105Y-53956962D01*
X200876105Y-53956962D02*
X201304676Y-54171248D01*
X201304676Y-54171248D02*
X201518962Y-54385534D01*
X201518962Y-54385534D02*
X201733248Y-54814105D01*
X201733248Y-54814105D02*
X201733248Y-55456962D01*
X201733248Y-55456962D02*
X201518962Y-55885534D01*
X201518962Y-55885534D02*
X201304676Y-56099820D01*
X201304676Y-56099820D02*
X200876105Y-56314105D01*
X200876105Y-56314105D02*
X199590391Y-56314105D01*
X199590391Y-56314105D02*
X199161819Y-56099820D01*
X199161819Y-56099820D02*
X198947534Y-55885534D01*
X198947534Y-55885534D02*
X198733248Y-55456962D01*
X198733248Y-55456962D02*
X198733248Y-54814105D01*
X198733248Y-58885534D02*
X198947534Y-58456963D01*
X198947534Y-58456963D02*
X199161819Y-58242677D01*
X199161819Y-58242677D02*
X199590391Y-58028391D01*
X199590391Y-58028391D02*
X200876105Y-58028391D01*
X200876105Y-58028391D02*
X201304676Y-58242677D01*
X201304676Y-58242677D02*
X201518962Y-58456963D01*
X201518962Y-58456963D02*
X201733248Y-58885534D01*
X201733248Y-58885534D02*
X201733248Y-59528391D01*
X201733248Y-59528391D02*
X201518962Y-59956963D01*
X201518962Y-59956963D02*
X201304676Y-60171249D01*
X201304676Y-60171249D02*
X200876105Y-60385534D01*
X200876105Y-60385534D02*
X199590391Y-60385534D01*
X199590391Y-60385534D02*
X199161819Y-60171249D01*
X199161819Y-60171249D02*
X198947534Y-59956963D01*
X198947534Y-59956963D02*
X198733248Y-59528391D01*
X198733248Y-59528391D02*
X198733248Y-58885534D01*
X198733248Y-62314106D02*
X201733248Y-62314106D01*
X201304676Y-62314106D02*
X201518962Y-62528392D01*
X201518962Y-62528392D02*
X201733248Y-62956963D01*
X201733248Y-62956963D02*
X201733248Y-63599820D01*
X201733248Y-63599820D02*
X201518962Y-64028392D01*
X201518962Y-64028392D02*
X201090391Y-64242678D01*
X201090391Y-64242678D02*
X198733248Y-64242678D01*
X201090391Y-64242678D02*
X201518962Y-64456963D01*
X201518962Y-64456963D02*
X201733248Y-64885535D01*
X201733248Y-64885535D02*
X201733248Y-65528392D01*
X201733248Y-65528392D02*
X201518962Y-65956963D01*
X201518962Y-65956963D02*
X201090391Y-66171249D01*
X201090391Y-66171249D02*
X198733248Y-66171249D01*
X201090391Y-73242677D02*
X200876105Y-73885534D01*
X200876105Y-73885534D02*
X200661819Y-74099820D01*
X200661819Y-74099820D02*
X200233248Y-74314106D01*
X200233248Y-74314106D02*
X199590391Y-74314106D01*
X199590391Y-74314106D02*
X199161819Y-74099820D01*
X199161819Y-74099820D02*
X198947534Y-73885534D01*
X198947534Y-73885534D02*
X198733248Y-73456963D01*
X198733248Y-73456963D02*
X198733248Y-71742677D01*
X198733248Y-71742677D02*
X203233248Y-71742677D01*
X203233248Y-71742677D02*
X203233248Y-73242677D01*
X203233248Y-73242677D02*
X203018962Y-73671249D01*
X203018962Y-73671249D02*
X202804676Y-73885534D01*
X202804676Y-73885534D02*
X202376105Y-74099820D01*
X202376105Y-74099820D02*
X201947534Y-74099820D01*
X201947534Y-74099820D02*
X201518962Y-73885534D01*
X201518962Y-73885534D02*
X201304676Y-73671249D01*
X201304676Y-73671249D02*
X201090391Y-73242677D01*
X201090391Y-73242677D02*
X201090391Y-71742677D01*
X198733248Y-76885534D02*
X198947534Y-76456963D01*
X198947534Y-76456963D02*
X199161819Y-76242677D01*
X199161819Y-76242677D02*
X199590391Y-76028391D01*
X199590391Y-76028391D02*
X200876105Y-76028391D01*
X200876105Y-76028391D02*
X201304676Y-76242677D01*
X201304676Y-76242677D02*
X201518962Y-76456963D01*
X201518962Y-76456963D02*
X201733248Y-76885534D01*
X201733248Y-76885534D02*
X201733248Y-77528391D01*
X201733248Y-77528391D02*
X201518962Y-77956963D01*
X201518962Y-77956963D02*
X201304676Y-78171249D01*
X201304676Y-78171249D02*
X200876105Y-78385534D01*
X200876105Y-78385534D02*
X199590391Y-78385534D01*
X199590391Y-78385534D02*
X199161819Y-78171249D01*
X199161819Y-78171249D02*
X198947534Y-77956963D01*
X198947534Y-77956963D02*
X198733248Y-77528391D01*
X198733248Y-77528391D02*
X198733248Y-76885534D01*
X198733248Y-79885535D02*
X201733248Y-82242678D01*
X201733248Y-79885535D02*
X198733248Y-82242678D01*
D10*
X165211057Y-113652201D02*
X161211057Y-114985534D01*
X161211057Y-114985534D02*
X165211057Y-116318868D01*
X165211057Y-99842676D02*
X161972962Y-99842676D01*
X161972962Y-99842676D02*
X161592010Y-100033153D01*
X161592010Y-100033153D02*
X161401534Y-100223629D01*
X161401534Y-100223629D02*
X161211057Y-100604581D01*
X161211057Y-100604581D02*
X161211057Y-101366486D01*
X161211057Y-101366486D02*
X161401534Y-101747438D01*
X161401534Y-101747438D02*
X161592010Y-101937915D01*
X161592010Y-101937915D02*
X161972962Y-102128391D01*
X161972962Y-102128391D02*
X165211057Y-102128391D01*
X130711057Y-127404581D02*
X130711057Y-128166486D01*
X130711057Y-128166486D02*
X130520581Y-128547438D01*
X130520581Y-128547438D02*
X130139629Y-128928391D01*
X130139629Y-128928391D02*
X129377724Y-129118867D01*
X129377724Y-129118867D02*
X128044391Y-129118867D01*
X128044391Y-129118867D02*
X127282486Y-128928391D01*
X127282486Y-128928391D02*
X126901534Y-128547438D01*
X126901534Y-128547438D02*
X126711057Y-128166486D01*
X126711057Y-128166486D02*
X126711057Y-127404581D01*
X126711057Y-127404581D02*
X126901534Y-127023629D01*
X126901534Y-127023629D02*
X127282486Y-126642676D01*
X127282486Y-126642676D02*
X128044391Y-126452200D01*
X128044391Y-126452200D02*
X129377724Y-126452200D01*
X129377724Y-126452200D02*
X130139629Y-126642676D01*
X130139629Y-126642676D02*
X130520581Y-127023629D01*
X130520581Y-127023629D02*
X130711057Y-127404581D01*
X141853914Y-42833153D02*
X141853914Y-44737915D01*
X140711057Y-42452201D02*
X144711057Y-43785534D01*
X144711057Y-43785534D02*
X140711057Y-45118868D01*
X111461057Y-84642677D02*
X111461057Y-86928391D01*
X107461057Y-85785534D02*
X111461057Y-85785534D01*
X126711057Y-98452200D02*
X130711057Y-98452200D01*
X130711057Y-98452200D02*
X127853914Y-99785534D01*
X127853914Y-99785534D02*
X130711057Y-101118867D01*
X130711057Y-101118867D02*
X126711057Y-101118867D01*
X111461057Y-98642676D02*
X108222962Y-98642676D01*
X108222962Y-98642676D02*
X107842010Y-98833153D01*
X107842010Y-98833153D02*
X107651534Y-99023629D01*
X107651534Y-99023629D02*
X107461057Y-99404581D01*
X107461057Y-99404581D02*
X107461057Y-100166486D01*
X107461057Y-100166486D02*
X107651534Y-100547438D01*
X107651534Y-100547438D02*
X107842010Y-100737915D01*
X107842010Y-100737915D02*
X108222962Y-100928391D01*
X108222962Y-100928391D02*
X111461057Y-100928391D01*
X161211057Y-60223629D02*
X163115819Y-58890295D01*
X161211057Y-57937914D02*
X165211057Y-57937914D01*
X165211057Y-57937914D02*
X165211057Y-59461724D01*
X165211057Y-59461724D02*
X165020581Y-59842676D01*
X165020581Y-59842676D02*
X164830105Y-60033153D01*
X164830105Y-60033153D02*
X164449153Y-60223629D01*
X164449153Y-60223629D02*
X163877724Y-60223629D01*
X163877724Y-60223629D02*
X163496772Y-60033153D01*
X163496772Y-60033153D02*
X163306295Y-59842676D01*
X163306295Y-59842676D02*
X163115819Y-59461724D01*
X163115819Y-59461724D02*
X163115819Y-57937914D01*
X126711057Y-112642676D02*
X130711057Y-112642676D01*
X130711057Y-112642676D02*
X126711057Y-114928391D01*
X126711057Y-114928391D02*
X130711057Y-114928391D01*
X94603914Y-98833153D02*
X94603914Y-100737915D01*
X93461057Y-98452201D02*
X97461057Y-99785534D01*
X97461057Y-99785534D02*
X93461057Y-101118868D01*
X97461057Y-99785534D02*
X97651534Y-99404582D01*
X97651534Y-99404582D02*
X98032486Y-99214106D01*
X98032486Y-99214106D02*
X98413438Y-99404582D01*
X98413438Y-99404582D02*
X98603914Y-99785534D01*
X98603914Y-99785534D02*
X98413438Y-100166487D01*
X98413438Y-100166487D02*
X98032486Y-100356963D01*
X98032486Y-100356963D02*
X97651534Y-100166487D01*
X97651534Y-100166487D02*
X97461057Y-99785534D01*
X142806295Y-58071248D02*
X142615819Y-58642676D01*
X142615819Y-58642676D02*
X142425343Y-58833153D01*
X142425343Y-58833153D02*
X142044391Y-59023629D01*
X142044391Y-59023629D02*
X141472962Y-59023629D01*
X141472962Y-59023629D02*
X141092010Y-58833153D01*
X141092010Y-58833153D02*
X140901534Y-58642676D01*
X140901534Y-58642676D02*
X140711057Y-58261724D01*
X140711057Y-58261724D02*
X140711057Y-56737914D01*
X140711057Y-56737914D02*
X144711057Y-56737914D01*
X144711057Y-56737914D02*
X144711057Y-58071248D01*
X144711057Y-58071248D02*
X144520581Y-58452200D01*
X144520581Y-58452200D02*
X144330105Y-58642676D01*
X144330105Y-58642676D02*
X143949153Y-58833153D01*
X143949153Y-58833153D02*
X143568200Y-58833153D01*
X143568200Y-58833153D02*
X143187248Y-58642676D01*
X143187248Y-58642676D02*
X142996772Y-58452200D01*
X142996772Y-58452200D02*
X142806295Y-58071248D01*
X142806295Y-58071248D02*
X142806295Y-56737914D01*
X107080105Y-45309343D02*
X107270581Y-44928391D01*
X107270581Y-44928391D02*
X107651534Y-44547438D01*
X107651534Y-44547438D02*
X108222962Y-43976010D01*
X108222962Y-43976010D02*
X108413438Y-43595057D01*
X108413438Y-43595057D02*
X108413438Y-43214105D01*
X107461057Y-43404581D02*
X107651534Y-43023629D01*
X107651534Y-43023629D02*
X108032486Y-42642676D01*
X108032486Y-42642676D02*
X108794391Y-42452200D01*
X108794391Y-42452200D02*
X110127724Y-42452200D01*
X110127724Y-42452200D02*
X110889629Y-42642676D01*
X110889629Y-42642676D02*
X111270581Y-43023629D01*
X111270581Y-43023629D02*
X111461057Y-43404581D01*
X111461057Y-43404581D02*
X111461057Y-44166486D01*
X111461057Y-44166486D02*
X111270581Y-44547438D01*
X111270581Y-44547438D02*
X110889629Y-44928391D01*
X110889629Y-44928391D02*
X110127724Y-45118867D01*
X110127724Y-45118867D02*
X108794391Y-45118867D01*
X108794391Y-45118867D02*
X108032486Y-44928391D01*
X108032486Y-44928391D02*
X107651534Y-44547438D01*
X107651534Y-44547438D02*
X107461057Y-44166486D01*
X107461057Y-44166486D02*
X107461057Y-43404581D01*
X177556295Y-59271248D02*
X177365819Y-59842676D01*
X177365819Y-59842676D02*
X177175343Y-60033153D01*
X177175343Y-60033153D02*
X176794391Y-60223629D01*
X176794391Y-60223629D02*
X176222962Y-60223629D01*
X176222962Y-60223629D02*
X175842010Y-60033153D01*
X175842010Y-60033153D02*
X175651534Y-59842676D01*
X175651534Y-59842676D02*
X175461057Y-59461724D01*
X175461057Y-59461724D02*
X175461057Y-57937914D01*
X175461057Y-57937914D02*
X179461057Y-57937914D01*
X179461057Y-57937914D02*
X179461057Y-59271248D01*
X179461057Y-59271248D02*
X179270581Y-59652200D01*
X179270581Y-59652200D02*
X179080105Y-59842676D01*
X179080105Y-59842676D02*
X178699153Y-60033153D01*
X178699153Y-60033153D02*
X178318200Y-60033153D01*
X178318200Y-60033153D02*
X177937248Y-59842676D01*
X177937248Y-59842676D02*
X177746772Y-59652200D01*
X177746772Y-59652200D02*
X177556295Y-59271248D01*
X177556295Y-59271248D02*
X177556295Y-57937914D01*
X126711057Y-87023629D02*
X126711057Y-85118867D01*
X126711057Y-85118867D02*
X130711057Y-85118867D01*
X107461057Y-59023629D02*
X109365819Y-57690295D01*
X107461057Y-56737914D02*
X111461057Y-56737914D01*
X111461057Y-56737914D02*
X111461057Y-58261724D01*
X111461057Y-58261724D02*
X111270581Y-58642676D01*
X111270581Y-58642676D02*
X111080105Y-58833153D01*
X111080105Y-58833153D02*
X110699153Y-59023629D01*
X110699153Y-59023629D02*
X110127724Y-59023629D01*
X110127724Y-59023629D02*
X109746772Y-58833153D01*
X109746772Y-58833153D02*
X109556295Y-58642676D01*
X109556295Y-58642676D02*
X109365819Y-58261724D01*
X109365819Y-58261724D02*
X109365819Y-56737914D01*
X141092010Y-73023629D02*
X140901534Y-72833153D01*
X140901534Y-72833153D02*
X140711057Y-72261724D01*
X140711057Y-72261724D02*
X140711057Y-71880772D01*
X140711057Y-71880772D02*
X140901534Y-71309343D01*
X140901534Y-71309343D02*
X141282486Y-70928391D01*
X141282486Y-70928391D02*
X141663438Y-70737914D01*
X141663438Y-70737914D02*
X142425343Y-70547438D01*
X142425343Y-70547438D02*
X142996772Y-70547438D01*
X142996772Y-70547438D02*
X143758676Y-70737914D01*
X143758676Y-70737914D02*
X144139629Y-70928391D01*
X144139629Y-70928391D02*
X144520581Y-71309343D01*
X144520581Y-71309343D02*
X144711057Y-71880772D01*
X144711057Y-71880772D02*
X144711057Y-72261724D01*
X144711057Y-72261724D02*
X144520581Y-72833153D01*
X144520581Y-72833153D02*
X144330105Y-73023629D01*
X155353914Y-71271248D02*
X155353914Y-72795058D01*
X156306295Y-72795058D02*
X156306295Y-74128391D01*
X154211057Y-70890296D02*
X158211057Y-72223629D01*
X158211057Y-72223629D02*
X158211057Y-74699820D01*
X158211057Y-72795058D02*
X154211057Y-72795058D01*
X154211057Y-72795058D02*
X154211057Y-74699820D01*
X172461057Y-128604581D02*
X172461057Y-129366486D01*
X172461057Y-129366486D02*
X172270581Y-129747438D01*
X172270581Y-129747438D02*
X171889629Y-130128391D01*
X171889629Y-130128391D02*
X171127724Y-130318867D01*
X171127724Y-130318867D02*
X169794391Y-130318867D01*
X169794391Y-130318867D02*
X169032486Y-130128391D01*
X169032486Y-130128391D02*
X168651534Y-129747438D01*
X168651534Y-129747438D02*
X168461057Y-129366486D01*
X168461057Y-129366486D02*
X168461057Y-128604581D01*
X168461057Y-128604581D02*
X168651534Y-128223629D01*
X168651534Y-128223629D02*
X169032486Y-127842676D01*
X169032486Y-127842676D02*
X169794391Y-127652200D01*
X169794391Y-127652200D02*
X171127724Y-127652200D01*
X171127724Y-127652200D02*
X171889629Y-127842676D01*
X171889629Y-127842676D02*
X172270581Y-128223629D01*
X172270581Y-128223629D02*
X172461057Y-128604581D01*
X97461057Y-56452200D02*
X97461057Y-59118867D01*
X97461057Y-59118867D02*
X93461057Y-56452200D01*
X93461057Y-56452200D02*
X93461057Y-59118867D01*
X95365819Y-43785534D02*
X93461057Y-43785534D01*
X97461057Y-42452201D02*
X95365819Y-43785534D01*
X95365819Y-43785534D02*
X97461057Y-45118868D01*
X130711057Y-58356963D02*
X127853914Y-58356963D01*
X127853914Y-58356963D02*
X127282486Y-58166486D01*
X127282486Y-58166486D02*
X126901534Y-57785534D01*
X126901534Y-57785534D02*
X126711057Y-57214105D01*
X126711057Y-57214105D02*
X126711057Y-56833153D01*
X97461057Y-87309343D02*
X93461057Y-84261724D01*
X93461057Y-85404581D02*
X93651534Y-85023629D01*
X93651534Y-85023629D02*
X94032486Y-84642676D01*
X94032486Y-84642676D02*
X94794391Y-84452200D01*
X94794391Y-84452200D02*
X96127724Y-84452200D01*
X96127724Y-84452200D02*
X96889629Y-84642676D01*
X96889629Y-84642676D02*
X97270581Y-85023629D01*
X97270581Y-85023629D02*
X97461057Y-85404581D01*
X97461057Y-85404581D02*
X97461057Y-86166486D01*
X97461057Y-86166486D02*
X97270581Y-86547438D01*
X97270581Y-86547438D02*
X96889629Y-86928391D01*
X96889629Y-86928391D02*
X96127724Y-87118867D01*
X96127724Y-87118867D02*
X94794391Y-87118867D01*
X94794391Y-87118867D02*
X94032486Y-86928391D01*
X94032486Y-86928391D02*
X93651534Y-86547438D01*
X93651534Y-86547438D02*
X93461057Y-86166486D01*
X93461057Y-86166486D02*
X93461057Y-85404581D01*
X175461057Y-85937914D02*
X179461057Y-85937914D01*
X179461057Y-85937914D02*
X179461057Y-86890295D01*
X179461057Y-86890295D02*
X179270581Y-87461724D01*
X179270581Y-87461724D02*
X178889629Y-87842676D01*
X178889629Y-87842676D02*
X178508676Y-88033153D01*
X178508676Y-88033153D02*
X177746772Y-88223629D01*
X177746772Y-88223629D02*
X177175343Y-88223629D01*
X177175343Y-88223629D02*
X176413438Y-88033153D01*
X176413438Y-88033153D02*
X176032486Y-87842676D01*
X176032486Y-87842676D02*
X175651534Y-87461724D01*
X175651534Y-87461724D02*
X175461057Y-86890295D01*
X175461057Y-86890295D02*
X175461057Y-85937914D01*
X168461057Y-141937914D02*
X172461057Y-141937914D01*
X172461057Y-141937914D02*
X172461057Y-143461724D01*
X172461057Y-143461724D02*
X172270581Y-143842676D01*
X172270581Y-143842676D02*
X172080105Y-144033153D01*
X172080105Y-144033153D02*
X171699153Y-144223629D01*
X171699153Y-144223629D02*
X171127724Y-144223629D01*
X171127724Y-144223629D02*
X170746772Y-144033153D01*
X170746772Y-144033153D02*
X170556295Y-143842676D01*
X170556295Y-143842676D02*
X170365819Y-143461724D01*
X170365819Y-143461724D02*
X170365819Y-141937914D01*
X140711057Y-140642676D02*
X144711057Y-140642676D01*
X142806295Y-140642676D02*
X142806295Y-142928391D01*
X140711057Y-142928391D02*
X144711057Y-142928391D01*
X144520581Y-128833153D02*
X144711057Y-128452200D01*
X144711057Y-128452200D02*
X144711057Y-127880772D01*
X144711057Y-127880772D02*
X144520581Y-127309343D01*
X144520581Y-127309343D02*
X144139629Y-126928391D01*
X144139629Y-126928391D02*
X143758676Y-126737914D01*
X143758676Y-126737914D02*
X142996772Y-126547438D01*
X142996772Y-126547438D02*
X142425343Y-126547438D01*
X142425343Y-126547438D02*
X141663438Y-126737914D01*
X141663438Y-126737914D02*
X141282486Y-126928391D01*
X141282486Y-126928391D02*
X140901534Y-127309343D01*
X140901534Y-127309343D02*
X140711057Y-127880772D01*
X140711057Y-127880772D02*
X140711057Y-128261724D01*
X140711057Y-128261724D02*
X140901534Y-128833153D01*
X140901534Y-128833153D02*
X141092010Y-129023629D01*
X141092010Y-129023629D02*
X142425343Y-129023629D01*
X142425343Y-129023629D02*
X142425343Y-128261724D01*
X111461057Y-126071248D02*
X107461057Y-127023629D01*
X107461057Y-127023629D02*
X110318200Y-127785534D01*
X110318200Y-127785534D02*
X107461057Y-128547439D01*
X107461057Y-128547439D02*
X111461057Y-129499820D01*
X142806295Y-98928390D02*
X142806295Y-100261724D01*
X140711057Y-100833152D02*
X140711057Y-98928390D01*
X140711057Y-98928390D02*
X144711057Y-98928390D01*
X144711057Y-98928390D02*
X144711057Y-100833152D01*
X165211057Y-85842677D02*
X165211057Y-88128391D01*
X161211057Y-86985534D02*
X165211057Y-86985534D01*
X111461057Y-112452201D02*
X107461057Y-113785534D01*
X107461057Y-113785534D02*
X111461057Y-115118868D01*
X140711057Y-84737914D02*
X144711057Y-84737914D01*
X144711057Y-84737914D02*
X144711057Y-85690295D01*
X144711057Y-85690295D02*
X144520581Y-86261724D01*
X144520581Y-86261724D02*
X144139629Y-86642676D01*
X144139629Y-86642676D02*
X143758676Y-86833153D01*
X143758676Y-86833153D02*
X142996772Y-87023629D01*
X142996772Y-87023629D02*
X142425343Y-87023629D01*
X142425343Y-87023629D02*
X141663438Y-86833153D01*
X141663438Y-86833153D02*
X141282486Y-86642676D01*
X141282486Y-86642676D02*
X140901534Y-86261724D01*
X140901534Y-86261724D02*
X140711057Y-85690295D01*
X140711057Y-85690295D02*
X140711057Y-84737914D01*
X168461057Y-113842676D02*
X172461057Y-113842676D01*
X172461057Y-113842676D02*
X168461057Y-116128391D01*
X168461057Y-116128391D02*
X172461057Y-116128391D01*
D12*
X153040353Y-79279842D02*
X153849876Y-79279842D01*
X153849876Y-79279842D02*
X153945114Y-79232223D01*
X153945114Y-79232223D02*
X153992734Y-79184604D01*
X153992734Y-79184604D02*
X154040353Y-79089366D01*
X154040353Y-79089366D02*
X154040353Y-78898890D01*
X154040353Y-78898890D02*
X153992734Y-78803652D01*
X153992734Y-78803652D02*
X153945114Y-78756033D01*
X153945114Y-78756033D02*
X153849876Y-78708414D01*
X153849876Y-78708414D02*
X153040353Y-78708414D01*
X154040353Y-77708414D02*
X154040353Y-78279842D01*
X154040353Y-77994128D02*
X153040353Y-77994128D01*
X153040353Y-77994128D02*
X153183210Y-78089366D01*
X153183210Y-78089366D02*
X153278448Y-78184604D01*
X153278448Y-78184604D02*
X153326067Y-78279842D01*
X153040353Y-77375080D02*
X153040353Y-76708414D01*
X153040353Y-76708414D02*
X154040353Y-77136985D01*
X153040353Y-75898890D02*
X153040353Y-76089366D01*
X153040353Y-76089366D02*
X153087972Y-76184604D01*
X153087972Y-76184604D02*
X153135591Y-76232223D01*
X153135591Y-76232223D02*
X153278448Y-76327461D01*
X153278448Y-76327461D02*
X153468924Y-76375080D01*
X153468924Y-76375080D02*
X153849876Y-76375080D01*
X153849876Y-76375080D02*
X153945114Y-76327461D01*
X153945114Y-76327461D02*
X153992734Y-76279842D01*
X153992734Y-76279842D02*
X154040353Y-76184604D01*
X154040353Y-76184604D02*
X154040353Y-75994128D01*
X154040353Y-75994128D02*
X153992734Y-75898890D01*
X153992734Y-75898890D02*
X153945114Y-75851271D01*
X153945114Y-75851271D02*
X153849876Y-75803652D01*
X153849876Y-75803652D02*
X153611781Y-75803652D01*
X153611781Y-75803652D02*
X153516543Y-75851271D01*
X153516543Y-75851271D02*
X153468924Y-75898890D01*
X153468924Y-75898890D02*
X153421305Y-75994128D01*
X153421305Y-75994128D02*
X153421305Y-76184604D01*
X153421305Y-76184604D02*
X153468924Y-76279842D01*
X153468924Y-76279842D02*
X153516543Y-76327461D01*
X153516543Y-76327461D02*
X153611781Y-76375080D01*
X153040353Y-51279842D02*
X153849876Y-51279842D01*
X153849876Y-51279842D02*
X153945114Y-51232223D01*
X153945114Y-51232223D02*
X153992734Y-51184604D01*
X153992734Y-51184604D02*
X154040353Y-51089366D01*
X154040353Y-51089366D02*
X154040353Y-50898890D01*
X154040353Y-50898890D02*
X153992734Y-50803652D01*
X153992734Y-50803652D02*
X153945114Y-50756033D01*
X153945114Y-50756033D02*
X153849876Y-50708414D01*
X153849876Y-50708414D02*
X153040353Y-50708414D01*
X154040353Y-49708414D02*
X154040353Y-50279842D01*
X154040353Y-49994128D02*
X153040353Y-49994128D01*
X153040353Y-49994128D02*
X153183210Y-50089366D01*
X153183210Y-50089366D02*
X153278448Y-50184604D01*
X153278448Y-50184604D02*
X153326067Y-50279842D01*
X153040353Y-49375080D02*
X153040353Y-48708414D01*
X153040353Y-48708414D02*
X154040353Y-49136985D01*
X153373686Y-47898890D02*
X154040353Y-47898890D01*
X152992734Y-48136985D02*
X153707019Y-48375080D01*
X153707019Y-48375080D02*
X153707019Y-47756033D01*
X174040353Y-93279842D02*
X174849876Y-93279842D01*
X174849876Y-93279842D02*
X174945114Y-93232223D01*
X174945114Y-93232223D02*
X174992734Y-93184604D01*
X174992734Y-93184604D02*
X175040353Y-93089366D01*
X175040353Y-93089366D02*
X175040353Y-92898890D01*
X175040353Y-92898890D02*
X174992734Y-92803652D01*
X174992734Y-92803652D02*
X174945114Y-92756033D01*
X174945114Y-92756033D02*
X174849876Y-92708414D01*
X174849876Y-92708414D02*
X174040353Y-92708414D01*
X175040353Y-91708414D02*
X175040353Y-92279842D01*
X175040353Y-91994128D02*
X174040353Y-91994128D01*
X174040353Y-91994128D02*
X174183210Y-92089366D01*
X174183210Y-92089366D02*
X174278448Y-92184604D01*
X174278448Y-92184604D02*
X174326067Y-92279842D01*
X174040353Y-90803652D02*
X174040353Y-91279842D01*
X174040353Y-91279842D02*
X174516543Y-91327461D01*
X174516543Y-91327461D02*
X174468924Y-91279842D01*
X174468924Y-91279842D02*
X174421305Y-91184604D01*
X174421305Y-91184604D02*
X174421305Y-90946509D01*
X174421305Y-90946509D02*
X174468924Y-90851271D01*
X174468924Y-90851271D02*
X174516543Y-90803652D01*
X174516543Y-90803652D02*
X174611781Y-90756033D01*
X174611781Y-90756033D02*
X174849876Y-90756033D01*
X174849876Y-90756033D02*
X174945114Y-90803652D01*
X174945114Y-90803652D02*
X174992734Y-90851271D01*
X174992734Y-90851271D02*
X175040353Y-90946509D01*
X175040353Y-90946509D02*
X175040353Y-91184604D01*
X175040353Y-91184604D02*
X174992734Y-91279842D01*
X174992734Y-91279842D02*
X174945114Y-91327461D01*
X174040353Y-90422699D02*
X174040353Y-89803652D01*
X174040353Y-89803652D02*
X174421305Y-90136985D01*
X174421305Y-90136985D02*
X174421305Y-89994128D01*
X174421305Y-89994128D02*
X174468924Y-89898890D01*
X174468924Y-89898890D02*
X174516543Y-89851271D01*
X174516543Y-89851271D02*
X174611781Y-89803652D01*
X174611781Y-89803652D02*
X174849876Y-89803652D01*
X174849876Y-89803652D02*
X174945114Y-89851271D01*
X174945114Y-89851271D02*
X174992734Y-89898890D01*
X174992734Y-89898890D02*
X175040353Y-89994128D01*
X175040353Y-89994128D02*
X175040353Y-90279842D01*
X175040353Y-90279842D02*
X174992734Y-90375080D01*
X174992734Y-90375080D02*
X174945114Y-90422699D01*
X121216486Y-48645114D02*
X121168867Y-48692734D01*
X121168867Y-48692734D02*
X121026010Y-48740353D01*
X121026010Y-48740353D02*
X120930772Y-48740353D01*
X120930772Y-48740353D02*
X120787915Y-48692734D01*
X120787915Y-48692734D02*
X120692677Y-48597495D01*
X120692677Y-48597495D02*
X120645058Y-48502257D01*
X120645058Y-48502257D02*
X120597439Y-48311781D01*
X120597439Y-48311781D02*
X120597439Y-48168924D01*
X120597439Y-48168924D02*
X120645058Y-47978448D01*
X120645058Y-47978448D02*
X120692677Y-47883210D01*
X120692677Y-47883210D02*
X120787915Y-47787972D01*
X120787915Y-47787972D02*
X120930772Y-47740353D01*
X120930772Y-47740353D02*
X121026010Y-47740353D01*
X121026010Y-47740353D02*
X121168867Y-47787972D01*
X121168867Y-47787972D02*
X121216486Y-47835591D01*
X122168867Y-48740353D02*
X121597439Y-48740353D01*
X121883153Y-48740353D02*
X121883153Y-47740353D01*
X121883153Y-47740353D02*
X121787915Y-47883210D01*
X121787915Y-47883210D02*
X121692677Y-47978448D01*
X121692677Y-47978448D02*
X121597439Y-48026067D01*
X123121248Y-48740353D02*
X122549820Y-48740353D01*
X122835534Y-48740353D02*
X122835534Y-47740353D01*
X122835534Y-47740353D02*
X122740296Y-47883210D01*
X122740296Y-47883210D02*
X122645058Y-47978448D01*
X122645058Y-47978448D02*
X122549820Y-48026067D01*
X123978391Y-47740353D02*
X123787915Y-47740353D01*
X123787915Y-47740353D02*
X123692677Y-47787972D01*
X123692677Y-47787972D02*
X123645058Y-47835591D01*
X123645058Y-47835591D02*
X123549820Y-47978448D01*
X123549820Y-47978448D02*
X123502201Y-48168924D01*
X123502201Y-48168924D02*
X123502201Y-48549876D01*
X123502201Y-48549876D02*
X123549820Y-48645114D01*
X123549820Y-48645114D02*
X123597439Y-48692734D01*
X123597439Y-48692734D02*
X123692677Y-48740353D01*
X123692677Y-48740353D02*
X123883153Y-48740353D01*
X123883153Y-48740353D02*
X123978391Y-48692734D01*
X123978391Y-48692734D02*
X124026010Y-48645114D01*
X124026010Y-48645114D02*
X124073629Y-48549876D01*
X124073629Y-48549876D02*
X124073629Y-48311781D01*
X124073629Y-48311781D02*
X124026010Y-48216543D01*
X124026010Y-48216543D02*
X123978391Y-48168924D01*
X123978391Y-48168924D02*
X123883153Y-48121305D01*
X123883153Y-48121305D02*
X123692677Y-48121305D01*
X123692677Y-48121305D02*
X123597439Y-48168924D01*
X123597439Y-48168924D02*
X123549820Y-48216543D01*
X123549820Y-48216543D02*
X123502201Y-48311781D01*
X167040353Y-107279842D02*
X167849876Y-107279842D01*
X167849876Y-107279842D02*
X167945114Y-107232223D01*
X167945114Y-107232223D02*
X167992734Y-107184604D01*
X167992734Y-107184604D02*
X168040353Y-107089366D01*
X168040353Y-107089366D02*
X168040353Y-106898890D01*
X168040353Y-106898890D02*
X167992734Y-106803652D01*
X167992734Y-106803652D02*
X167945114Y-106756033D01*
X167945114Y-106756033D02*
X167849876Y-106708414D01*
X167849876Y-106708414D02*
X167040353Y-106708414D01*
X168040353Y-105708414D02*
X168040353Y-106279842D01*
X168040353Y-105994128D02*
X167040353Y-105994128D01*
X167040353Y-105994128D02*
X167183210Y-106089366D01*
X167183210Y-106089366D02*
X167278448Y-106184604D01*
X167278448Y-106184604D02*
X167326067Y-106279842D01*
X167040353Y-104851271D02*
X167040353Y-105041747D01*
X167040353Y-105041747D02*
X167087972Y-105136985D01*
X167087972Y-105136985D02*
X167135591Y-105184604D01*
X167135591Y-105184604D02*
X167278448Y-105279842D01*
X167278448Y-105279842D02*
X167468924Y-105327461D01*
X167468924Y-105327461D02*
X167849876Y-105327461D01*
X167849876Y-105327461D02*
X167945114Y-105279842D01*
X167945114Y-105279842D02*
X167992734Y-105232223D01*
X167992734Y-105232223D02*
X168040353Y-105136985D01*
X168040353Y-105136985D02*
X168040353Y-104946509D01*
X168040353Y-104946509D02*
X167992734Y-104851271D01*
X167992734Y-104851271D02*
X167945114Y-104803652D01*
X167945114Y-104803652D02*
X167849876Y-104756033D01*
X167849876Y-104756033D02*
X167611781Y-104756033D01*
X167611781Y-104756033D02*
X167516543Y-104803652D01*
X167516543Y-104803652D02*
X167468924Y-104851271D01*
X167468924Y-104851271D02*
X167421305Y-104946509D01*
X167421305Y-104946509D02*
X167421305Y-105136985D01*
X167421305Y-105136985D02*
X167468924Y-105232223D01*
X167468924Y-105232223D02*
X167516543Y-105279842D01*
X167516543Y-105279842D02*
X167611781Y-105327461D01*
X167135591Y-104375080D02*
X167087972Y-104327461D01*
X167087972Y-104327461D02*
X167040353Y-104232223D01*
X167040353Y-104232223D02*
X167040353Y-103994128D01*
X167040353Y-103994128D02*
X167087972Y-103898890D01*
X167087972Y-103898890D02*
X167135591Y-103851271D01*
X167135591Y-103851271D02*
X167230829Y-103803652D01*
X167230829Y-103803652D02*
X167326067Y-103803652D01*
X167326067Y-103803652D02*
X167468924Y-103851271D01*
X167468924Y-103851271D02*
X168040353Y-104422699D01*
X168040353Y-104422699D02*
X168040353Y-103803652D01*
X167040353Y-121279842D02*
X167849876Y-121279842D01*
X167849876Y-121279842D02*
X167945114Y-121232223D01*
X167945114Y-121232223D02*
X167992734Y-121184604D01*
X167992734Y-121184604D02*
X168040353Y-121089366D01*
X168040353Y-121089366D02*
X168040353Y-120898890D01*
X168040353Y-120898890D02*
X167992734Y-120803652D01*
X167992734Y-120803652D02*
X167945114Y-120756033D01*
X167945114Y-120756033D02*
X167849876Y-120708414D01*
X167849876Y-120708414D02*
X167040353Y-120708414D01*
X168040353Y-119708414D02*
X168040353Y-120279842D01*
X168040353Y-119994128D02*
X167040353Y-119994128D01*
X167040353Y-119994128D02*
X167183210Y-120089366D01*
X167183210Y-120089366D02*
X167278448Y-120184604D01*
X167278448Y-120184604D02*
X167326067Y-120279842D01*
X167040353Y-118851271D02*
X167040353Y-119041747D01*
X167040353Y-119041747D02*
X167087972Y-119136985D01*
X167087972Y-119136985D02*
X167135591Y-119184604D01*
X167135591Y-119184604D02*
X167278448Y-119279842D01*
X167278448Y-119279842D02*
X167468924Y-119327461D01*
X167468924Y-119327461D02*
X167849876Y-119327461D01*
X167849876Y-119327461D02*
X167945114Y-119279842D01*
X167945114Y-119279842D02*
X167992734Y-119232223D01*
X167992734Y-119232223D02*
X168040353Y-119136985D01*
X168040353Y-119136985D02*
X168040353Y-118946509D01*
X168040353Y-118946509D02*
X167992734Y-118851271D01*
X167992734Y-118851271D02*
X167945114Y-118803652D01*
X167945114Y-118803652D02*
X167849876Y-118756033D01*
X167849876Y-118756033D02*
X167611781Y-118756033D01*
X167611781Y-118756033D02*
X167516543Y-118803652D01*
X167516543Y-118803652D02*
X167468924Y-118851271D01*
X167468924Y-118851271D02*
X167421305Y-118946509D01*
X167421305Y-118946509D02*
X167421305Y-119136985D01*
X167421305Y-119136985D02*
X167468924Y-119232223D01*
X167468924Y-119232223D02*
X167516543Y-119279842D01*
X167516543Y-119279842D02*
X167611781Y-119327461D01*
X167040353Y-118422699D02*
X167040353Y-117803652D01*
X167040353Y-117803652D02*
X167421305Y-118136985D01*
X167421305Y-118136985D02*
X167421305Y-117994128D01*
X167421305Y-117994128D02*
X167468924Y-117898890D01*
X167468924Y-117898890D02*
X167516543Y-117851271D01*
X167516543Y-117851271D02*
X167611781Y-117803652D01*
X167611781Y-117803652D02*
X167849876Y-117803652D01*
X167849876Y-117803652D02*
X167945114Y-117851271D01*
X167945114Y-117851271D02*
X167992734Y-117898890D01*
X167992734Y-117898890D02*
X168040353Y-117994128D01*
X168040353Y-117994128D02*
X168040353Y-118279842D01*
X168040353Y-118279842D02*
X167992734Y-118375080D01*
X167992734Y-118375080D02*
X167945114Y-118422699D01*
X79450347Y-65226009D02*
X78450347Y-65226009D01*
X78450347Y-65226009D02*
X78450347Y-64845057D01*
X78450347Y-64845057D02*
X78497966Y-64749819D01*
X78497966Y-64749819D02*
X78545585Y-64702200D01*
X78545585Y-64702200D02*
X78640823Y-64654581D01*
X78640823Y-64654581D02*
X78783680Y-64654581D01*
X78783680Y-64654581D02*
X78878918Y-64702200D01*
X78878918Y-64702200D02*
X78926537Y-64749819D01*
X78926537Y-64749819D02*
X78974156Y-64845057D01*
X78974156Y-64845057D02*
X78974156Y-65226009D01*
X79450347Y-63702200D02*
X79450347Y-64273628D01*
X79450347Y-63987914D02*
X78450347Y-63987914D01*
X78450347Y-63987914D02*
X78593204Y-64083152D01*
X78593204Y-64083152D02*
X78688442Y-64178390D01*
X78688442Y-64178390D02*
X78736061Y-64273628D01*
X78450347Y-63083152D02*
X78450347Y-62987914D01*
X78450347Y-62987914D02*
X78497966Y-62892676D01*
X78497966Y-62892676D02*
X78545585Y-62845057D01*
X78545585Y-62845057D02*
X78640823Y-62797438D01*
X78640823Y-62797438D02*
X78831299Y-62749819D01*
X78831299Y-62749819D02*
X79069394Y-62749819D01*
X79069394Y-62749819D02*
X79259870Y-62797438D01*
X79259870Y-62797438D02*
X79355108Y-62845057D01*
X79355108Y-62845057D02*
X79402728Y-62892676D01*
X79402728Y-62892676D02*
X79450347Y-62987914D01*
X79450347Y-62987914D02*
X79450347Y-63083152D01*
X79450347Y-63083152D02*
X79402728Y-63178390D01*
X79402728Y-63178390D02*
X79355108Y-63226009D01*
X79355108Y-63226009D02*
X79259870Y-63273628D01*
X79259870Y-63273628D02*
X79069394Y-63321247D01*
X79069394Y-63321247D02*
X78831299Y-63321247D01*
X78831299Y-63321247D02*
X78640823Y-63273628D01*
X78640823Y-63273628D02*
X78545585Y-63226009D01*
X78545585Y-63226009D02*
X78497966Y-63178390D01*
X78497966Y-63178390D02*
X78450347Y-63083152D01*
X79450347Y-61797438D02*
X79450347Y-62368866D01*
X79450347Y-62083152D02*
X78450347Y-62083152D01*
X78450347Y-62083152D02*
X78593204Y-62178390D01*
X78593204Y-62178390D02*
X78688442Y-62273628D01*
X78688442Y-62273628D02*
X78736061Y-62368866D01*
X216390531Y-100209814D02*
X217200054Y-100209814D01*
X217200054Y-100209814D02*
X217295292Y-100162195D01*
X217295292Y-100162195D02*
X217342912Y-100114576D01*
X217342912Y-100114576D02*
X217390531Y-100019338D01*
X217390531Y-100019338D02*
X217390531Y-99828862D01*
X217390531Y-99828862D02*
X217342912Y-99733624D01*
X217342912Y-99733624D02*
X217295292Y-99686005D01*
X217295292Y-99686005D02*
X217200054Y-99638386D01*
X217200054Y-99638386D02*
X216390531Y-99638386D01*
X217390531Y-98638386D02*
X217390531Y-99209814D01*
X217390531Y-98924100D02*
X216390531Y-98924100D01*
X216390531Y-98924100D02*
X216533388Y-99019338D01*
X216533388Y-99019338D02*
X216628626Y-99114576D01*
X216628626Y-99114576D02*
X216676245Y-99209814D01*
X216723864Y-97781243D02*
X217390531Y-97781243D01*
X216342912Y-98019338D02*
X217057197Y-98257433D01*
X217057197Y-98257433D02*
X217057197Y-97638386D01*
X216723864Y-96828862D02*
X217390531Y-96828862D01*
X216342912Y-97066957D02*
X217057197Y-97305052D01*
X217057197Y-97305052D02*
X217057197Y-96686005D01*
X160040353Y-149279842D02*
X160849876Y-149279842D01*
X160849876Y-149279842D02*
X160945114Y-149232223D01*
X160945114Y-149232223D02*
X160992734Y-149184604D01*
X160992734Y-149184604D02*
X161040353Y-149089366D01*
X161040353Y-149089366D02*
X161040353Y-148898890D01*
X161040353Y-148898890D02*
X160992734Y-148803652D01*
X160992734Y-148803652D02*
X160945114Y-148756033D01*
X160945114Y-148756033D02*
X160849876Y-148708414D01*
X160849876Y-148708414D02*
X160040353Y-148708414D01*
X161040353Y-147708414D02*
X161040353Y-148279842D01*
X161040353Y-147994128D02*
X160040353Y-147994128D01*
X160040353Y-147994128D02*
X160183210Y-148089366D01*
X160183210Y-148089366D02*
X160278448Y-148184604D01*
X160278448Y-148184604D02*
X160326067Y-148279842D01*
X160040353Y-147375080D02*
X160040353Y-146708414D01*
X160040353Y-146708414D02*
X161040353Y-147136985D01*
X160040353Y-146422699D02*
X160040353Y-145803652D01*
X160040353Y-145803652D02*
X160421305Y-146136985D01*
X160421305Y-146136985D02*
X160421305Y-145994128D01*
X160421305Y-145994128D02*
X160468924Y-145898890D01*
X160468924Y-145898890D02*
X160516543Y-145851271D01*
X160516543Y-145851271D02*
X160611781Y-145803652D01*
X160611781Y-145803652D02*
X160849876Y-145803652D01*
X160849876Y-145803652D02*
X160945114Y-145851271D01*
X160945114Y-145851271D02*
X160992734Y-145898890D01*
X160992734Y-145898890D02*
X161040353Y-145994128D01*
X161040353Y-145994128D02*
X161040353Y-146279842D01*
X161040353Y-146279842D02*
X160992734Y-146375080D01*
X160992734Y-146375080D02*
X160945114Y-146422699D01*
X160040353Y-93279842D02*
X160849876Y-93279842D01*
X160849876Y-93279842D02*
X160945114Y-93232223D01*
X160945114Y-93232223D02*
X160992734Y-93184604D01*
X160992734Y-93184604D02*
X161040353Y-93089366D01*
X161040353Y-93089366D02*
X161040353Y-92898890D01*
X161040353Y-92898890D02*
X160992734Y-92803652D01*
X160992734Y-92803652D02*
X160945114Y-92756033D01*
X160945114Y-92756033D02*
X160849876Y-92708414D01*
X160849876Y-92708414D02*
X160040353Y-92708414D01*
X161040353Y-91708414D02*
X161040353Y-92279842D01*
X161040353Y-91994128D02*
X160040353Y-91994128D01*
X160040353Y-91994128D02*
X160183210Y-92089366D01*
X160183210Y-92089366D02*
X160278448Y-92184604D01*
X160278448Y-92184604D02*
X160326067Y-92279842D01*
X160040353Y-90851271D02*
X160040353Y-91041747D01*
X160040353Y-91041747D02*
X160087972Y-91136985D01*
X160087972Y-91136985D02*
X160135591Y-91184604D01*
X160135591Y-91184604D02*
X160278448Y-91279842D01*
X160278448Y-91279842D02*
X160468924Y-91327461D01*
X160468924Y-91327461D02*
X160849876Y-91327461D01*
X160849876Y-91327461D02*
X160945114Y-91279842D01*
X160945114Y-91279842D02*
X160992734Y-91232223D01*
X160992734Y-91232223D02*
X161040353Y-91136985D01*
X161040353Y-91136985D02*
X161040353Y-90946509D01*
X161040353Y-90946509D02*
X160992734Y-90851271D01*
X160992734Y-90851271D02*
X160945114Y-90803652D01*
X160945114Y-90803652D02*
X160849876Y-90756033D01*
X160849876Y-90756033D02*
X160611781Y-90756033D01*
X160611781Y-90756033D02*
X160516543Y-90803652D01*
X160516543Y-90803652D02*
X160468924Y-90851271D01*
X160468924Y-90851271D02*
X160421305Y-90946509D01*
X160421305Y-90946509D02*
X160421305Y-91136985D01*
X160421305Y-91136985D02*
X160468924Y-91232223D01*
X160468924Y-91232223D02*
X160516543Y-91279842D01*
X160516543Y-91279842D02*
X160611781Y-91327461D01*
X161040353Y-90279842D02*
X161040353Y-90089366D01*
X161040353Y-90089366D02*
X160992734Y-89994128D01*
X160992734Y-89994128D02*
X160945114Y-89946509D01*
X160945114Y-89946509D02*
X160802257Y-89851271D01*
X160802257Y-89851271D02*
X160611781Y-89803652D01*
X160611781Y-89803652D02*
X160230829Y-89803652D01*
X160230829Y-89803652D02*
X160135591Y-89851271D01*
X160135591Y-89851271D02*
X160087972Y-89898890D01*
X160087972Y-89898890D02*
X160040353Y-89994128D01*
X160040353Y-89994128D02*
X160040353Y-90184604D01*
X160040353Y-90184604D02*
X160087972Y-90279842D01*
X160087972Y-90279842D02*
X160135591Y-90327461D01*
X160135591Y-90327461D02*
X160230829Y-90375080D01*
X160230829Y-90375080D02*
X160468924Y-90375080D01*
X160468924Y-90375080D02*
X160564162Y-90327461D01*
X160564162Y-90327461D02*
X160611781Y-90279842D01*
X160611781Y-90279842D02*
X160659400Y-90184604D01*
X160659400Y-90184604D02*
X160659400Y-89994128D01*
X160659400Y-89994128D02*
X160611781Y-89898890D01*
X160611781Y-89898890D02*
X160564162Y-89851271D01*
X160564162Y-89851271D02*
X160468924Y-89803652D01*
X167040353Y-65279842D02*
X167849876Y-65279842D01*
X167849876Y-65279842D02*
X167945114Y-65232223D01*
X167945114Y-65232223D02*
X167992734Y-65184604D01*
X167992734Y-65184604D02*
X168040353Y-65089366D01*
X168040353Y-65089366D02*
X168040353Y-64898890D01*
X168040353Y-64898890D02*
X167992734Y-64803652D01*
X167992734Y-64803652D02*
X167945114Y-64756033D01*
X167945114Y-64756033D02*
X167849876Y-64708414D01*
X167849876Y-64708414D02*
X167040353Y-64708414D01*
X168040353Y-63708414D02*
X168040353Y-64279842D01*
X168040353Y-63994128D02*
X167040353Y-63994128D01*
X167040353Y-63994128D02*
X167183210Y-64089366D01*
X167183210Y-64089366D02*
X167278448Y-64184604D01*
X167278448Y-64184604D02*
X167326067Y-64279842D01*
X167040353Y-62803652D02*
X167040353Y-63279842D01*
X167040353Y-63279842D02*
X167516543Y-63327461D01*
X167516543Y-63327461D02*
X167468924Y-63279842D01*
X167468924Y-63279842D02*
X167421305Y-63184604D01*
X167421305Y-63184604D02*
X167421305Y-62946509D01*
X167421305Y-62946509D02*
X167468924Y-62851271D01*
X167468924Y-62851271D02*
X167516543Y-62803652D01*
X167516543Y-62803652D02*
X167611781Y-62756033D01*
X167611781Y-62756033D02*
X167849876Y-62756033D01*
X167849876Y-62756033D02*
X167945114Y-62803652D01*
X167945114Y-62803652D02*
X167992734Y-62851271D01*
X167992734Y-62851271D02*
X168040353Y-62946509D01*
X168040353Y-62946509D02*
X168040353Y-63184604D01*
X168040353Y-63184604D02*
X167992734Y-63279842D01*
X167992734Y-63279842D02*
X167945114Y-63327461D01*
X168040353Y-62279842D02*
X168040353Y-62089366D01*
X168040353Y-62089366D02*
X167992734Y-61994128D01*
X167992734Y-61994128D02*
X167945114Y-61946509D01*
X167945114Y-61946509D02*
X167802257Y-61851271D01*
X167802257Y-61851271D02*
X167611781Y-61803652D01*
X167611781Y-61803652D02*
X167230829Y-61803652D01*
X167230829Y-61803652D02*
X167135591Y-61851271D01*
X167135591Y-61851271D02*
X167087972Y-61898890D01*
X167087972Y-61898890D02*
X167040353Y-61994128D01*
X167040353Y-61994128D02*
X167040353Y-62184604D01*
X167040353Y-62184604D02*
X167087972Y-62279842D01*
X167087972Y-62279842D02*
X167135591Y-62327461D01*
X167135591Y-62327461D02*
X167230829Y-62375080D01*
X167230829Y-62375080D02*
X167468924Y-62375080D01*
X167468924Y-62375080D02*
X167564162Y-62327461D01*
X167564162Y-62327461D02*
X167611781Y-62279842D01*
X167611781Y-62279842D02*
X167659400Y-62184604D01*
X167659400Y-62184604D02*
X167659400Y-61994128D01*
X167659400Y-61994128D02*
X167611781Y-61898890D01*
X167611781Y-61898890D02*
X167564162Y-61851271D01*
X167564162Y-61851271D02*
X167468924Y-61803652D01*
X185699277Y-35843876D02*
X185651658Y-35891496D01*
X185651658Y-35891496D02*
X185508801Y-35939115D01*
X185508801Y-35939115D02*
X185413563Y-35939115D01*
X185413563Y-35939115D02*
X185270706Y-35891496D01*
X185270706Y-35891496D02*
X185175468Y-35796257D01*
X185175468Y-35796257D02*
X185127849Y-35701019D01*
X185127849Y-35701019D02*
X185080230Y-35510543D01*
X185080230Y-35510543D02*
X185080230Y-35367686D01*
X185080230Y-35367686D02*
X185127849Y-35177210D01*
X185127849Y-35177210D02*
X185175468Y-35081972D01*
X185175468Y-35081972D02*
X185270706Y-34986734D01*
X185270706Y-34986734D02*
X185413563Y-34939115D01*
X185413563Y-34939115D02*
X185508801Y-34939115D01*
X185508801Y-34939115D02*
X185651658Y-34986734D01*
X185651658Y-34986734D02*
X185699277Y-35034353D01*
X186651658Y-35939115D02*
X186080230Y-35939115D01*
X186365944Y-35939115D02*
X186365944Y-34939115D01*
X186365944Y-34939115D02*
X186270706Y-35081972D01*
X186270706Y-35081972D02*
X186175468Y-35177210D01*
X186175468Y-35177210D02*
X186080230Y-35224829D01*
X187032611Y-35034353D02*
X187080230Y-34986734D01*
X187080230Y-34986734D02*
X187175468Y-34939115D01*
X187175468Y-34939115D02*
X187413563Y-34939115D01*
X187413563Y-34939115D02*
X187508801Y-34986734D01*
X187508801Y-34986734D02*
X187556420Y-35034353D01*
X187556420Y-35034353D02*
X187604039Y-35129591D01*
X187604039Y-35129591D02*
X187604039Y-35224829D01*
X187604039Y-35224829D02*
X187556420Y-35367686D01*
X187556420Y-35367686D02*
X186984992Y-35939115D01*
X186984992Y-35939115D02*
X187604039Y-35939115D01*
X188175468Y-35367686D02*
X188080230Y-35320067D01*
X188080230Y-35320067D02*
X188032611Y-35272448D01*
X188032611Y-35272448D02*
X187984992Y-35177210D01*
X187984992Y-35177210D02*
X187984992Y-35129591D01*
X187984992Y-35129591D02*
X188032611Y-35034353D01*
X188032611Y-35034353D02*
X188080230Y-34986734D01*
X188080230Y-34986734D02*
X188175468Y-34939115D01*
X188175468Y-34939115D02*
X188365944Y-34939115D01*
X188365944Y-34939115D02*
X188461182Y-34986734D01*
X188461182Y-34986734D02*
X188508801Y-35034353D01*
X188508801Y-35034353D02*
X188556420Y-35129591D01*
X188556420Y-35129591D02*
X188556420Y-35177210D01*
X188556420Y-35177210D02*
X188508801Y-35272448D01*
X188508801Y-35272448D02*
X188461182Y-35320067D01*
X188461182Y-35320067D02*
X188365944Y-35367686D01*
X188365944Y-35367686D02*
X188175468Y-35367686D01*
X188175468Y-35367686D02*
X188080230Y-35415305D01*
X188080230Y-35415305D02*
X188032611Y-35462924D01*
X188032611Y-35462924D02*
X187984992Y-35558162D01*
X187984992Y-35558162D02*
X187984992Y-35748638D01*
X187984992Y-35748638D02*
X188032611Y-35843876D01*
X188032611Y-35843876D02*
X188080230Y-35891496D01*
X188080230Y-35891496D02*
X188175468Y-35939115D01*
X188175468Y-35939115D02*
X188365944Y-35939115D01*
X188365944Y-35939115D02*
X188461182Y-35891496D01*
X188461182Y-35891496D02*
X188508801Y-35843876D01*
X188508801Y-35843876D02*
X188556420Y-35748638D01*
X188556420Y-35748638D02*
X188556420Y-35558162D01*
X188556420Y-35558162D02*
X188508801Y-35462924D01*
X188508801Y-35462924D02*
X188461182Y-35415305D01*
X188461182Y-35415305D02*
X188365944Y-35367686D01*
X174040353Y-121279842D02*
X174849876Y-121279842D01*
X174849876Y-121279842D02*
X174945114Y-121232223D01*
X174945114Y-121232223D02*
X174992734Y-121184604D01*
X174992734Y-121184604D02*
X175040353Y-121089366D01*
X175040353Y-121089366D02*
X175040353Y-120898890D01*
X175040353Y-120898890D02*
X174992734Y-120803652D01*
X174992734Y-120803652D02*
X174945114Y-120756033D01*
X174945114Y-120756033D02*
X174849876Y-120708414D01*
X174849876Y-120708414D02*
X174040353Y-120708414D01*
X175040353Y-119708414D02*
X175040353Y-120279842D01*
X175040353Y-119994128D02*
X174040353Y-119994128D01*
X174040353Y-119994128D02*
X174183210Y-120089366D01*
X174183210Y-120089366D02*
X174278448Y-120184604D01*
X174278448Y-120184604D02*
X174326067Y-120279842D01*
X174040353Y-118803652D02*
X174040353Y-119279842D01*
X174040353Y-119279842D02*
X174516543Y-119327461D01*
X174516543Y-119327461D02*
X174468924Y-119279842D01*
X174468924Y-119279842D02*
X174421305Y-119184604D01*
X174421305Y-119184604D02*
X174421305Y-118946509D01*
X174421305Y-118946509D02*
X174468924Y-118851271D01*
X174468924Y-118851271D02*
X174516543Y-118803652D01*
X174516543Y-118803652D02*
X174611781Y-118756033D01*
X174611781Y-118756033D02*
X174849876Y-118756033D01*
X174849876Y-118756033D02*
X174945114Y-118803652D01*
X174945114Y-118803652D02*
X174992734Y-118851271D01*
X174992734Y-118851271D02*
X175040353Y-118946509D01*
X175040353Y-118946509D02*
X175040353Y-119184604D01*
X175040353Y-119184604D02*
X174992734Y-119279842D01*
X174992734Y-119279842D02*
X174945114Y-119327461D01*
X174040353Y-117851271D02*
X174040353Y-118327461D01*
X174040353Y-118327461D02*
X174516543Y-118375080D01*
X174516543Y-118375080D02*
X174468924Y-118327461D01*
X174468924Y-118327461D02*
X174421305Y-118232223D01*
X174421305Y-118232223D02*
X174421305Y-117994128D01*
X174421305Y-117994128D02*
X174468924Y-117898890D01*
X174468924Y-117898890D02*
X174516543Y-117851271D01*
X174516543Y-117851271D02*
X174611781Y-117803652D01*
X174611781Y-117803652D02*
X174849876Y-117803652D01*
X174849876Y-117803652D02*
X174945114Y-117851271D01*
X174945114Y-117851271D02*
X174992734Y-117898890D01*
X174992734Y-117898890D02*
X175040353Y-117994128D01*
X175040353Y-117994128D02*
X175040353Y-118232223D01*
X175040353Y-118232223D02*
X174992734Y-118327461D01*
X174992734Y-118327461D02*
X174945114Y-118375080D01*
X173345114Y-70054581D02*
X173392734Y-70102200D01*
X173392734Y-70102200D02*
X173440353Y-70245057D01*
X173440353Y-70245057D02*
X173440353Y-70340295D01*
X173440353Y-70340295D02*
X173392734Y-70483152D01*
X173392734Y-70483152D02*
X173297495Y-70578390D01*
X173297495Y-70578390D02*
X173202257Y-70626009D01*
X173202257Y-70626009D02*
X173011781Y-70673628D01*
X173011781Y-70673628D02*
X172868924Y-70673628D01*
X172868924Y-70673628D02*
X172678448Y-70626009D01*
X172678448Y-70626009D02*
X172583210Y-70578390D01*
X172583210Y-70578390D02*
X172487972Y-70483152D01*
X172487972Y-70483152D02*
X172440353Y-70340295D01*
X172440353Y-70340295D02*
X172440353Y-70245057D01*
X172440353Y-70245057D02*
X172487972Y-70102200D01*
X172487972Y-70102200D02*
X172535591Y-70054581D01*
X173440353Y-69102200D02*
X173440353Y-69673628D01*
X173440353Y-69387914D02*
X172440353Y-69387914D01*
X172440353Y-69387914D02*
X172583210Y-69483152D01*
X172583210Y-69483152D02*
X172678448Y-69578390D01*
X172678448Y-69578390D02*
X172726067Y-69673628D01*
X172535591Y-68721247D02*
X172487972Y-68673628D01*
X172487972Y-68673628D02*
X172440353Y-68578390D01*
X172440353Y-68578390D02*
X172440353Y-68340295D01*
X172440353Y-68340295D02*
X172487972Y-68245057D01*
X172487972Y-68245057D02*
X172535591Y-68197438D01*
X172535591Y-68197438D02*
X172630829Y-68149819D01*
X172630829Y-68149819D02*
X172726067Y-68149819D01*
X172726067Y-68149819D02*
X172868924Y-68197438D01*
X172868924Y-68197438D02*
X173440353Y-68768866D01*
X173440353Y-68768866D02*
X173440353Y-68149819D01*
X172440353Y-67530771D02*
X172440353Y-67435533D01*
X172440353Y-67435533D02*
X172487972Y-67340295D01*
X172487972Y-67340295D02*
X172535591Y-67292676D01*
X172535591Y-67292676D02*
X172630829Y-67245057D01*
X172630829Y-67245057D02*
X172821305Y-67197438D01*
X172821305Y-67197438D02*
X173059400Y-67197438D01*
X173059400Y-67197438D02*
X173249876Y-67245057D01*
X173249876Y-67245057D02*
X173345114Y-67292676D01*
X173345114Y-67292676D02*
X173392734Y-67340295D01*
X173392734Y-67340295D02*
X173440353Y-67435533D01*
X173440353Y-67435533D02*
X173440353Y-67530771D01*
X173440353Y-67530771D02*
X173392734Y-67626009D01*
X173392734Y-67626009D02*
X173345114Y-67673628D01*
X173345114Y-67673628D02*
X173249876Y-67721247D01*
X173249876Y-67721247D02*
X173059400Y-67768866D01*
X173059400Y-67768866D02*
X172821305Y-67768866D01*
X172821305Y-67768866D02*
X172630829Y-67721247D01*
X172630829Y-67721247D02*
X172535591Y-67673628D01*
X172535591Y-67673628D02*
X172487972Y-67626009D01*
X172487972Y-67626009D02*
X172440353Y-67530771D01*
X166295114Y-70004581D02*
X166342734Y-70052200D01*
X166342734Y-70052200D02*
X166390353Y-70195057D01*
X166390353Y-70195057D02*
X166390353Y-70290295D01*
X166390353Y-70290295D02*
X166342734Y-70433152D01*
X166342734Y-70433152D02*
X166247495Y-70528390D01*
X166247495Y-70528390D02*
X166152257Y-70576009D01*
X166152257Y-70576009D02*
X165961781Y-70623628D01*
X165961781Y-70623628D02*
X165818924Y-70623628D01*
X165818924Y-70623628D02*
X165628448Y-70576009D01*
X165628448Y-70576009D02*
X165533210Y-70528390D01*
X165533210Y-70528390D02*
X165437972Y-70433152D01*
X165437972Y-70433152D02*
X165390353Y-70290295D01*
X165390353Y-70290295D02*
X165390353Y-70195057D01*
X165390353Y-70195057D02*
X165437972Y-70052200D01*
X165437972Y-70052200D02*
X165485591Y-70004581D01*
X166390353Y-69052200D02*
X166390353Y-69623628D01*
X166390353Y-69337914D02*
X165390353Y-69337914D01*
X165390353Y-69337914D02*
X165533210Y-69433152D01*
X165533210Y-69433152D02*
X165628448Y-69528390D01*
X165628448Y-69528390D02*
X165676067Y-69623628D01*
X165485591Y-68671247D02*
X165437972Y-68623628D01*
X165437972Y-68623628D02*
X165390353Y-68528390D01*
X165390353Y-68528390D02*
X165390353Y-68290295D01*
X165390353Y-68290295D02*
X165437972Y-68195057D01*
X165437972Y-68195057D02*
X165485591Y-68147438D01*
X165485591Y-68147438D02*
X165580829Y-68099819D01*
X165580829Y-68099819D02*
X165676067Y-68099819D01*
X165676067Y-68099819D02*
X165818924Y-68147438D01*
X165818924Y-68147438D02*
X166390353Y-68718866D01*
X166390353Y-68718866D02*
X166390353Y-68099819D01*
X165485591Y-67718866D02*
X165437972Y-67671247D01*
X165437972Y-67671247D02*
X165390353Y-67576009D01*
X165390353Y-67576009D02*
X165390353Y-67337914D01*
X165390353Y-67337914D02*
X165437972Y-67242676D01*
X165437972Y-67242676D02*
X165485591Y-67195057D01*
X165485591Y-67195057D02*
X165580829Y-67147438D01*
X165580829Y-67147438D02*
X165676067Y-67147438D01*
X165676067Y-67147438D02*
X165818924Y-67195057D01*
X165818924Y-67195057D02*
X166390353Y-67766485D01*
X166390353Y-67766485D02*
X166390353Y-67147438D01*
X159245114Y-69954581D02*
X159292734Y-70002200D01*
X159292734Y-70002200D02*
X159340353Y-70145057D01*
X159340353Y-70145057D02*
X159340353Y-70240295D01*
X159340353Y-70240295D02*
X159292734Y-70383152D01*
X159292734Y-70383152D02*
X159197495Y-70478390D01*
X159197495Y-70478390D02*
X159102257Y-70526009D01*
X159102257Y-70526009D02*
X158911781Y-70573628D01*
X158911781Y-70573628D02*
X158768924Y-70573628D01*
X158768924Y-70573628D02*
X158578448Y-70526009D01*
X158578448Y-70526009D02*
X158483210Y-70478390D01*
X158483210Y-70478390D02*
X158387972Y-70383152D01*
X158387972Y-70383152D02*
X158340353Y-70240295D01*
X158340353Y-70240295D02*
X158340353Y-70145057D01*
X158340353Y-70145057D02*
X158387972Y-70002200D01*
X158387972Y-70002200D02*
X158435591Y-69954581D01*
X159340353Y-69002200D02*
X159340353Y-69573628D01*
X159340353Y-69287914D02*
X158340353Y-69287914D01*
X158340353Y-69287914D02*
X158483210Y-69383152D01*
X158483210Y-69383152D02*
X158578448Y-69478390D01*
X158578448Y-69478390D02*
X158626067Y-69573628D01*
X158435591Y-68621247D02*
X158387972Y-68573628D01*
X158387972Y-68573628D02*
X158340353Y-68478390D01*
X158340353Y-68478390D02*
X158340353Y-68240295D01*
X158340353Y-68240295D02*
X158387972Y-68145057D01*
X158387972Y-68145057D02*
X158435591Y-68097438D01*
X158435591Y-68097438D02*
X158530829Y-68049819D01*
X158530829Y-68049819D02*
X158626067Y-68049819D01*
X158626067Y-68049819D02*
X158768924Y-68097438D01*
X158768924Y-68097438D02*
X159340353Y-68668866D01*
X159340353Y-68668866D02*
X159340353Y-68049819D01*
X158673686Y-67192676D02*
X159340353Y-67192676D01*
X158292734Y-67430771D02*
X159007019Y-67668866D01*
X159007019Y-67668866D02*
X159007019Y-67049819D01*
X173295114Y-126104581D02*
X173342734Y-126152200D01*
X173342734Y-126152200D02*
X173390353Y-126295057D01*
X173390353Y-126295057D02*
X173390353Y-126390295D01*
X173390353Y-126390295D02*
X173342734Y-126533152D01*
X173342734Y-126533152D02*
X173247495Y-126628390D01*
X173247495Y-126628390D02*
X173152257Y-126676009D01*
X173152257Y-126676009D02*
X172961781Y-126723628D01*
X172961781Y-126723628D02*
X172818924Y-126723628D01*
X172818924Y-126723628D02*
X172628448Y-126676009D01*
X172628448Y-126676009D02*
X172533210Y-126628390D01*
X172533210Y-126628390D02*
X172437972Y-126533152D01*
X172437972Y-126533152D02*
X172390353Y-126390295D01*
X172390353Y-126390295D02*
X172390353Y-126295057D01*
X172390353Y-126295057D02*
X172437972Y-126152200D01*
X172437972Y-126152200D02*
X172485591Y-126104581D01*
X173390353Y-125152200D02*
X173390353Y-125723628D01*
X173390353Y-125437914D02*
X172390353Y-125437914D01*
X172390353Y-125437914D02*
X172533210Y-125533152D01*
X172533210Y-125533152D02*
X172628448Y-125628390D01*
X172628448Y-125628390D02*
X172676067Y-125723628D01*
X172485591Y-124771247D02*
X172437972Y-124723628D01*
X172437972Y-124723628D02*
X172390353Y-124628390D01*
X172390353Y-124628390D02*
X172390353Y-124390295D01*
X172390353Y-124390295D02*
X172437972Y-124295057D01*
X172437972Y-124295057D02*
X172485591Y-124247438D01*
X172485591Y-124247438D02*
X172580829Y-124199819D01*
X172580829Y-124199819D02*
X172676067Y-124199819D01*
X172676067Y-124199819D02*
X172818924Y-124247438D01*
X172818924Y-124247438D02*
X173390353Y-124818866D01*
X173390353Y-124818866D02*
X173390353Y-124199819D01*
X173390353Y-123247438D02*
X173390353Y-123818866D01*
X173390353Y-123533152D02*
X172390353Y-123533152D01*
X172390353Y-123533152D02*
X172533210Y-123628390D01*
X172533210Y-123628390D02*
X172628448Y-123723628D01*
X172628448Y-123723628D02*
X172676067Y-123818866D01*
X174040353Y-65279842D02*
X174849876Y-65279842D01*
X174849876Y-65279842D02*
X174945114Y-65232223D01*
X174945114Y-65232223D02*
X174992734Y-65184604D01*
X174992734Y-65184604D02*
X175040353Y-65089366D01*
X175040353Y-65089366D02*
X175040353Y-64898890D01*
X175040353Y-64898890D02*
X174992734Y-64803652D01*
X174992734Y-64803652D02*
X174945114Y-64756033D01*
X174945114Y-64756033D02*
X174849876Y-64708414D01*
X174849876Y-64708414D02*
X174040353Y-64708414D01*
X175040353Y-63708414D02*
X175040353Y-64279842D01*
X175040353Y-63994128D02*
X174040353Y-63994128D01*
X174040353Y-63994128D02*
X174183210Y-64089366D01*
X174183210Y-64089366D02*
X174278448Y-64184604D01*
X174278448Y-64184604D02*
X174326067Y-64279842D01*
X174040353Y-62803652D02*
X174040353Y-63279842D01*
X174040353Y-63279842D02*
X174516543Y-63327461D01*
X174516543Y-63327461D02*
X174468924Y-63279842D01*
X174468924Y-63279842D02*
X174421305Y-63184604D01*
X174421305Y-63184604D02*
X174421305Y-62946509D01*
X174421305Y-62946509D02*
X174468924Y-62851271D01*
X174468924Y-62851271D02*
X174516543Y-62803652D01*
X174516543Y-62803652D02*
X174611781Y-62756033D01*
X174611781Y-62756033D02*
X174849876Y-62756033D01*
X174849876Y-62756033D02*
X174945114Y-62803652D01*
X174945114Y-62803652D02*
X174992734Y-62851271D01*
X174992734Y-62851271D02*
X175040353Y-62946509D01*
X175040353Y-62946509D02*
X175040353Y-63184604D01*
X175040353Y-63184604D02*
X174992734Y-63279842D01*
X174992734Y-63279842D02*
X174945114Y-63327461D01*
X175040353Y-61803652D02*
X175040353Y-62375080D01*
X175040353Y-62089366D02*
X174040353Y-62089366D01*
X174040353Y-62089366D02*
X174183210Y-62184604D01*
X174183210Y-62184604D02*
X174278448Y-62279842D01*
X174278448Y-62279842D02*
X174326067Y-62375080D01*
X167040353Y-135279842D02*
X167849876Y-135279842D01*
X167849876Y-135279842D02*
X167945114Y-135232223D01*
X167945114Y-135232223D02*
X167992734Y-135184604D01*
X167992734Y-135184604D02*
X168040353Y-135089366D01*
X168040353Y-135089366D02*
X168040353Y-134898890D01*
X168040353Y-134898890D02*
X167992734Y-134803652D01*
X167992734Y-134803652D02*
X167945114Y-134756033D01*
X167945114Y-134756033D02*
X167849876Y-134708414D01*
X167849876Y-134708414D02*
X167040353Y-134708414D01*
X168040353Y-133708414D02*
X168040353Y-134279842D01*
X168040353Y-133994128D02*
X167040353Y-133994128D01*
X167040353Y-133994128D02*
X167183210Y-134089366D01*
X167183210Y-134089366D02*
X167278448Y-134184604D01*
X167278448Y-134184604D02*
X167326067Y-134279842D01*
X167040353Y-132851271D02*
X167040353Y-133041747D01*
X167040353Y-133041747D02*
X167087972Y-133136985D01*
X167087972Y-133136985D02*
X167135591Y-133184604D01*
X167135591Y-133184604D02*
X167278448Y-133279842D01*
X167278448Y-133279842D02*
X167468924Y-133327461D01*
X167468924Y-133327461D02*
X167849876Y-133327461D01*
X167849876Y-133327461D02*
X167945114Y-133279842D01*
X167945114Y-133279842D02*
X167992734Y-133232223D01*
X167992734Y-133232223D02*
X168040353Y-133136985D01*
X168040353Y-133136985D02*
X168040353Y-132946509D01*
X168040353Y-132946509D02*
X167992734Y-132851271D01*
X167992734Y-132851271D02*
X167945114Y-132803652D01*
X167945114Y-132803652D02*
X167849876Y-132756033D01*
X167849876Y-132756033D02*
X167611781Y-132756033D01*
X167611781Y-132756033D02*
X167516543Y-132803652D01*
X167516543Y-132803652D02*
X167468924Y-132851271D01*
X167468924Y-132851271D02*
X167421305Y-132946509D01*
X167421305Y-132946509D02*
X167421305Y-133136985D01*
X167421305Y-133136985D02*
X167468924Y-133232223D01*
X167468924Y-133232223D02*
X167516543Y-133279842D01*
X167516543Y-133279842D02*
X167611781Y-133327461D01*
X167373686Y-131898890D02*
X168040353Y-131898890D01*
X166992734Y-132136985D02*
X167707019Y-132375080D01*
X167707019Y-132375080D02*
X167707019Y-131756033D01*
X153040353Y-93279842D02*
X153849876Y-93279842D01*
X153849876Y-93279842D02*
X153945114Y-93232223D01*
X153945114Y-93232223D02*
X153992734Y-93184604D01*
X153992734Y-93184604D02*
X154040353Y-93089366D01*
X154040353Y-93089366D02*
X154040353Y-92898890D01*
X154040353Y-92898890D02*
X153992734Y-92803652D01*
X153992734Y-92803652D02*
X153945114Y-92756033D01*
X153945114Y-92756033D02*
X153849876Y-92708414D01*
X153849876Y-92708414D02*
X153040353Y-92708414D01*
X154040353Y-91708414D02*
X154040353Y-92279842D01*
X154040353Y-91994128D02*
X153040353Y-91994128D01*
X153040353Y-91994128D02*
X153183210Y-92089366D01*
X153183210Y-92089366D02*
X153278448Y-92184604D01*
X153278448Y-92184604D02*
X153326067Y-92279842D01*
X153040353Y-91375080D02*
X153040353Y-90708414D01*
X153040353Y-90708414D02*
X154040353Y-91136985D01*
X153040353Y-90422699D02*
X153040353Y-89756033D01*
X153040353Y-89756033D02*
X154040353Y-90184604D01*
X167040353Y-51279842D02*
X167849876Y-51279842D01*
X167849876Y-51279842D02*
X167945114Y-51232223D01*
X167945114Y-51232223D02*
X167992734Y-51184604D01*
X167992734Y-51184604D02*
X168040353Y-51089366D01*
X168040353Y-51089366D02*
X168040353Y-50898890D01*
X168040353Y-50898890D02*
X167992734Y-50803652D01*
X167992734Y-50803652D02*
X167945114Y-50756033D01*
X167945114Y-50756033D02*
X167849876Y-50708414D01*
X167849876Y-50708414D02*
X167040353Y-50708414D01*
X168040353Y-49708414D02*
X168040353Y-50279842D01*
X168040353Y-49994128D02*
X167040353Y-49994128D01*
X167040353Y-49994128D02*
X167183210Y-50089366D01*
X167183210Y-50089366D02*
X167278448Y-50184604D01*
X167278448Y-50184604D02*
X167326067Y-50279842D01*
X167040353Y-48803652D02*
X167040353Y-49279842D01*
X167040353Y-49279842D02*
X167516543Y-49327461D01*
X167516543Y-49327461D02*
X167468924Y-49279842D01*
X167468924Y-49279842D02*
X167421305Y-49184604D01*
X167421305Y-49184604D02*
X167421305Y-48946509D01*
X167421305Y-48946509D02*
X167468924Y-48851271D01*
X167468924Y-48851271D02*
X167516543Y-48803652D01*
X167516543Y-48803652D02*
X167611781Y-48756033D01*
X167611781Y-48756033D02*
X167849876Y-48756033D01*
X167849876Y-48756033D02*
X167945114Y-48803652D01*
X167945114Y-48803652D02*
X167992734Y-48851271D01*
X167992734Y-48851271D02*
X168040353Y-48946509D01*
X168040353Y-48946509D02*
X168040353Y-49184604D01*
X168040353Y-49184604D02*
X167992734Y-49279842D01*
X167992734Y-49279842D02*
X167945114Y-49327461D01*
X167468924Y-48184604D02*
X167421305Y-48279842D01*
X167421305Y-48279842D02*
X167373686Y-48327461D01*
X167373686Y-48327461D02*
X167278448Y-48375080D01*
X167278448Y-48375080D02*
X167230829Y-48375080D01*
X167230829Y-48375080D02*
X167135591Y-48327461D01*
X167135591Y-48327461D02*
X167087972Y-48279842D01*
X167087972Y-48279842D02*
X167040353Y-48184604D01*
X167040353Y-48184604D02*
X167040353Y-47994128D01*
X167040353Y-47994128D02*
X167087972Y-47898890D01*
X167087972Y-47898890D02*
X167135591Y-47851271D01*
X167135591Y-47851271D02*
X167230829Y-47803652D01*
X167230829Y-47803652D02*
X167278448Y-47803652D01*
X167278448Y-47803652D02*
X167373686Y-47851271D01*
X167373686Y-47851271D02*
X167421305Y-47898890D01*
X167421305Y-47898890D02*
X167468924Y-47994128D01*
X167468924Y-47994128D02*
X167468924Y-48184604D01*
X167468924Y-48184604D02*
X167516543Y-48279842D01*
X167516543Y-48279842D02*
X167564162Y-48327461D01*
X167564162Y-48327461D02*
X167659400Y-48375080D01*
X167659400Y-48375080D02*
X167849876Y-48375080D01*
X167849876Y-48375080D02*
X167945114Y-48327461D01*
X167945114Y-48327461D02*
X167992734Y-48279842D01*
X167992734Y-48279842D02*
X168040353Y-48184604D01*
X168040353Y-48184604D02*
X168040353Y-47994128D01*
X168040353Y-47994128D02*
X167992734Y-47898890D01*
X167992734Y-47898890D02*
X167945114Y-47851271D01*
X167945114Y-47851271D02*
X167849876Y-47803652D01*
X167849876Y-47803652D02*
X167659400Y-47803652D01*
X167659400Y-47803652D02*
X167564162Y-47851271D01*
X167564162Y-47851271D02*
X167516543Y-47898890D01*
X167516543Y-47898890D02*
X167468924Y-47994128D01*
X123515391Y-141972175D02*
X124324914Y-141972175D01*
X124324914Y-141972175D02*
X124420152Y-141924556D01*
X124420152Y-141924556D02*
X124467772Y-141876937D01*
X124467772Y-141876937D02*
X124515391Y-141781699D01*
X124515391Y-141781699D02*
X124515391Y-141591223D01*
X124515391Y-141591223D02*
X124467772Y-141495985D01*
X124467772Y-141495985D02*
X124420152Y-141448366D01*
X124420152Y-141448366D02*
X124324914Y-141400747D01*
X124324914Y-141400747D02*
X123515391Y-141400747D01*
X124515391Y-140400747D02*
X124515391Y-140972175D01*
X124515391Y-140686461D02*
X123515391Y-140686461D01*
X123515391Y-140686461D02*
X123658248Y-140781699D01*
X123658248Y-140781699D02*
X123753486Y-140876937D01*
X123753486Y-140876937D02*
X123801105Y-140972175D01*
X123848724Y-139543604D02*
X124515391Y-139543604D01*
X123467772Y-139781699D02*
X124182057Y-140019794D01*
X124182057Y-140019794D02*
X124182057Y-139400747D01*
X123943962Y-138876937D02*
X123896343Y-138972175D01*
X123896343Y-138972175D02*
X123848724Y-139019794D01*
X123848724Y-139019794D02*
X123753486Y-139067413D01*
X123753486Y-139067413D02*
X123705867Y-139067413D01*
X123705867Y-139067413D02*
X123610629Y-139019794D01*
X123610629Y-139019794D02*
X123563010Y-138972175D01*
X123563010Y-138972175D02*
X123515391Y-138876937D01*
X123515391Y-138876937D02*
X123515391Y-138686461D01*
X123515391Y-138686461D02*
X123563010Y-138591223D01*
X123563010Y-138591223D02*
X123610629Y-138543604D01*
X123610629Y-138543604D02*
X123705867Y-138495985D01*
X123705867Y-138495985D02*
X123753486Y-138495985D01*
X123753486Y-138495985D02*
X123848724Y-138543604D01*
X123848724Y-138543604D02*
X123896343Y-138591223D01*
X123896343Y-138591223D02*
X123943962Y-138686461D01*
X123943962Y-138686461D02*
X123943962Y-138876937D01*
X123943962Y-138876937D02*
X123991581Y-138972175D01*
X123991581Y-138972175D02*
X124039200Y-139019794D01*
X124039200Y-139019794D02*
X124134438Y-139067413D01*
X124134438Y-139067413D02*
X124324914Y-139067413D01*
X124324914Y-139067413D02*
X124420152Y-139019794D01*
X124420152Y-139019794D02*
X124467772Y-138972175D01*
X124467772Y-138972175D02*
X124515391Y-138876937D01*
X124515391Y-138876937D02*
X124515391Y-138686461D01*
X124515391Y-138686461D02*
X124467772Y-138591223D01*
X124467772Y-138591223D02*
X124420152Y-138543604D01*
X124420152Y-138543604D02*
X124324914Y-138495985D01*
X124324914Y-138495985D02*
X124134438Y-138495985D01*
X124134438Y-138495985D02*
X124039200Y-138543604D01*
X124039200Y-138543604D02*
X123991581Y-138591223D01*
X123991581Y-138591223D02*
X123943962Y-138686461D01*
X160040353Y-107279842D02*
X160849876Y-107279842D01*
X160849876Y-107279842D02*
X160945114Y-107232223D01*
X160945114Y-107232223D02*
X160992734Y-107184604D01*
X160992734Y-107184604D02*
X161040353Y-107089366D01*
X161040353Y-107089366D02*
X161040353Y-106898890D01*
X161040353Y-106898890D02*
X160992734Y-106803652D01*
X160992734Y-106803652D02*
X160945114Y-106756033D01*
X160945114Y-106756033D02*
X160849876Y-106708414D01*
X160849876Y-106708414D02*
X160040353Y-106708414D01*
X161040353Y-105708414D02*
X161040353Y-106279842D01*
X161040353Y-105994128D02*
X160040353Y-105994128D01*
X160040353Y-105994128D02*
X160183210Y-106089366D01*
X160183210Y-106089366D02*
X160278448Y-106184604D01*
X160278448Y-106184604D02*
X160326067Y-106279842D01*
X160040353Y-105375080D02*
X160040353Y-104708414D01*
X160040353Y-104708414D02*
X161040353Y-105136985D01*
X160040353Y-104136985D02*
X160040353Y-104041747D01*
X160040353Y-104041747D02*
X160087972Y-103946509D01*
X160087972Y-103946509D02*
X160135591Y-103898890D01*
X160135591Y-103898890D02*
X160230829Y-103851271D01*
X160230829Y-103851271D02*
X160421305Y-103803652D01*
X160421305Y-103803652D02*
X160659400Y-103803652D01*
X160659400Y-103803652D02*
X160849876Y-103851271D01*
X160849876Y-103851271D02*
X160945114Y-103898890D01*
X160945114Y-103898890D02*
X160992734Y-103946509D01*
X160992734Y-103946509D02*
X161040353Y-104041747D01*
X161040353Y-104041747D02*
X161040353Y-104136985D01*
X161040353Y-104136985D02*
X160992734Y-104232223D01*
X160992734Y-104232223D02*
X160945114Y-104279842D01*
X160945114Y-104279842D02*
X160849876Y-104327461D01*
X160849876Y-104327461D02*
X160659400Y-104375080D01*
X160659400Y-104375080D02*
X160421305Y-104375080D01*
X160421305Y-104375080D02*
X160230829Y-104327461D01*
X160230829Y-104327461D02*
X160135591Y-104279842D01*
X160135591Y-104279842D02*
X160087972Y-104232223D01*
X160087972Y-104232223D02*
X160040353Y-104136985D01*
X160040353Y-79279842D02*
X160849876Y-79279842D01*
X160849876Y-79279842D02*
X160945114Y-79232223D01*
X160945114Y-79232223D02*
X160992734Y-79184604D01*
X160992734Y-79184604D02*
X161040353Y-79089366D01*
X161040353Y-79089366D02*
X161040353Y-78898890D01*
X161040353Y-78898890D02*
X160992734Y-78803652D01*
X160992734Y-78803652D02*
X160945114Y-78756033D01*
X160945114Y-78756033D02*
X160849876Y-78708414D01*
X160849876Y-78708414D02*
X160040353Y-78708414D01*
X161040353Y-77708414D02*
X161040353Y-78279842D01*
X161040353Y-77994128D02*
X160040353Y-77994128D01*
X160040353Y-77994128D02*
X160183210Y-78089366D01*
X160183210Y-78089366D02*
X160278448Y-78184604D01*
X160278448Y-78184604D02*
X160326067Y-78279842D01*
X160040353Y-76851271D02*
X160040353Y-77041747D01*
X160040353Y-77041747D02*
X160087972Y-77136985D01*
X160087972Y-77136985D02*
X160135591Y-77184604D01*
X160135591Y-77184604D02*
X160278448Y-77279842D01*
X160278448Y-77279842D02*
X160468924Y-77327461D01*
X160468924Y-77327461D02*
X160849876Y-77327461D01*
X160849876Y-77327461D02*
X160945114Y-77279842D01*
X160945114Y-77279842D02*
X160992734Y-77232223D01*
X160992734Y-77232223D02*
X161040353Y-77136985D01*
X161040353Y-77136985D02*
X161040353Y-76946509D01*
X161040353Y-76946509D02*
X160992734Y-76851271D01*
X160992734Y-76851271D02*
X160945114Y-76803652D01*
X160945114Y-76803652D02*
X160849876Y-76756033D01*
X160849876Y-76756033D02*
X160611781Y-76756033D01*
X160611781Y-76756033D02*
X160516543Y-76803652D01*
X160516543Y-76803652D02*
X160468924Y-76851271D01*
X160468924Y-76851271D02*
X160421305Y-76946509D01*
X160421305Y-76946509D02*
X160421305Y-77136985D01*
X160421305Y-77136985D02*
X160468924Y-77232223D01*
X160468924Y-77232223D02*
X160516543Y-77279842D01*
X160516543Y-77279842D02*
X160611781Y-77327461D01*
X160468924Y-76184604D02*
X160421305Y-76279842D01*
X160421305Y-76279842D02*
X160373686Y-76327461D01*
X160373686Y-76327461D02*
X160278448Y-76375080D01*
X160278448Y-76375080D02*
X160230829Y-76375080D01*
X160230829Y-76375080D02*
X160135591Y-76327461D01*
X160135591Y-76327461D02*
X160087972Y-76279842D01*
X160087972Y-76279842D02*
X160040353Y-76184604D01*
X160040353Y-76184604D02*
X160040353Y-75994128D01*
X160040353Y-75994128D02*
X160087972Y-75898890D01*
X160087972Y-75898890D02*
X160135591Y-75851271D01*
X160135591Y-75851271D02*
X160230829Y-75803652D01*
X160230829Y-75803652D02*
X160278448Y-75803652D01*
X160278448Y-75803652D02*
X160373686Y-75851271D01*
X160373686Y-75851271D02*
X160421305Y-75898890D01*
X160421305Y-75898890D02*
X160468924Y-75994128D01*
X160468924Y-75994128D02*
X160468924Y-76184604D01*
X160468924Y-76184604D02*
X160516543Y-76279842D01*
X160516543Y-76279842D02*
X160564162Y-76327461D01*
X160564162Y-76327461D02*
X160659400Y-76375080D01*
X160659400Y-76375080D02*
X160849876Y-76375080D01*
X160849876Y-76375080D02*
X160945114Y-76327461D01*
X160945114Y-76327461D02*
X160992734Y-76279842D01*
X160992734Y-76279842D02*
X161040353Y-76184604D01*
X161040353Y-76184604D02*
X161040353Y-75994128D01*
X161040353Y-75994128D02*
X160992734Y-75898890D01*
X160992734Y-75898890D02*
X160945114Y-75851271D01*
X160945114Y-75851271D02*
X160849876Y-75803652D01*
X160849876Y-75803652D02*
X160659400Y-75803652D01*
X160659400Y-75803652D02*
X160564162Y-75851271D01*
X160564162Y-75851271D02*
X160516543Y-75898890D01*
X160516543Y-75898890D02*
X160468924Y-75994128D01*
X79450347Y-100186004D02*
X78450347Y-100186004D01*
X78450347Y-100186004D02*
X78450347Y-99805052D01*
X78450347Y-99805052D02*
X78497966Y-99709814D01*
X78497966Y-99709814D02*
X78545585Y-99662195D01*
X78545585Y-99662195D02*
X78640823Y-99614576D01*
X78640823Y-99614576D02*
X78783680Y-99614576D01*
X78783680Y-99614576D02*
X78878918Y-99662195D01*
X78878918Y-99662195D02*
X78926537Y-99709814D01*
X78926537Y-99709814D02*
X78974156Y-99805052D01*
X78974156Y-99805052D02*
X78974156Y-100186004D01*
X79450347Y-98662195D02*
X79450347Y-99233623D01*
X79450347Y-98947909D02*
X78450347Y-98947909D01*
X78450347Y-98947909D02*
X78593204Y-99043147D01*
X78593204Y-99043147D02*
X78688442Y-99138385D01*
X78688442Y-99138385D02*
X78736061Y-99233623D01*
X78450347Y-98043147D02*
X78450347Y-97947909D01*
X78450347Y-97947909D02*
X78497966Y-97852671D01*
X78497966Y-97852671D02*
X78545585Y-97805052D01*
X78545585Y-97805052D02*
X78640823Y-97757433D01*
X78640823Y-97757433D02*
X78831299Y-97709814D01*
X78831299Y-97709814D02*
X79069394Y-97709814D01*
X79069394Y-97709814D02*
X79259870Y-97757433D01*
X79259870Y-97757433D02*
X79355108Y-97805052D01*
X79355108Y-97805052D02*
X79402728Y-97852671D01*
X79402728Y-97852671D02*
X79450347Y-97947909D01*
X79450347Y-97947909D02*
X79450347Y-98043147D01*
X79450347Y-98043147D02*
X79402728Y-98138385D01*
X79402728Y-98138385D02*
X79355108Y-98186004D01*
X79355108Y-98186004D02*
X79259870Y-98233623D01*
X79259870Y-98233623D02*
X79069394Y-98281242D01*
X79069394Y-98281242D02*
X78831299Y-98281242D01*
X78831299Y-98281242D02*
X78640823Y-98233623D01*
X78640823Y-98233623D02*
X78545585Y-98186004D01*
X78545585Y-98186004D02*
X78497966Y-98138385D01*
X78497966Y-98138385D02*
X78450347Y-98043147D01*
X78450347Y-97376480D02*
X78450347Y-96757433D01*
X78450347Y-96757433D02*
X78831299Y-97090766D01*
X78831299Y-97090766D02*
X78831299Y-96947909D01*
X78831299Y-96947909D02*
X78878918Y-96852671D01*
X78878918Y-96852671D02*
X78926537Y-96805052D01*
X78926537Y-96805052D02*
X79021775Y-96757433D01*
X79021775Y-96757433D02*
X79259870Y-96757433D01*
X79259870Y-96757433D02*
X79355108Y-96805052D01*
X79355108Y-96805052D02*
X79402728Y-96852671D01*
X79402728Y-96852671D02*
X79450347Y-96947909D01*
X79450347Y-96947909D02*
X79450347Y-97233623D01*
X79450347Y-97233623D02*
X79402728Y-97328861D01*
X79402728Y-97328861D02*
X79355108Y-97376480D01*
X160040353Y-65279842D02*
X160849876Y-65279842D01*
X160849876Y-65279842D02*
X160945114Y-65232223D01*
X160945114Y-65232223D02*
X160992734Y-65184604D01*
X160992734Y-65184604D02*
X161040353Y-65089366D01*
X161040353Y-65089366D02*
X161040353Y-64898890D01*
X161040353Y-64898890D02*
X160992734Y-64803652D01*
X160992734Y-64803652D02*
X160945114Y-64756033D01*
X160945114Y-64756033D02*
X160849876Y-64708414D01*
X160849876Y-64708414D02*
X160040353Y-64708414D01*
X161040353Y-63708414D02*
X161040353Y-64279842D01*
X161040353Y-63994128D02*
X160040353Y-63994128D01*
X160040353Y-63994128D02*
X160183210Y-64089366D01*
X160183210Y-64089366D02*
X160278448Y-64184604D01*
X160278448Y-64184604D02*
X160326067Y-64279842D01*
X160040353Y-62851271D02*
X160040353Y-63041747D01*
X160040353Y-63041747D02*
X160087972Y-63136985D01*
X160087972Y-63136985D02*
X160135591Y-63184604D01*
X160135591Y-63184604D02*
X160278448Y-63279842D01*
X160278448Y-63279842D02*
X160468924Y-63327461D01*
X160468924Y-63327461D02*
X160849876Y-63327461D01*
X160849876Y-63327461D02*
X160945114Y-63279842D01*
X160945114Y-63279842D02*
X160992734Y-63232223D01*
X160992734Y-63232223D02*
X161040353Y-63136985D01*
X161040353Y-63136985D02*
X161040353Y-62946509D01*
X161040353Y-62946509D02*
X160992734Y-62851271D01*
X160992734Y-62851271D02*
X160945114Y-62803652D01*
X160945114Y-62803652D02*
X160849876Y-62756033D01*
X160849876Y-62756033D02*
X160611781Y-62756033D01*
X160611781Y-62756033D02*
X160516543Y-62803652D01*
X160516543Y-62803652D02*
X160468924Y-62851271D01*
X160468924Y-62851271D02*
X160421305Y-62946509D01*
X160421305Y-62946509D02*
X160421305Y-63136985D01*
X160421305Y-63136985D02*
X160468924Y-63232223D01*
X160468924Y-63232223D02*
X160516543Y-63279842D01*
X160516543Y-63279842D02*
X160611781Y-63327461D01*
X160040353Y-62422699D02*
X160040353Y-61756033D01*
X160040353Y-61756033D02*
X161040353Y-62184604D01*
X158945114Y-126104581D02*
X158992734Y-126152200D01*
X158992734Y-126152200D02*
X159040353Y-126295057D01*
X159040353Y-126295057D02*
X159040353Y-126390295D01*
X159040353Y-126390295D02*
X158992734Y-126533152D01*
X158992734Y-126533152D02*
X158897495Y-126628390D01*
X158897495Y-126628390D02*
X158802257Y-126676009D01*
X158802257Y-126676009D02*
X158611781Y-126723628D01*
X158611781Y-126723628D02*
X158468924Y-126723628D01*
X158468924Y-126723628D02*
X158278448Y-126676009D01*
X158278448Y-126676009D02*
X158183210Y-126628390D01*
X158183210Y-126628390D02*
X158087972Y-126533152D01*
X158087972Y-126533152D02*
X158040353Y-126390295D01*
X158040353Y-126390295D02*
X158040353Y-126295057D01*
X158040353Y-126295057D02*
X158087972Y-126152200D01*
X158087972Y-126152200D02*
X158135591Y-126104581D01*
X159040353Y-125152200D02*
X159040353Y-125723628D01*
X159040353Y-125437914D02*
X158040353Y-125437914D01*
X158040353Y-125437914D02*
X158183210Y-125533152D01*
X158183210Y-125533152D02*
X158278448Y-125628390D01*
X158278448Y-125628390D02*
X158326067Y-125723628D01*
X158135591Y-124771247D02*
X158087972Y-124723628D01*
X158087972Y-124723628D02*
X158040353Y-124628390D01*
X158040353Y-124628390D02*
X158040353Y-124390295D01*
X158040353Y-124390295D02*
X158087972Y-124295057D01*
X158087972Y-124295057D02*
X158135591Y-124247438D01*
X158135591Y-124247438D02*
X158230829Y-124199819D01*
X158230829Y-124199819D02*
X158326067Y-124199819D01*
X158326067Y-124199819D02*
X158468924Y-124247438D01*
X158468924Y-124247438D02*
X159040353Y-124818866D01*
X159040353Y-124818866D02*
X159040353Y-124199819D01*
X158040353Y-123295057D02*
X158040353Y-123771247D01*
X158040353Y-123771247D02*
X158516543Y-123818866D01*
X158516543Y-123818866D02*
X158468924Y-123771247D01*
X158468924Y-123771247D02*
X158421305Y-123676009D01*
X158421305Y-123676009D02*
X158421305Y-123437914D01*
X158421305Y-123437914D02*
X158468924Y-123342676D01*
X158468924Y-123342676D02*
X158516543Y-123295057D01*
X158516543Y-123295057D02*
X158611781Y-123247438D01*
X158611781Y-123247438D02*
X158849876Y-123247438D01*
X158849876Y-123247438D02*
X158945114Y-123295057D01*
X158945114Y-123295057D02*
X158992734Y-123342676D01*
X158992734Y-123342676D02*
X159040353Y-123437914D01*
X159040353Y-123437914D02*
X159040353Y-123676009D01*
X159040353Y-123676009D02*
X158992734Y-123771247D01*
X158992734Y-123771247D02*
X158945114Y-123818866D01*
X174040353Y-135279842D02*
X174849876Y-135279842D01*
X174849876Y-135279842D02*
X174945114Y-135232223D01*
X174945114Y-135232223D02*
X174992734Y-135184604D01*
X174992734Y-135184604D02*
X175040353Y-135089366D01*
X175040353Y-135089366D02*
X175040353Y-134898890D01*
X175040353Y-134898890D02*
X174992734Y-134803652D01*
X174992734Y-134803652D02*
X174945114Y-134756033D01*
X174945114Y-134756033D02*
X174849876Y-134708414D01*
X174849876Y-134708414D02*
X174040353Y-134708414D01*
X175040353Y-133708414D02*
X175040353Y-134279842D01*
X175040353Y-133994128D02*
X174040353Y-133994128D01*
X174040353Y-133994128D02*
X174183210Y-134089366D01*
X174183210Y-134089366D02*
X174278448Y-134184604D01*
X174278448Y-134184604D02*
X174326067Y-134279842D01*
X174040353Y-132803652D02*
X174040353Y-133279842D01*
X174040353Y-133279842D02*
X174516543Y-133327461D01*
X174516543Y-133327461D02*
X174468924Y-133279842D01*
X174468924Y-133279842D02*
X174421305Y-133184604D01*
X174421305Y-133184604D02*
X174421305Y-132946509D01*
X174421305Y-132946509D02*
X174468924Y-132851271D01*
X174468924Y-132851271D02*
X174516543Y-132803652D01*
X174516543Y-132803652D02*
X174611781Y-132756033D01*
X174611781Y-132756033D02*
X174849876Y-132756033D01*
X174849876Y-132756033D02*
X174945114Y-132803652D01*
X174945114Y-132803652D02*
X174992734Y-132851271D01*
X174992734Y-132851271D02*
X175040353Y-132946509D01*
X175040353Y-132946509D02*
X175040353Y-133184604D01*
X175040353Y-133184604D02*
X174992734Y-133279842D01*
X174992734Y-133279842D02*
X174945114Y-133327461D01*
X174040353Y-131898890D02*
X174040353Y-132089366D01*
X174040353Y-132089366D02*
X174087972Y-132184604D01*
X174087972Y-132184604D02*
X174135591Y-132232223D01*
X174135591Y-132232223D02*
X174278448Y-132327461D01*
X174278448Y-132327461D02*
X174468924Y-132375080D01*
X174468924Y-132375080D02*
X174849876Y-132375080D01*
X174849876Y-132375080D02*
X174945114Y-132327461D01*
X174945114Y-132327461D02*
X174992734Y-132279842D01*
X174992734Y-132279842D02*
X175040353Y-132184604D01*
X175040353Y-132184604D02*
X175040353Y-131994128D01*
X175040353Y-131994128D02*
X174992734Y-131898890D01*
X174992734Y-131898890D02*
X174945114Y-131851271D01*
X174945114Y-131851271D02*
X174849876Y-131803652D01*
X174849876Y-131803652D02*
X174611781Y-131803652D01*
X174611781Y-131803652D02*
X174516543Y-131851271D01*
X174516543Y-131851271D02*
X174468924Y-131898890D01*
X174468924Y-131898890D02*
X174421305Y-131994128D01*
X174421305Y-131994128D02*
X174421305Y-132184604D01*
X174421305Y-132184604D02*
X174468924Y-132279842D01*
X174468924Y-132279842D02*
X174516543Y-132327461D01*
X174516543Y-132327461D02*
X174611781Y-132375080D01*
X167040353Y-79279842D02*
X167849876Y-79279842D01*
X167849876Y-79279842D02*
X167945114Y-79232223D01*
X167945114Y-79232223D02*
X167992734Y-79184604D01*
X167992734Y-79184604D02*
X168040353Y-79089366D01*
X168040353Y-79089366D02*
X168040353Y-78898890D01*
X168040353Y-78898890D02*
X167992734Y-78803652D01*
X167992734Y-78803652D02*
X167945114Y-78756033D01*
X167945114Y-78756033D02*
X167849876Y-78708414D01*
X167849876Y-78708414D02*
X167040353Y-78708414D01*
X168040353Y-77708414D02*
X168040353Y-78279842D01*
X168040353Y-77994128D02*
X167040353Y-77994128D01*
X167040353Y-77994128D02*
X167183210Y-78089366D01*
X167183210Y-78089366D02*
X167278448Y-78184604D01*
X167278448Y-78184604D02*
X167326067Y-78279842D01*
X167040353Y-76851271D02*
X167040353Y-77041747D01*
X167040353Y-77041747D02*
X167087972Y-77136985D01*
X167087972Y-77136985D02*
X167135591Y-77184604D01*
X167135591Y-77184604D02*
X167278448Y-77279842D01*
X167278448Y-77279842D02*
X167468924Y-77327461D01*
X167468924Y-77327461D02*
X167849876Y-77327461D01*
X167849876Y-77327461D02*
X167945114Y-77279842D01*
X167945114Y-77279842D02*
X167992734Y-77232223D01*
X167992734Y-77232223D02*
X168040353Y-77136985D01*
X168040353Y-77136985D02*
X168040353Y-76946509D01*
X168040353Y-76946509D02*
X167992734Y-76851271D01*
X167992734Y-76851271D02*
X167945114Y-76803652D01*
X167945114Y-76803652D02*
X167849876Y-76756033D01*
X167849876Y-76756033D02*
X167611781Y-76756033D01*
X167611781Y-76756033D02*
X167516543Y-76803652D01*
X167516543Y-76803652D02*
X167468924Y-76851271D01*
X167468924Y-76851271D02*
X167421305Y-76946509D01*
X167421305Y-76946509D02*
X167421305Y-77136985D01*
X167421305Y-77136985D02*
X167468924Y-77232223D01*
X167468924Y-77232223D02*
X167516543Y-77279842D01*
X167516543Y-77279842D02*
X167611781Y-77327461D01*
X167040353Y-76136985D02*
X167040353Y-76041747D01*
X167040353Y-76041747D02*
X167087972Y-75946509D01*
X167087972Y-75946509D02*
X167135591Y-75898890D01*
X167135591Y-75898890D02*
X167230829Y-75851271D01*
X167230829Y-75851271D02*
X167421305Y-75803652D01*
X167421305Y-75803652D02*
X167659400Y-75803652D01*
X167659400Y-75803652D02*
X167849876Y-75851271D01*
X167849876Y-75851271D02*
X167945114Y-75898890D01*
X167945114Y-75898890D02*
X167992734Y-75946509D01*
X167992734Y-75946509D02*
X168040353Y-76041747D01*
X168040353Y-76041747D02*
X168040353Y-76136985D01*
X168040353Y-76136985D02*
X167992734Y-76232223D01*
X167992734Y-76232223D02*
X167945114Y-76279842D01*
X167945114Y-76279842D02*
X167849876Y-76327461D01*
X167849876Y-76327461D02*
X167659400Y-76375080D01*
X167659400Y-76375080D02*
X167421305Y-76375080D01*
X167421305Y-76375080D02*
X167230829Y-76327461D01*
X167230829Y-76327461D02*
X167135591Y-76279842D01*
X167135591Y-76279842D02*
X167087972Y-76232223D01*
X167087972Y-76232223D02*
X167040353Y-76136985D01*
X120966486Y-76445114D02*
X120918867Y-76492734D01*
X120918867Y-76492734D02*
X120776010Y-76540353D01*
X120776010Y-76540353D02*
X120680772Y-76540353D01*
X120680772Y-76540353D02*
X120537915Y-76492734D01*
X120537915Y-76492734D02*
X120442677Y-76397495D01*
X120442677Y-76397495D02*
X120395058Y-76302257D01*
X120395058Y-76302257D02*
X120347439Y-76111781D01*
X120347439Y-76111781D02*
X120347439Y-75968924D01*
X120347439Y-75968924D02*
X120395058Y-75778448D01*
X120395058Y-75778448D02*
X120442677Y-75683210D01*
X120442677Y-75683210D02*
X120537915Y-75587972D01*
X120537915Y-75587972D02*
X120680772Y-75540353D01*
X120680772Y-75540353D02*
X120776010Y-75540353D01*
X120776010Y-75540353D02*
X120918867Y-75587972D01*
X120918867Y-75587972D02*
X120966486Y-75635591D01*
X121918867Y-76540353D02*
X121347439Y-76540353D01*
X121633153Y-76540353D02*
X121633153Y-75540353D01*
X121633153Y-75540353D02*
X121537915Y-75683210D01*
X121537915Y-75683210D02*
X121442677Y-75778448D01*
X121442677Y-75778448D02*
X121347439Y-75826067D01*
X122871248Y-76540353D02*
X122299820Y-76540353D01*
X122585534Y-76540353D02*
X122585534Y-75540353D01*
X122585534Y-75540353D02*
X122490296Y-75683210D01*
X122490296Y-75683210D02*
X122395058Y-75778448D01*
X122395058Y-75778448D02*
X122299820Y-75826067D01*
X123204582Y-75540353D02*
X123871248Y-75540353D01*
X123871248Y-75540353D02*
X123442677Y-76540353D01*
X120949246Y-132445114D02*
X120901627Y-132492734D01*
X120901627Y-132492734D02*
X120758770Y-132540353D01*
X120758770Y-132540353D02*
X120663532Y-132540353D01*
X120663532Y-132540353D02*
X120520675Y-132492734D01*
X120520675Y-132492734D02*
X120425437Y-132397495D01*
X120425437Y-132397495D02*
X120377818Y-132302257D01*
X120377818Y-132302257D02*
X120330199Y-132111781D01*
X120330199Y-132111781D02*
X120330199Y-131968924D01*
X120330199Y-131968924D02*
X120377818Y-131778448D01*
X120377818Y-131778448D02*
X120425437Y-131683210D01*
X120425437Y-131683210D02*
X120520675Y-131587972D01*
X120520675Y-131587972D02*
X120663532Y-131540353D01*
X120663532Y-131540353D02*
X120758770Y-131540353D01*
X120758770Y-131540353D02*
X120901627Y-131587972D01*
X120901627Y-131587972D02*
X120949246Y-131635591D01*
X121901627Y-132540353D02*
X121330199Y-132540353D01*
X121615913Y-132540353D02*
X121615913Y-131540353D01*
X121615913Y-131540353D02*
X121520675Y-131683210D01*
X121520675Y-131683210D02*
X121425437Y-131778448D01*
X121425437Y-131778448D02*
X121330199Y-131826067D01*
X122854008Y-132540353D02*
X122282580Y-132540353D01*
X122568294Y-132540353D02*
X122568294Y-131540353D01*
X122568294Y-131540353D02*
X122473056Y-131683210D01*
X122473056Y-131683210D02*
X122377818Y-131778448D01*
X122377818Y-131778448D02*
X122282580Y-131826067D01*
X123330199Y-132540353D02*
X123520675Y-132540353D01*
X123520675Y-132540353D02*
X123615913Y-132492734D01*
X123615913Y-132492734D02*
X123663532Y-132445114D01*
X123663532Y-132445114D02*
X123758770Y-132302257D01*
X123758770Y-132302257D02*
X123806389Y-132111781D01*
X123806389Y-132111781D02*
X123806389Y-131730829D01*
X123806389Y-131730829D02*
X123758770Y-131635591D01*
X123758770Y-131635591D02*
X123711151Y-131587972D01*
X123711151Y-131587972D02*
X123615913Y-131540353D01*
X123615913Y-131540353D02*
X123425437Y-131540353D01*
X123425437Y-131540353D02*
X123330199Y-131587972D01*
X123330199Y-131587972D02*
X123282580Y-131635591D01*
X123282580Y-131635591D02*
X123234961Y-131730829D01*
X123234961Y-131730829D02*
X123234961Y-131968924D01*
X123234961Y-131968924D02*
X123282580Y-132064162D01*
X123282580Y-132064162D02*
X123330199Y-132111781D01*
X123330199Y-132111781D02*
X123425437Y-132159400D01*
X123425437Y-132159400D02*
X123615913Y-132159400D01*
X123615913Y-132159400D02*
X123711151Y-132111781D01*
X123711151Y-132111781D02*
X123758770Y-132064162D01*
X123758770Y-132064162D02*
X123806389Y-131968924D01*
X167040353Y-93279842D02*
X167849876Y-93279842D01*
X167849876Y-93279842D02*
X167945114Y-93232223D01*
X167945114Y-93232223D02*
X167992734Y-93184604D01*
X167992734Y-93184604D02*
X168040353Y-93089366D01*
X168040353Y-93089366D02*
X168040353Y-92898890D01*
X168040353Y-92898890D02*
X167992734Y-92803652D01*
X167992734Y-92803652D02*
X167945114Y-92756033D01*
X167945114Y-92756033D02*
X167849876Y-92708414D01*
X167849876Y-92708414D02*
X167040353Y-92708414D01*
X168040353Y-91708414D02*
X168040353Y-92279842D01*
X168040353Y-91994128D02*
X167040353Y-91994128D01*
X167040353Y-91994128D02*
X167183210Y-92089366D01*
X167183210Y-92089366D02*
X167278448Y-92184604D01*
X167278448Y-92184604D02*
X167326067Y-92279842D01*
X167040353Y-90851271D02*
X167040353Y-91041747D01*
X167040353Y-91041747D02*
X167087972Y-91136985D01*
X167087972Y-91136985D02*
X167135591Y-91184604D01*
X167135591Y-91184604D02*
X167278448Y-91279842D01*
X167278448Y-91279842D02*
X167468924Y-91327461D01*
X167468924Y-91327461D02*
X167849876Y-91327461D01*
X167849876Y-91327461D02*
X167945114Y-91279842D01*
X167945114Y-91279842D02*
X167992734Y-91232223D01*
X167992734Y-91232223D02*
X168040353Y-91136985D01*
X168040353Y-91136985D02*
X168040353Y-90946509D01*
X168040353Y-90946509D02*
X167992734Y-90851271D01*
X167992734Y-90851271D02*
X167945114Y-90803652D01*
X167945114Y-90803652D02*
X167849876Y-90756033D01*
X167849876Y-90756033D02*
X167611781Y-90756033D01*
X167611781Y-90756033D02*
X167516543Y-90803652D01*
X167516543Y-90803652D02*
X167468924Y-90851271D01*
X167468924Y-90851271D02*
X167421305Y-90946509D01*
X167421305Y-90946509D02*
X167421305Y-91136985D01*
X167421305Y-91136985D02*
X167468924Y-91232223D01*
X167468924Y-91232223D02*
X167516543Y-91279842D01*
X167516543Y-91279842D02*
X167611781Y-91327461D01*
X168040353Y-89803652D02*
X168040353Y-90375080D01*
X168040353Y-90089366D02*
X167040353Y-90089366D01*
X167040353Y-90089366D02*
X167183210Y-90184604D01*
X167183210Y-90184604D02*
X167278448Y-90279842D01*
X167278448Y-90279842D02*
X167326067Y-90375080D01*
X153040353Y-107279842D02*
X153849876Y-107279842D01*
X153849876Y-107279842D02*
X153945114Y-107232223D01*
X153945114Y-107232223D02*
X153992734Y-107184604D01*
X153992734Y-107184604D02*
X154040353Y-107089366D01*
X154040353Y-107089366D02*
X154040353Y-106898890D01*
X154040353Y-106898890D02*
X153992734Y-106803652D01*
X153992734Y-106803652D02*
X153945114Y-106756033D01*
X153945114Y-106756033D02*
X153849876Y-106708414D01*
X153849876Y-106708414D02*
X153040353Y-106708414D01*
X154040353Y-105708414D02*
X154040353Y-106279842D01*
X154040353Y-105994128D02*
X153040353Y-105994128D01*
X153040353Y-105994128D02*
X153183210Y-106089366D01*
X153183210Y-106089366D02*
X153278448Y-106184604D01*
X153278448Y-106184604D02*
X153326067Y-106279842D01*
X153040353Y-105375080D02*
X153040353Y-104708414D01*
X153040353Y-104708414D02*
X154040353Y-105136985D01*
X153468924Y-104184604D02*
X153421305Y-104279842D01*
X153421305Y-104279842D02*
X153373686Y-104327461D01*
X153373686Y-104327461D02*
X153278448Y-104375080D01*
X153278448Y-104375080D02*
X153230829Y-104375080D01*
X153230829Y-104375080D02*
X153135591Y-104327461D01*
X153135591Y-104327461D02*
X153087972Y-104279842D01*
X153087972Y-104279842D02*
X153040353Y-104184604D01*
X153040353Y-104184604D02*
X153040353Y-103994128D01*
X153040353Y-103994128D02*
X153087972Y-103898890D01*
X153087972Y-103898890D02*
X153135591Y-103851271D01*
X153135591Y-103851271D02*
X153230829Y-103803652D01*
X153230829Y-103803652D02*
X153278448Y-103803652D01*
X153278448Y-103803652D02*
X153373686Y-103851271D01*
X153373686Y-103851271D02*
X153421305Y-103898890D01*
X153421305Y-103898890D02*
X153468924Y-103994128D01*
X153468924Y-103994128D02*
X153468924Y-104184604D01*
X153468924Y-104184604D02*
X153516543Y-104279842D01*
X153516543Y-104279842D02*
X153564162Y-104327461D01*
X153564162Y-104327461D02*
X153659400Y-104375080D01*
X153659400Y-104375080D02*
X153849876Y-104375080D01*
X153849876Y-104375080D02*
X153945114Y-104327461D01*
X153945114Y-104327461D02*
X153992734Y-104279842D01*
X153992734Y-104279842D02*
X154040353Y-104184604D01*
X154040353Y-104184604D02*
X154040353Y-103994128D01*
X154040353Y-103994128D02*
X153992734Y-103898890D01*
X153992734Y-103898890D02*
X153945114Y-103851271D01*
X153945114Y-103851271D02*
X153849876Y-103803652D01*
X153849876Y-103803652D02*
X153659400Y-103803652D01*
X153659400Y-103803652D02*
X153564162Y-103851271D01*
X153564162Y-103851271D02*
X153516543Y-103898890D01*
X153516543Y-103898890D02*
X153468924Y-103994128D01*
X152245114Y-69954581D02*
X152292734Y-70002200D01*
X152292734Y-70002200D02*
X152340353Y-70145057D01*
X152340353Y-70145057D02*
X152340353Y-70240295D01*
X152340353Y-70240295D02*
X152292734Y-70383152D01*
X152292734Y-70383152D02*
X152197495Y-70478390D01*
X152197495Y-70478390D02*
X152102257Y-70526009D01*
X152102257Y-70526009D02*
X151911781Y-70573628D01*
X151911781Y-70573628D02*
X151768924Y-70573628D01*
X151768924Y-70573628D02*
X151578448Y-70526009D01*
X151578448Y-70526009D02*
X151483210Y-70478390D01*
X151483210Y-70478390D02*
X151387972Y-70383152D01*
X151387972Y-70383152D02*
X151340353Y-70240295D01*
X151340353Y-70240295D02*
X151340353Y-70145057D01*
X151340353Y-70145057D02*
X151387972Y-70002200D01*
X151387972Y-70002200D02*
X151435591Y-69954581D01*
X152340353Y-69002200D02*
X152340353Y-69573628D01*
X152340353Y-69287914D02*
X151340353Y-69287914D01*
X151340353Y-69287914D02*
X151483210Y-69383152D01*
X151483210Y-69383152D02*
X151578448Y-69478390D01*
X151578448Y-69478390D02*
X151626067Y-69573628D01*
X151435591Y-68621247D02*
X151387972Y-68573628D01*
X151387972Y-68573628D02*
X151340353Y-68478390D01*
X151340353Y-68478390D02*
X151340353Y-68240295D01*
X151340353Y-68240295D02*
X151387972Y-68145057D01*
X151387972Y-68145057D02*
X151435591Y-68097438D01*
X151435591Y-68097438D02*
X151530829Y-68049819D01*
X151530829Y-68049819D02*
X151626067Y-68049819D01*
X151626067Y-68049819D02*
X151768924Y-68097438D01*
X151768924Y-68097438D02*
X152340353Y-68668866D01*
X152340353Y-68668866D02*
X152340353Y-68049819D01*
X151340353Y-67192676D02*
X151340353Y-67383152D01*
X151340353Y-67383152D02*
X151387972Y-67478390D01*
X151387972Y-67478390D02*
X151435591Y-67526009D01*
X151435591Y-67526009D02*
X151578448Y-67621247D01*
X151578448Y-67621247D02*
X151768924Y-67668866D01*
X151768924Y-67668866D02*
X152149876Y-67668866D01*
X152149876Y-67668866D02*
X152245114Y-67621247D01*
X152245114Y-67621247D02*
X152292734Y-67573628D01*
X152292734Y-67573628D02*
X152340353Y-67478390D01*
X152340353Y-67478390D02*
X152340353Y-67287914D01*
X152340353Y-67287914D02*
X152292734Y-67192676D01*
X152292734Y-67192676D02*
X152245114Y-67145057D01*
X152245114Y-67145057D02*
X152149876Y-67097438D01*
X152149876Y-67097438D02*
X151911781Y-67097438D01*
X151911781Y-67097438D02*
X151816543Y-67145057D01*
X151816543Y-67145057D02*
X151768924Y-67192676D01*
X151768924Y-67192676D02*
X151721305Y-67287914D01*
X151721305Y-67287914D02*
X151721305Y-67478390D01*
X151721305Y-67478390D02*
X151768924Y-67573628D01*
X151768924Y-67573628D02*
X151816543Y-67621247D01*
X151816543Y-67621247D02*
X151911781Y-67668866D01*
X120916486Y-104645114D02*
X120868867Y-104692734D01*
X120868867Y-104692734D02*
X120726010Y-104740353D01*
X120726010Y-104740353D02*
X120630772Y-104740353D01*
X120630772Y-104740353D02*
X120487915Y-104692734D01*
X120487915Y-104692734D02*
X120392677Y-104597495D01*
X120392677Y-104597495D02*
X120345058Y-104502257D01*
X120345058Y-104502257D02*
X120297439Y-104311781D01*
X120297439Y-104311781D02*
X120297439Y-104168924D01*
X120297439Y-104168924D02*
X120345058Y-103978448D01*
X120345058Y-103978448D02*
X120392677Y-103883210D01*
X120392677Y-103883210D02*
X120487915Y-103787972D01*
X120487915Y-103787972D02*
X120630772Y-103740353D01*
X120630772Y-103740353D02*
X120726010Y-103740353D01*
X120726010Y-103740353D02*
X120868867Y-103787972D01*
X120868867Y-103787972D02*
X120916486Y-103835591D01*
X121868867Y-104740353D02*
X121297439Y-104740353D01*
X121583153Y-104740353D02*
X121583153Y-103740353D01*
X121583153Y-103740353D02*
X121487915Y-103883210D01*
X121487915Y-103883210D02*
X121392677Y-103978448D01*
X121392677Y-103978448D02*
X121297439Y-104026067D01*
X122821248Y-104740353D02*
X122249820Y-104740353D01*
X122535534Y-104740353D02*
X122535534Y-103740353D01*
X122535534Y-103740353D02*
X122440296Y-103883210D01*
X122440296Y-103883210D02*
X122345058Y-103978448D01*
X122345058Y-103978448D02*
X122249820Y-104026067D01*
X123392677Y-104168924D02*
X123297439Y-104121305D01*
X123297439Y-104121305D02*
X123249820Y-104073686D01*
X123249820Y-104073686D02*
X123202201Y-103978448D01*
X123202201Y-103978448D02*
X123202201Y-103930829D01*
X123202201Y-103930829D02*
X123249820Y-103835591D01*
X123249820Y-103835591D02*
X123297439Y-103787972D01*
X123297439Y-103787972D02*
X123392677Y-103740353D01*
X123392677Y-103740353D02*
X123583153Y-103740353D01*
X123583153Y-103740353D02*
X123678391Y-103787972D01*
X123678391Y-103787972D02*
X123726010Y-103835591D01*
X123726010Y-103835591D02*
X123773629Y-103930829D01*
X123773629Y-103930829D02*
X123773629Y-103978448D01*
X123773629Y-103978448D02*
X123726010Y-104073686D01*
X123726010Y-104073686D02*
X123678391Y-104121305D01*
X123678391Y-104121305D02*
X123583153Y-104168924D01*
X123583153Y-104168924D02*
X123392677Y-104168924D01*
X123392677Y-104168924D02*
X123297439Y-104216543D01*
X123297439Y-104216543D02*
X123249820Y-104264162D01*
X123249820Y-104264162D02*
X123202201Y-104359400D01*
X123202201Y-104359400D02*
X123202201Y-104549876D01*
X123202201Y-104549876D02*
X123249820Y-104645114D01*
X123249820Y-104645114D02*
X123297439Y-104692734D01*
X123297439Y-104692734D02*
X123392677Y-104740353D01*
X123392677Y-104740353D02*
X123583153Y-104740353D01*
X123583153Y-104740353D02*
X123678391Y-104692734D01*
X123678391Y-104692734D02*
X123726010Y-104645114D01*
X123726010Y-104645114D02*
X123773629Y-104549876D01*
X123773629Y-104549876D02*
X123773629Y-104359400D01*
X123773629Y-104359400D02*
X123726010Y-104264162D01*
X123726010Y-104264162D02*
X123678391Y-104216543D01*
X123678391Y-104216543D02*
X123583153Y-104168924D01*
X174040353Y-79279842D02*
X174849876Y-79279842D01*
X174849876Y-79279842D02*
X174945114Y-79232223D01*
X174945114Y-79232223D02*
X174992734Y-79184604D01*
X174992734Y-79184604D02*
X175040353Y-79089366D01*
X175040353Y-79089366D02*
X175040353Y-78898890D01*
X175040353Y-78898890D02*
X174992734Y-78803652D01*
X174992734Y-78803652D02*
X174945114Y-78756033D01*
X174945114Y-78756033D02*
X174849876Y-78708414D01*
X174849876Y-78708414D02*
X174040353Y-78708414D01*
X175040353Y-77708414D02*
X175040353Y-78279842D01*
X175040353Y-77994128D02*
X174040353Y-77994128D01*
X174040353Y-77994128D02*
X174183210Y-78089366D01*
X174183210Y-78089366D02*
X174278448Y-78184604D01*
X174278448Y-78184604D02*
X174326067Y-78279842D01*
X174040353Y-76803652D02*
X174040353Y-77279842D01*
X174040353Y-77279842D02*
X174516543Y-77327461D01*
X174516543Y-77327461D02*
X174468924Y-77279842D01*
X174468924Y-77279842D02*
X174421305Y-77184604D01*
X174421305Y-77184604D02*
X174421305Y-76946509D01*
X174421305Y-76946509D02*
X174468924Y-76851271D01*
X174468924Y-76851271D02*
X174516543Y-76803652D01*
X174516543Y-76803652D02*
X174611781Y-76756033D01*
X174611781Y-76756033D02*
X174849876Y-76756033D01*
X174849876Y-76756033D02*
X174945114Y-76803652D01*
X174945114Y-76803652D02*
X174992734Y-76851271D01*
X174992734Y-76851271D02*
X175040353Y-76946509D01*
X175040353Y-76946509D02*
X175040353Y-77184604D01*
X175040353Y-77184604D02*
X174992734Y-77279842D01*
X174992734Y-77279842D02*
X174945114Y-77327461D01*
X174135591Y-76375080D02*
X174087972Y-76327461D01*
X174087972Y-76327461D02*
X174040353Y-76232223D01*
X174040353Y-76232223D02*
X174040353Y-75994128D01*
X174040353Y-75994128D02*
X174087972Y-75898890D01*
X174087972Y-75898890D02*
X174135591Y-75851271D01*
X174135591Y-75851271D02*
X174230829Y-75803652D01*
X174230829Y-75803652D02*
X174326067Y-75803652D01*
X174326067Y-75803652D02*
X174468924Y-75851271D01*
X174468924Y-75851271D02*
X175040353Y-76422699D01*
X175040353Y-76422699D02*
X175040353Y-75803652D01*
X153040353Y-65279842D02*
X153849876Y-65279842D01*
X153849876Y-65279842D02*
X153945114Y-65232223D01*
X153945114Y-65232223D02*
X153992734Y-65184604D01*
X153992734Y-65184604D02*
X154040353Y-65089366D01*
X154040353Y-65089366D02*
X154040353Y-64898890D01*
X154040353Y-64898890D02*
X153992734Y-64803652D01*
X153992734Y-64803652D02*
X153945114Y-64756033D01*
X153945114Y-64756033D02*
X153849876Y-64708414D01*
X153849876Y-64708414D02*
X153040353Y-64708414D01*
X154040353Y-63708414D02*
X154040353Y-64279842D01*
X154040353Y-63994128D02*
X153040353Y-63994128D01*
X153040353Y-63994128D02*
X153183210Y-64089366D01*
X153183210Y-64089366D02*
X153278448Y-64184604D01*
X153278448Y-64184604D02*
X153326067Y-64279842D01*
X153040353Y-63375080D02*
X153040353Y-62708414D01*
X153040353Y-62708414D02*
X154040353Y-63136985D01*
X153040353Y-61851271D02*
X153040353Y-62327461D01*
X153040353Y-62327461D02*
X153516543Y-62375080D01*
X153516543Y-62375080D02*
X153468924Y-62327461D01*
X153468924Y-62327461D02*
X153421305Y-62232223D01*
X153421305Y-62232223D02*
X153421305Y-61994128D01*
X153421305Y-61994128D02*
X153468924Y-61898890D01*
X153468924Y-61898890D02*
X153516543Y-61851271D01*
X153516543Y-61851271D02*
X153611781Y-61803652D01*
X153611781Y-61803652D02*
X153849876Y-61803652D01*
X153849876Y-61803652D02*
X153945114Y-61851271D01*
X153945114Y-61851271D02*
X153992734Y-61898890D01*
X153992734Y-61898890D02*
X154040353Y-61994128D01*
X154040353Y-61994128D02*
X154040353Y-62232223D01*
X154040353Y-62232223D02*
X153992734Y-62327461D01*
X153992734Y-62327461D02*
X153945114Y-62375080D01*
X174040353Y-107279842D02*
X174849876Y-107279842D01*
X174849876Y-107279842D02*
X174945114Y-107232223D01*
X174945114Y-107232223D02*
X174992734Y-107184604D01*
X174992734Y-107184604D02*
X175040353Y-107089366D01*
X175040353Y-107089366D02*
X175040353Y-106898890D01*
X175040353Y-106898890D02*
X174992734Y-106803652D01*
X174992734Y-106803652D02*
X174945114Y-106756033D01*
X174945114Y-106756033D02*
X174849876Y-106708414D01*
X174849876Y-106708414D02*
X174040353Y-106708414D01*
X175040353Y-105708414D02*
X175040353Y-106279842D01*
X175040353Y-105994128D02*
X174040353Y-105994128D01*
X174040353Y-105994128D02*
X174183210Y-106089366D01*
X174183210Y-106089366D02*
X174278448Y-106184604D01*
X174278448Y-106184604D02*
X174326067Y-106279842D01*
X174040353Y-104803652D02*
X174040353Y-105279842D01*
X174040353Y-105279842D02*
X174516543Y-105327461D01*
X174516543Y-105327461D02*
X174468924Y-105279842D01*
X174468924Y-105279842D02*
X174421305Y-105184604D01*
X174421305Y-105184604D02*
X174421305Y-104946509D01*
X174421305Y-104946509D02*
X174468924Y-104851271D01*
X174468924Y-104851271D02*
X174516543Y-104803652D01*
X174516543Y-104803652D02*
X174611781Y-104756033D01*
X174611781Y-104756033D02*
X174849876Y-104756033D01*
X174849876Y-104756033D02*
X174945114Y-104803652D01*
X174945114Y-104803652D02*
X174992734Y-104851271D01*
X174992734Y-104851271D02*
X175040353Y-104946509D01*
X175040353Y-104946509D02*
X175040353Y-105184604D01*
X175040353Y-105184604D02*
X174992734Y-105279842D01*
X174992734Y-105279842D02*
X174945114Y-105327461D01*
X174373686Y-103898890D02*
X175040353Y-103898890D01*
X173992734Y-104136985D02*
X174707019Y-104375080D01*
X174707019Y-104375080D02*
X174707019Y-103756033D01*
X123694297Y-58376886D02*
X124503820Y-58376886D01*
X124503820Y-58376886D02*
X124599058Y-58329267D01*
X124599058Y-58329267D02*
X124646678Y-58281648D01*
X124646678Y-58281648D02*
X124694297Y-58186410D01*
X124694297Y-58186410D02*
X124694297Y-57995934D01*
X124694297Y-57995934D02*
X124646678Y-57900696D01*
X124646678Y-57900696D02*
X124599058Y-57853077D01*
X124599058Y-57853077D02*
X124503820Y-57805458D01*
X124503820Y-57805458D02*
X123694297Y-57805458D01*
X124694297Y-56805458D02*
X124694297Y-57376886D01*
X124694297Y-57091172D02*
X123694297Y-57091172D01*
X123694297Y-57091172D02*
X123837154Y-57186410D01*
X123837154Y-57186410D02*
X123932392Y-57281648D01*
X123932392Y-57281648D02*
X123980011Y-57376886D01*
X124027630Y-55948315D02*
X124694297Y-55948315D01*
X123646678Y-56186410D02*
X124360963Y-56424505D01*
X124360963Y-56424505D02*
X124360963Y-55805458D01*
X123694297Y-54948315D02*
X123694297Y-55424505D01*
X123694297Y-55424505D02*
X124170487Y-55472124D01*
X124170487Y-55472124D02*
X124122868Y-55424505D01*
X124122868Y-55424505D02*
X124075249Y-55329267D01*
X124075249Y-55329267D02*
X124075249Y-55091172D01*
X124075249Y-55091172D02*
X124122868Y-54995934D01*
X124122868Y-54995934D02*
X124170487Y-54948315D01*
X124170487Y-54948315D02*
X124265725Y-54900696D01*
X124265725Y-54900696D02*
X124503820Y-54900696D01*
X124503820Y-54900696D02*
X124599058Y-54948315D01*
X124599058Y-54948315D02*
X124646678Y-54995934D01*
X124646678Y-54995934D02*
X124694297Y-55091172D01*
X124694297Y-55091172D02*
X124694297Y-55329267D01*
X124694297Y-55329267D02*
X124646678Y-55424505D01*
X124646678Y-55424505D02*
X124599058Y-55472124D01*
X166245114Y-126104581D02*
X166292734Y-126152200D01*
X166292734Y-126152200D02*
X166340353Y-126295057D01*
X166340353Y-126295057D02*
X166340353Y-126390295D01*
X166340353Y-126390295D02*
X166292734Y-126533152D01*
X166292734Y-126533152D02*
X166197495Y-126628390D01*
X166197495Y-126628390D02*
X166102257Y-126676009D01*
X166102257Y-126676009D02*
X165911781Y-126723628D01*
X165911781Y-126723628D02*
X165768924Y-126723628D01*
X165768924Y-126723628D02*
X165578448Y-126676009D01*
X165578448Y-126676009D02*
X165483210Y-126628390D01*
X165483210Y-126628390D02*
X165387972Y-126533152D01*
X165387972Y-126533152D02*
X165340353Y-126390295D01*
X165340353Y-126390295D02*
X165340353Y-126295057D01*
X165340353Y-126295057D02*
X165387972Y-126152200D01*
X165387972Y-126152200D02*
X165435591Y-126104581D01*
X166340353Y-125152200D02*
X166340353Y-125723628D01*
X166340353Y-125437914D02*
X165340353Y-125437914D01*
X165340353Y-125437914D02*
X165483210Y-125533152D01*
X165483210Y-125533152D02*
X165578448Y-125628390D01*
X165578448Y-125628390D02*
X165626067Y-125723628D01*
X165435591Y-124771247D02*
X165387972Y-124723628D01*
X165387972Y-124723628D02*
X165340353Y-124628390D01*
X165340353Y-124628390D02*
X165340353Y-124390295D01*
X165340353Y-124390295D02*
X165387972Y-124295057D01*
X165387972Y-124295057D02*
X165435591Y-124247438D01*
X165435591Y-124247438D02*
X165530829Y-124199819D01*
X165530829Y-124199819D02*
X165626067Y-124199819D01*
X165626067Y-124199819D02*
X165768924Y-124247438D01*
X165768924Y-124247438D02*
X166340353Y-124818866D01*
X166340353Y-124818866D02*
X166340353Y-124199819D01*
X165340353Y-123866485D02*
X165340353Y-123247438D01*
X165340353Y-123247438D02*
X165721305Y-123580771D01*
X165721305Y-123580771D02*
X165721305Y-123437914D01*
X165721305Y-123437914D02*
X165768924Y-123342676D01*
X165768924Y-123342676D02*
X165816543Y-123295057D01*
X165816543Y-123295057D02*
X165911781Y-123247438D01*
X165911781Y-123247438D02*
X166149876Y-123247438D01*
X166149876Y-123247438D02*
X166245114Y-123295057D01*
X166245114Y-123295057D02*
X166292734Y-123342676D01*
X166292734Y-123342676D02*
X166340353Y-123437914D01*
X166340353Y-123437914D02*
X166340353Y-123723628D01*
X166340353Y-123723628D02*
X166292734Y-123818866D01*
X166292734Y-123818866D02*
X166245114Y-123866485D01*
X160040353Y-51279842D02*
X160849876Y-51279842D01*
X160849876Y-51279842D02*
X160945114Y-51232223D01*
X160945114Y-51232223D02*
X160992734Y-51184604D01*
X160992734Y-51184604D02*
X161040353Y-51089366D01*
X161040353Y-51089366D02*
X161040353Y-50898890D01*
X161040353Y-50898890D02*
X160992734Y-50803652D01*
X160992734Y-50803652D02*
X160945114Y-50756033D01*
X160945114Y-50756033D02*
X160849876Y-50708414D01*
X160849876Y-50708414D02*
X160040353Y-50708414D01*
X161040353Y-49708414D02*
X161040353Y-50279842D01*
X161040353Y-49994128D02*
X160040353Y-49994128D01*
X160040353Y-49994128D02*
X160183210Y-50089366D01*
X160183210Y-50089366D02*
X160278448Y-50184604D01*
X160278448Y-50184604D02*
X160326067Y-50279842D01*
X160040353Y-48851271D02*
X160040353Y-49041747D01*
X160040353Y-49041747D02*
X160087972Y-49136985D01*
X160087972Y-49136985D02*
X160135591Y-49184604D01*
X160135591Y-49184604D02*
X160278448Y-49279842D01*
X160278448Y-49279842D02*
X160468924Y-49327461D01*
X160468924Y-49327461D02*
X160849876Y-49327461D01*
X160849876Y-49327461D02*
X160945114Y-49279842D01*
X160945114Y-49279842D02*
X160992734Y-49232223D01*
X160992734Y-49232223D02*
X161040353Y-49136985D01*
X161040353Y-49136985D02*
X161040353Y-48946509D01*
X161040353Y-48946509D02*
X160992734Y-48851271D01*
X160992734Y-48851271D02*
X160945114Y-48803652D01*
X160945114Y-48803652D02*
X160849876Y-48756033D01*
X160849876Y-48756033D02*
X160611781Y-48756033D01*
X160611781Y-48756033D02*
X160516543Y-48803652D01*
X160516543Y-48803652D02*
X160468924Y-48851271D01*
X160468924Y-48851271D02*
X160421305Y-48946509D01*
X160421305Y-48946509D02*
X160421305Y-49136985D01*
X160421305Y-49136985D02*
X160468924Y-49232223D01*
X160468924Y-49232223D02*
X160516543Y-49279842D01*
X160516543Y-49279842D02*
X160611781Y-49327461D01*
X160040353Y-47898890D02*
X160040353Y-48089366D01*
X160040353Y-48089366D02*
X160087972Y-48184604D01*
X160087972Y-48184604D02*
X160135591Y-48232223D01*
X160135591Y-48232223D02*
X160278448Y-48327461D01*
X160278448Y-48327461D02*
X160468924Y-48375080D01*
X160468924Y-48375080D02*
X160849876Y-48375080D01*
X160849876Y-48375080D02*
X160945114Y-48327461D01*
X160945114Y-48327461D02*
X160992734Y-48279842D01*
X160992734Y-48279842D02*
X161040353Y-48184604D01*
X161040353Y-48184604D02*
X161040353Y-47994128D01*
X161040353Y-47994128D02*
X160992734Y-47898890D01*
X160992734Y-47898890D02*
X160945114Y-47851271D01*
X160945114Y-47851271D02*
X160849876Y-47803652D01*
X160849876Y-47803652D02*
X160611781Y-47803652D01*
X160611781Y-47803652D02*
X160516543Y-47851271D01*
X160516543Y-47851271D02*
X160468924Y-47898890D01*
X160468924Y-47898890D02*
X160421305Y-47994128D01*
X160421305Y-47994128D02*
X160421305Y-48184604D01*
X160421305Y-48184604D02*
X160468924Y-48279842D01*
X160468924Y-48279842D02*
X160516543Y-48327461D01*
X160516543Y-48327461D02*
X160611781Y-48375080D01*
X167040353Y-149279842D02*
X167849876Y-149279842D01*
X167849876Y-149279842D02*
X167945114Y-149232223D01*
X167945114Y-149232223D02*
X167992734Y-149184604D01*
X167992734Y-149184604D02*
X168040353Y-149089366D01*
X168040353Y-149089366D02*
X168040353Y-148898890D01*
X168040353Y-148898890D02*
X167992734Y-148803652D01*
X167992734Y-148803652D02*
X167945114Y-148756033D01*
X167945114Y-148756033D02*
X167849876Y-148708414D01*
X167849876Y-148708414D02*
X167040353Y-148708414D01*
X168040353Y-147708414D02*
X168040353Y-148279842D01*
X168040353Y-147994128D02*
X167040353Y-147994128D01*
X167040353Y-147994128D02*
X167183210Y-148089366D01*
X167183210Y-148089366D02*
X167278448Y-148184604D01*
X167278448Y-148184604D02*
X167326067Y-148279842D01*
X167040353Y-146851271D02*
X167040353Y-147041747D01*
X167040353Y-147041747D02*
X167087972Y-147136985D01*
X167087972Y-147136985D02*
X167135591Y-147184604D01*
X167135591Y-147184604D02*
X167278448Y-147279842D01*
X167278448Y-147279842D02*
X167468924Y-147327461D01*
X167468924Y-147327461D02*
X167849876Y-147327461D01*
X167849876Y-147327461D02*
X167945114Y-147279842D01*
X167945114Y-147279842D02*
X167992734Y-147232223D01*
X167992734Y-147232223D02*
X168040353Y-147136985D01*
X168040353Y-147136985D02*
X168040353Y-146946509D01*
X168040353Y-146946509D02*
X167992734Y-146851271D01*
X167992734Y-146851271D02*
X167945114Y-146803652D01*
X167945114Y-146803652D02*
X167849876Y-146756033D01*
X167849876Y-146756033D02*
X167611781Y-146756033D01*
X167611781Y-146756033D02*
X167516543Y-146803652D01*
X167516543Y-146803652D02*
X167468924Y-146851271D01*
X167468924Y-146851271D02*
X167421305Y-146946509D01*
X167421305Y-146946509D02*
X167421305Y-147136985D01*
X167421305Y-147136985D02*
X167468924Y-147232223D01*
X167468924Y-147232223D02*
X167516543Y-147279842D01*
X167516543Y-147279842D02*
X167611781Y-147327461D01*
X167040353Y-145851271D02*
X167040353Y-146327461D01*
X167040353Y-146327461D02*
X167516543Y-146375080D01*
X167516543Y-146375080D02*
X167468924Y-146327461D01*
X167468924Y-146327461D02*
X167421305Y-146232223D01*
X167421305Y-146232223D02*
X167421305Y-145994128D01*
X167421305Y-145994128D02*
X167468924Y-145898890D01*
X167468924Y-145898890D02*
X167516543Y-145851271D01*
X167516543Y-145851271D02*
X167611781Y-145803652D01*
X167611781Y-145803652D02*
X167849876Y-145803652D01*
X167849876Y-145803652D02*
X167945114Y-145851271D01*
X167945114Y-145851271D02*
X167992734Y-145898890D01*
X167992734Y-145898890D02*
X168040353Y-145994128D01*
X168040353Y-145994128D02*
X168040353Y-146232223D01*
X168040353Y-146232223D02*
X167992734Y-146327461D01*
X167992734Y-146327461D02*
X167945114Y-146375080D01*
X79450347Y-135186003D02*
X78450347Y-135186003D01*
X78450347Y-135186003D02*
X78450347Y-134805051D01*
X78450347Y-134805051D02*
X78497966Y-134709813D01*
X78497966Y-134709813D02*
X78545585Y-134662194D01*
X78545585Y-134662194D02*
X78640823Y-134614575D01*
X78640823Y-134614575D02*
X78783680Y-134614575D01*
X78783680Y-134614575D02*
X78878918Y-134662194D01*
X78878918Y-134662194D02*
X78926537Y-134709813D01*
X78926537Y-134709813D02*
X78974156Y-134805051D01*
X78974156Y-134805051D02*
X78974156Y-135186003D01*
X79450347Y-133662194D02*
X79450347Y-134233622D01*
X79450347Y-133947908D02*
X78450347Y-133947908D01*
X78450347Y-133947908D02*
X78593204Y-134043146D01*
X78593204Y-134043146D02*
X78688442Y-134138384D01*
X78688442Y-134138384D02*
X78736061Y-134233622D01*
X78450347Y-133043146D02*
X78450347Y-132947908D01*
X78450347Y-132947908D02*
X78497966Y-132852670D01*
X78497966Y-132852670D02*
X78545585Y-132805051D01*
X78545585Y-132805051D02*
X78640823Y-132757432D01*
X78640823Y-132757432D02*
X78831299Y-132709813D01*
X78831299Y-132709813D02*
X79069394Y-132709813D01*
X79069394Y-132709813D02*
X79259870Y-132757432D01*
X79259870Y-132757432D02*
X79355108Y-132805051D01*
X79355108Y-132805051D02*
X79402728Y-132852670D01*
X79402728Y-132852670D02*
X79450347Y-132947908D01*
X79450347Y-132947908D02*
X79450347Y-133043146D01*
X79450347Y-133043146D02*
X79402728Y-133138384D01*
X79402728Y-133138384D02*
X79355108Y-133186003D01*
X79355108Y-133186003D02*
X79259870Y-133233622D01*
X79259870Y-133233622D02*
X79069394Y-133281241D01*
X79069394Y-133281241D02*
X78831299Y-133281241D01*
X78831299Y-133281241D02*
X78640823Y-133233622D01*
X78640823Y-133233622D02*
X78545585Y-133186003D01*
X78545585Y-133186003D02*
X78497966Y-133138384D01*
X78497966Y-133138384D02*
X78450347Y-133043146D01*
X78450347Y-131805051D02*
X78450347Y-132281241D01*
X78450347Y-132281241D02*
X78926537Y-132328860D01*
X78926537Y-132328860D02*
X78878918Y-132281241D01*
X78878918Y-132281241D02*
X78831299Y-132186003D01*
X78831299Y-132186003D02*
X78831299Y-131947908D01*
X78831299Y-131947908D02*
X78878918Y-131852670D01*
X78878918Y-131852670D02*
X78926537Y-131805051D01*
X78926537Y-131805051D02*
X79021775Y-131757432D01*
X79021775Y-131757432D02*
X79259870Y-131757432D01*
X79259870Y-131757432D02*
X79355108Y-131805051D01*
X79355108Y-131805051D02*
X79402728Y-131852670D01*
X79402728Y-131852670D02*
X79450347Y-131947908D01*
X79450347Y-131947908D02*
X79450347Y-132186003D01*
X79450347Y-132186003D02*
X79402728Y-132281241D01*
X79402728Y-132281241D02*
X79355108Y-132328860D01*
X160040353Y-135279842D02*
X160849876Y-135279842D01*
X160849876Y-135279842D02*
X160945114Y-135232223D01*
X160945114Y-135232223D02*
X160992734Y-135184604D01*
X160992734Y-135184604D02*
X161040353Y-135089366D01*
X161040353Y-135089366D02*
X161040353Y-134898890D01*
X161040353Y-134898890D02*
X160992734Y-134803652D01*
X160992734Y-134803652D02*
X160945114Y-134756033D01*
X160945114Y-134756033D02*
X160849876Y-134708414D01*
X160849876Y-134708414D02*
X160040353Y-134708414D01*
X161040353Y-133708414D02*
X161040353Y-134279842D01*
X161040353Y-133994128D02*
X160040353Y-133994128D01*
X160040353Y-133994128D02*
X160183210Y-134089366D01*
X160183210Y-134089366D02*
X160278448Y-134184604D01*
X160278448Y-134184604D02*
X160326067Y-134279842D01*
X160040353Y-133375080D02*
X160040353Y-132708414D01*
X160040353Y-132708414D02*
X161040353Y-133136985D01*
X160135591Y-132375080D02*
X160087972Y-132327461D01*
X160087972Y-132327461D02*
X160040353Y-132232223D01*
X160040353Y-132232223D02*
X160040353Y-131994128D01*
X160040353Y-131994128D02*
X160087972Y-131898890D01*
X160087972Y-131898890D02*
X160135591Y-131851271D01*
X160135591Y-131851271D02*
X160230829Y-131803652D01*
X160230829Y-131803652D02*
X160326067Y-131803652D01*
X160326067Y-131803652D02*
X160468924Y-131851271D01*
X160468924Y-131851271D02*
X161040353Y-132422699D01*
X161040353Y-132422699D02*
X161040353Y-131803652D01*
X123515391Y-114376886D02*
X124324914Y-114376886D01*
X124324914Y-114376886D02*
X124420152Y-114329267D01*
X124420152Y-114329267D02*
X124467772Y-114281648D01*
X124467772Y-114281648D02*
X124515391Y-114186410D01*
X124515391Y-114186410D02*
X124515391Y-113995934D01*
X124515391Y-113995934D02*
X124467772Y-113900696D01*
X124467772Y-113900696D02*
X124420152Y-113853077D01*
X124420152Y-113853077D02*
X124324914Y-113805458D01*
X124324914Y-113805458D02*
X123515391Y-113805458D01*
X124515391Y-112805458D02*
X124515391Y-113376886D01*
X124515391Y-113091172D02*
X123515391Y-113091172D01*
X123515391Y-113091172D02*
X123658248Y-113186410D01*
X123658248Y-113186410D02*
X123753486Y-113281648D01*
X123753486Y-113281648D02*
X123801105Y-113376886D01*
X123848724Y-111948315D02*
X124515391Y-111948315D01*
X123467772Y-112186410D02*
X124182057Y-112424505D01*
X124182057Y-112424505D02*
X124182057Y-111805458D01*
X123515391Y-111519743D02*
X123515391Y-110853077D01*
X123515391Y-110853077D02*
X124515391Y-111281648D01*
X160040353Y-121279842D02*
X160849876Y-121279842D01*
X160849876Y-121279842D02*
X160945114Y-121232223D01*
X160945114Y-121232223D02*
X160992734Y-121184604D01*
X160992734Y-121184604D02*
X161040353Y-121089366D01*
X161040353Y-121089366D02*
X161040353Y-120898890D01*
X161040353Y-120898890D02*
X160992734Y-120803652D01*
X160992734Y-120803652D02*
X160945114Y-120756033D01*
X160945114Y-120756033D02*
X160849876Y-120708414D01*
X160849876Y-120708414D02*
X160040353Y-120708414D01*
X161040353Y-119708414D02*
X161040353Y-120279842D01*
X161040353Y-119994128D02*
X160040353Y-119994128D01*
X160040353Y-119994128D02*
X160183210Y-120089366D01*
X160183210Y-120089366D02*
X160278448Y-120184604D01*
X160278448Y-120184604D02*
X160326067Y-120279842D01*
X160040353Y-119375080D02*
X160040353Y-118708414D01*
X160040353Y-118708414D02*
X161040353Y-119136985D01*
X161040353Y-117803652D02*
X161040353Y-118375080D01*
X161040353Y-118089366D02*
X160040353Y-118089366D01*
X160040353Y-118089366D02*
X160183210Y-118184604D01*
X160183210Y-118184604D02*
X160278448Y-118279842D01*
X160278448Y-118279842D02*
X160326067Y-118375080D01*
X123515391Y-86085077D02*
X124324914Y-86085077D01*
X124324914Y-86085077D02*
X124420152Y-86037458D01*
X124420152Y-86037458D02*
X124467772Y-85989839D01*
X124467772Y-85989839D02*
X124515391Y-85894601D01*
X124515391Y-85894601D02*
X124515391Y-85704125D01*
X124515391Y-85704125D02*
X124467772Y-85608887D01*
X124467772Y-85608887D02*
X124420152Y-85561268D01*
X124420152Y-85561268D02*
X124324914Y-85513649D01*
X124324914Y-85513649D02*
X123515391Y-85513649D01*
X124515391Y-84513649D02*
X124515391Y-85085077D01*
X124515391Y-84799363D02*
X123515391Y-84799363D01*
X123515391Y-84799363D02*
X123658248Y-84894601D01*
X123658248Y-84894601D02*
X123753486Y-84989839D01*
X123753486Y-84989839D02*
X123801105Y-85085077D01*
X123848724Y-83656506D02*
X124515391Y-83656506D01*
X123467772Y-83894601D02*
X124182057Y-84132696D01*
X124182057Y-84132696D02*
X124182057Y-83513649D01*
X123515391Y-82704125D02*
X123515391Y-82894601D01*
X123515391Y-82894601D02*
X123563010Y-82989839D01*
X123563010Y-82989839D02*
X123610629Y-83037458D01*
X123610629Y-83037458D02*
X123753486Y-83132696D01*
X123753486Y-83132696D02*
X123943962Y-83180315D01*
X123943962Y-83180315D02*
X124324914Y-83180315D01*
X124324914Y-83180315D02*
X124420152Y-83132696D01*
X124420152Y-83132696D02*
X124467772Y-83085077D01*
X124467772Y-83085077D02*
X124515391Y-82989839D01*
X124515391Y-82989839D02*
X124515391Y-82799363D01*
X124515391Y-82799363D02*
X124467772Y-82704125D01*
X124467772Y-82704125D02*
X124420152Y-82656506D01*
X124420152Y-82656506D02*
X124324914Y-82608887D01*
X124324914Y-82608887D02*
X124086819Y-82608887D01*
X124086819Y-82608887D02*
X123991581Y-82656506D01*
X123991581Y-82656506D02*
X123943962Y-82704125D01*
X123943962Y-82704125D02*
X123896343Y-82799363D01*
X123896343Y-82799363D02*
X123896343Y-82989839D01*
X123896343Y-82989839D02*
X123943962Y-83085077D01*
X123943962Y-83085077D02*
X123991581Y-83132696D01*
X123991581Y-83132696D02*
X124086819Y-83180315D01*
X174040353Y-149279842D02*
X174849876Y-149279842D01*
X174849876Y-149279842D02*
X174945114Y-149232223D01*
X174945114Y-149232223D02*
X174992734Y-149184604D01*
X174992734Y-149184604D02*
X175040353Y-149089366D01*
X175040353Y-149089366D02*
X175040353Y-148898890D01*
X175040353Y-148898890D02*
X174992734Y-148803652D01*
X174992734Y-148803652D02*
X174945114Y-148756033D01*
X174945114Y-148756033D02*
X174849876Y-148708414D01*
X174849876Y-148708414D02*
X174040353Y-148708414D01*
X175040353Y-147708414D02*
X175040353Y-148279842D01*
X175040353Y-147994128D02*
X174040353Y-147994128D01*
X174040353Y-147994128D02*
X174183210Y-148089366D01*
X174183210Y-148089366D02*
X174278448Y-148184604D01*
X174278448Y-148184604D02*
X174326067Y-148279842D01*
X174040353Y-146803652D02*
X174040353Y-147279842D01*
X174040353Y-147279842D02*
X174516543Y-147327461D01*
X174516543Y-147327461D02*
X174468924Y-147279842D01*
X174468924Y-147279842D02*
X174421305Y-147184604D01*
X174421305Y-147184604D02*
X174421305Y-146946509D01*
X174421305Y-146946509D02*
X174468924Y-146851271D01*
X174468924Y-146851271D02*
X174516543Y-146803652D01*
X174516543Y-146803652D02*
X174611781Y-146756033D01*
X174611781Y-146756033D02*
X174849876Y-146756033D01*
X174849876Y-146756033D02*
X174945114Y-146803652D01*
X174945114Y-146803652D02*
X174992734Y-146851271D01*
X174992734Y-146851271D02*
X175040353Y-146946509D01*
X175040353Y-146946509D02*
X175040353Y-147184604D01*
X175040353Y-147184604D02*
X174992734Y-147279842D01*
X174992734Y-147279842D02*
X174945114Y-147327461D01*
X174040353Y-146422699D02*
X174040353Y-145756033D01*
X174040353Y-145756033D02*
X175040353Y-146184604D01*
X174040353Y-51279842D02*
X174849876Y-51279842D01*
X174849876Y-51279842D02*
X174945114Y-51232223D01*
X174945114Y-51232223D02*
X174992734Y-51184604D01*
X174992734Y-51184604D02*
X175040353Y-51089366D01*
X175040353Y-51089366D02*
X175040353Y-50898890D01*
X175040353Y-50898890D02*
X174992734Y-50803652D01*
X174992734Y-50803652D02*
X174945114Y-50756033D01*
X174945114Y-50756033D02*
X174849876Y-50708414D01*
X174849876Y-50708414D02*
X174040353Y-50708414D01*
X175040353Y-49708414D02*
X175040353Y-50279842D01*
X175040353Y-49994128D02*
X174040353Y-49994128D01*
X174040353Y-49994128D02*
X174183210Y-50089366D01*
X174183210Y-50089366D02*
X174278448Y-50184604D01*
X174278448Y-50184604D02*
X174326067Y-50279842D01*
X174040353Y-48803652D02*
X174040353Y-49279842D01*
X174040353Y-49279842D02*
X174516543Y-49327461D01*
X174516543Y-49327461D02*
X174468924Y-49279842D01*
X174468924Y-49279842D02*
X174421305Y-49184604D01*
X174421305Y-49184604D02*
X174421305Y-48946509D01*
X174421305Y-48946509D02*
X174468924Y-48851271D01*
X174468924Y-48851271D02*
X174516543Y-48803652D01*
X174516543Y-48803652D02*
X174611781Y-48756033D01*
X174611781Y-48756033D02*
X174849876Y-48756033D01*
X174849876Y-48756033D02*
X174945114Y-48803652D01*
X174945114Y-48803652D02*
X174992734Y-48851271D01*
X174992734Y-48851271D02*
X175040353Y-48946509D01*
X175040353Y-48946509D02*
X175040353Y-49184604D01*
X175040353Y-49184604D02*
X174992734Y-49279842D01*
X174992734Y-49279842D02*
X174945114Y-49327461D01*
X174040353Y-48136985D02*
X174040353Y-48041747D01*
X174040353Y-48041747D02*
X174087972Y-47946509D01*
X174087972Y-47946509D02*
X174135591Y-47898890D01*
X174135591Y-47898890D02*
X174230829Y-47851271D01*
X174230829Y-47851271D02*
X174421305Y-47803652D01*
X174421305Y-47803652D02*
X174659400Y-47803652D01*
X174659400Y-47803652D02*
X174849876Y-47851271D01*
X174849876Y-47851271D02*
X174945114Y-47898890D01*
X174945114Y-47898890D02*
X174992734Y-47946509D01*
X174992734Y-47946509D02*
X175040353Y-48041747D01*
X175040353Y-48041747D02*
X175040353Y-48136985D01*
X175040353Y-48136985D02*
X174992734Y-48232223D01*
X174992734Y-48232223D02*
X174945114Y-48279842D01*
X174945114Y-48279842D02*
X174849876Y-48327461D01*
X174849876Y-48327461D02*
X174659400Y-48375080D01*
X174659400Y-48375080D02*
X174421305Y-48375080D01*
X174421305Y-48375080D02*
X174230829Y-48327461D01*
X174230829Y-48327461D02*
X174135591Y-48279842D01*
X174135591Y-48279842D02*
X174087972Y-48232223D01*
X174087972Y-48232223D02*
X174040353Y-48136985D01*
D13*
G04 #@! TO.C,J136*
X146535534Y-133535534D02*
G75*
G03*
X146535534Y-133535534I-4000000J0D01*
G01*
D14*
G04 #@! TO.C,U176*
X154748933Y-79590551D02*
X154405651Y-79590551D01*
X156498920Y-79590551D02*
X156032296Y-79590551D01*
X158145656Y-79590551D02*
X157782334Y-79590551D01*
X154405651Y-79490551D02*
X154405651Y-75540563D01*
X154405651Y-75540563D02*
X154745402Y-75540563D01*
X156035725Y-75540563D02*
X156495440Y-75540563D01*
X157785763Y-75540563D02*
X158145656Y-75540563D01*
X158145656Y-75540563D02*
X158145656Y-79590551D01*
D15*
X158045682Y-75710667D02*
G75*
G03*
X158045682Y-75710667I-29972J0D01*
G01*
D14*
G04 #@! TO.C,U174*
X154748933Y-51590551D02*
X154405651Y-51590551D01*
X156498920Y-51590551D02*
X156032296Y-51590551D01*
X158145656Y-51590551D02*
X157782334Y-51590551D01*
X154405651Y-51490551D02*
X154405651Y-47540563D01*
X154405651Y-47540563D02*
X154745402Y-47540563D01*
X156035725Y-47540563D02*
X156495440Y-47540563D01*
X157785763Y-47540563D02*
X158145656Y-47540563D01*
X158145656Y-47540563D02*
X158145656Y-51590551D01*
D15*
X158045682Y-47710667D02*
G75*
G03*
X158045682Y-47710667I-29972J0D01*
G01*
D14*
G04 #@! TO.C,U153*
X175748933Y-93590551D02*
X175405651Y-93590551D01*
X177498920Y-93590551D02*
X177032296Y-93590551D01*
X179145656Y-93590551D02*
X178782334Y-93590551D01*
X175405651Y-93490551D02*
X175405651Y-89540563D01*
X175405651Y-89540563D02*
X175745402Y-89540563D01*
X177035725Y-89540563D02*
X177495440Y-89540563D01*
X178785763Y-89540563D02*
X179145656Y-89540563D01*
X179145656Y-89540563D02*
X179145656Y-93590551D01*
D15*
X179045682Y-89710667D02*
G75*
G03*
X179045682Y-89710667I-29972J0D01*
G01*
D14*
G04 #@! TO.C,C116*
X123644939Y-50441147D02*
X123644939Y-49641173D01*
X122535109Y-50750977D02*
X123335109Y-50750977D01*
X122535109Y-49331368D02*
X123335109Y-49331368D01*
X121959214Y-50745161D02*
X121159239Y-50745161D01*
X121959214Y-49325501D02*
X121159239Y-49325501D01*
X120849460Y-50435305D02*
X120849460Y-49635280D01*
X123335160Y-50750977D02*
G75*
G03*
X123644990Y-50441147I0J309830D01*
G01*
X123644989Y-49641172D02*
G75*
G03*
X123335160Y-49331318I-309830J24D01*
G01*
X120849451Y-50435306D02*
G75*
G03*
X121159290Y-50745161I309827J-28D01*
G01*
X121159290Y-49325506D02*
G75*
G03*
X120849460Y-49635331I8J-309838D01*
G01*
D15*
X123069552Y-49635483D02*
G75*
G03*
X123069552Y-49635483I-29972J0D01*
G01*
D14*
G04 #@! TO.C,U162*
X168748933Y-107590551D02*
X168405651Y-107590551D01*
X170498920Y-107590551D02*
X170032296Y-107590551D01*
X172145656Y-107590551D02*
X171782334Y-107590551D01*
X168405651Y-107490551D02*
X168405651Y-103540563D01*
X168405651Y-103540563D02*
X168745402Y-103540563D01*
X170035725Y-103540563D02*
X170495440Y-103540563D01*
X171785763Y-103540563D02*
X172145656Y-103540563D01*
X172145656Y-103540563D02*
X172145656Y-107590551D01*
D15*
X172045682Y-103710667D02*
G75*
G03*
X172045682Y-103710667I-29972J0D01*
G01*
D13*
G04 #@! TO.C,J137*
X146535534Y-147535534D02*
G75*
G03*
X146535534Y-147535534I-4000000J0D01*
G01*
D14*
G04 #@! TO.C,U163*
X168748933Y-121590551D02*
X168405651Y-121590551D01*
X170498920Y-121590551D02*
X170032296Y-121590551D01*
X172145656Y-121590551D02*
X171782334Y-121590551D01*
X168405651Y-121490551D02*
X168405651Y-117540563D01*
X168405651Y-117540563D02*
X168745402Y-117540563D01*
X170035725Y-117540563D02*
X170495440Y-117540563D01*
X171785763Y-117540563D02*
X172145656Y-117540563D01*
X172145656Y-117540563D02*
X172145656Y-121590551D01*
D15*
X172045682Y-117710667D02*
G75*
G03*
X172045682Y-117710667I-29972J0D01*
G01*
D13*
G04 #@! TO.C,J135*
X146535534Y-119535534D02*
G75*
G03*
X146535534Y-119535534I-4000000J0D01*
G01*
G04 #@! TO.C,J155*
X99535534Y-63535534D02*
G75*
G03*
X99535534Y-63535534I-4000000J0D01*
G01*
D14*
G04 #@! TO.C,P101*
X77865480Y-73685648D02*
X86665582Y-73685648D01*
X86665582Y-73685648D02*
X86665582Y-53385674D01*
X84932536Y-66075539D02*
X86710540Y-66075539D01*
X84932536Y-66075539D02*
X84932536Y-60995529D01*
X86710540Y-66075539D02*
X86634340Y-66024739D01*
X84932536Y-60995529D02*
X86685140Y-60995529D01*
X86685140Y-60995529D02*
X86634340Y-60995529D01*
X77865480Y-53385674D02*
X77865480Y-73685648D01*
X86665582Y-53385674D02*
X77865480Y-53385674D01*
D15*
X86695554Y-73685394D02*
G75*
G03*
X86695554Y-73685394I-29972J0D01*
G01*
D14*
G04 #@! TO.C,U144*
X214935712Y-84896342D02*
X214935712Y-112094716D01*
X187135357Y-84896342D02*
X214935712Y-84896342D01*
X190886944Y-92145516D02*
X187135357Y-92145516D01*
X187135357Y-92145516D02*
X187135357Y-84896342D01*
X213986055Y-93415519D02*
X211486030Y-93415519D01*
X213986055Y-93415519D02*
X213986055Y-103575539D01*
X211486030Y-93415519D02*
X211486055Y-103575539D01*
X211486055Y-103575539D02*
X213986055Y-103575539D01*
X190886944Y-104995402D02*
X190886944Y-92145516D01*
X187135357Y-104995402D02*
X190886944Y-104995402D01*
X214935712Y-112094716D02*
X187135357Y-112094716D01*
X187135357Y-112094716D02*
X187135357Y-104995402D01*
D15*
X187165329Y-84896342D02*
G75*
G03*
X187165329Y-84896342I-29972J0D01*
G01*
D14*
X190406122Y-86745465D02*
G75*
G03*
X190406122Y-86745465I-1270003J0D01*
G01*
X214206071Y-86745529D02*
G75*
G03*
X214206071Y-86745529I-1270003J0D01*
G01*
X214206070Y-110245529D02*
G75*
G03*
X214206070Y-110245529I-1270002J0D01*
G01*
X190406070Y-110245529D02*
G75*
G03*
X190406070Y-110245529I-1270002J0D01*
G01*
D13*
G04 #@! TO.C,J139*
X132535534Y-63535534D02*
G75*
G03*
X132535534Y-63535534I-4000000J0D01*
G01*
G04 #@! TO.C,J154*
X99535534Y-49535534D02*
G75*
G03*
X99535534Y-49535534I-4000000J0D01*
G01*
G04 #@! TO.C,J138*
X132535534Y-49535534D02*
G75*
G03*
X132535534Y-49535534I-4000000J0D01*
G01*
D14*
G04 #@! TO.C,U173*
X161748933Y-149590551D02*
X161405651Y-149590551D01*
X163498920Y-149590551D02*
X163032296Y-149590551D01*
X165145656Y-149590551D02*
X164782334Y-149590551D01*
X161405651Y-149490551D02*
X161405651Y-145540563D01*
X161405651Y-145540563D02*
X161745402Y-145540563D01*
X163035725Y-145540563D02*
X163495440Y-145540563D01*
X164785763Y-145540563D02*
X165145656Y-145540563D01*
X165145656Y-145540563D02*
X165145656Y-149590551D01*
D15*
X165045682Y-145710667D02*
G75*
G03*
X165045682Y-145710667I-29972J0D01*
G01*
D14*
G04 #@! TO.C,U169*
X161748933Y-93590551D02*
X161405651Y-93590551D01*
X163498920Y-93590551D02*
X163032296Y-93590551D01*
X165145656Y-93590551D02*
X164782334Y-93590551D01*
X161405651Y-93490551D02*
X161405651Y-89540563D01*
X161405651Y-89540563D02*
X161745402Y-89540563D01*
X163035725Y-89540563D02*
X163495440Y-89540563D01*
X164785763Y-89540563D02*
X165145656Y-89540563D01*
X165145656Y-89540563D02*
X165145656Y-93590551D01*
D15*
X165045682Y-89710667D02*
G75*
G03*
X165045682Y-89710667I-29972J0D01*
G01*
D14*
G04 #@! TO.C,U159*
X168748933Y-65590551D02*
X168405651Y-65590551D01*
X170498920Y-65590551D02*
X170032296Y-65590551D01*
X172145656Y-65590551D02*
X171782334Y-65590551D01*
X168405651Y-65490551D02*
X168405651Y-61540563D01*
X168405651Y-61540563D02*
X168745402Y-61540563D01*
X170035725Y-61540563D02*
X170495440Y-61540563D01*
X171785763Y-61540563D02*
X172145656Y-61540563D01*
X172145656Y-61540563D02*
X172145656Y-65590551D01*
D15*
X172045682Y-61710667D02*
G75*
G03*
X172045682Y-61710667I-29972J0D01*
G01*
D16*
G04 #@! TO.C,C128*
X182617080Y-39220567D02*
X182617080Y-40928136D01*
X182617080Y-44200501D02*
X182617080Y-42492932D01*
X184353352Y-37484296D02*
X182617080Y-39220567D01*
X184353352Y-45936772D02*
X182617080Y-44200501D01*
X191019570Y-37484296D02*
X184353352Y-37484296D01*
X191019570Y-40928136D02*
X191019570Y-37484296D01*
X191019570Y-42492932D02*
X191019570Y-45936772D01*
X191019570Y-45936772D02*
X184353352Y-45936772D01*
D15*
X182323786Y-45860648D02*
G75*
G03*
X182323786Y-45860648I-29972J0D01*
G01*
D14*
G04 #@! TO.C,U155*
X175748933Y-121590551D02*
X175405651Y-121590551D01*
X177498920Y-121590551D02*
X177032296Y-121590551D01*
X179145656Y-121590551D02*
X178782334Y-121590551D01*
X175405651Y-121490551D02*
X175405651Y-117540563D01*
X175405651Y-117540563D02*
X175745402Y-117540563D01*
X177035725Y-117540563D02*
X177495440Y-117540563D01*
X178785763Y-117540563D02*
X179145656Y-117540563D01*
X179145656Y-117540563D02*
X179145656Y-121590551D01*
D15*
X179045682Y-117710667D02*
G75*
G03*
X179045682Y-117710667I-29972J0D01*
G01*
D14*
G04 #@! TO.C,C120*
X174129921Y-70290995D02*
X174929895Y-70290995D01*
X173820091Y-69181165D02*
X173820091Y-69981165D01*
X175239700Y-69181165D02*
X175239700Y-69981165D01*
X173825907Y-68605270D02*
X173825907Y-67805295D01*
X175245567Y-68605270D02*
X175245567Y-67805295D01*
X174135763Y-67495516D02*
X174935788Y-67495516D01*
X173820091Y-69981216D02*
G75*
G03*
X174129921Y-70291046I309830J0D01*
G01*
X174929896Y-70291045D02*
G75*
G03*
X175239750Y-69981216I24J309830D01*
G01*
X174135762Y-67495507D02*
G75*
G03*
X173825907Y-67805346I-28J-309827D01*
G01*
X175245562Y-67805346D02*
G75*
G03*
X174935737Y-67495516I-309838J-8D01*
G01*
D15*
X174965557Y-69685636D02*
G75*
G03*
X174965557Y-69685636I-29972J0D01*
G01*
D14*
G04 #@! TO.C,C122*
X167129921Y-70290995D02*
X167929895Y-70290995D01*
X166820091Y-69181165D02*
X166820091Y-69981165D01*
X168239700Y-69181165D02*
X168239700Y-69981165D01*
X166825907Y-68605270D02*
X166825907Y-67805295D01*
X168245567Y-68605270D02*
X168245567Y-67805295D01*
X167135763Y-67495516D02*
X167935788Y-67495516D01*
X166820091Y-69981216D02*
G75*
G03*
X167129921Y-70291046I309830J0D01*
G01*
X167929896Y-70291045D02*
G75*
G03*
X168239750Y-69981216I24J309830D01*
G01*
X167135762Y-67495507D02*
G75*
G03*
X166825907Y-67805346I-28J-309827D01*
G01*
X168245562Y-67805346D02*
G75*
G03*
X167935737Y-67495516I-309838J-8D01*
G01*
D15*
X167965557Y-69685636D02*
G75*
G03*
X167965557Y-69685636I-29972J0D01*
G01*
D14*
G04 #@! TO.C,C124*
X160129921Y-70290995D02*
X160929895Y-70290995D01*
X159820091Y-69181165D02*
X159820091Y-69981165D01*
X161239700Y-69181165D02*
X161239700Y-69981165D01*
X159825907Y-68605270D02*
X159825907Y-67805295D01*
X161245567Y-68605270D02*
X161245567Y-67805295D01*
X160135763Y-67495516D02*
X160935788Y-67495516D01*
X159820091Y-69981216D02*
G75*
G03*
X160129921Y-70291046I309830J0D01*
G01*
X160929896Y-70291045D02*
G75*
G03*
X161239750Y-69981216I24J309830D01*
G01*
X160135762Y-67495507D02*
G75*
G03*
X159825907Y-67805346I-28J-309827D01*
G01*
X161245562Y-67805346D02*
G75*
G03*
X160935737Y-67495516I-309838J-8D01*
G01*
D15*
X160965557Y-69685636D02*
G75*
G03*
X160965557Y-69685636I-29972J0D01*
G01*
D13*
G04 #@! TO.C,J156*
X99535534Y-77535534D02*
G75*
G03*
X99535534Y-77535534I-4000000J0D01*
G01*
G04 #@! TO.C,J131*
X146535534Y-63535534D02*
G75*
G03*
X146535534Y-63535534I-4000000J0D01*
G01*
D14*
G04 #@! TO.C,C121*
X174129921Y-126390995D02*
X174929895Y-126390995D01*
X173820091Y-125281165D02*
X173820091Y-126081165D01*
X175239700Y-125281165D02*
X175239700Y-126081165D01*
X173825907Y-124705270D02*
X173825907Y-123905295D01*
X175245567Y-124705270D02*
X175245567Y-123905295D01*
X174135763Y-123595516D02*
X174935788Y-123595516D01*
X173820091Y-126081216D02*
G75*
G03*
X174129921Y-126391046I309830J0D01*
G01*
X174929896Y-126391045D02*
G75*
G03*
X175239750Y-126081216I24J309830D01*
G01*
X174135762Y-123595507D02*
G75*
G03*
X173825907Y-123905346I-28J-309827D01*
G01*
X175245562Y-123905346D02*
G75*
G03*
X174935737Y-123595516I-309838J-8D01*
G01*
D15*
X174965557Y-125785636D02*
G75*
G03*
X174965557Y-125785636I-29972J0D01*
G01*
D14*
G04 #@! TO.C,U151*
X175748933Y-65590551D02*
X175405651Y-65590551D01*
X177498920Y-65590551D02*
X177032296Y-65590551D01*
X179145656Y-65590551D02*
X178782334Y-65590551D01*
X175405651Y-65490551D02*
X175405651Y-61540563D01*
X175405651Y-61540563D02*
X175745402Y-61540563D01*
X177035725Y-61540563D02*
X177495440Y-61540563D01*
X178785763Y-61540563D02*
X179145656Y-61540563D01*
X179145656Y-61540563D02*
X179145656Y-65590551D01*
D15*
X179045682Y-61710667D02*
G75*
G03*
X179045682Y-61710667I-29972J0D01*
G01*
D14*
G04 #@! TO.C,U164*
X168748933Y-135590551D02*
X168405651Y-135590551D01*
X170498920Y-135590551D02*
X170032296Y-135590551D01*
X172145656Y-135590551D02*
X171782334Y-135590551D01*
X168405651Y-135490551D02*
X168405651Y-131540563D01*
X168405651Y-131540563D02*
X168745402Y-131540563D01*
X170035725Y-131540563D02*
X170495440Y-131540563D01*
X171785763Y-131540563D02*
X172145656Y-131540563D01*
X172145656Y-131540563D02*
X172145656Y-135590551D01*
D15*
X172045682Y-131710667D02*
G75*
G03*
X172045682Y-131710667I-29972J0D01*
G01*
D14*
G04 #@! TO.C,U177*
X154748933Y-93590551D02*
X154405651Y-93590551D01*
X156498920Y-93590551D02*
X156032296Y-93590551D01*
X158145656Y-93590551D02*
X157782334Y-93590551D01*
X154405651Y-93490551D02*
X154405651Y-89540563D01*
X154405651Y-89540563D02*
X154745402Y-89540563D01*
X156035725Y-89540563D02*
X156495440Y-89540563D01*
X157785763Y-89540563D02*
X158145656Y-89540563D01*
X158145656Y-89540563D02*
X158145656Y-93590551D01*
D15*
X158045682Y-89710667D02*
G75*
G03*
X158045682Y-89710667I-29972J0D01*
G01*
D13*
G04 #@! TO.C,J132*
X146535534Y-77535534D02*
G75*
G03*
X146535534Y-77535534I-4000000J0D01*
G01*
D14*
G04 #@! TO.C,U158*
X168748933Y-51590551D02*
X168405651Y-51590551D01*
X170498920Y-51590551D02*
X170032296Y-51590551D01*
X172145656Y-51590551D02*
X171782334Y-51590551D01*
X168405651Y-51490551D02*
X168405651Y-47540563D01*
X168405651Y-47540563D02*
X168745402Y-47540563D01*
X170035725Y-47540563D02*
X170495440Y-47540563D01*
X171785763Y-47540563D02*
X172145656Y-47540563D01*
X172145656Y-47540563D02*
X172145656Y-51590551D01*
D15*
X172045682Y-47710667D02*
G75*
G03*
X172045682Y-47710667I-29972J0D01*
G01*
D13*
G04 #@! TO.C,J151*
X113535534Y-119535534D02*
G75*
G03*
X113535534Y-119535534I-4000000J0D01*
G01*
G04 #@! TO.C,J150*
X113535534Y-105535534D02*
G75*
G03*
X113535534Y-105535534I-4000000J0D01*
G01*
D16*
G04 #@! TO.C,U148*
X120846399Y-135231677D02*
X120846399Y-145284103D01*
X117803575Y-135231677D02*
X120846399Y-135231677D01*
X120846399Y-145284103D02*
X117803575Y-145284103D01*
X117803575Y-145284103D02*
X117803575Y-135231677D01*
D17*
X116808096Y-135050880D02*
G75*
G03*
X116808096Y-135050880I-150114J0D01*
G01*
D15*
X116354959Y-135307928D02*
G75*
G03*
X116354959Y-135307928I-29972J0D01*
G01*
D17*
X118705987Y-135812881D02*
G75*
G03*
X118705987Y-135812881I-150114J0D01*
G01*
D14*
G04 #@! TO.C,U170*
X161748933Y-107590551D02*
X161405651Y-107590551D01*
X163498920Y-107590551D02*
X163032296Y-107590551D01*
X165145656Y-107590551D02*
X164782334Y-107590551D01*
X161405651Y-107490551D02*
X161405651Y-103540563D01*
X161405651Y-103540563D02*
X161745402Y-103540563D01*
X163035725Y-103540563D02*
X163495440Y-103540563D01*
X164785763Y-103540563D02*
X165145656Y-103540563D01*
X165145656Y-103540563D02*
X165145656Y-107590551D01*
D15*
X165045682Y-103710667D02*
G75*
G03*
X165045682Y-103710667I-29972J0D01*
G01*
D13*
G04 #@! TO.C,J144*
X132535534Y-133535534D02*
G75*
G03*
X132535534Y-133535534I-4000000J0D01*
G01*
G04 #@! TO.C,J157*
X99535534Y-91535534D02*
G75*
G03*
X99535534Y-91535534I-4000000J0D01*
G01*
G04 #@! TO.C,J147*
X113535534Y-63535534D02*
G75*
G03*
X113535534Y-63535534I-4000000J0D01*
G01*
D14*
G04 #@! TO.C,U168*
X161748933Y-79590551D02*
X161405651Y-79590551D01*
X163498920Y-79590551D02*
X163032296Y-79590551D01*
X165145656Y-79590551D02*
X164782334Y-79590551D01*
X161405651Y-79490551D02*
X161405651Y-75540563D01*
X161405651Y-75540563D02*
X161745402Y-75540563D01*
X163035725Y-75540563D02*
X163495440Y-75540563D01*
X164785763Y-75540563D02*
X165145656Y-75540563D01*
X165145656Y-75540563D02*
X165145656Y-79590551D01*
D15*
X165045682Y-75710667D02*
G75*
G03*
X165045682Y-75710667I-29972J0D01*
G01*
D13*
G04 #@! TO.C,J152*
X113535534Y-133535534D02*
G75*
G03*
X113535534Y-133535534I-4000000J0D01*
G01*
D14*
G04 #@! TO.C,P103*
X77865480Y-108645643D02*
X86665582Y-108645643D01*
X86665582Y-108645643D02*
X86665582Y-88345669D01*
X84932536Y-101035534D02*
X86710540Y-101035534D01*
X84932536Y-101035534D02*
X84932536Y-95955524D01*
X86710540Y-101035534D02*
X86634340Y-100984734D01*
X84932536Y-95955524D02*
X86685140Y-95955524D01*
X86685140Y-95955524D02*
X86634340Y-95955524D01*
X77865480Y-88345669D02*
X77865480Y-108645643D01*
X86665582Y-88345669D02*
X77865480Y-88345669D01*
D15*
X86695554Y-108645389D02*
G75*
G03*
X86695554Y-108645389I-29972J0D01*
G01*
D13*
G04 #@! TO.C,J145*
X132535534Y-147535534D02*
G75*
G03*
X132535534Y-147535534I-4000000J0D01*
G01*
G04 #@! TO.C,J143*
X132535534Y-119535534D02*
G75*
G03*
X132535534Y-119535534I-4000000J0D01*
G01*
G04 #@! TO.C,J148*
X113535534Y-77535534D02*
G75*
G03*
X113535534Y-77535534I-4000000J0D01*
G01*
D14*
G04 #@! TO.C,U167*
X161748933Y-65590551D02*
X161405651Y-65590551D01*
X163498920Y-65590551D02*
X163032296Y-65590551D01*
X165145656Y-65590551D02*
X164782334Y-65590551D01*
X161405651Y-65490551D02*
X161405651Y-61540563D01*
X161405651Y-61540563D02*
X161745402Y-61540563D01*
X163035725Y-61540563D02*
X163495440Y-61540563D01*
X164785763Y-61540563D02*
X165145656Y-61540563D01*
X165145656Y-61540563D02*
X165145656Y-65590551D01*
D15*
X165045682Y-61710667D02*
G75*
G03*
X165045682Y-61710667I-29972J0D01*
G01*
D14*
G04 #@! TO.C,C125*
X159879921Y-126390995D02*
X160679895Y-126390995D01*
X159570091Y-125281165D02*
X159570091Y-126081165D01*
X160989700Y-125281165D02*
X160989700Y-126081165D01*
X159575907Y-124705270D02*
X159575907Y-123905295D01*
X160995567Y-124705270D02*
X160995567Y-123905295D01*
X159885763Y-123595516D02*
X160685788Y-123595516D01*
X159570091Y-126081216D02*
G75*
G03*
X159879921Y-126391046I309830J0D01*
G01*
X160679896Y-126391045D02*
G75*
G03*
X160989750Y-126081216I24J309830D01*
G01*
X159885762Y-123595507D02*
G75*
G03*
X159575907Y-123905346I-28J-309827D01*
G01*
X160995562Y-123905346D02*
G75*
G03*
X160685737Y-123595516I-309838J-8D01*
G01*
D15*
X160715557Y-125785636D02*
G75*
G03*
X160715557Y-125785636I-29972J0D01*
G01*
D14*
G04 #@! TO.C,U156*
X175748933Y-135590551D02*
X175405651Y-135590551D01*
X177498920Y-135590551D02*
X177032296Y-135590551D01*
X179145656Y-135590551D02*
X178782334Y-135590551D01*
X175405651Y-135490551D02*
X175405651Y-131540563D01*
X175405651Y-131540563D02*
X175745402Y-131540563D01*
X177035725Y-131540563D02*
X177495440Y-131540563D01*
X178785763Y-131540563D02*
X179145656Y-131540563D01*
X179145656Y-131540563D02*
X179145656Y-135590551D01*
D15*
X179045682Y-131710667D02*
G75*
G03*
X179045682Y-131710667I-29972J0D01*
G01*
D14*
G04 #@! TO.C,U160*
X168748933Y-79590551D02*
X168405651Y-79590551D01*
X170498920Y-79590551D02*
X170032296Y-79590551D01*
X172145656Y-79590551D02*
X171782334Y-79590551D01*
X168405651Y-79490551D02*
X168405651Y-75540563D01*
X168405651Y-75540563D02*
X168745402Y-75540563D01*
X170035725Y-75540563D02*
X170495440Y-75540563D01*
X171785763Y-75540563D02*
X172145656Y-75540563D01*
X172145656Y-75540563D02*
X172145656Y-79590551D01*
D15*
X172045682Y-75710667D02*
G75*
G03*
X172045682Y-75710667I-29972J0D01*
G01*
D14*
G04 #@! TO.C,C117*
X123466033Y-78191147D02*
X123466033Y-77391173D01*
X122356203Y-78500977D02*
X123156203Y-78500977D01*
X122356203Y-77081368D02*
X123156203Y-77081368D01*
X121780308Y-78495161D02*
X120980333Y-78495161D01*
X121780308Y-77075501D02*
X120980333Y-77075501D01*
X120670554Y-78185305D02*
X120670554Y-77385280D01*
X123156254Y-78500977D02*
G75*
G03*
X123466084Y-78191147I0J309830D01*
G01*
X123466083Y-77391172D02*
G75*
G03*
X123156254Y-77081318I-309830J24D01*
G01*
X120670545Y-78185306D02*
G75*
G03*
X120980384Y-78495161I309827J-28D01*
G01*
X120980384Y-77075506D02*
G75*
G03*
X120670554Y-77385331I8J-309838D01*
G01*
D15*
X122890646Y-77385483D02*
G75*
G03*
X122890646Y-77385483I-29972J0D01*
G01*
D13*
G04 #@! TO.C,J142*
X132535534Y-105535534D02*
G75*
G03*
X132535534Y-105535534I-4000000J0D01*
G01*
D14*
G04 #@! TO.C,C119*
X123466033Y-134191147D02*
X123466033Y-133391173D01*
X122356203Y-134500977D02*
X123156203Y-134500977D01*
X122356203Y-133081368D02*
X123156203Y-133081368D01*
X121780308Y-134495161D02*
X120980333Y-134495161D01*
X121780308Y-133075501D02*
X120980333Y-133075501D01*
X120670554Y-134185305D02*
X120670554Y-133385280D01*
X123156254Y-134500977D02*
G75*
G03*
X123466084Y-134191147I0J309830D01*
G01*
X123466083Y-133391172D02*
G75*
G03*
X123156254Y-133081318I-309830J24D01*
G01*
X120670545Y-134185306D02*
G75*
G03*
X120980384Y-134495161I309827J-28D01*
G01*
X120980384Y-133075506D02*
G75*
G03*
X120670554Y-133385331I8J-309838D01*
G01*
D15*
X122890646Y-133385483D02*
G75*
G03*
X122890646Y-133385483I-29972J0D01*
G01*
D14*
G04 #@! TO.C,U161*
X168748933Y-93590551D02*
X168405651Y-93590551D01*
X170498920Y-93590551D02*
X170032296Y-93590551D01*
X172145656Y-93590551D02*
X171782334Y-93590551D01*
X168405651Y-93490551D02*
X168405651Y-89540563D01*
X168405651Y-89540563D02*
X168745402Y-89540563D01*
X170035725Y-89540563D02*
X170495440Y-89540563D01*
X171785763Y-89540563D02*
X172145656Y-89540563D01*
X172145656Y-89540563D02*
X172145656Y-93590551D01*
D15*
X172045682Y-89710667D02*
G75*
G03*
X172045682Y-89710667I-29972J0D01*
G01*
D13*
G04 #@! TO.C,J149*
X113535534Y-91535534D02*
G75*
G03*
X113535534Y-91535534I-4000000J0D01*
G01*
D14*
G04 #@! TO.C,U178*
X154748933Y-107590551D02*
X154405651Y-107590551D01*
X156498920Y-107590551D02*
X156032296Y-107590551D01*
X158145656Y-107590551D02*
X157782334Y-107590551D01*
X154405651Y-107490551D02*
X154405651Y-103540563D01*
X154405651Y-103540563D02*
X154745402Y-103540563D01*
X156035725Y-103540563D02*
X156495440Y-103540563D01*
X157785763Y-103540563D02*
X158145656Y-103540563D01*
X158145656Y-103540563D02*
X158145656Y-107590551D01*
D15*
X158045682Y-103710667D02*
G75*
G03*
X158045682Y-103710667I-29972J0D01*
G01*
D14*
G04 #@! TO.C,C126*
X153079921Y-70290995D02*
X153879895Y-70290995D01*
X152770091Y-69181165D02*
X152770091Y-69981165D01*
X154189700Y-69181165D02*
X154189700Y-69981165D01*
X152775907Y-68605270D02*
X152775907Y-67805295D01*
X154195567Y-68605270D02*
X154195567Y-67805295D01*
X153085763Y-67495516D02*
X153885788Y-67495516D01*
X152770091Y-69981216D02*
G75*
G03*
X153079921Y-70291046I309830J0D01*
G01*
X153879896Y-70291045D02*
G75*
G03*
X154189750Y-69981216I24J309830D01*
G01*
X153085762Y-67495507D02*
G75*
G03*
X152775907Y-67805346I-28J-309827D01*
G01*
X154195562Y-67805346D02*
G75*
G03*
X153885737Y-67495516I-309838J-8D01*
G01*
D15*
X153915557Y-69685636D02*
G75*
G03*
X153915557Y-69685636I-29972J0D01*
G01*
D14*
G04 #@! TO.C,C118*
X123466033Y-106441147D02*
X123466033Y-105641173D01*
X122356203Y-106750977D02*
X123156203Y-106750977D01*
X122356203Y-105331368D02*
X123156203Y-105331368D01*
X121780308Y-106745161D02*
X120980333Y-106745161D01*
X121780308Y-105325501D02*
X120980333Y-105325501D01*
X120670554Y-106435305D02*
X120670554Y-105635280D01*
X123156254Y-106750977D02*
G75*
G03*
X123466084Y-106441147I0J309830D01*
G01*
X123466083Y-105641172D02*
G75*
G03*
X123156254Y-105331318I-309830J24D01*
G01*
X120670545Y-106435306D02*
G75*
G03*
X120980384Y-106745161I309827J-28D01*
G01*
X120980384Y-105325506D02*
G75*
G03*
X120670554Y-105635331I8J-309838D01*
G01*
D15*
X122890646Y-105635483D02*
G75*
G03*
X122890646Y-105635483I-29972J0D01*
G01*
D14*
G04 #@! TO.C,U152*
X175748933Y-79590551D02*
X175405651Y-79590551D01*
X177498920Y-79590551D02*
X177032296Y-79590551D01*
X179145656Y-79590551D02*
X178782334Y-79590551D01*
X175405651Y-79490551D02*
X175405651Y-75540563D01*
X175405651Y-75540563D02*
X175745402Y-75540563D01*
X177035725Y-75540563D02*
X177495440Y-75540563D01*
X178785763Y-75540563D02*
X179145656Y-75540563D01*
X179145656Y-75540563D02*
X179145656Y-79590551D01*
D15*
X179045682Y-75710667D02*
G75*
G03*
X179045682Y-75710667I-29972J0D01*
G01*
D14*
G04 #@! TO.C,U175*
X154748933Y-65590551D02*
X154405651Y-65590551D01*
X156498920Y-65590551D02*
X156032296Y-65590551D01*
X158145656Y-65590551D02*
X157782334Y-65590551D01*
X154405651Y-65490551D02*
X154405651Y-61540563D01*
X154405651Y-61540563D02*
X154745402Y-61540563D01*
X156035725Y-61540563D02*
X156495440Y-61540563D01*
X157785763Y-61540563D02*
X158145656Y-61540563D01*
X158145656Y-61540563D02*
X158145656Y-65590551D01*
D15*
X158045682Y-61710667D02*
G75*
G03*
X158045682Y-61710667I-29972J0D01*
G01*
D13*
G04 #@! TO.C,J146*
X113535534Y-49535534D02*
G75*
G03*
X113535534Y-49535534I-4000000J0D01*
G01*
D14*
G04 #@! TO.C,U154*
X175748933Y-107590551D02*
X175405651Y-107590551D01*
X177498920Y-107590551D02*
X177032296Y-107590551D01*
X179145656Y-107590551D02*
X178782334Y-107590551D01*
X175405651Y-107490551D02*
X175405651Y-103540563D01*
X175405651Y-103540563D02*
X175745402Y-103540563D01*
X177035725Y-103540563D02*
X177495440Y-103540563D01*
X178785763Y-103540563D02*
X179145656Y-103540563D01*
X179145656Y-103540563D02*
X179145656Y-107590551D01*
D15*
X179045682Y-103710667D02*
G75*
G03*
X179045682Y-103710667I-29972J0D01*
G01*
D13*
G04 #@! TO.C,J141*
X132535534Y-91535534D02*
G75*
G03*
X132535534Y-91535534I-4000000J0D01*
G01*
G04 #@! TO.C,J153*
X113535534Y-147535534D02*
G75*
G03*
X113535534Y-147535534I-4000000J0D01*
G01*
G04 #@! TO.C,J130*
X146535534Y-49535534D02*
G75*
G03*
X146535534Y-49535534I-4000000J0D01*
G01*
D16*
G04 #@! TO.C,U145*
X121025305Y-51636388D02*
X121025305Y-61688814D01*
X117982481Y-51636388D02*
X121025305Y-51636388D01*
X121025305Y-61688814D02*
X117982481Y-61688814D01*
X117982481Y-61688814D02*
X117982481Y-51636388D01*
D17*
X116987002Y-51455591D02*
G75*
G03*
X116987002Y-51455591I-150114J0D01*
G01*
D15*
X116533865Y-51712639D02*
G75*
G03*
X116533865Y-51712639I-29972J0D01*
G01*
D17*
X118884893Y-52217592D02*
G75*
G03*
X118884893Y-52217592I-150114J0D01*
G01*
D14*
G04 #@! TO.C,C123*
X167129921Y-126390995D02*
X167929895Y-126390995D01*
X166820091Y-125281165D02*
X166820091Y-126081165D01*
X168239700Y-125281165D02*
X168239700Y-126081165D01*
X166825907Y-124705270D02*
X166825907Y-123905295D01*
X168245567Y-124705270D02*
X168245567Y-123905295D01*
X167135763Y-123595516D02*
X167935788Y-123595516D01*
X166820091Y-126081216D02*
G75*
G03*
X167129921Y-126391046I309830J0D01*
G01*
X167929896Y-126391045D02*
G75*
G03*
X168239750Y-126081216I24J309830D01*
G01*
X167135762Y-123595507D02*
G75*
G03*
X166825907Y-123905346I-28J-309827D01*
G01*
X168245562Y-123905346D02*
G75*
G03*
X167935737Y-123595516I-309838J-8D01*
G01*
D15*
X167965557Y-125785636D02*
G75*
G03*
X167965557Y-125785636I-29972J0D01*
G01*
D13*
G04 #@! TO.C,J158*
X99535534Y-105535534D02*
G75*
G03*
X99535534Y-105535534I-4000000J0D01*
G01*
D14*
G04 #@! TO.C,U166*
X161748933Y-51590551D02*
X161405651Y-51590551D01*
X163498920Y-51590551D02*
X163032296Y-51590551D01*
X165145656Y-51590551D02*
X164782334Y-51590551D01*
X161405651Y-51490551D02*
X161405651Y-47540563D01*
X161405651Y-47540563D02*
X161745402Y-47540563D01*
X163035725Y-47540563D02*
X163495440Y-47540563D01*
X164785763Y-47540563D02*
X165145656Y-47540563D01*
X165145656Y-47540563D02*
X165145656Y-51590551D01*
D15*
X165045682Y-47710667D02*
G75*
G03*
X165045682Y-47710667I-29972J0D01*
G01*
D13*
G04 #@! TO.C,J140*
X132535534Y-77535534D02*
G75*
G03*
X132535534Y-77535534I-4000000J0D01*
G01*
D14*
G04 #@! TO.C,U165*
X168748933Y-149590551D02*
X168405651Y-149590551D01*
X170498920Y-149590551D02*
X170032296Y-149590551D01*
X172145656Y-149590551D02*
X171782334Y-149590551D01*
X168405651Y-149490551D02*
X168405651Y-145540563D01*
X168405651Y-145540563D02*
X168745402Y-145540563D01*
X170035725Y-145540563D02*
X170495440Y-145540563D01*
X171785763Y-145540563D02*
X172145656Y-145540563D01*
X172145656Y-145540563D02*
X172145656Y-149590551D01*
D15*
X172045682Y-145710667D02*
G75*
G03*
X172045682Y-145710667I-29972J0D01*
G01*
D14*
G04 #@! TO.C,P105*
X77865480Y-143645642D02*
X86665582Y-143645642D01*
X86665582Y-143645642D02*
X86665582Y-123345668D01*
X84932536Y-136035533D02*
X86710540Y-136035533D01*
X84932536Y-136035533D02*
X84932536Y-130955523D01*
X86710540Y-136035533D02*
X86634340Y-135984733D01*
X84932536Y-130955523D02*
X86685140Y-130955523D01*
X86685140Y-130955523D02*
X86634340Y-130955523D01*
X77865480Y-123345668D02*
X77865480Y-143645642D01*
X86665582Y-123345668D02*
X77865480Y-123345668D01*
D15*
X86695554Y-143645388D02*
G75*
G03*
X86695554Y-143645388I-29972J0D01*
G01*
D13*
G04 #@! TO.C,J133*
X146535534Y-91535534D02*
G75*
G03*
X146535534Y-91535534I-4000000J0D01*
G01*
D14*
G04 #@! TO.C,U172*
X161748933Y-135590551D02*
X161405651Y-135590551D01*
X163498920Y-135590551D02*
X163032296Y-135590551D01*
X165145656Y-135590551D02*
X164782334Y-135590551D01*
X161405651Y-135490551D02*
X161405651Y-131540563D01*
X161405651Y-131540563D02*
X161745402Y-131540563D01*
X163035725Y-131540563D02*
X163495440Y-131540563D01*
X164785763Y-131540563D02*
X165145656Y-131540563D01*
X165145656Y-131540563D02*
X165145656Y-135590551D01*
D15*
X165045682Y-131710667D02*
G75*
G03*
X165045682Y-131710667I-29972J0D01*
G01*
D16*
G04 #@! TO.C,U147*
X120846399Y-107636388D02*
X120846399Y-117688814D01*
X117803575Y-107636388D02*
X120846399Y-107636388D01*
X120846399Y-117688814D02*
X117803575Y-117688814D01*
X117803575Y-117688814D02*
X117803575Y-107636388D01*
D17*
X116808096Y-107455591D02*
G75*
G03*
X116808096Y-107455591I-150114J0D01*
G01*
D15*
X116354959Y-107712639D02*
G75*
G03*
X116354959Y-107712639I-29972J0D01*
G01*
D17*
X118705987Y-108217592D02*
G75*
G03*
X118705987Y-108217592I-150114J0D01*
G01*
D14*
G04 #@! TO.C,U171*
X161748933Y-121590551D02*
X161405651Y-121590551D01*
X163498920Y-121590551D02*
X163032296Y-121590551D01*
X165145656Y-121590551D02*
X164782334Y-121590551D01*
X161405651Y-121490551D02*
X161405651Y-117540563D01*
X161405651Y-117540563D02*
X161745402Y-117540563D01*
X163035725Y-117540563D02*
X163495440Y-117540563D01*
X164785763Y-117540563D02*
X165145656Y-117540563D01*
X165145656Y-117540563D02*
X165145656Y-121590551D01*
D15*
X165045682Y-117710667D02*
G75*
G03*
X165045682Y-117710667I-29972J0D01*
G01*
D16*
G04 #@! TO.C,U146*
X120846399Y-79344579D02*
X120846399Y-89397005D01*
X117803575Y-79344579D02*
X120846399Y-79344579D01*
X120846399Y-89397005D02*
X117803575Y-89397005D01*
X117803575Y-89397005D02*
X117803575Y-79344579D01*
D17*
X116808096Y-79163782D02*
G75*
G03*
X116808096Y-79163782I-150114J0D01*
G01*
D15*
X116354959Y-79420830D02*
G75*
G03*
X116354959Y-79420830I-29972J0D01*
G01*
D17*
X118705987Y-79925783D02*
G75*
G03*
X118705987Y-79925783I-150114J0D01*
G01*
D14*
G04 #@! TO.C,U157*
X175748933Y-149590551D02*
X175405651Y-149590551D01*
X177498920Y-149590551D02*
X177032296Y-149590551D01*
X179145656Y-149590551D02*
X178782334Y-149590551D01*
X175405651Y-149490551D02*
X175405651Y-145540563D01*
X175405651Y-145540563D02*
X175745402Y-145540563D01*
X177035725Y-145540563D02*
X177495440Y-145540563D01*
X178785763Y-145540563D02*
X179145656Y-145540563D01*
X179145656Y-145540563D02*
X179145656Y-149590551D01*
D15*
X179045682Y-145710667D02*
G75*
G03*
X179045682Y-145710667I-29972J0D01*
G01*
D13*
G04 #@! TO.C,J134*
X146535534Y-105535534D02*
G75*
G03*
X146535534Y-105535534I-4000000J0D01*
G01*
D14*
G04 #@! TO.C,U150*
X175748933Y-51590551D02*
X175405651Y-51590551D01*
X177498920Y-51590551D02*
X177032296Y-51590551D01*
X179145656Y-51590551D02*
X178782334Y-51590551D01*
X175405651Y-51490551D02*
X175405651Y-47540563D01*
X175405651Y-47540563D02*
X175745402Y-47540563D01*
X177035725Y-47540563D02*
X177495440Y-47540563D01*
X178785763Y-47540563D02*
X179145656Y-47540563D01*
X179145656Y-47540563D02*
X179145656Y-51590551D01*
D15*
X179045682Y-47710667D02*
G75*
G03*
X179045682Y-47710667I-29972J0D01*
G01*
G04 #@! TD*
M02*
