G04 #@! TF.GenerationSoftware,KiCad,Pcbnew,7.0.7*
G04 #@! TF.CreationDate,2023-10-09T21:47:46+02:00*
G04 #@! TF.ProjectId,Kaboom_box_top,4b61626f-6f6d-45f6-926f-785f746f702e,rev?*
G04 #@! TF.SameCoordinates,Original*
G04 #@! TF.FileFunction,Copper,L2,Bot*
G04 #@! TF.FilePolarity,Positive*
%FSLAX46Y46*%
G04 Gerber Fmt 4.6, Leading zero omitted, Abs format (unit mm)*
G04 Created by KiCad (PCBNEW 7.0.7) date 2023-10-09 21:47:46*
%MOMM*%
%LPD*%
G01*
G04 APERTURE LIST*
G04 #@! TA.AperFunction,ComponentPad*
%ADD10C,7.500000*%
G04 #@! TD*
G04 #@! TA.AperFunction,ComponentPad*
%ADD11C,1.524003*%
G04 #@! TD*
G04 #@! TA.AperFunction,ComponentPad*
%ADD12C,1.800000*%
G04 #@! TD*
G04 #@! TA.AperFunction,ViaPad*
%ADD13C,0.800000*%
G04 #@! TD*
G04 APERTURE END LIST*
D10*
G04 #@! TO.P,J136,1,Pin_1*
G04 #@! TO.N,Board_0-/Top/Shift_Parallel_to_Serial/J136*
X142535534Y-133535534D03*
G04 #@! TD*
G04 #@! TO.P,J137,1,Pin_1*
G04 #@! TO.N,Board_0-/Top/Shift_Parallel_to_Serial/J137*
X142535534Y-147535534D03*
G04 #@! TD*
G04 #@! TO.P,J135,1,Pin_1*
G04 #@! TO.N,Board_0-/Top/Shift_Parallel_to_Serial/J135*
X142535534Y-119535534D03*
G04 #@! TD*
G04 #@! TO.P,J155,1,Pin_1*
G04 #@! TO.N,Board_0-/Top/Shift_Parallel_to_Serial/J155*
X95535534Y-63535534D03*
G04 #@! TD*
D11*
G04 #@! TO.P,P101,1,1*
G04 #@! TO.N,Board_0-/Top/VDD*
X83535534Y-68615544D03*
G04 #@! TO.P,P101,2,2*
G04 #@! TO.N,Board_0-/Top/GND*
X80995528Y-68615544D03*
G04 #@! TO.P,P101,3,3*
G04 #@! TO.N,Board_0-/Top/VDD*
X83535534Y-66075539D03*
G04 #@! TO.P,P101,4,4*
G04 #@! TO.N,Board_0-/Top/GND*
X80995528Y-66075539D03*
G04 #@! TO.P,P101,5,5*
G04 #@! TO.N,Board_0-/Top/VDD*
X83535534Y-63535534D03*
G04 #@! TO.P,P101,6,6*
G04 #@! TO.N,Board_0-/Top/GND*
X80995528Y-63535534D03*
G04 #@! TO.P,P101,7,7*
G04 #@! TO.N,Board_0-/Top/VDD*
X83535534Y-60995529D03*
G04 #@! TO.P,P101,8,8*
G04 #@! TO.N,Board_0-/Top/GND*
X80995528Y-60995529D03*
G04 #@! TO.P,P101,9,9*
G04 #@! TO.N,Board_0-/Top/LED_DATA_IN*
X83535534Y-58455524D03*
G04 #@! TO.P,P101,10,10*
G04 #@! TO.N,Board_0-/Top/GND*
X80995528Y-58455524D03*
G04 #@! TD*
D12*
G04 #@! TO.P,U144,1,GND*
G04 #@! TO.N,Board_0-/Top/GND*
X212736068Y-94685521D03*
G04 #@! TO.P,U144,2,VCC*
G04 #@! TO.N,Board_0-/Top/+3.3V_OLED*
X212736068Y-97225526D03*
G04 #@! TO.P,U144,3,SCL*
G04 #@! TO.N,Board_0-/I2C_SCL_LID*
X212736068Y-99765532D03*
G04 #@! TO.P,U144,4,SDA*
G04 #@! TO.N,Board_0-/I2C1_SDA_LID*
X212736068Y-102305537D03*
G04 #@! TD*
D10*
G04 #@! TO.P,J139,1,Pin_1*
G04 #@! TO.N,Board_0-/Top/Shift_Parallel_to_Serial/J139*
X128535534Y-63535534D03*
G04 #@! TD*
G04 #@! TO.P,J154,1,Pin_1*
G04 #@! TO.N,Board_0-/Top/Shift_Parallel_to_Serial/J154*
X95535534Y-49535534D03*
G04 #@! TD*
G04 #@! TO.P,J138,1,Pin_1*
G04 #@! TO.N,Board_0-/Top/Shift_Parallel_to_Serial/J138*
X128535534Y-49535534D03*
G04 #@! TD*
G04 #@! TO.P,J156,1,Pin_1*
G04 #@! TO.N,Board_0-/Top/Shift_Parallel_to_Serial/J156*
X95535534Y-77535534D03*
G04 #@! TD*
G04 #@! TO.P,J131,1,Pin_1*
G04 #@! TO.N,Board_0-/Top/Shift_Parallel_to_Serial/J131*
X142535534Y-63535534D03*
G04 #@! TD*
G04 #@! TO.P,J132,1,Pin_1*
G04 #@! TO.N,Board_0-/Top/Shift_Parallel_to_Serial/J132*
X142535534Y-77535534D03*
G04 #@! TD*
G04 #@! TO.P,J151,1,Pin_1*
G04 #@! TO.N,Board_0-/Top/Shift_Parallel_to_Serial/J151*
X109535534Y-119535534D03*
G04 #@! TD*
G04 #@! TO.P,J150,1,Pin_1*
G04 #@! TO.N,Board_0-/Top/Shift_Parallel_to_Serial/J150*
X109535534Y-105535534D03*
G04 #@! TD*
G04 #@! TO.P,J144,1,Pin_1*
G04 #@! TO.N,Board_0-/Top/Shift_Parallel_to_Serial/J144*
X128535534Y-133535534D03*
G04 #@! TD*
G04 #@! TO.P,J157,1,Pin_1*
G04 #@! TO.N,Board_0-/Top/Shift_Parallel_to_Serial/J157*
X95535534Y-91535534D03*
G04 #@! TD*
G04 #@! TO.P,J147,1,Pin_1*
G04 #@! TO.N,Board_0-/Top/Shift_Parallel_to_Serial/J147*
X109535534Y-63535534D03*
G04 #@! TD*
G04 #@! TO.P,J152,1,Pin_1*
G04 #@! TO.N,Board_0-/Top/Shift_Parallel_to_Serial/J152*
X109535534Y-133535534D03*
G04 #@! TD*
D11*
G04 #@! TO.P,P103,1,1*
G04 #@! TO.N,Board_0-/Top/+3.3V_OLED*
X83535534Y-103575539D03*
G04 #@! TO.P,P103,2,2*
G04 #@! TO.N,Board_0-/Top/GND*
X80995528Y-103575539D03*
G04 #@! TO.P,P103,3,3*
G04 #@! TO.N,Board_0-/I2C1_SDA_LID*
X83535534Y-101035534D03*
G04 #@! TO.P,P103,4,4*
G04 #@! TO.N,Board_0-/Top/GND*
X80995528Y-101035534D03*
G04 #@! TO.P,P103,5,5*
G04 #@! TO.N,Board_0-/I2C_SCL_LID*
X83535534Y-98495529D03*
G04 #@! TO.P,P103,6,6*
G04 #@! TO.N,Board_0-/Top/GND*
X80995528Y-98495529D03*
G04 #@! TO.P,P103,7,7*
G04 #@! TO.N,Board_0-unconnected-(P103-Pad7)*
X83535534Y-95955524D03*
G04 #@! TO.P,P103,8,8*
G04 #@! TO.N,Board_0-/Top/GND*
X80995528Y-95955524D03*
G04 #@! TO.P,P103,9,9*
G04 #@! TO.N,Board_0-unconnected-(P103-Pad9)*
X83535534Y-93415519D03*
G04 #@! TO.P,P103,10,10*
G04 #@! TO.N,Board_0-/Top/GND*
X80995528Y-93415519D03*
G04 #@! TD*
D10*
G04 #@! TO.P,J145,1,Pin_1*
G04 #@! TO.N,Board_0-/Top/Shift_Parallel_to_Serial/J145*
X128535534Y-147535534D03*
G04 #@! TD*
G04 #@! TO.P,J143,1,Pin_1*
G04 #@! TO.N,Board_0-/Top/Shift_Parallel_to_Serial/J143*
X128535534Y-119535534D03*
G04 #@! TD*
G04 #@! TO.P,J148,1,Pin_1*
G04 #@! TO.N,Board_0-/Top/Shift_Parallel_to_Serial/J148*
X109535534Y-77535534D03*
G04 #@! TD*
G04 #@! TO.P,J142,1,Pin_1*
G04 #@! TO.N,Board_0-/Top/Shift_Parallel_to_Serial/J142*
X128535534Y-105535534D03*
G04 #@! TD*
G04 #@! TO.P,J149,1,Pin_1*
G04 #@! TO.N,Board_0-/Top/Shift_Parallel_to_Serial/J149*
X109535534Y-91535534D03*
G04 #@! TD*
G04 #@! TO.P,J146,1,Pin_1*
G04 #@! TO.N,Board_0-/Top/Shift_Parallel_to_Serial/J146*
X109535534Y-49535534D03*
G04 #@! TD*
G04 #@! TO.P,J141,1,Pin_1*
G04 #@! TO.N,Board_0-/Top/Shift_Parallel_to_Serial/J141*
X128535534Y-91535534D03*
G04 #@! TD*
G04 #@! TO.P,J153,1,Pin_1*
G04 #@! TO.N,Board_0-/Top/Shift_Parallel_to_Serial/J153*
X109535534Y-147535534D03*
G04 #@! TD*
G04 #@! TO.P,J130,1,Pin_1*
G04 #@! TO.N,Board_0-/Top/Shift_Parallel_to_Serial/J130*
X142535534Y-49535534D03*
G04 #@! TD*
G04 #@! TO.P,J158,1,Pin_1*
G04 #@! TO.N,Board_0-/Top/Shift_Parallel_to_Serial/J158*
X95535534Y-105535534D03*
G04 #@! TD*
G04 #@! TO.P,J140,1,Pin_1*
G04 #@! TO.N,Board_0-/Top/Shift_Parallel_to_Serial/J140*
X128535534Y-77535534D03*
G04 #@! TD*
D11*
G04 #@! TO.P,P105,1,1*
G04 #@! TO.N,Board_0-/Top/GND*
X83535534Y-138575538D03*
G04 #@! TO.P,P105,2,2*
G04 #@! TO.N,Board_0-/SPI0_TX_LID*
X80995528Y-138575538D03*
G04 #@! TO.P,P105,3,3*
G04 #@! TO.N,Board_0-/Top/GND*
X83535534Y-136035533D03*
G04 #@! TO.P,P105,4,4*
G04 #@! TO.N,Board_0-/SPI0_SCK_LID*
X80995528Y-136035533D03*
G04 #@! TO.P,P105,5,5*
G04 #@! TO.N,Board_0-/Top/GND*
X83535534Y-133495528D03*
G04 #@! TO.P,P105,6,6*
G04 #@! TO.N,Board_0-/SPI0_CSn_LID*
X80995528Y-133495528D03*
G04 #@! TO.P,P105,7,7*
G04 #@! TO.N,Board_0-/Top/GND*
X83535534Y-130955523D03*
G04 #@! TO.P,P105,8,8*
G04 #@! TO.N,Board_0-/SPI0_RX_LID*
X80995528Y-130955523D03*
G04 #@! TO.P,P105,9,9*
G04 #@! TO.N,Board_0-/Top/GND*
X83535534Y-128415518D03*
G04 #@! TO.P,P105,10,10*
G04 #@! TO.N,Board_0-/Top/+3.3V_SHIFT*
X80995528Y-128415518D03*
G04 #@! TD*
D10*
G04 #@! TO.P,J133,1,Pin_1*
G04 #@! TO.N,Board_0-/Top/Shift_Parallel_to_Serial/J133*
X142535534Y-91535534D03*
G04 #@! TD*
G04 #@! TO.P,J134,1,Pin_1*
G04 #@! TO.N,Board_0-/Top/Shift_Parallel_to_Serial/J134*
X142535534Y-105535534D03*
G04 #@! TD*
D13*
G04 #@! TO.N,Board_0-/Top/GND*
X178285534Y-68435534D03*
X151985534Y-69635534D03*
X120926679Y-166885534D03*
X157035534Y-67285534D03*
X123885534Y-136435534D03*
X200926679Y-166885534D03*
X150926679Y-126885534D03*
X178035534Y-110535534D03*
X188785534Y-40010534D03*
X100926679Y-166885534D03*
X178035534Y-109285534D03*
X121485534Y-48585534D03*
X164035534Y-54535534D03*
X100926679Y-46885534D03*
X190926679Y-66885534D03*
X210926679Y-76885534D03*
X110926679Y-166885534D03*
X116535534Y-90035534D03*
X90926679Y-136885534D03*
X165785534Y-148785534D03*
X171035534Y-110535534D03*
X120926679Y-146885534D03*
X164035534Y-124535534D03*
X190926679Y-116885534D03*
X171035534Y-53285534D03*
X130926679Y-86885534D03*
X164035534Y-137285534D03*
X171035534Y-109285534D03*
X121235534Y-76385534D03*
X110926679Y-36885534D03*
X200926679Y-116885534D03*
X157035534Y-110535534D03*
X200926679Y-86885534D03*
X220926679Y-66885534D03*
X174635534Y-71135534D03*
X157035534Y-95285534D03*
X160926679Y-166885534D03*
X200926679Y-76885534D03*
X190926679Y-166885534D03*
X160926679Y-116885534D03*
X100926679Y-36885534D03*
X171035534Y-137285534D03*
X178035534Y-81285534D03*
X121285534Y-132335534D03*
X170926679Y-166885534D03*
X220926679Y-56885534D03*
X190926679Y-126885534D03*
X79085534Y-150385534D03*
X200926679Y-156885534D03*
X171035534Y-138535534D03*
X114535534Y-88785534D03*
X180926679Y-66885534D03*
X200926679Y-46885534D03*
X164035534Y-53285534D03*
X78835534Y-111185534D03*
X190926679Y-46885534D03*
X130926679Y-96885534D03*
X180926679Y-46885534D03*
X110926679Y-86885534D03*
X220926679Y-46885534D03*
X120285534Y-53485534D03*
X200926679Y-126885534D03*
X100926679Y-116885534D03*
X90926679Y-36885534D03*
X171035534Y-123285534D03*
X153485534Y-71135534D03*
X200926679Y-56885534D03*
X180926679Y-76885534D03*
X164035534Y-138535534D03*
X180926679Y-166885534D03*
X220926679Y-96885534D03*
X191285534Y-43460534D03*
X160585534Y-71135534D03*
X178035534Y-95285534D03*
X80926679Y-46885534D03*
X80926679Y-76885534D03*
X100926679Y-106885534D03*
X140926679Y-56885534D03*
X164035534Y-82535534D03*
X200926679Y-106885534D03*
X171035534Y-95285534D03*
X171035534Y-82535534D03*
X121285534Y-104635534D03*
X150926679Y-36885534D03*
X164035534Y-95285534D03*
X100926679Y-66885534D03*
X92235534Y-161135534D03*
X171035534Y-151285534D03*
X210926679Y-56885534D03*
X160926679Y-46885534D03*
X210926679Y-166885534D03*
X171035534Y-67285534D03*
X220926679Y-136885534D03*
X100926679Y-146885534D03*
X100926679Y-96885534D03*
X130926679Y-166885534D03*
X167635534Y-72185534D03*
X157035534Y-82535534D03*
X170926679Y-36885534D03*
X150926679Y-166885534D03*
X200926679Y-96885534D03*
X180926679Y-56885534D03*
X190926679Y-106885534D03*
X190926679Y-56885534D03*
X220926679Y-126885534D03*
X157035534Y-109285534D03*
X220926679Y-156885534D03*
X210926679Y-66885534D03*
X174535534Y-129535534D03*
X200926679Y-36885534D03*
X188785534Y-43460534D03*
X210926679Y-146885534D03*
X167635534Y-71135534D03*
X190085534Y-43460534D03*
X188235534Y-156535534D03*
X178035534Y-53285534D03*
X220926679Y-146885534D03*
X178035534Y-123285534D03*
X180926679Y-86885534D03*
X180926679Y-96885534D03*
X220926679Y-106885534D03*
X114585534Y-144785534D03*
X160926679Y-36885534D03*
X178035534Y-67285534D03*
X203835534Y-140585534D03*
X179785534Y-148785534D03*
X140926679Y-96885534D03*
X193335534Y-41710534D03*
X178035534Y-82535534D03*
X157185534Y-68435534D03*
X210926679Y-156885534D03*
X171035534Y-96535534D03*
X146435534Y-112035534D03*
X90926679Y-86885534D03*
X82185534Y-113085534D03*
X147035534Y-140435534D03*
X171085534Y-124485534D03*
X210926679Y-46885534D03*
X213035534Y-106285534D03*
X178135534Y-124535534D03*
X190926679Y-76885534D03*
X220926679Y-76885534D03*
X210926679Y-36885534D03*
X140926679Y-86885534D03*
X164035534Y-109285534D03*
X174685534Y-72285534D03*
X220926679Y-116885534D03*
X110926679Y-96885534D03*
X190926679Y-146885534D03*
X171035534Y-81285534D03*
X180926679Y-36885534D03*
X191285534Y-40010534D03*
X164035534Y-67285534D03*
X178035534Y-138535534D03*
X90926679Y-116885534D03*
X180926679Y-146885534D03*
X116585534Y-146035534D03*
X120035534Y-50035534D03*
X80926679Y-86885534D03*
X100926679Y-76885534D03*
X178035534Y-54535534D03*
X157035534Y-96535534D03*
X180926679Y-136885534D03*
X160285534Y-129535534D03*
X178035534Y-137285534D03*
X193335534Y-42710534D03*
X80926679Y-36885534D03*
X200926679Y-66885534D03*
X130926679Y-36885534D03*
X123935534Y-108385534D03*
X123835534Y-80535534D03*
X164235534Y-68385534D03*
X140926679Y-166885534D03*
X200926679Y-136885534D03*
X180926679Y-126885534D03*
X116785534Y-62285534D03*
X220926679Y-36885534D03*
X190085534Y-40010534D03*
X220926679Y-166885534D03*
X116535534Y-118285534D03*
X180926679Y-106885534D03*
X160635534Y-72235534D03*
X114785534Y-61035534D03*
X164035534Y-151285534D03*
X190926679Y-136885534D03*
X178035534Y-96535534D03*
X164035534Y-81285534D03*
X164035534Y-110535534D03*
X157035534Y-53285534D03*
X114535534Y-117035534D03*
X80926679Y-156885534D03*
X167535534Y-129535534D03*
X213735534Y-127935534D03*
X140926679Y-36885534D03*
X171035534Y-54535534D03*
X220926679Y-86885534D03*
X178035534Y-151285534D03*
X210926679Y-96885534D03*
X171135534Y-68435534D03*
X190926679Y-36885534D03*
X164035534Y-123285534D03*
X193285534Y-40710534D03*
X180926679Y-116885534D03*
X172785534Y-148785534D03*
X190926679Y-96885534D03*
X164035534Y-96535534D03*
X157035534Y-81285534D03*
X120926679Y-36885534D03*
X157035534Y-54535534D03*
G04 #@! TD*
G04 #@! TA.AperFunction,Conductor*
G04 #@! TO.N,Board_0-/Top/GND*
G36*
X83057598Y-136262427D02*
G01*
X83113532Y-136304298D01*
X83118573Y-136311558D01*
X83118582Y-136311572D01*
X83153773Y-136366331D01*
X83269136Y-136466292D01*
X83266827Y-136468955D01*
X83301540Y-136509032D01*
X83311469Y-136578193D01*
X83282432Y-136641743D01*
X83276416Y-136648202D01*
X82837344Y-137087273D01*
X82902125Y-137132634D01*
X82902127Y-137132635D01*
X83031909Y-137193153D01*
X83084349Y-137239325D01*
X83103501Y-137306518D01*
X83083286Y-137373399D01*
X83031910Y-137417917D01*
X82902123Y-137478437D01*
X82837344Y-137523796D01*
X83276417Y-137962868D01*
X83309902Y-138024191D01*
X83304918Y-138093882D01*
X83267892Y-138143343D01*
X83269136Y-138144779D01*
X83153772Y-138244740D01*
X83118580Y-138299500D01*
X83065776Y-138345255D01*
X82996617Y-138355198D01*
X82933062Y-138326172D01*
X82926584Y-138320141D01*
X82483792Y-137877348D01*
X82438433Y-137942127D01*
X82378188Y-138071323D01*
X82332015Y-138123762D01*
X82264821Y-138142914D01*
X82197940Y-138122698D01*
X82153424Y-138071322D01*
X82105835Y-137969267D01*
X82093063Y-137941876D01*
X82093061Y-137941873D01*
X82093060Y-137941871D01*
X81966358Y-137760922D01*
X81966353Y-137760916D01*
X81810149Y-137604712D01*
X81810143Y-137604707D01*
X81629194Y-137478005D01*
X81629190Y-137478003D01*
X81500335Y-137417917D01*
X81447896Y-137371745D01*
X81428744Y-137304551D01*
X81448960Y-137237670D01*
X81500335Y-137193153D01*
X81629190Y-137133068D01*
X81810148Y-137006360D01*
X81966355Y-136850153D01*
X82093063Y-136669195D01*
X82153426Y-136539743D01*
X82199595Y-136487309D01*
X82266789Y-136468156D01*
X82333670Y-136488371D01*
X82378188Y-136539747D01*
X82438433Y-136668943D01*
X82438435Y-136668947D01*
X82483791Y-136733721D01*
X82926584Y-136290928D01*
X82987907Y-136257443D01*
X83057598Y-136262427D01*
G37*
G04 #@! TD.AperFunction*
G04 #@! TA.AperFunction,Conductor*
G36*
X83057598Y-133722422D02*
G01*
X83113532Y-133764293D01*
X83118573Y-133771553D01*
X83118582Y-133771567D01*
X83153773Y-133826326D01*
X83269136Y-133926287D01*
X83266827Y-133928950D01*
X83301540Y-133969027D01*
X83311469Y-134038188D01*
X83282432Y-134101738D01*
X83276416Y-134108197D01*
X82837344Y-134547268D01*
X82902125Y-134592629D01*
X82902127Y-134592630D01*
X83031909Y-134653148D01*
X83084349Y-134699320D01*
X83103501Y-134766513D01*
X83083286Y-134833394D01*
X83031910Y-134877912D01*
X82902123Y-134938432D01*
X82837344Y-134983791D01*
X83276417Y-135422863D01*
X83309902Y-135484186D01*
X83304918Y-135553877D01*
X83267892Y-135603338D01*
X83269136Y-135604774D01*
X83153772Y-135704735D01*
X83118580Y-135759495D01*
X83065776Y-135805250D01*
X82996617Y-135815193D01*
X82933062Y-135786167D01*
X82926584Y-135780136D01*
X82483792Y-135337343D01*
X82438433Y-135402122D01*
X82378188Y-135531318D01*
X82332015Y-135583757D01*
X82264821Y-135602909D01*
X82197940Y-135582693D01*
X82153424Y-135531317D01*
X82132032Y-135485442D01*
X82093063Y-135401871D01*
X82093061Y-135401868D01*
X82093060Y-135401866D01*
X81966358Y-135220917D01*
X81966353Y-135220911D01*
X81810149Y-135064707D01*
X81810143Y-135064702D01*
X81629194Y-134938000D01*
X81629190Y-134937998D01*
X81500335Y-134877912D01*
X81447896Y-134831740D01*
X81428744Y-134764546D01*
X81448960Y-134697665D01*
X81500335Y-134653148D01*
X81629190Y-134593063D01*
X81810148Y-134466355D01*
X81966355Y-134310148D01*
X82093063Y-134129190D01*
X82153426Y-133999738D01*
X82199595Y-133947304D01*
X82266789Y-133928151D01*
X82333670Y-133948366D01*
X82378188Y-133999742D01*
X82438433Y-134128938D01*
X82438435Y-134128942D01*
X82483791Y-134193716D01*
X82926584Y-133750923D01*
X82987907Y-133717438D01*
X83057598Y-133722422D01*
G37*
G04 #@! TD.AperFunction*
G04 #@! TA.AperFunction,Conductor*
G36*
X83057598Y-131182417D02*
G01*
X83113532Y-131224288D01*
X83118573Y-131231548D01*
X83120749Y-131234934D01*
X83153773Y-131286321D01*
X83269136Y-131386282D01*
X83266827Y-131388945D01*
X83301540Y-131429022D01*
X83311469Y-131498183D01*
X83282432Y-131561733D01*
X83276416Y-131568192D01*
X82837344Y-132007263D01*
X82902125Y-132052624D01*
X82902127Y-132052625D01*
X83031909Y-132113143D01*
X83084349Y-132159315D01*
X83103501Y-132226508D01*
X83083286Y-132293389D01*
X83031910Y-132337907D01*
X82902123Y-132398427D01*
X82837344Y-132443786D01*
X83276417Y-132882858D01*
X83309902Y-132944181D01*
X83304918Y-133013872D01*
X83267892Y-133063333D01*
X83269136Y-133064769D01*
X83153772Y-133164730D01*
X83118580Y-133219490D01*
X83065776Y-133265245D01*
X82996617Y-133275188D01*
X82933062Y-133246162D01*
X82926584Y-133240131D01*
X82483792Y-132797338D01*
X82438433Y-132862117D01*
X82378188Y-132991313D01*
X82332015Y-133043752D01*
X82264821Y-133062904D01*
X82197940Y-133042688D01*
X82153424Y-132991312D01*
X82105835Y-132889257D01*
X82093063Y-132861866D01*
X82093061Y-132861863D01*
X82093060Y-132861861D01*
X81966358Y-132680912D01*
X81966353Y-132680906D01*
X81810149Y-132524702D01*
X81810143Y-132524697D01*
X81629194Y-132397995D01*
X81629190Y-132397993D01*
X81500335Y-132337907D01*
X81447896Y-132291735D01*
X81428744Y-132224541D01*
X81448960Y-132157660D01*
X81500335Y-132113143D01*
X81629190Y-132053058D01*
X81810148Y-131926350D01*
X81966355Y-131770143D01*
X82093063Y-131589185D01*
X82153426Y-131459733D01*
X82199595Y-131407299D01*
X82266789Y-131388146D01*
X82333670Y-131408361D01*
X82378188Y-131459737D01*
X82438433Y-131588933D01*
X82438435Y-131588937D01*
X82483791Y-131653711D01*
X82926584Y-131210918D01*
X82987907Y-131177433D01*
X83057598Y-131182417D01*
G37*
G04 #@! TD.AperFunction*
G04 #@! TA.AperFunction,Conductor*
G36*
X83057598Y-128642412D02*
G01*
X83113532Y-128684283D01*
X83118573Y-128691543D01*
X83118582Y-128691557D01*
X83153773Y-128746316D01*
X83269136Y-128846277D01*
X83266827Y-128848940D01*
X83301540Y-128889017D01*
X83311469Y-128958178D01*
X83282432Y-129021728D01*
X83276416Y-129028187D01*
X82837344Y-129467258D01*
X82902125Y-129512619D01*
X82902127Y-129512620D01*
X83031909Y-129573138D01*
X83084349Y-129619310D01*
X83103501Y-129686503D01*
X83083286Y-129753384D01*
X83031910Y-129797902D01*
X82902123Y-129858422D01*
X82837344Y-129903781D01*
X83276417Y-130342853D01*
X83309902Y-130404176D01*
X83304918Y-130473867D01*
X83267892Y-130523328D01*
X83269136Y-130524764D01*
X83153772Y-130624725D01*
X83118580Y-130679485D01*
X83065776Y-130725240D01*
X82996617Y-130735183D01*
X82933062Y-130706157D01*
X82926584Y-130700126D01*
X82483792Y-130257333D01*
X82438433Y-130322112D01*
X82378188Y-130451308D01*
X82332015Y-130503747D01*
X82264821Y-130522899D01*
X82197940Y-130502683D01*
X82153424Y-130451307D01*
X82105835Y-130349252D01*
X82093063Y-130321861D01*
X82093061Y-130321858D01*
X82093060Y-130321856D01*
X81966358Y-130140907D01*
X81966353Y-130140901D01*
X81810149Y-129984697D01*
X81810143Y-129984692D01*
X81629194Y-129857990D01*
X81629190Y-129857988D01*
X81500335Y-129797902D01*
X81447896Y-129751730D01*
X81428744Y-129684536D01*
X81448960Y-129617655D01*
X81500335Y-129573138D01*
X81629190Y-129513053D01*
X81810148Y-129386345D01*
X81966355Y-129230138D01*
X82093063Y-129049180D01*
X82153426Y-128919728D01*
X82199595Y-128867294D01*
X82266789Y-128848141D01*
X82333670Y-128868356D01*
X82378188Y-128919732D01*
X82438433Y-129048928D01*
X82438435Y-129048932D01*
X82483791Y-129113706D01*
X82926584Y-128670913D01*
X82987907Y-128637428D01*
X83057598Y-128642412D01*
G37*
G04 #@! TD.AperFunction*
G04 #@! TA.AperFunction,Conductor*
G36*
X81597998Y-101284897D02*
G01*
X81604477Y-101290930D01*
X82047268Y-101733721D01*
X82092630Y-101668940D01*
X82152873Y-101539749D01*
X82199045Y-101487309D01*
X82266238Y-101468157D01*
X82333119Y-101488372D01*
X82377637Y-101539749D01*
X82437997Y-101669192D01*
X82438001Y-101669200D01*
X82564703Y-101850149D01*
X82564708Y-101850155D01*
X82720912Y-102006359D01*
X82720918Y-102006364D01*
X82901867Y-102133066D01*
X82901869Y-102133067D01*
X82901872Y-102133069D01*
X83002957Y-102180205D01*
X83030725Y-102193154D01*
X83083165Y-102239326D01*
X83102317Y-102306519D01*
X83082101Y-102373401D01*
X83030726Y-102417918D01*
X82901871Y-102478004D01*
X82901867Y-102478006D01*
X82720918Y-102604708D01*
X82720912Y-102604713D01*
X82564708Y-102760917D01*
X82564703Y-102760923D01*
X82438001Y-102941872D01*
X82437999Y-102941876D01*
X82377637Y-103071324D01*
X82331465Y-103123763D01*
X82264271Y-103142915D01*
X82197390Y-103122699D01*
X82152873Y-103071323D01*
X82092630Y-102942132D01*
X82092629Y-102942130D01*
X82047268Y-102877350D01*
X81604477Y-103320141D01*
X81543154Y-103353626D01*
X81473462Y-103348642D01*
X81417529Y-103306770D01*
X81412481Y-103299500D01*
X81377289Y-103244741D01*
X81261926Y-103144780D01*
X81264226Y-103142124D01*
X81229488Y-103101967D01*
X81219602Y-103032800D01*
X81248680Y-102969268D01*
X81254644Y-102962868D01*
X81693716Y-102523796D01*
X81628942Y-102478440D01*
X81628938Y-102478438D01*
X81499152Y-102417918D01*
X81446713Y-102371746D01*
X81427561Y-102304552D01*
X81447777Y-102237671D01*
X81499153Y-102193154D01*
X81628934Y-102132636D01*
X81693715Y-102087274D01*
X81254644Y-101648203D01*
X81221159Y-101586880D01*
X81226143Y-101517188D01*
X81263169Y-101467727D01*
X81261926Y-101466293D01*
X81289519Y-101442384D01*
X81377289Y-101366332D01*
X81412482Y-101311571D01*
X81465283Y-101265817D01*
X81534442Y-101255873D01*
X81597998Y-101284897D01*
G37*
G04 #@! TD.AperFunction*
G04 #@! TA.AperFunction,Conductor*
G36*
X81597998Y-98744892D02*
G01*
X81604477Y-98750925D01*
X82047268Y-99193716D01*
X82092630Y-99128935D01*
X82152873Y-98999744D01*
X82199045Y-98947304D01*
X82266238Y-98928152D01*
X82333119Y-98948367D01*
X82377637Y-98999744D01*
X82437997Y-99129187D01*
X82438001Y-99129195D01*
X82564703Y-99310144D01*
X82564708Y-99310150D01*
X82720912Y-99466354D01*
X82720918Y-99466359D01*
X82901867Y-99593061D01*
X82901869Y-99593062D01*
X82901872Y-99593064D01*
X83002957Y-99640200D01*
X83030725Y-99653149D01*
X83083165Y-99699321D01*
X83102317Y-99766514D01*
X83082101Y-99833396D01*
X83030726Y-99877913D01*
X82901871Y-99937999D01*
X82901867Y-99938001D01*
X82720918Y-100064703D01*
X82720912Y-100064708D01*
X82564708Y-100220912D01*
X82564703Y-100220918D01*
X82438001Y-100401867D01*
X82437999Y-100401871D01*
X82377637Y-100531319D01*
X82331465Y-100583758D01*
X82264271Y-100602910D01*
X82197390Y-100582694D01*
X82152873Y-100531318D01*
X82092630Y-100402127D01*
X82092629Y-100402125D01*
X82047268Y-100337345D01*
X81604477Y-100780136D01*
X81543154Y-100813621D01*
X81473462Y-100808637D01*
X81417529Y-100766765D01*
X81412481Y-100759495D01*
X81377289Y-100704736D01*
X81261926Y-100604775D01*
X81264226Y-100602119D01*
X81229488Y-100561962D01*
X81219602Y-100492795D01*
X81248680Y-100429263D01*
X81254644Y-100422863D01*
X81693716Y-99983791D01*
X81628942Y-99938435D01*
X81628938Y-99938433D01*
X81499152Y-99877913D01*
X81446713Y-99831741D01*
X81427561Y-99764547D01*
X81447777Y-99697666D01*
X81499153Y-99653149D01*
X81628934Y-99592631D01*
X81693715Y-99547269D01*
X81254644Y-99108198D01*
X81221159Y-99046875D01*
X81226143Y-98977183D01*
X81263169Y-98927722D01*
X81261926Y-98926288D01*
X81289519Y-98902379D01*
X81377289Y-98826327D01*
X81412482Y-98771566D01*
X81465283Y-98725812D01*
X81534442Y-98715868D01*
X81597998Y-98744892D01*
G37*
G04 #@! TD.AperFunction*
G04 #@! TA.AperFunction,Conductor*
G36*
X81597998Y-96204887D02*
G01*
X81604477Y-96210920D01*
X82047268Y-96653711D01*
X82092630Y-96588930D01*
X82152873Y-96459739D01*
X82199045Y-96407299D01*
X82266238Y-96388147D01*
X82333119Y-96408362D01*
X82377637Y-96459739D01*
X82437997Y-96589182D01*
X82438001Y-96589190D01*
X82564703Y-96770139D01*
X82564708Y-96770145D01*
X82720912Y-96926349D01*
X82720918Y-96926354D01*
X82901867Y-97053056D01*
X82901869Y-97053057D01*
X82901872Y-97053059D01*
X83002957Y-97100195D01*
X83030725Y-97113144D01*
X83083165Y-97159316D01*
X83102317Y-97226509D01*
X83082101Y-97293391D01*
X83030726Y-97337908D01*
X82901871Y-97397994D01*
X82901867Y-97397996D01*
X82720918Y-97524698D01*
X82720912Y-97524703D01*
X82564708Y-97680907D01*
X82564703Y-97680913D01*
X82438001Y-97861862D01*
X82437999Y-97861866D01*
X82377637Y-97991314D01*
X82331465Y-98043753D01*
X82264271Y-98062905D01*
X82197390Y-98042689D01*
X82152873Y-97991313D01*
X82092630Y-97862122D01*
X82092629Y-97862120D01*
X82047268Y-97797340D01*
X81604477Y-98240131D01*
X81543154Y-98273616D01*
X81473462Y-98268632D01*
X81417529Y-98226760D01*
X81412481Y-98219490D01*
X81377289Y-98164731D01*
X81261926Y-98064770D01*
X81264226Y-98062114D01*
X81229488Y-98021957D01*
X81219602Y-97952790D01*
X81248680Y-97889258D01*
X81254644Y-97882858D01*
X81693716Y-97443786D01*
X81628942Y-97398430D01*
X81628938Y-97398428D01*
X81499152Y-97337908D01*
X81446713Y-97291736D01*
X81427561Y-97224542D01*
X81447777Y-97157661D01*
X81499153Y-97113144D01*
X81628934Y-97052626D01*
X81693715Y-97007264D01*
X81254644Y-96568193D01*
X81221159Y-96506870D01*
X81226143Y-96437178D01*
X81263169Y-96387717D01*
X81261926Y-96386283D01*
X81289520Y-96362373D01*
X81377289Y-96286322D01*
X81412482Y-96231561D01*
X81465283Y-96185807D01*
X81534442Y-96175863D01*
X81597998Y-96204887D01*
G37*
G04 #@! TD.AperFunction*
G04 #@! TA.AperFunction,Conductor*
G36*
X81597998Y-93664882D02*
G01*
X81604477Y-93670915D01*
X82047268Y-94113706D01*
X82092630Y-94048925D01*
X82152873Y-93919734D01*
X82199045Y-93867294D01*
X82266238Y-93848142D01*
X82333119Y-93868357D01*
X82377637Y-93919734D01*
X82437997Y-94049177D01*
X82438001Y-94049185D01*
X82564703Y-94230134D01*
X82564708Y-94230140D01*
X82720912Y-94386344D01*
X82720918Y-94386349D01*
X82901867Y-94513051D01*
X82901869Y-94513052D01*
X82901872Y-94513054D01*
X83002957Y-94560190D01*
X83030725Y-94573139D01*
X83083165Y-94619311D01*
X83102317Y-94686504D01*
X83082101Y-94753386D01*
X83030726Y-94797903D01*
X82901871Y-94857989D01*
X82901867Y-94857991D01*
X82720918Y-94984693D01*
X82720912Y-94984698D01*
X82564708Y-95140902D01*
X82564703Y-95140908D01*
X82438001Y-95321857D01*
X82437999Y-95321861D01*
X82377637Y-95451309D01*
X82331465Y-95503748D01*
X82264271Y-95522900D01*
X82197390Y-95502684D01*
X82152873Y-95451308D01*
X82092630Y-95322117D01*
X82092629Y-95322115D01*
X82047268Y-95257335D01*
X81604477Y-95700126D01*
X81543154Y-95733611D01*
X81473462Y-95728627D01*
X81417529Y-95686755D01*
X81412481Y-95679485D01*
X81377289Y-95624726D01*
X81261926Y-95524765D01*
X81264226Y-95522109D01*
X81229488Y-95481952D01*
X81219602Y-95412785D01*
X81248680Y-95349253D01*
X81254644Y-95342853D01*
X81693716Y-94903781D01*
X81628942Y-94858425D01*
X81628938Y-94858423D01*
X81499152Y-94797903D01*
X81446713Y-94751731D01*
X81427561Y-94684537D01*
X81447777Y-94617656D01*
X81499153Y-94573139D01*
X81628934Y-94512621D01*
X81693715Y-94467259D01*
X81254644Y-94028188D01*
X81221159Y-93966865D01*
X81226143Y-93897173D01*
X81263169Y-93847712D01*
X81261926Y-93846278D01*
X81273639Y-93836129D01*
X81377289Y-93746317D01*
X81412482Y-93691556D01*
X81465283Y-93645802D01*
X81534442Y-93635858D01*
X81597998Y-93664882D01*
G37*
G04 #@! TD.AperFunction*
G04 #@! TA.AperFunction,Conductor*
G36*
X81597998Y-66324902D02*
G01*
X81604477Y-66330935D01*
X82047268Y-66773726D01*
X82092630Y-66708945D01*
X82152873Y-66579754D01*
X82199045Y-66527314D01*
X82266238Y-66508162D01*
X82333119Y-66528377D01*
X82377637Y-66579754D01*
X82437997Y-66709197D01*
X82438001Y-66709205D01*
X82564703Y-66890154D01*
X82564708Y-66890160D01*
X82720912Y-67046364D01*
X82720918Y-67046369D01*
X82901867Y-67173071D01*
X82901869Y-67173072D01*
X82901872Y-67173074D01*
X83002957Y-67220210D01*
X83030725Y-67233159D01*
X83083165Y-67279331D01*
X83102317Y-67346524D01*
X83082101Y-67413406D01*
X83030726Y-67457923D01*
X82901871Y-67518009D01*
X82901867Y-67518011D01*
X82720918Y-67644713D01*
X82720912Y-67644718D01*
X82564708Y-67800922D01*
X82564703Y-67800928D01*
X82438001Y-67981877D01*
X82437999Y-67981881D01*
X82377637Y-68111329D01*
X82331465Y-68163768D01*
X82264271Y-68182920D01*
X82197390Y-68162704D01*
X82152873Y-68111328D01*
X82092630Y-67982137D01*
X82092629Y-67982135D01*
X82047268Y-67917355D01*
X81604477Y-68360146D01*
X81543154Y-68393631D01*
X81473462Y-68388647D01*
X81417529Y-68346775D01*
X81412481Y-68339505D01*
X81377289Y-68284746D01*
X81261926Y-68184785D01*
X81264226Y-68182129D01*
X81229488Y-68141972D01*
X81219602Y-68072805D01*
X81248680Y-68009273D01*
X81254644Y-68002873D01*
X81693716Y-67563801D01*
X81628942Y-67518445D01*
X81628938Y-67518443D01*
X81499152Y-67457923D01*
X81446713Y-67411751D01*
X81427561Y-67344557D01*
X81447777Y-67277676D01*
X81499153Y-67233159D01*
X81628934Y-67172641D01*
X81693715Y-67127279D01*
X81254644Y-66688208D01*
X81221159Y-66626885D01*
X81226143Y-66557193D01*
X81263169Y-66507732D01*
X81261926Y-66506298D01*
X81301459Y-66472043D01*
X81377289Y-66406337D01*
X81412482Y-66351576D01*
X81465283Y-66305822D01*
X81534442Y-66295878D01*
X81597998Y-66324902D01*
G37*
G04 #@! TD.AperFunction*
G04 #@! TA.AperFunction,Conductor*
G36*
X81597998Y-63784897D02*
G01*
X81604477Y-63790930D01*
X82047268Y-64233721D01*
X82092630Y-64168940D01*
X82152873Y-64039749D01*
X82199045Y-63987309D01*
X82266238Y-63968157D01*
X82333119Y-63988372D01*
X82377637Y-64039749D01*
X82437997Y-64169192D01*
X82438001Y-64169200D01*
X82564703Y-64350149D01*
X82564708Y-64350155D01*
X82720912Y-64506359D01*
X82720918Y-64506364D01*
X82901867Y-64633066D01*
X82901869Y-64633067D01*
X82901872Y-64633069D01*
X83002957Y-64680205D01*
X83030725Y-64693154D01*
X83083165Y-64739326D01*
X83102317Y-64806519D01*
X83082101Y-64873401D01*
X83030726Y-64917918D01*
X82901871Y-64978004D01*
X82901867Y-64978006D01*
X82720918Y-65104708D01*
X82720912Y-65104713D01*
X82564708Y-65260917D01*
X82564703Y-65260923D01*
X82438001Y-65441872D01*
X82437999Y-65441876D01*
X82377637Y-65571324D01*
X82331465Y-65623763D01*
X82264271Y-65642915D01*
X82197390Y-65622699D01*
X82152873Y-65571323D01*
X82092630Y-65442132D01*
X82092629Y-65442130D01*
X82047268Y-65377350D01*
X81604477Y-65820141D01*
X81543154Y-65853626D01*
X81473462Y-65848642D01*
X81417529Y-65806770D01*
X81412481Y-65799500D01*
X81377289Y-65744741D01*
X81261926Y-65644780D01*
X81264226Y-65642124D01*
X81229488Y-65601967D01*
X81219602Y-65532800D01*
X81248680Y-65469268D01*
X81254644Y-65462868D01*
X81693716Y-65023796D01*
X81628942Y-64978440D01*
X81628938Y-64978438D01*
X81499152Y-64917918D01*
X81446713Y-64871746D01*
X81427561Y-64804552D01*
X81447777Y-64737671D01*
X81499153Y-64693154D01*
X81628934Y-64632636D01*
X81693715Y-64587274D01*
X81254644Y-64148203D01*
X81221159Y-64086880D01*
X81226143Y-64017188D01*
X81263169Y-63967727D01*
X81261926Y-63966293D01*
X81292238Y-63940028D01*
X81377289Y-63866332D01*
X81412482Y-63811571D01*
X81465283Y-63765817D01*
X81534442Y-63755873D01*
X81597998Y-63784897D01*
G37*
G04 #@! TD.AperFunction*
G04 #@! TA.AperFunction,Conductor*
G36*
X81597998Y-61244892D02*
G01*
X81604477Y-61250925D01*
X82047268Y-61693716D01*
X82092630Y-61628935D01*
X82152873Y-61499744D01*
X82199045Y-61447304D01*
X82266238Y-61428152D01*
X82333119Y-61448367D01*
X82377637Y-61499744D01*
X82437997Y-61629187D01*
X82438001Y-61629195D01*
X82564703Y-61810144D01*
X82564708Y-61810150D01*
X82720912Y-61966354D01*
X82720918Y-61966359D01*
X82901867Y-62093061D01*
X82901869Y-62093062D01*
X82901872Y-62093064D01*
X83002957Y-62140200D01*
X83030725Y-62153149D01*
X83083165Y-62199321D01*
X83102317Y-62266514D01*
X83082101Y-62333396D01*
X83030726Y-62377913D01*
X82901871Y-62437999D01*
X82901867Y-62438001D01*
X82720918Y-62564703D01*
X82720912Y-62564708D01*
X82564708Y-62720912D01*
X82564703Y-62720918D01*
X82438001Y-62901867D01*
X82437999Y-62901871D01*
X82377637Y-63031319D01*
X82331465Y-63083758D01*
X82264271Y-63102910D01*
X82197390Y-63082694D01*
X82152873Y-63031318D01*
X82092630Y-62902127D01*
X82092629Y-62902125D01*
X82047268Y-62837345D01*
X81604477Y-63280136D01*
X81543154Y-63313621D01*
X81473462Y-63308637D01*
X81417529Y-63266765D01*
X81412481Y-63259495D01*
X81377289Y-63204736D01*
X81261926Y-63104775D01*
X81264226Y-63102119D01*
X81229488Y-63061962D01*
X81219602Y-62992795D01*
X81248680Y-62929263D01*
X81254644Y-62922863D01*
X81693716Y-62483791D01*
X81628942Y-62438435D01*
X81628938Y-62438433D01*
X81499152Y-62377913D01*
X81446713Y-62331741D01*
X81427561Y-62264547D01*
X81447777Y-62197666D01*
X81499153Y-62153149D01*
X81628934Y-62092631D01*
X81693715Y-62047269D01*
X81254644Y-61608198D01*
X81221159Y-61546875D01*
X81226143Y-61477183D01*
X81263169Y-61427722D01*
X81261926Y-61426288D01*
X81268628Y-61420481D01*
X81377289Y-61326327D01*
X81412482Y-61271566D01*
X81465283Y-61225812D01*
X81534442Y-61215868D01*
X81597998Y-61244892D01*
G37*
G04 #@! TD.AperFunction*
G04 #@! TA.AperFunction,Conductor*
G36*
X81597998Y-58704887D02*
G01*
X81604477Y-58710920D01*
X82047268Y-59153711D01*
X82092630Y-59088930D01*
X82152873Y-58959739D01*
X82199045Y-58907299D01*
X82266238Y-58888147D01*
X82333119Y-58908362D01*
X82377637Y-58959739D01*
X82437997Y-59089182D01*
X82438001Y-59089190D01*
X82564703Y-59270139D01*
X82564708Y-59270145D01*
X82720912Y-59426349D01*
X82720918Y-59426354D01*
X82901867Y-59553056D01*
X82901869Y-59553057D01*
X82901872Y-59553059D01*
X83002957Y-59600195D01*
X83030725Y-59613144D01*
X83083165Y-59659316D01*
X83102317Y-59726509D01*
X83082101Y-59793391D01*
X83030726Y-59837908D01*
X82901871Y-59897994D01*
X82901867Y-59897996D01*
X82720918Y-60024698D01*
X82720912Y-60024703D01*
X82564708Y-60180907D01*
X82564703Y-60180913D01*
X82438001Y-60361862D01*
X82437999Y-60361866D01*
X82377637Y-60491314D01*
X82331465Y-60543753D01*
X82264271Y-60562905D01*
X82197390Y-60542689D01*
X82152873Y-60491313D01*
X82092630Y-60362122D01*
X82092629Y-60362120D01*
X82047268Y-60297340D01*
X81604477Y-60740131D01*
X81543154Y-60773616D01*
X81473462Y-60768632D01*
X81417529Y-60726760D01*
X81412481Y-60719490D01*
X81377289Y-60664731D01*
X81377288Y-60664730D01*
X81268628Y-60570577D01*
X81268627Y-60570576D01*
X81261926Y-60564770D01*
X81264226Y-60562114D01*
X81229488Y-60521957D01*
X81219602Y-60452790D01*
X81248680Y-60389258D01*
X81254644Y-60382858D01*
X81693716Y-59943786D01*
X81628942Y-59898430D01*
X81628938Y-59898428D01*
X81499152Y-59837908D01*
X81446713Y-59791736D01*
X81427561Y-59724542D01*
X81447777Y-59657661D01*
X81499153Y-59613144D01*
X81628934Y-59552626D01*
X81693715Y-59507264D01*
X81254644Y-59068193D01*
X81221159Y-59006870D01*
X81226143Y-58937178D01*
X81263169Y-58887717D01*
X81261926Y-58886283D01*
X81268628Y-58880476D01*
X81377289Y-58786322D01*
X81412482Y-58731561D01*
X81465283Y-58685807D01*
X81534442Y-58675863D01*
X81597998Y-58704887D01*
G37*
G04 #@! TD.AperFunction*
G04 #@! TA.AperFunction,Conductor*
G36*
X219934111Y-30500501D02*
G01*
X220000003Y-30500500D01*
X220389481Y-30517501D01*
X220394834Y-30517970D01*
X220778669Y-30568501D01*
X220783978Y-30569437D01*
X221161934Y-30653225D01*
X221167133Y-30654618D01*
X221536368Y-30771035D01*
X221541430Y-30772877D01*
X221899106Y-30921028D01*
X221903983Y-30923302D01*
X221904032Y-30923328D01*
X222247376Y-31102060D01*
X222252053Y-31104759D01*
X222464142Y-31239873D01*
X222578550Y-31312758D01*
X222582983Y-31315862D01*
X222890102Y-31551519D01*
X222894248Y-31554997D01*
X223179667Y-31816532D01*
X223183493Y-31820358D01*
X223445031Y-32105774D01*
X223448509Y-32109919D01*
X223684168Y-32417030D01*
X223687272Y-32421463D01*
X223895272Y-32747954D01*
X223897978Y-32752640D01*
X224076733Y-33096020D01*
X224079020Y-33100925D01*
X224227164Y-33458569D01*
X224229015Y-33463654D01*
X224345429Y-33832865D01*
X224346830Y-33838092D01*
X224430617Y-34216017D01*
X224431557Y-34221346D01*
X224482089Y-34605156D01*
X224482561Y-34610547D01*
X224499499Y-34998445D01*
X224499499Y-164926508D01*
X224499500Y-165000003D01*
X224482499Y-165389457D01*
X224482027Y-165394848D01*
X224431501Y-165778645D01*
X224430561Y-165783974D01*
X224346775Y-166161920D01*
X224345375Y-166167148D01*
X224228968Y-166536346D01*
X224227123Y-166541418D01*
X224113547Y-166815614D01*
X224078978Y-166899074D01*
X224076691Y-166903979D01*
X223897944Y-167247350D01*
X223895238Y-167252036D01*
X223687237Y-167578535D01*
X223684133Y-167582968D01*
X223448479Y-167890079D01*
X223445000Y-167894224D01*
X223183465Y-168179639D01*
X223179639Y-168183465D01*
X222894224Y-168445000D01*
X222890079Y-168448479D01*
X222582968Y-168684133D01*
X222578535Y-168687237D01*
X222252036Y-168895238D01*
X222247350Y-168897944D01*
X221903979Y-169076691D01*
X221899074Y-169078978D01*
X221541419Y-169227122D01*
X221536346Y-169228968D01*
X221327160Y-169294923D01*
X221167140Y-169345376D01*
X221161920Y-169346775D01*
X220783974Y-169430561D01*
X220778645Y-169431501D01*
X220394848Y-169482027D01*
X220389457Y-169482499D01*
X220000003Y-169499500D01*
X219934111Y-169499499D01*
X219934110Y-169499499D01*
X219930372Y-169499499D01*
X219930357Y-169499500D01*
X80000003Y-169499500D01*
X79610553Y-169482494D01*
X79605162Y-169482022D01*
X79221361Y-169431491D01*
X79216032Y-169430551D01*
X78838096Y-169346761D01*
X78832880Y-169345363D01*
X78463681Y-169228953D01*
X78458596Y-169227102D01*
X78100945Y-169078954D01*
X78096041Y-169076667D01*
X77878146Y-168963237D01*
X77752669Y-168897917D01*
X77747999Y-168895221D01*
X77421502Y-168687216D01*
X77417069Y-168684112D01*
X77109963Y-168448457D01*
X77105818Y-168444979D01*
X76820406Y-168183444D01*
X76816579Y-168179618D01*
X76555046Y-167894202D01*
X76551571Y-167890059D01*
X76496291Y-167818016D01*
X76315912Y-167582937D01*
X76312814Y-167578511D01*
X76210464Y-167417852D01*
X76104818Y-167252019D01*
X76102119Y-167247342D01*
X75966164Y-166986173D01*
X75923364Y-166903954D01*
X75921089Y-166899074D01*
X75772941Y-166541406D01*
X75771099Y-166536344D01*
X75654684Y-166167115D01*
X75653290Y-166161910D01*
X75569505Y-165783967D01*
X75568568Y-165778657D01*
X75518038Y-165394828D01*
X75517569Y-165389475D01*
X75500568Y-165000003D01*
X75500500Y-164998440D01*
X75500501Y-164934111D01*
X75500500Y-164934107D01*
X75500500Y-159922903D01*
X82595793Y-159922903D01*
X82605672Y-160230970D01*
X82605672Y-160230975D01*
X82605673Y-160230978D01*
X82654867Y-160535261D01*
X82699137Y-160684419D01*
X82742571Y-160830763D01*
X82867333Y-161112601D01*
X82867337Y-161112609D01*
X83027123Y-161376193D01*
X83027127Y-161376198D01*
X83027133Y-161376207D01*
X83219297Y-161617174D01*
X83219299Y-161617176D01*
X83219303Y-161617180D01*
X83219304Y-161617181D01*
X83440724Y-161831614D01*
X83607862Y-161956352D01*
X83687741Y-162015968D01*
X83687743Y-162015969D01*
X83687747Y-162015972D01*
X83956318Y-162167228D01*
X84097057Y-162224207D01*
X84242018Y-162282897D01*
X84242023Y-162282898D01*
X84242025Y-162282899D01*
X84540179Y-162361084D01*
X84845883Y-162400500D01*
X84845890Y-162400500D01*
X85076980Y-162400500D01*
X85175814Y-162394154D01*
X85307601Y-162385693D01*
X85610151Y-162326772D01*
X85902683Y-162229644D01*
X85902689Y-162229640D01*
X85902693Y-162229640D01*
X86093571Y-162137717D01*
X86180393Y-162095907D01*
X86438720Y-161927754D01*
X86673424Y-161727948D01*
X86880650Y-161499769D01*
X87056996Y-161246963D01*
X87199567Y-160973683D01*
X87306020Y-160684415D01*
X87374609Y-160383908D01*
X87404206Y-160077098D01*
X87399261Y-159922903D01*
X212595793Y-159922903D01*
X212605672Y-160230970D01*
X212605672Y-160230975D01*
X212605673Y-160230978D01*
X212654867Y-160535261D01*
X212699137Y-160684419D01*
X212742571Y-160830763D01*
X212867333Y-161112601D01*
X212867337Y-161112609D01*
X213027123Y-161376193D01*
X213027127Y-161376198D01*
X213027133Y-161376207D01*
X213219297Y-161617174D01*
X213219299Y-161617176D01*
X213219303Y-161617180D01*
X213219304Y-161617181D01*
X213440724Y-161831614D01*
X213607862Y-161956352D01*
X213687741Y-162015968D01*
X213687743Y-162015969D01*
X213687747Y-162015972D01*
X213956318Y-162167228D01*
X214097057Y-162224207D01*
X214242018Y-162282897D01*
X214242023Y-162282898D01*
X214242025Y-162282899D01*
X214540179Y-162361084D01*
X214845883Y-162400500D01*
X214845890Y-162400500D01*
X215076980Y-162400500D01*
X215175814Y-162394154D01*
X215307601Y-162385693D01*
X215610151Y-162326772D01*
X215902683Y-162229644D01*
X215902689Y-162229640D01*
X215902693Y-162229640D01*
X216093571Y-162137717D01*
X216180393Y-162095907D01*
X216438720Y-161927754D01*
X216673424Y-161727948D01*
X216880650Y-161499769D01*
X217056996Y-161246963D01*
X217199567Y-160973683D01*
X217306020Y-160684415D01*
X217374609Y-160383908D01*
X217404206Y-160077098D01*
X217394327Y-159769022D01*
X217345133Y-159464739D01*
X217257431Y-159169244D01*
X217257429Y-159169239D01*
X217257428Y-159169236D01*
X217132666Y-158887398D01*
X217132663Y-158887391D01*
X216972877Y-158623807D01*
X216972870Y-158623799D01*
X216972866Y-158623792D01*
X216780702Y-158382825D01*
X216780700Y-158382823D01*
X216559279Y-158168389D01*
X216559276Y-158168386D01*
X216430450Y-158072241D01*
X216312258Y-157984031D01*
X216312253Y-157984028D01*
X216043682Y-157832772D01*
X216006383Y-157817671D01*
X215757981Y-157717102D01*
X215590660Y-157673226D01*
X215459821Y-157638916D01*
X215154117Y-157599500D01*
X214923026Y-157599500D01*
X214923020Y-157599500D01*
X214692406Y-157614306D01*
X214692389Y-157614308D01*
X214389854Y-157673226D01*
X214389849Y-157673228D01*
X214097310Y-157770358D01*
X214097306Y-157770359D01*
X213819613Y-157904089D01*
X213819605Y-157904094D01*
X213561286Y-158072241D01*
X213561276Y-158072248D01*
X213326581Y-158272046D01*
X213326571Y-158272056D01*
X213119354Y-158500225D01*
X213119350Y-158500229D01*
X212943005Y-158753033D01*
X212943003Y-158753037D01*
X212800432Y-159026319D01*
X212800429Y-159026326D01*
X212693981Y-159315580D01*
X212693979Y-159315590D01*
X212625391Y-159616089D01*
X212595794Y-159922902D01*
X212595793Y-159922903D01*
X87399261Y-159922903D01*
X87394327Y-159769022D01*
X87345133Y-159464739D01*
X87257431Y-159169244D01*
X87257429Y-159169239D01*
X87257428Y-159169236D01*
X87132666Y-158887398D01*
X87132663Y-158887391D01*
X86972877Y-158623807D01*
X86972870Y-158623799D01*
X86972866Y-158623792D01*
X86780702Y-158382825D01*
X86780700Y-158382823D01*
X86559279Y-158168389D01*
X86559276Y-158168386D01*
X86430450Y-158072241D01*
X86312258Y-157984031D01*
X86312253Y-157984028D01*
X86043682Y-157832772D01*
X86006383Y-157817671D01*
X85757981Y-157717102D01*
X85590660Y-157673226D01*
X85459821Y-157638916D01*
X85154117Y-157599500D01*
X84923026Y-157599500D01*
X84923020Y-157599500D01*
X84692406Y-157614306D01*
X84692389Y-157614308D01*
X84389854Y-157673226D01*
X84389849Y-157673228D01*
X84097310Y-157770358D01*
X84097306Y-157770359D01*
X83819613Y-157904089D01*
X83819605Y-157904094D01*
X83561286Y-158072241D01*
X83561276Y-158072248D01*
X83326581Y-158272046D01*
X83326571Y-158272056D01*
X83119354Y-158500225D01*
X83119350Y-158500229D01*
X82943005Y-158753033D01*
X82943003Y-158753037D01*
X82800432Y-159026319D01*
X82800429Y-159026326D01*
X82693981Y-159315580D01*
X82693979Y-159315590D01*
X82625391Y-159616089D01*
X82595794Y-159922902D01*
X82595793Y-159922903D01*
X75500500Y-159922903D01*
X75500500Y-147535533D01*
X105280214Y-147535533D01*
X105299482Y-147940032D01*
X105357113Y-148340860D01*
X105452584Y-148734397D01*
X105452587Y-148734408D01*
X105585026Y-149117067D01*
X105585028Y-149117071D01*
X105753251Y-149485426D01*
X105753259Y-149485442D01*
X105955734Y-149836140D01*
X105955740Y-149836148D01*
X106190617Y-150165986D01*
X106190626Y-150165996D01*
X106190627Y-150165998D01*
X106455814Y-150472041D01*
X106748892Y-150751490D01*
X107067206Y-151001815D01*
X107407874Y-151220749D01*
X107767810Y-151406309D01*
X108143755Y-151556815D01*
X108532304Y-151670903D01*
X108929939Y-151747541D01*
X109333058Y-151786034D01*
X109333064Y-151786034D01*
X109738004Y-151786034D01*
X109738010Y-151786034D01*
X110141129Y-151747541D01*
X110538764Y-151670903D01*
X110927313Y-151556815D01*
X111303258Y-151406309D01*
X111663194Y-151220749D01*
X112003862Y-151001815D01*
X112322176Y-150751490D01*
X112615254Y-150472041D01*
X112880441Y-150165998D01*
X113115337Y-149836134D01*
X113317813Y-149485434D01*
X113486037Y-149117077D01*
X113486039Y-149117070D01*
X113486041Y-149117067D01*
X113618480Y-148734408D01*
X113618480Y-148734405D01*
X113618484Y-148734396D01*
X113713955Y-148340859D01*
X113771586Y-147940028D01*
X113790854Y-147535534D01*
X124280214Y-147535534D01*
X124299482Y-147940032D01*
X124357113Y-148340860D01*
X124452584Y-148734397D01*
X124452587Y-148734408D01*
X124585026Y-149117067D01*
X124585028Y-149117071D01*
X124753251Y-149485426D01*
X124753259Y-149485442D01*
X124955734Y-149836140D01*
X124955740Y-149836148D01*
X125190617Y-150165986D01*
X125190626Y-150165996D01*
X125190627Y-150165998D01*
X125455814Y-150472041D01*
X125748892Y-150751490D01*
X126067206Y-151001815D01*
X126407874Y-151220749D01*
X126767810Y-151406309D01*
X127143755Y-151556815D01*
X127532304Y-151670903D01*
X127929939Y-151747541D01*
X128333058Y-151786034D01*
X128333064Y-151786034D01*
X128738004Y-151786034D01*
X128738010Y-151786034D01*
X129141129Y-151747541D01*
X129538764Y-151670903D01*
X129927313Y-151556815D01*
X130303258Y-151406309D01*
X130663194Y-151220749D01*
X131003862Y-151001815D01*
X131322176Y-150751490D01*
X131615254Y-150472041D01*
X131880441Y-150165998D01*
X132115337Y-149836134D01*
X132317813Y-149485434D01*
X132486037Y-149117077D01*
X132486039Y-149117070D01*
X132486041Y-149117067D01*
X132618480Y-148734408D01*
X132618480Y-148734405D01*
X132618484Y-148734396D01*
X132713955Y-148340859D01*
X132771586Y-147940028D01*
X132790854Y-147535534D01*
X132790854Y-147535533D01*
X138280214Y-147535533D01*
X138299482Y-147940032D01*
X138357113Y-148340860D01*
X138452584Y-148734397D01*
X138452587Y-148734408D01*
X138585026Y-149117067D01*
X138585028Y-149117071D01*
X138753251Y-149485426D01*
X138753259Y-149485442D01*
X138955734Y-149836140D01*
X138955740Y-149836148D01*
X139190617Y-150165986D01*
X139190626Y-150165996D01*
X139190627Y-150165998D01*
X139455814Y-150472041D01*
X139748892Y-150751490D01*
X140067206Y-151001815D01*
X140407874Y-151220749D01*
X140767810Y-151406309D01*
X141143755Y-151556815D01*
X141532304Y-151670903D01*
X141929939Y-151747541D01*
X142333058Y-151786034D01*
X142333064Y-151786034D01*
X142738004Y-151786034D01*
X142738010Y-151786034D01*
X143141129Y-151747541D01*
X143538764Y-151670903D01*
X143927313Y-151556815D01*
X144303258Y-151406309D01*
X144663194Y-151220749D01*
X145003862Y-151001815D01*
X145322176Y-150751490D01*
X145615254Y-150472041D01*
X145880441Y-150165998D01*
X146115337Y-149836134D01*
X146317813Y-149485434D01*
X146486037Y-149117077D01*
X146486039Y-149117070D01*
X146486041Y-149117067D01*
X146618480Y-148734408D01*
X146618480Y-148734405D01*
X146618484Y-148734396D01*
X146713955Y-148340859D01*
X146771586Y-147940028D01*
X146790854Y-147535534D01*
X146771586Y-147131040D01*
X146713955Y-146730209D01*
X146618484Y-146336672D01*
X146618480Y-146336659D01*
X146486041Y-145954000D01*
X146486039Y-145953996D01*
X146317816Y-145585641D01*
X146317813Y-145585634D01*
X146115337Y-145234934D01*
X146115333Y-145234927D01*
X146115327Y-145234919D01*
X145880450Y-144905081D01*
X145880439Y-144905068D01*
X145615254Y-144599027D01*
X145322176Y-144319578D01*
X145003862Y-144069253D01*
X144663194Y-143850319D01*
X144303258Y-143664759D01*
X144303257Y-143664758D01*
X144303254Y-143664757D01*
X144303250Y-143664755D01*
X143927314Y-143514253D01*
X143927302Y-143514249D01*
X143538769Y-143400166D01*
X143538752Y-143400162D01*
X143141144Y-143323529D01*
X143141132Y-143323527D01*
X143006755Y-143310696D01*
X142738010Y-143285034D01*
X142333058Y-143285034D01*
X142091186Y-143308129D01*
X141929935Y-143323527D01*
X141929923Y-143323529D01*
X141532315Y-143400162D01*
X141532298Y-143400166D01*
X141143765Y-143514249D01*
X141143753Y-143514253D01*
X140767817Y-143664755D01*
X140767813Y-143664757D01*
X140407877Y-143850317D01*
X140067217Y-144069245D01*
X140067210Y-144069250D01*
X140067206Y-144069253D01*
X139827578Y-144257698D01*
X139748893Y-144319577D01*
X139748891Y-144319578D01*
X139455817Y-144599024D01*
X139455815Y-144599026D01*
X139190628Y-144905068D01*
X139190617Y-144905081D01*
X138955740Y-145234919D01*
X138955734Y-145234927D01*
X138753259Y-145585625D01*
X138753251Y-145585641D01*
X138585028Y-145953996D01*
X138585026Y-145954000D01*
X138452587Y-146336659D01*
X138452584Y-146336670D01*
X138357113Y-146730207D01*
X138299482Y-147131035D01*
X138280214Y-147535533D01*
X132790854Y-147535533D01*
X132771586Y-147131040D01*
X132713955Y-146730209D01*
X132618484Y-146336672D01*
X132618480Y-146336659D01*
X132486041Y-145954000D01*
X132486039Y-145953996D01*
X132317816Y-145585641D01*
X132317813Y-145585634D01*
X132115337Y-145234934D01*
X132115333Y-145234927D01*
X132115327Y-145234919D01*
X131880450Y-144905081D01*
X131880439Y-144905068D01*
X131615254Y-144599027D01*
X131322176Y-144319578D01*
X131003862Y-144069253D01*
X130663194Y-143850319D01*
X130303258Y-143664759D01*
X130303257Y-143664758D01*
X130303254Y-143664757D01*
X130303250Y-143664755D01*
X129927314Y-143514253D01*
X129927302Y-143514249D01*
X129538769Y-143400166D01*
X129538752Y-143400162D01*
X129141144Y-143323529D01*
X129141132Y-143323527D01*
X129006756Y-143310696D01*
X128738010Y-143285034D01*
X128333058Y-143285034D01*
X128091186Y-143308129D01*
X127929935Y-143323527D01*
X127929923Y-143323529D01*
X127532315Y-143400162D01*
X127532298Y-143400166D01*
X127143765Y-143514249D01*
X127143753Y-143514253D01*
X126767817Y-143664755D01*
X126767813Y-143664757D01*
X126407877Y-143850317D01*
X126067217Y-144069245D01*
X126067210Y-144069250D01*
X126067206Y-144069253D01*
X125827578Y-144257698D01*
X125748893Y-144319577D01*
X125748891Y-144319578D01*
X125455817Y-144599024D01*
X125455815Y-144599026D01*
X125190628Y-144905068D01*
X125190617Y-144905081D01*
X124955740Y-145234919D01*
X124955734Y-145234927D01*
X124753259Y-145585625D01*
X124753251Y-145585641D01*
X124585028Y-145953996D01*
X124585026Y-145954000D01*
X124452587Y-146336659D01*
X124452584Y-146336670D01*
X124357113Y-146730207D01*
X124299482Y-147131035D01*
X124280214Y-147535534D01*
X113790854Y-147535534D01*
X113771586Y-147131040D01*
X113713955Y-146730209D01*
X113618484Y-146336672D01*
X113618480Y-146336659D01*
X113486041Y-145954000D01*
X113486039Y-145953996D01*
X113317816Y-145585641D01*
X113317813Y-145585634D01*
X113115337Y-145234934D01*
X113115333Y-145234927D01*
X113115327Y-145234919D01*
X112880450Y-144905081D01*
X112880439Y-144905068D01*
X112615254Y-144599027D01*
X112322176Y-144319578D01*
X112003862Y-144069253D01*
X111663194Y-143850319D01*
X111303258Y-143664759D01*
X111303257Y-143664758D01*
X111303254Y-143664757D01*
X111303250Y-143664755D01*
X110927314Y-143514253D01*
X110927302Y-143514249D01*
X110538769Y-143400166D01*
X110538752Y-143400162D01*
X110141144Y-143323529D01*
X110141132Y-143323527D01*
X110006756Y-143310696D01*
X109738010Y-143285034D01*
X109333058Y-143285034D01*
X109091186Y-143308129D01*
X108929935Y-143323527D01*
X108929923Y-143323529D01*
X108532315Y-143400162D01*
X108532298Y-143400166D01*
X108143765Y-143514249D01*
X108143753Y-143514253D01*
X107767817Y-143664755D01*
X107767813Y-143664757D01*
X107407877Y-143850317D01*
X107067217Y-144069245D01*
X107067210Y-144069250D01*
X107067206Y-144069253D01*
X106827578Y-144257698D01*
X106748893Y-144319577D01*
X106748891Y-144319578D01*
X106455817Y-144599024D01*
X106455815Y-144599026D01*
X106190628Y-144905068D01*
X106190617Y-144905081D01*
X105955740Y-145234919D01*
X105955734Y-145234927D01*
X105753259Y-145585625D01*
X105753251Y-145585641D01*
X105585028Y-145953996D01*
X105585026Y-145954000D01*
X105452587Y-146336659D01*
X105452584Y-146336670D01*
X105357113Y-146730207D01*
X105299482Y-147131035D01*
X105280214Y-147535533D01*
X75500500Y-147535533D01*
X75500500Y-138575540D01*
X79728204Y-138575540D01*
X79747449Y-138795524D01*
X79747457Y-138795607D01*
X79804625Y-139008960D01*
X79804634Y-139008991D01*
X79897993Y-139209200D01*
X79897995Y-139209204D01*
X80024697Y-139390153D01*
X80024702Y-139390159D01*
X80180906Y-139546363D01*
X80180912Y-139546368D01*
X80361861Y-139673070D01*
X80361863Y-139673071D01*
X80361866Y-139673073D01*
X80562078Y-139766433D01*
X80775459Y-139823609D01*
X80932651Y-139837361D01*
X80995526Y-139842862D01*
X80995528Y-139842862D01*
X80995530Y-139842862D01*
X81050545Y-139838048D01*
X81215597Y-139823609D01*
X81428978Y-139766433D01*
X81629190Y-139673073D01*
X81810148Y-139546365D01*
X81966355Y-139390158D01*
X82093063Y-139209200D01*
X82153426Y-139079748D01*
X82199595Y-139027314D01*
X82266789Y-139008161D01*
X82333670Y-139028376D01*
X82378188Y-139079752D01*
X82438433Y-139208948D01*
X82438435Y-139208952D01*
X82483791Y-139273726D01*
X82926584Y-138830933D01*
X82987907Y-138797448D01*
X83057598Y-138802432D01*
X83113532Y-138844303D01*
X83118573Y-138851563D01*
X83118582Y-138851577D01*
X83153773Y-138906336D01*
X83269136Y-139006297D01*
X83266827Y-139008960D01*
X83301540Y-139049037D01*
X83311469Y-139118198D01*
X83282432Y-139181748D01*
X83276416Y-139188207D01*
X82837344Y-139627278D01*
X82902125Y-139672639D01*
X82902127Y-139672640D01*
X83102248Y-139765958D01*
X83102262Y-139765963D01*
X83315547Y-139823112D01*
X83315557Y-139823114D01*
X83535533Y-139842360D01*
X83535535Y-139842360D01*
X83755510Y-139823114D01*
X83755520Y-139823112D01*
X83968805Y-139765963D01*
X83968819Y-139765958D01*
X84168940Y-139672640D01*
X84233721Y-139627278D01*
X83794650Y-139188207D01*
X83761165Y-139126884D01*
X83766149Y-139057192D01*
X83803175Y-139007731D01*
X83801932Y-139006297D01*
X83808634Y-139000490D01*
X83917295Y-138906336D01*
X83952488Y-138851575D01*
X84005289Y-138805821D01*
X84074448Y-138795877D01*
X84138004Y-138824901D01*
X84144483Y-138830934D01*
X84587274Y-139273725D01*
X84632636Y-139208944D01*
X84725954Y-139008823D01*
X84725959Y-139008809D01*
X84783108Y-138795524D01*
X84783110Y-138795514D01*
X84802356Y-138575538D01*
X84802356Y-138575537D01*
X84783110Y-138355561D01*
X84783108Y-138355551D01*
X84725959Y-138142266D01*
X84725954Y-138142252D01*
X84632636Y-137942131D01*
X84632635Y-137942129D01*
X84587274Y-137877349D01*
X84144483Y-138320140D01*
X84083160Y-138353625D01*
X84013468Y-138348641D01*
X83957535Y-138306769D01*
X83952487Y-138299499D01*
X83917295Y-138244740D01*
X83801932Y-138144779D01*
X83804232Y-138142123D01*
X83769494Y-138101966D01*
X83759608Y-138032799D01*
X83788686Y-137969267D01*
X83794650Y-137962867D01*
X84233722Y-137523795D01*
X84168948Y-137478439D01*
X84168944Y-137478437D01*
X84039158Y-137417917D01*
X83986719Y-137371745D01*
X83967567Y-137304551D01*
X83987783Y-137237670D01*
X84039159Y-137193153D01*
X84168940Y-137132635D01*
X84233721Y-137087273D01*
X83794650Y-136648202D01*
X83761165Y-136586879D01*
X83766149Y-136517187D01*
X83803175Y-136467726D01*
X83801932Y-136466292D01*
X83808634Y-136460485D01*
X83917295Y-136366331D01*
X83952488Y-136311570D01*
X84005289Y-136265816D01*
X84074448Y-136255872D01*
X84138004Y-136284896D01*
X84144483Y-136290929D01*
X84587274Y-136733720D01*
X84632636Y-136668939D01*
X84725954Y-136468818D01*
X84725959Y-136468804D01*
X84783108Y-136255519D01*
X84783110Y-136255509D01*
X84802356Y-136035533D01*
X84802356Y-136035532D01*
X84783110Y-135815556D01*
X84783108Y-135815546D01*
X84725959Y-135602261D01*
X84725954Y-135602247D01*
X84632636Y-135402126D01*
X84632635Y-135402124D01*
X84587274Y-135337344D01*
X84144483Y-135780135D01*
X84083160Y-135813620D01*
X84013468Y-135808636D01*
X83957535Y-135766764D01*
X83952487Y-135759494D01*
X83917295Y-135704735D01*
X83801932Y-135604774D01*
X83804232Y-135602118D01*
X83769494Y-135561961D01*
X83759608Y-135492794D01*
X83788686Y-135429262D01*
X83794650Y-135422862D01*
X84233722Y-134983790D01*
X84168948Y-134938434D01*
X84168944Y-134938432D01*
X84039158Y-134877912D01*
X83986719Y-134831740D01*
X83967567Y-134764546D01*
X83987783Y-134697665D01*
X84039159Y-134653148D01*
X84168940Y-134592630D01*
X84233721Y-134547268D01*
X83794650Y-134108197D01*
X83761165Y-134046874D01*
X83766149Y-133977182D01*
X83803175Y-133927721D01*
X83801932Y-133926287D01*
X83808634Y-133920480D01*
X83917295Y-133826326D01*
X83952488Y-133771565D01*
X84005289Y-133725811D01*
X84074448Y-133715867D01*
X84138004Y-133744891D01*
X84144483Y-133750924D01*
X84587274Y-134193715D01*
X84632636Y-134128934D01*
X84725954Y-133928813D01*
X84725959Y-133928799D01*
X84783108Y-133715514D01*
X84783110Y-133715504D01*
X84798856Y-133535533D01*
X105280214Y-133535533D01*
X105299482Y-133940032D01*
X105357113Y-134340860D01*
X105452584Y-134734397D01*
X105452587Y-134734408D01*
X105585026Y-135117067D01*
X105585028Y-135117071D01*
X105753251Y-135485426D01*
X105753259Y-135485442D01*
X105955734Y-135836140D01*
X105955740Y-135836148D01*
X106190617Y-136165986D01*
X106190626Y-136165996D01*
X106190627Y-136165998D01*
X106455814Y-136472041D01*
X106748892Y-136751490D01*
X107067206Y-137001815D01*
X107407874Y-137220749D01*
X107767810Y-137406309D01*
X108143755Y-137556815D01*
X108532304Y-137670903D01*
X108929939Y-137747541D01*
X109333058Y-137786034D01*
X109333064Y-137786034D01*
X109738004Y-137786034D01*
X109738010Y-137786034D01*
X110141129Y-137747541D01*
X110538764Y-137670903D01*
X110927313Y-137556815D01*
X111303258Y-137406309D01*
X111663194Y-137220749D01*
X112003862Y-137001815D01*
X112322176Y-136751490D01*
X112615254Y-136472041D01*
X112880441Y-136165998D01*
X113115337Y-135836134D01*
X113317813Y-135485434D01*
X113486037Y-135117077D01*
X113486039Y-135117070D01*
X113486041Y-135117067D01*
X113618480Y-134734408D01*
X113618480Y-134734405D01*
X113618484Y-134734396D01*
X113713955Y-134340859D01*
X113771586Y-133940028D01*
X113790854Y-133535534D01*
X124280214Y-133535534D01*
X124299482Y-133940032D01*
X124357113Y-134340860D01*
X124452584Y-134734397D01*
X124452587Y-134734408D01*
X124585026Y-135117067D01*
X124585028Y-135117071D01*
X124753251Y-135485426D01*
X124753259Y-135485442D01*
X124955734Y-135836140D01*
X124955740Y-135836148D01*
X125190617Y-136165986D01*
X125190626Y-136165996D01*
X125190627Y-136165998D01*
X125455814Y-136472041D01*
X125748892Y-136751490D01*
X126067206Y-137001815D01*
X126407874Y-137220749D01*
X126767810Y-137406309D01*
X127143755Y-137556815D01*
X127532304Y-137670903D01*
X127929939Y-137747541D01*
X128333058Y-137786034D01*
X128333064Y-137786034D01*
X128738004Y-137786034D01*
X128738010Y-137786034D01*
X129141129Y-137747541D01*
X129538764Y-137670903D01*
X129927313Y-137556815D01*
X130303258Y-137406309D01*
X130663194Y-137220749D01*
X131003862Y-137001815D01*
X131322176Y-136751490D01*
X131615254Y-136472041D01*
X131880441Y-136165998D01*
X132115337Y-135836134D01*
X132317813Y-135485434D01*
X132486037Y-135117077D01*
X132486039Y-135117070D01*
X132486041Y-135117067D01*
X132618480Y-134734408D01*
X132618480Y-134734405D01*
X132618484Y-134734396D01*
X132713955Y-134340859D01*
X132771586Y-133940028D01*
X132790854Y-133535534D01*
X132790854Y-133535533D01*
X138280214Y-133535533D01*
X138299482Y-133940032D01*
X138357113Y-134340860D01*
X138452584Y-134734397D01*
X138452587Y-134734408D01*
X138585026Y-135117067D01*
X138585028Y-135117071D01*
X138753251Y-135485426D01*
X138753259Y-135485442D01*
X138955734Y-135836140D01*
X138955740Y-135836148D01*
X139190617Y-136165986D01*
X139190626Y-136165996D01*
X139190627Y-136165998D01*
X139455814Y-136472041D01*
X139748892Y-136751490D01*
X140067206Y-137001815D01*
X140407874Y-137220749D01*
X140767810Y-137406309D01*
X141143755Y-137556815D01*
X141532304Y-137670903D01*
X141929939Y-137747541D01*
X142333058Y-137786034D01*
X142333064Y-137786034D01*
X142738004Y-137786034D01*
X142738010Y-137786034D01*
X143141129Y-137747541D01*
X143538764Y-137670903D01*
X143927313Y-137556815D01*
X144303258Y-137406309D01*
X144663194Y-137220749D01*
X145003862Y-137001815D01*
X145322176Y-136751490D01*
X145615254Y-136472041D01*
X145880441Y-136165998D01*
X146115337Y-135836134D01*
X146317813Y-135485434D01*
X146486037Y-135117077D01*
X146486039Y-135117070D01*
X146486041Y-135117067D01*
X146618480Y-134734408D01*
X146618480Y-134734405D01*
X146618484Y-134734396D01*
X146713955Y-134340859D01*
X146771586Y-133940028D01*
X146790854Y-133535534D01*
X146771586Y-133131040D01*
X146713955Y-132730209D01*
X146618484Y-132336672D01*
X146618480Y-132336659D01*
X146486041Y-131954000D01*
X146486039Y-131953996D01*
X146473413Y-131926350D01*
X146317813Y-131585634D01*
X146203545Y-131387716D01*
X146115333Y-131234927D01*
X146115327Y-131234919D01*
X145880450Y-130905081D01*
X145880439Y-130905068D01*
X145615254Y-130599027D01*
X145322176Y-130319578D01*
X145003862Y-130069253D01*
X144663194Y-129850319D01*
X144303258Y-129664759D01*
X144303257Y-129664758D01*
X144303254Y-129664757D01*
X144303250Y-129664755D01*
X143927314Y-129514253D01*
X143927302Y-129514249D01*
X143538769Y-129400166D01*
X143538752Y-129400162D01*
X143141144Y-129323529D01*
X143141132Y-129323527D01*
X143006756Y-129310695D01*
X142738010Y-129285034D01*
X142333058Y-129285034D01*
X142091186Y-129308129D01*
X141929935Y-129323527D01*
X141929923Y-129323529D01*
X141532315Y-129400162D01*
X141532298Y-129400166D01*
X141143765Y-129514249D01*
X141143753Y-129514253D01*
X140767817Y-129664755D01*
X140767813Y-129664757D01*
X140407877Y-129850317D01*
X140067217Y-130069245D01*
X140067210Y-130069250D01*
X140067206Y-130069253D01*
X139976096Y-130140903D01*
X139748893Y-130319577D01*
X139748891Y-130319578D01*
X139455817Y-130599024D01*
X139455815Y-130599026D01*
X139190628Y-130905068D01*
X139190617Y-130905081D01*
X138955740Y-131234919D01*
X138955734Y-131234927D01*
X138753259Y-131585625D01*
X138753251Y-131585641D01*
X138585028Y-131953996D01*
X138585026Y-131954000D01*
X138452587Y-132336659D01*
X138452584Y-132336670D01*
X138357113Y-132730207D01*
X138299482Y-133131035D01*
X138280214Y-133535533D01*
X132790854Y-133535533D01*
X132771586Y-133131040D01*
X132713955Y-132730209D01*
X132618484Y-132336672D01*
X132618480Y-132336659D01*
X132486041Y-131954000D01*
X132486039Y-131953996D01*
X132473413Y-131926350D01*
X132317813Y-131585634D01*
X132203545Y-131387716D01*
X132115333Y-131234927D01*
X132115327Y-131234919D01*
X131880450Y-130905081D01*
X131880439Y-130905068D01*
X131615254Y-130599027D01*
X131322176Y-130319578D01*
X131003862Y-130069253D01*
X130663194Y-129850319D01*
X130303258Y-129664759D01*
X130303257Y-129664758D01*
X130303254Y-129664757D01*
X130303250Y-129664755D01*
X129927314Y-129514253D01*
X129927302Y-129514249D01*
X129538769Y-129400166D01*
X129538752Y-129400162D01*
X129141144Y-129323529D01*
X129141132Y-129323527D01*
X129006756Y-129310696D01*
X128738010Y-129285034D01*
X128333058Y-129285034D01*
X128091186Y-129308129D01*
X127929935Y-129323527D01*
X127929923Y-129323529D01*
X127532315Y-129400162D01*
X127532298Y-129400166D01*
X127143765Y-129514249D01*
X127143753Y-129514253D01*
X126767817Y-129664755D01*
X126767813Y-129664757D01*
X126407877Y-129850317D01*
X126067217Y-130069245D01*
X126067210Y-130069250D01*
X126067206Y-130069253D01*
X125976096Y-130140903D01*
X125748893Y-130319577D01*
X125748891Y-130319578D01*
X125455817Y-130599024D01*
X125455815Y-130599026D01*
X125190628Y-130905068D01*
X125190617Y-130905081D01*
X124955740Y-131234919D01*
X124955734Y-131234927D01*
X124753259Y-131585625D01*
X124753251Y-131585641D01*
X124585028Y-131953996D01*
X124585026Y-131954000D01*
X124452587Y-132336659D01*
X124452584Y-132336670D01*
X124357113Y-132730207D01*
X124299482Y-133131035D01*
X124280214Y-133535534D01*
X113790854Y-133535534D01*
X113771586Y-133131040D01*
X113713955Y-132730209D01*
X113618484Y-132336672D01*
X113618480Y-132336659D01*
X113486041Y-131954000D01*
X113486039Y-131953996D01*
X113473413Y-131926350D01*
X113317813Y-131585634D01*
X113203545Y-131387716D01*
X113115333Y-131234927D01*
X113115327Y-131234919D01*
X112880450Y-130905081D01*
X112880439Y-130905068D01*
X112615254Y-130599027D01*
X112322176Y-130319578D01*
X112003862Y-130069253D01*
X111663194Y-129850319D01*
X111303258Y-129664759D01*
X111303257Y-129664758D01*
X111303254Y-129664757D01*
X111303250Y-129664755D01*
X110927314Y-129514253D01*
X110927302Y-129514249D01*
X110538769Y-129400166D01*
X110538752Y-129400162D01*
X110141144Y-129323529D01*
X110141132Y-129323527D01*
X110006756Y-129310696D01*
X109738010Y-129285034D01*
X109333058Y-129285034D01*
X109091186Y-129308129D01*
X108929935Y-129323527D01*
X108929923Y-129323529D01*
X108532315Y-129400162D01*
X108532298Y-129400166D01*
X108143765Y-129514249D01*
X108143753Y-129514253D01*
X107767817Y-129664755D01*
X107767813Y-129664757D01*
X107407877Y-129850317D01*
X107067217Y-130069245D01*
X107067210Y-130069250D01*
X107067206Y-130069253D01*
X106976096Y-130140903D01*
X106748893Y-130319577D01*
X106748891Y-130319578D01*
X106455817Y-130599024D01*
X106455815Y-130599026D01*
X106190628Y-130905068D01*
X106190617Y-130905081D01*
X105955740Y-131234919D01*
X105955734Y-131234927D01*
X105753259Y-131585625D01*
X105753251Y-131585641D01*
X105585028Y-131953996D01*
X105585026Y-131954000D01*
X105452587Y-132336659D01*
X105452584Y-132336670D01*
X105357113Y-132730207D01*
X105299482Y-133131035D01*
X105280214Y-133535533D01*
X84798856Y-133535533D01*
X84802356Y-133495528D01*
X84802356Y-133495527D01*
X84783110Y-133275551D01*
X84783108Y-133275541D01*
X84725959Y-133062256D01*
X84725954Y-133062242D01*
X84632636Y-132862121D01*
X84632635Y-132862119D01*
X84587274Y-132797339D01*
X84144483Y-133240130D01*
X84083160Y-133273615D01*
X84013468Y-133268631D01*
X83957535Y-133226759D01*
X83952487Y-133219489D01*
X83917295Y-133164730D01*
X83801932Y-133064769D01*
X83804232Y-133062113D01*
X83769494Y-133021956D01*
X83759608Y-132952789D01*
X83788686Y-132889257D01*
X83794650Y-132882857D01*
X84233722Y-132443785D01*
X84168948Y-132398429D01*
X84168944Y-132398427D01*
X84039158Y-132337907D01*
X83986719Y-132291735D01*
X83967567Y-132224541D01*
X83987783Y-132157660D01*
X84039159Y-132113143D01*
X84168940Y-132052625D01*
X84233721Y-132007263D01*
X83794650Y-131568192D01*
X83761165Y-131506869D01*
X83766149Y-131437177D01*
X83803175Y-131387716D01*
X83801932Y-131386282D01*
X83808634Y-131380475D01*
X83917295Y-131286321D01*
X83952488Y-131231560D01*
X84005289Y-131185806D01*
X84074448Y-131175862D01*
X84138004Y-131204886D01*
X84144483Y-131210919D01*
X84587274Y-131653710D01*
X84632636Y-131588929D01*
X84725954Y-131388808D01*
X84725959Y-131388794D01*
X84783108Y-131175509D01*
X84783110Y-131175499D01*
X84802356Y-130955523D01*
X84802356Y-130955522D01*
X84783110Y-130735546D01*
X84783108Y-130735536D01*
X84725959Y-130522251D01*
X84725954Y-130522237D01*
X84632636Y-130322116D01*
X84632635Y-130322114D01*
X84587274Y-130257334D01*
X84144483Y-130700125D01*
X84083160Y-130733610D01*
X84013468Y-130728626D01*
X83957535Y-130686754D01*
X83952487Y-130679484D01*
X83917295Y-130624725D01*
X83917294Y-130624724D01*
X83808634Y-130530571D01*
X83808633Y-130530570D01*
X83801932Y-130524764D01*
X83804232Y-130522108D01*
X83769494Y-130481951D01*
X83759608Y-130412784D01*
X83788686Y-130349252D01*
X83794650Y-130342852D01*
X84233722Y-129903780D01*
X84168948Y-129858424D01*
X84168944Y-129858422D01*
X84039158Y-129797902D01*
X83986719Y-129751730D01*
X83967567Y-129684536D01*
X83987783Y-129617655D01*
X84039159Y-129573138D01*
X84168940Y-129512620D01*
X84233721Y-129467258D01*
X83794650Y-129028187D01*
X83761165Y-128966864D01*
X83766149Y-128897172D01*
X83803175Y-128847711D01*
X83801932Y-128846277D01*
X83808634Y-128840470D01*
X83917295Y-128746316D01*
X83952488Y-128691555D01*
X84005289Y-128645801D01*
X84074448Y-128635857D01*
X84138004Y-128664881D01*
X84144483Y-128670914D01*
X84587274Y-129113705D01*
X84632636Y-129048924D01*
X84725954Y-128848803D01*
X84725959Y-128848789D01*
X84783108Y-128635504D01*
X84783110Y-128635494D01*
X84802356Y-128415518D01*
X84802356Y-128415517D01*
X84783110Y-128195541D01*
X84783108Y-128195531D01*
X84725959Y-127982246D01*
X84725954Y-127982232D01*
X84632636Y-127782111D01*
X84632635Y-127782109D01*
X84587274Y-127717329D01*
X84144483Y-128160120D01*
X84083160Y-128193605D01*
X84013468Y-128188621D01*
X83957535Y-128146749D01*
X83952487Y-128139479D01*
X83917295Y-128084720D01*
X83801932Y-127984759D01*
X83804232Y-127982103D01*
X83769494Y-127941946D01*
X83759608Y-127872779D01*
X83788686Y-127809247D01*
X83794650Y-127802847D01*
X84233722Y-127363775D01*
X84168948Y-127318419D01*
X84168940Y-127318415D01*
X83968819Y-127225097D01*
X83968805Y-127225092D01*
X83755520Y-127167943D01*
X83755510Y-127167941D01*
X83535535Y-127148696D01*
X83535533Y-127148696D01*
X83315557Y-127167941D01*
X83315547Y-127167943D01*
X83102262Y-127225092D01*
X83102253Y-127225096D01*
X82902123Y-127318418D01*
X82837344Y-127363776D01*
X83276417Y-127802848D01*
X83309902Y-127864171D01*
X83304918Y-127933862D01*
X83267892Y-127983323D01*
X83269136Y-127984759D01*
X83153772Y-128084720D01*
X83118580Y-128139480D01*
X83065776Y-128185235D01*
X82996617Y-128195178D01*
X82933062Y-128166152D01*
X82926584Y-128160121D01*
X82483792Y-127717328D01*
X82438433Y-127782107D01*
X82378188Y-127911303D01*
X82332015Y-127963742D01*
X82264821Y-127982894D01*
X82197940Y-127962678D01*
X82153424Y-127911302D01*
X82105835Y-127809247D01*
X82093063Y-127781856D01*
X82093061Y-127781853D01*
X82093060Y-127781851D01*
X81966358Y-127600902D01*
X81966353Y-127600896D01*
X81810149Y-127444692D01*
X81810143Y-127444687D01*
X81629194Y-127317985D01*
X81629190Y-127317983D01*
X81428981Y-127224624D01*
X81428978Y-127224623D01*
X81338798Y-127200459D01*
X81215598Y-127167447D01*
X81215591Y-127167446D01*
X80995530Y-127148194D01*
X80995526Y-127148194D01*
X80775464Y-127167446D01*
X80775457Y-127167447D01*
X80562074Y-127224624D01*
X80361865Y-127317983D01*
X80361861Y-127317985D01*
X80180912Y-127444687D01*
X80180906Y-127444692D01*
X80024702Y-127600896D01*
X80024697Y-127600902D01*
X79897995Y-127781851D01*
X79897993Y-127781855D01*
X79804634Y-127982064D01*
X79747457Y-128195447D01*
X79747456Y-128195454D01*
X79728204Y-128415515D01*
X79728204Y-128415520D01*
X79747449Y-128635504D01*
X79747457Y-128635587D01*
X79804625Y-128848940D01*
X79804634Y-128848971D01*
X79897993Y-129049180D01*
X79897995Y-129049184D01*
X80024697Y-129230133D01*
X80024702Y-129230139D01*
X80180906Y-129386343D01*
X80180912Y-129386348D01*
X80361861Y-129513050D01*
X80361863Y-129513051D01*
X80361866Y-129513053D01*
X80462951Y-129560189D01*
X80490719Y-129573138D01*
X80543159Y-129619310D01*
X80562311Y-129686503D01*
X80542095Y-129753385D01*
X80490720Y-129797902D01*
X80361865Y-129857988D01*
X80361861Y-129857990D01*
X80180912Y-129984692D01*
X80180906Y-129984697D01*
X80024702Y-130140901D01*
X80024697Y-130140907D01*
X79897995Y-130321856D01*
X79897993Y-130321860D01*
X79804634Y-130522069D01*
X79747457Y-130735452D01*
X79747456Y-130735459D01*
X79728204Y-130955520D01*
X79728204Y-130955525D01*
X79747449Y-131175509D01*
X79747457Y-131175592D01*
X79804625Y-131388945D01*
X79804634Y-131388976D01*
X79897993Y-131589185D01*
X79897995Y-131589189D01*
X80024697Y-131770138D01*
X80024702Y-131770144D01*
X80180906Y-131926348D01*
X80180912Y-131926353D01*
X80361861Y-132053055D01*
X80361863Y-132053056D01*
X80361866Y-132053058D01*
X80462951Y-132100194D01*
X80490719Y-132113143D01*
X80543159Y-132159315D01*
X80562311Y-132226508D01*
X80542095Y-132293390D01*
X80490720Y-132337907D01*
X80361865Y-132397993D01*
X80361861Y-132397995D01*
X80180912Y-132524697D01*
X80180906Y-132524702D01*
X80024702Y-132680906D01*
X80024697Y-132680912D01*
X79897995Y-132861861D01*
X79897993Y-132861865D01*
X79804634Y-133062074D01*
X79747457Y-133275457D01*
X79747456Y-133275464D01*
X79728204Y-133495525D01*
X79728204Y-133495530D01*
X79747449Y-133715514D01*
X79747457Y-133715597D01*
X79804625Y-133928950D01*
X79804634Y-133928981D01*
X79897993Y-134129190D01*
X79897995Y-134129194D01*
X80024697Y-134310143D01*
X80024702Y-134310149D01*
X80180906Y-134466353D01*
X80180912Y-134466358D01*
X80361861Y-134593060D01*
X80361863Y-134593061D01*
X80361866Y-134593063D01*
X80462951Y-134640199D01*
X80490719Y-134653148D01*
X80543159Y-134699320D01*
X80562311Y-134766513D01*
X80542095Y-134833395D01*
X80490720Y-134877912D01*
X80361865Y-134937998D01*
X80361861Y-134938000D01*
X80180912Y-135064702D01*
X80180906Y-135064707D01*
X80024702Y-135220911D01*
X80024697Y-135220917D01*
X79897995Y-135401866D01*
X79897993Y-135401870D01*
X79804634Y-135602079D01*
X79747457Y-135815462D01*
X79747456Y-135815469D01*
X79728204Y-136035530D01*
X79728204Y-136035535D01*
X79747449Y-136255519D01*
X79747457Y-136255602D01*
X79804625Y-136468955D01*
X79804634Y-136468986D01*
X79897993Y-136669195D01*
X79897995Y-136669199D01*
X80024697Y-136850148D01*
X80024702Y-136850154D01*
X80180906Y-137006358D01*
X80180912Y-137006363D01*
X80361861Y-137133065D01*
X80361863Y-137133066D01*
X80361866Y-137133068D01*
X80462951Y-137180204D01*
X80490719Y-137193153D01*
X80543159Y-137239325D01*
X80562311Y-137306518D01*
X80542095Y-137373400D01*
X80490720Y-137417917D01*
X80361865Y-137478003D01*
X80361861Y-137478005D01*
X80180912Y-137604707D01*
X80180906Y-137604712D01*
X80024702Y-137760916D01*
X80024697Y-137760922D01*
X79897995Y-137941871D01*
X79897993Y-137941875D01*
X79804634Y-138142084D01*
X79747457Y-138355467D01*
X79747456Y-138355474D01*
X79728204Y-138575535D01*
X79728204Y-138575540D01*
X75500500Y-138575540D01*
X75500500Y-119535533D01*
X105280214Y-119535533D01*
X105299482Y-119940032D01*
X105357113Y-120340860D01*
X105452584Y-120734397D01*
X105452587Y-120734408D01*
X105585026Y-121117067D01*
X105585028Y-121117071D01*
X105753251Y-121485426D01*
X105753259Y-121485442D01*
X105955734Y-121836140D01*
X105955740Y-121836148D01*
X106190617Y-122165986D01*
X106190626Y-122165996D01*
X106190627Y-122165998D01*
X106455814Y-122472041D01*
X106748892Y-122751490D01*
X107067206Y-123001815D01*
X107407874Y-123220749D01*
X107767810Y-123406309D01*
X108143755Y-123556815D01*
X108532304Y-123670903D01*
X108929939Y-123747541D01*
X109333058Y-123786034D01*
X109333064Y-123786034D01*
X109738004Y-123786034D01*
X109738010Y-123786034D01*
X110141129Y-123747541D01*
X110538764Y-123670903D01*
X110927313Y-123556815D01*
X111303258Y-123406309D01*
X111663194Y-123220749D01*
X112003862Y-123001815D01*
X112322176Y-122751490D01*
X112615254Y-122472041D01*
X112880441Y-122165998D01*
X113115337Y-121836134D01*
X113317813Y-121485434D01*
X113486037Y-121117077D01*
X113486039Y-121117070D01*
X113486041Y-121117067D01*
X113618480Y-120734408D01*
X113618480Y-120734405D01*
X113618484Y-120734396D01*
X113713955Y-120340859D01*
X113771586Y-119940028D01*
X113790854Y-119535534D01*
X124280214Y-119535534D01*
X124299482Y-119940032D01*
X124357113Y-120340860D01*
X124452584Y-120734397D01*
X124452587Y-120734408D01*
X124585026Y-121117067D01*
X124585028Y-121117071D01*
X124753251Y-121485426D01*
X124753259Y-121485442D01*
X124955734Y-121836140D01*
X124955740Y-121836148D01*
X125190617Y-122165986D01*
X125190626Y-122165996D01*
X125190627Y-122165998D01*
X125455814Y-122472041D01*
X125748892Y-122751490D01*
X126067206Y-123001815D01*
X126407874Y-123220749D01*
X126767810Y-123406309D01*
X127143755Y-123556815D01*
X127532304Y-123670903D01*
X127929939Y-123747541D01*
X128333058Y-123786034D01*
X128333064Y-123786034D01*
X128738004Y-123786034D01*
X128738010Y-123786034D01*
X129141129Y-123747541D01*
X129538764Y-123670903D01*
X129927313Y-123556815D01*
X130303258Y-123406309D01*
X130663194Y-123220749D01*
X131003862Y-123001815D01*
X131322176Y-122751490D01*
X131615254Y-122472041D01*
X131880441Y-122165998D01*
X132115337Y-121836134D01*
X132317813Y-121485434D01*
X132486037Y-121117077D01*
X132486039Y-121117070D01*
X132486041Y-121117067D01*
X132618480Y-120734408D01*
X132618480Y-120734405D01*
X132618484Y-120734396D01*
X132713955Y-120340859D01*
X132771586Y-119940028D01*
X132790854Y-119535534D01*
X132790854Y-119535533D01*
X138280214Y-119535533D01*
X138299482Y-119940032D01*
X138357113Y-120340860D01*
X138452584Y-120734397D01*
X138452587Y-120734408D01*
X138585026Y-121117067D01*
X138585028Y-121117071D01*
X138753251Y-121485426D01*
X138753259Y-121485442D01*
X138955734Y-121836140D01*
X138955740Y-121836148D01*
X139190617Y-122165986D01*
X139190626Y-122165996D01*
X139190627Y-122165998D01*
X139455814Y-122472041D01*
X139748892Y-122751490D01*
X140067206Y-123001815D01*
X140407874Y-123220749D01*
X140767810Y-123406309D01*
X141143755Y-123556815D01*
X141532304Y-123670903D01*
X141929939Y-123747541D01*
X142333058Y-123786034D01*
X142333064Y-123786034D01*
X142738004Y-123786034D01*
X142738010Y-123786034D01*
X143141129Y-123747541D01*
X143538764Y-123670903D01*
X143927313Y-123556815D01*
X144303258Y-123406309D01*
X144663194Y-123220749D01*
X145003862Y-123001815D01*
X145322176Y-122751490D01*
X145615254Y-122472041D01*
X145880441Y-122165998D01*
X146115337Y-121836134D01*
X146317813Y-121485434D01*
X146486037Y-121117077D01*
X146486039Y-121117070D01*
X146486041Y-121117067D01*
X146618480Y-120734408D01*
X146618480Y-120734405D01*
X146618484Y-120734396D01*
X146713955Y-120340859D01*
X146771586Y-119940028D01*
X146790854Y-119535534D01*
X146771586Y-119131040D01*
X146713955Y-118730209D01*
X146618484Y-118336672D01*
X146618480Y-118336659D01*
X146486041Y-117954000D01*
X146486039Y-117953996D01*
X146317816Y-117585641D01*
X146317813Y-117585634D01*
X146115337Y-117234934D01*
X146115333Y-117234927D01*
X146115327Y-117234919D01*
X145880450Y-116905081D01*
X145880439Y-116905068D01*
X145615254Y-116599027D01*
X145322176Y-116319578D01*
X145003862Y-116069253D01*
X144663194Y-115850319D01*
X144303258Y-115664759D01*
X144303257Y-115664758D01*
X144303254Y-115664757D01*
X144303250Y-115664755D01*
X143927314Y-115514253D01*
X143927302Y-115514249D01*
X143538769Y-115400166D01*
X143538752Y-115400162D01*
X143141144Y-115323529D01*
X143141132Y-115323527D01*
X143006756Y-115310696D01*
X142738010Y-115285034D01*
X142333058Y-115285034D01*
X142091186Y-115308129D01*
X141929935Y-115323527D01*
X141929923Y-115323529D01*
X141532315Y-115400162D01*
X141532298Y-115400166D01*
X141143765Y-115514249D01*
X141143753Y-115514253D01*
X140767817Y-115664755D01*
X140767813Y-115664757D01*
X140407877Y-115850317D01*
X140067217Y-116069245D01*
X140067210Y-116069250D01*
X140067206Y-116069253D01*
X139827578Y-116257698D01*
X139748893Y-116319577D01*
X139748891Y-116319578D01*
X139455817Y-116599024D01*
X139455815Y-116599026D01*
X139190628Y-116905068D01*
X139190617Y-116905081D01*
X138955740Y-117234919D01*
X138955734Y-117234927D01*
X138753259Y-117585625D01*
X138753251Y-117585641D01*
X138585028Y-117953996D01*
X138585026Y-117954000D01*
X138452587Y-118336659D01*
X138452584Y-118336670D01*
X138357113Y-118730207D01*
X138299482Y-119131035D01*
X138280214Y-119535533D01*
X132790854Y-119535533D01*
X132771586Y-119131040D01*
X132713955Y-118730209D01*
X132618484Y-118336672D01*
X132618480Y-118336659D01*
X132486041Y-117954000D01*
X132486039Y-117953996D01*
X132317816Y-117585641D01*
X132317813Y-117585634D01*
X132115337Y-117234934D01*
X132115333Y-117234927D01*
X132115327Y-117234919D01*
X131880450Y-116905081D01*
X131880439Y-116905068D01*
X131615254Y-116599027D01*
X131322176Y-116319578D01*
X131003862Y-116069253D01*
X130663194Y-115850319D01*
X130303258Y-115664759D01*
X130303257Y-115664758D01*
X130303254Y-115664757D01*
X130303250Y-115664755D01*
X129927314Y-115514253D01*
X129927302Y-115514249D01*
X129538769Y-115400166D01*
X129538752Y-115400162D01*
X129141144Y-115323529D01*
X129141132Y-115323527D01*
X129006756Y-115310696D01*
X128738010Y-115285034D01*
X128333058Y-115285034D01*
X128091186Y-115308129D01*
X127929935Y-115323527D01*
X127929923Y-115323529D01*
X127532315Y-115400162D01*
X127532298Y-115400166D01*
X127143765Y-115514249D01*
X127143753Y-115514253D01*
X126767817Y-115664755D01*
X126767813Y-115664757D01*
X126407877Y-115850317D01*
X126067217Y-116069245D01*
X126067210Y-116069250D01*
X126067206Y-116069253D01*
X125827578Y-116257698D01*
X125748893Y-116319577D01*
X125748891Y-116319578D01*
X125455817Y-116599024D01*
X125455815Y-116599026D01*
X125190628Y-116905068D01*
X125190617Y-116905081D01*
X124955740Y-117234919D01*
X124955734Y-117234927D01*
X124753259Y-117585625D01*
X124753251Y-117585641D01*
X124585028Y-117953996D01*
X124585026Y-117954000D01*
X124452587Y-118336659D01*
X124452584Y-118336670D01*
X124357113Y-118730207D01*
X124299482Y-119131035D01*
X124280214Y-119535534D01*
X113790854Y-119535534D01*
X113771586Y-119131040D01*
X113713955Y-118730209D01*
X113618484Y-118336672D01*
X113618480Y-118336659D01*
X113486041Y-117954000D01*
X113486039Y-117953996D01*
X113317816Y-117585641D01*
X113317813Y-117585634D01*
X113115337Y-117234934D01*
X113115333Y-117234927D01*
X113115327Y-117234919D01*
X112880450Y-116905081D01*
X112880439Y-116905068D01*
X112615254Y-116599027D01*
X112322176Y-116319578D01*
X112003862Y-116069253D01*
X111663194Y-115850319D01*
X111303258Y-115664759D01*
X111303257Y-115664758D01*
X111303254Y-115664757D01*
X111303250Y-115664755D01*
X110927314Y-115514253D01*
X110927302Y-115514249D01*
X110538769Y-115400166D01*
X110538752Y-115400162D01*
X110141144Y-115323529D01*
X110141132Y-115323527D01*
X110006756Y-115310696D01*
X109738010Y-115285034D01*
X109333058Y-115285034D01*
X109091186Y-115308129D01*
X108929935Y-115323527D01*
X108929923Y-115323529D01*
X108532315Y-115400162D01*
X108532298Y-115400166D01*
X108143765Y-115514249D01*
X108143753Y-115514253D01*
X107767817Y-115664755D01*
X107767813Y-115664757D01*
X107407877Y-115850317D01*
X107067217Y-116069245D01*
X107067210Y-116069250D01*
X107067206Y-116069253D01*
X106827578Y-116257698D01*
X106748893Y-116319577D01*
X106748891Y-116319578D01*
X106455817Y-116599024D01*
X106455815Y-116599026D01*
X106190628Y-116905068D01*
X106190617Y-116905081D01*
X105955740Y-117234919D01*
X105955734Y-117234927D01*
X105753259Y-117585625D01*
X105753251Y-117585641D01*
X105585028Y-117953996D01*
X105585026Y-117954000D01*
X105452587Y-118336659D01*
X105452584Y-118336670D01*
X105357113Y-118730207D01*
X105299482Y-119131035D01*
X105280214Y-119535533D01*
X75500500Y-119535533D01*
X75500500Y-110376716D01*
X187385568Y-110376716D01*
X187405862Y-110511352D01*
X187424672Y-110636144D01*
X187424673Y-110636146D01*
X187424674Y-110636152D01*
X187502006Y-110886855D01*
X187615835Y-111123225D01*
X187615836Y-111123226D01*
X187615838Y-111123229D01*
X187615840Y-111123233D01*
X187763634Y-111340007D01*
X187763635Y-111340008D01*
X187942082Y-111532330D01*
X187942086Y-111532333D01*
X187942087Y-111532334D01*
X188147211Y-111695915D01*
X188374425Y-111827097D01*
X188618652Y-111922949D01*
X188874438Y-111981331D01*
X188874444Y-111981331D01*
X188874447Y-111981332D01*
X189070568Y-111996029D01*
X189070574Y-111996029D01*
X189201568Y-111996029D01*
X189397688Y-111981332D01*
X189397690Y-111981331D01*
X189397698Y-111981331D01*
X189653484Y-111922949D01*
X189897711Y-111827097D01*
X190124925Y-111695915D01*
X190330049Y-111532334D01*
X190508501Y-111340008D01*
X190656296Y-111123233D01*
X190770131Y-110886852D01*
X190847464Y-110636144D01*
X190886567Y-110376716D01*
X211185568Y-110376716D01*
X211205862Y-110511352D01*
X211224672Y-110636144D01*
X211224673Y-110636146D01*
X211224674Y-110636152D01*
X211302006Y-110886855D01*
X211415835Y-111123225D01*
X211415836Y-111123226D01*
X211415838Y-111123229D01*
X211415840Y-111123233D01*
X211563634Y-111340007D01*
X211563635Y-111340008D01*
X211742082Y-111532330D01*
X211742086Y-111532333D01*
X211742087Y-111532334D01*
X211947211Y-111695915D01*
X212174425Y-111827097D01*
X212418652Y-111922949D01*
X212674438Y-111981331D01*
X212674444Y-111981331D01*
X212674447Y-111981332D01*
X212870568Y-111996029D01*
X212870574Y-111996029D01*
X213001568Y-111996029D01*
X213197688Y-111981332D01*
X213197690Y-111981331D01*
X213197698Y-111981331D01*
X213453484Y-111922949D01*
X213697711Y-111827097D01*
X213924925Y-111695915D01*
X214130049Y-111532334D01*
X214308501Y-111340008D01*
X214456296Y-111123233D01*
X214570131Y-110886852D01*
X214647464Y-110636144D01*
X214686568Y-110376711D01*
X214686568Y-110114347D01*
X214647464Y-109854914D01*
X214570131Y-109604206D01*
X214547308Y-109556814D01*
X214456300Y-109367832D01*
X214456299Y-109367831D01*
X214456298Y-109367830D01*
X214456296Y-109367825D01*
X214308501Y-109151050D01*
X214298509Y-109140282D01*
X214130053Y-108958727D01*
X214090601Y-108927265D01*
X213924925Y-108795143D01*
X213697711Y-108663961D01*
X213453484Y-108568109D01*
X213453479Y-108568107D01*
X213453470Y-108568105D01*
X213235886Y-108518443D01*
X213197698Y-108509727D01*
X213197697Y-108509726D01*
X213197693Y-108509726D01*
X213197688Y-108509725D01*
X213001568Y-108495029D01*
X213001562Y-108495029D01*
X212870574Y-108495029D01*
X212870568Y-108495029D01*
X212674447Y-108509725D01*
X212674442Y-108509726D01*
X212418665Y-108568105D01*
X212418646Y-108568111D01*
X212174424Y-108663961D01*
X211947211Y-108795143D01*
X211742082Y-108958727D01*
X211563635Y-109151049D01*
X211415836Y-109367831D01*
X211415835Y-109367832D01*
X211302006Y-109604202D01*
X211224674Y-109854905D01*
X211224673Y-109854910D01*
X211224672Y-109854914D01*
X211209921Y-109952776D01*
X211185568Y-110114341D01*
X211185568Y-110376716D01*
X190886567Y-110376716D01*
X190886568Y-110376711D01*
X190886568Y-110114347D01*
X190847464Y-109854914D01*
X190770131Y-109604206D01*
X190747308Y-109556814D01*
X190656300Y-109367832D01*
X190656299Y-109367831D01*
X190656298Y-109367830D01*
X190656296Y-109367825D01*
X190508501Y-109151050D01*
X190498509Y-109140282D01*
X190330053Y-108958727D01*
X190290601Y-108927265D01*
X190124925Y-108795143D01*
X189897711Y-108663961D01*
X189653484Y-108568109D01*
X189653479Y-108568107D01*
X189653470Y-108568105D01*
X189435886Y-108518443D01*
X189397698Y-108509727D01*
X189397697Y-108509726D01*
X189397693Y-108509726D01*
X189397688Y-108509725D01*
X189201568Y-108495029D01*
X189201562Y-108495029D01*
X189070574Y-108495029D01*
X189070568Y-108495029D01*
X188874447Y-108509725D01*
X188874442Y-108509726D01*
X188618665Y-108568105D01*
X188618646Y-108568111D01*
X188374424Y-108663961D01*
X188147211Y-108795143D01*
X187942082Y-108958727D01*
X187763635Y-109151049D01*
X187615836Y-109367831D01*
X187615835Y-109367832D01*
X187502006Y-109604202D01*
X187424674Y-109854905D01*
X187424673Y-109854910D01*
X187424672Y-109854914D01*
X187409921Y-109952776D01*
X187385568Y-110114341D01*
X187385568Y-110376716D01*
X75500500Y-110376716D01*
X75500500Y-105535534D01*
X91280214Y-105535534D01*
X91299482Y-105940032D01*
X91357113Y-106340860D01*
X91452584Y-106734397D01*
X91452587Y-106734408D01*
X91585026Y-107117067D01*
X91585028Y-107117071D01*
X91753251Y-107485426D01*
X91753259Y-107485442D01*
X91955734Y-107836140D01*
X91955740Y-107836148D01*
X92190617Y-108165986D01*
X92190626Y-108165996D01*
X92190627Y-108165998D01*
X92455814Y-108472041D01*
X92748892Y-108751490D01*
X93067206Y-109001815D01*
X93407874Y-109220749D01*
X93767810Y-109406309D01*
X94143755Y-109556815D01*
X94532304Y-109670903D01*
X94929939Y-109747541D01*
X95333058Y-109786034D01*
X95333064Y-109786034D01*
X95738004Y-109786034D01*
X95738010Y-109786034D01*
X96141129Y-109747541D01*
X96538764Y-109670903D01*
X96927313Y-109556815D01*
X97303258Y-109406309D01*
X97663194Y-109220749D01*
X98003862Y-109001815D01*
X98322176Y-108751490D01*
X98615254Y-108472041D01*
X98880441Y-108165998D01*
X99115337Y-107836134D01*
X99317813Y-107485434D01*
X99486037Y-107117077D01*
X99486039Y-107117070D01*
X99486041Y-107117067D01*
X99618480Y-106734408D01*
X99618480Y-106734405D01*
X99618484Y-106734396D01*
X99713955Y-106340859D01*
X99771586Y-105940028D01*
X99790854Y-105535534D01*
X99790854Y-105535533D01*
X105280214Y-105535533D01*
X105299482Y-105940032D01*
X105357113Y-106340860D01*
X105452584Y-106734397D01*
X105452587Y-106734408D01*
X105585026Y-107117067D01*
X105585028Y-107117071D01*
X105753251Y-107485426D01*
X105753259Y-107485442D01*
X105955734Y-107836140D01*
X105955740Y-107836148D01*
X106190617Y-108165986D01*
X106190626Y-108165996D01*
X106190627Y-108165998D01*
X106455814Y-108472041D01*
X106748892Y-108751490D01*
X107067206Y-109001815D01*
X107407874Y-109220749D01*
X107767810Y-109406309D01*
X108143755Y-109556815D01*
X108532304Y-109670903D01*
X108929939Y-109747541D01*
X109333058Y-109786034D01*
X109333064Y-109786034D01*
X109738004Y-109786034D01*
X109738010Y-109786034D01*
X110141129Y-109747541D01*
X110538764Y-109670903D01*
X110927313Y-109556815D01*
X111303258Y-109406309D01*
X111663194Y-109220749D01*
X112003862Y-109001815D01*
X112322176Y-108751490D01*
X112615254Y-108472041D01*
X112880441Y-108165998D01*
X113115337Y-107836134D01*
X113317813Y-107485434D01*
X113486037Y-107117077D01*
X113486039Y-107117070D01*
X113486041Y-107117067D01*
X113618480Y-106734408D01*
X113618480Y-106734405D01*
X113618484Y-106734396D01*
X113713955Y-106340859D01*
X113771586Y-105940028D01*
X113790854Y-105535534D01*
X124280214Y-105535534D01*
X124299482Y-105940032D01*
X124357113Y-106340860D01*
X124452584Y-106734397D01*
X124452587Y-106734408D01*
X124585026Y-107117067D01*
X124585028Y-107117071D01*
X124753251Y-107485426D01*
X124753259Y-107485442D01*
X124955734Y-107836140D01*
X124955740Y-107836148D01*
X125190617Y-108165986D01*
X125190626Y-108165996D01*
X125190627Y-108165998D01*
X125455814Y-108472041D01*
X125748892Y-108751490D01*
X126067206Y-109001815D01*
X126407874Y-109220749D01*
X126767810Y-109406309D01*
X127143755Y-109556815D01*
X127532304Y-109670903D01*
X127929939Y-109747541D01*
X128333058Y-109786034D01*
X128333064Y-109786034D01*
X128738004Y-109786034D01*
X128738010Y-109786034D01*
X129141129Y-109747541D01*
X129538764Y-109670903D01*
X129927313Y-109556815D01*
X130303258Y-109406309D01*
X130663194Y-109220749D01*
X131003862Y-109001815D01*
X131322176Y-108751490D01*
X131615254Y-108472041D01*
X131880441Y-108165998D01*
X132115337Y-107836134D01*
X132317813Y-107485434D01*
X132486037Y-107117077D01*
X132486039Y-107117070D01*
X132486041Y-107117067D01*
X132618480Y-106734408D01*
X132618480Y-106734405D01*
X132618484Y-106734396D01*
X132713955Y-106340859D01*
X132771586Y-105940028D01*
X132790854Y-105535534D01*
X132790854Y-105535533D01*
X138280214Y-105535533D01*
X138299482Y-105940032D01*
X138357113Y-106340860D01*
X138452584Y-106734397D01*
X138452587Y-106734408D01*
X138585026Y-107117067D01*
X138585028Y-107117071D01*
X138753251Y-107485426D01*
X138753259Y-107485442D01*
X138955734Y-107836140D01*
X138955740Y-107836148D01*
X139190617Y-108165986D01*
X139190626Y-108165996D01*
X139190627Y-108165998D01*
X139455814Y-108472041D01*
X139748892Y-108751490D01*
X140067206Y-109001815D01*
X140407874Y-109220749D01*
X140767810Y-109406309D01*
X141143755Y-109556815D01*
X141532304Y-109670903D01*
X141929939Y-109747541D01*
X142333058Y-109786034D01*
X142333064Y-109786034D01*
X142738004Y-109786034D01*
X142738010Y-109786034D01*
X143141129Y-109747541D01*
X143538764Y-109670903D01*
X143927313Y-109556815D01*
X144303258Y-109406309D01*
X144663194Y-109220749D01*
X145003862Y-109001815D01*
X145322176Y-108751490D01*
X145615254Y-108472041D01*
X145880441Y-108165998D01*
X146115337Y-107836134D01*
X146317813Y-107485434D01*
X146486037Y-107117077D01*
X146486039Y-107117070D01*
X146486041Y-107117067D01*
X146618480Y-106734408D01*
X146618480Y-106734405D01*
X146618484Y-106734396D01*
X146713955Y-106340859D01*
X146771586Y-105940028D01*
X146790854Y-105535534D01*
X146771586Y-105131040D01*
X146713955Y-104730209D01*
X146618484Y-104336672D01*
X146596699Y-104273727D01*
X146486041Y-103954000D01*
X146486039Y-103953996D01*
X146464273Y-103906336D01*
X146317813Y-103585634D01*
X146115337Y-103234934D01*
X146115333Y-103234927D01*
X146115327Y-103234919D01*
X145880450Y-102905081D01*
X145880439Y-102905068D01*
X145615254Y-102599027D01*
X145322176Y-102319578D01*
X145304329Y-102305543D01*
X211330768Y-102305543D01*
X211349932Y-102536834D01*
X211349934Y-102536845D01*
X211406910Y-102761837D01*
X211500143Y-102974385D01*
X211627084Y-103168684D01*
X211627087Y-103168688D01*
X211627089Y-103168690D01*
X211784284Y-103339450D01*
X211784287Y-103339452D01*
X211784290Y-103339455D01*
X211967433Y-103482001D01*
X211967439Y-103482005D01*
X211967442Y-103482007D01*
X212007435Y-103503650D01*
X212158940Y-103585641D01*
X212171565Y-103592473D01*
X212285555Y-103631605D01*
X212391083Y-103667834D01*
X212391085Y-103667834D01*
X212391087Y-103667835D01*
X212620019Y-103706037D01*
X212620020Y-103706037D01*
X212852116Y-103706037D01*
X212852117Y-103706037D01*
X213081049Y-103667835D01*
X213300571Y-103592473D01*
X213504694Y-103482007D01*
X213687852Y-103339450D01*
X213845047Y-103168690D01*
X213971992Y-102974386D01*
X214065225Y-102761837D01*
X214122202Y-102536842D01*
X214123283Y-102523796D01*
X214141368Y-102305543D01*
X214141368Y-102305530D01*
X214122203Y-102074239D01*
X214122201Y-102074228D01*
X214065225Y-101849236D01*
X213971992Y-101636688D01*
X213845051Y-101442389D01*
X213845048Y-101442386D01*
X213845047Y-101442384D01*
X213687852Y-101271624D01*
X213687847Y-101271620D01*
X213687845Y-101271618D01*
X213510246Y-101133387D01*
X213469433Y-101076677D01*
X213465758Y-101006904D01*
X213500390Y-100946221D01*
X213510237Y-100937687D01*
X213687852Y-100799445D01*
X213845047Y-100628685D01*
X213971992Y-100434381D01*
X214065225Y-100221832D01*
X214122202Y-99996837D01*
X214123283Y-99983791D01*
X214141368Y-99765538D01*
X214141368Y-99765525D01*
X214122203Y-99534234D01*
X214122201Y-99534223D01*
X214065225Y-99309231D01*
X213971992Y-99096683D01*
X213845051Y-98902384D01*
X213845048Y-98902381D01*
X213845047Y-98902379D01*
X213687852Y-98731619D01*
X213687847Y-98731615D01*
X213687845Y-98731613D01*
X213510245Y-98593381D01*
X213469432Y-98536671D01*
X213465757Y-98466898D01*
X213500389Y-98406215D01*
X213510227Y-98397688D01*
X213687852Y-98259439D01*
X213845047Y-98088679D01*
X213971992Y-97894375D01*
X214065225Y-97681826D01*
X214122202Y-97456831D01*
X214123283Y-97443786D01*
X214141368Y-97225532D01*
X214141368Y-97225519D01*
X214122203Y-96994228D01*
X214122201Y-96994217D01*
X214065225Y-96769225D01*
X213971992Y-96556677D01*
X213845051Y-96362378D01*
X213845048Y-96362375D01*
X213845047Y-96362373D01*
X213687852Y-96191613D01*
X213509837Y-96053059D01*
X213469025Y-95996349D01*
X213465350Y-95926576D01*
X213499981Y-95865893D01*
X213509838Y-95857352D01*
X213534866Y-95837872D01*
X213011458Y-95314464D01*
X212977973Y-95253141D01*
X212982957Y-95183449D01*
X213020882Y-95130597D01*
X213123360Y-95047226D01*
X213174177Y-94975233D01*
X213228918Y-94931817D01*
X213298443Y-94924888D01*
X213360678Y-94956646D01*
X213363162Y-94959062D01*
X213887254Y-95483155D01*
X213971552Y-95354127D01*
X214064750Y-95141656D01*
X214121706Y-94916739D01*
X214140866Y-94685526D01*
X214140866Y-94685515D01*
X214121706Y-94454302D01*
X214064750Y-94229385D01*
X213971551Y-94016911D01*
X213887254Y-93887885D01*
X213366034Y-94409106D01*
X213304711Y-94442591D01*
X213235019Y-94437607D01*
X213179086Y-94395735D01*
X213170430Y-94381940D01*
X213169005Y-94379920D01*
X213070498Y-94274446D01*
X213070494Y-94274443D01*
X213033169Y-94251745D01*
X212986117Y-94200094D01*
X212974460Y-94131203D01*
X213001898Y-94066947D01*
X213009917Y-94058117D01*
X213534867Y-93533168D01*
X213504417Y-93509470D01*
X213300370Y-93399044D01*
X213300361Y-93399041D01*
X213080928Y-93323709D01*
X212852075Y-93285521D01*
X212620061Y-93285521D01*
X212391207Y-93323709D01*
X212171774Y-93399041D01*
X212171766Y-93399044D01*
X211967712Y-93509473D01*
X211937268Y-93533167D01*
X211937268Y-93533168D01*
X212460677Y-94056577D01*
X212494162Y-94117900D01*
X212489178Y-94187592D01*
X212451251Y-94240446D01*
X212348776Y-94323815D01*
X212297958Y-94395807D01*
X212243215Y-94439224D01*
X212173690Y-94446153D01*
X212111455Y-94414394D01*
X212108973Y-94411979D01*
X211584880Y-93887886D01*
X211500584Y-94016912D01*
X211500582Y-94016916D01*
X211407385Y-94229385D01*
X211350429Y-94454302D01*
X211331270Y-94685515D01*
X211331270Y-94685526D01*
X211350429Y-94916739D01*
X211407385Y-95141656D01*
X211500584Y-95354130D01*
X211584879Y-95483154D01*
X212106101Y-94961933D01*
X212167424Y-94928448D01*
X212237115Y-94933432D01*
X212293049Y-94975303D01*
X212301714Y-94989114D01*
X212303130Y-94991121D01*
X212401637Y-95096595D01*
X212401639Y-95096596D01*
X212438964Y-95119294D01*
X212486016Y-95170945D01*
X212497674Y-95239835D01*
X212470237Y-95304092D01*
X212462217Y-95312923D01*
X211937267Y-95837872D01*
X211962295Y-95857351D01*
X212003109Y-95914061D01*
X212006784Y-95983834D01*
X211972154Y-96044518D01*
X211962297Y-96053059D01*
X211784286Y-96191611D01*
X211784284Y-96191612D01*
X211784284Y-96191613D01*
X211766512Y-96210919D01*
X211627084Y-96362378D01*
X211500143Y-96556677D01*
X211406910Y-96769225D01*
X211349934Y-96994217D01*
X211349932Y-96994228D01*
X211330768Y-97225519D01*
X211330768Y-97225532D01*
X211349932Y-97456823D01*
X211349934Y-97456834D01*
X211406910Y-97681826D01*
X211500143Y-97894374D01*
X211627084Y-98088673D01*
X211627087Y-98088677D01*
X211627089Y-98088679D01*
X211784284Y-98259439D01*
X211784287Y-98259441D01*
X211784290Y-98259444D01*
X211961890Y-98397676D01*
X212002703Y-98454386D01*
X212006378Y-98524159D01*
X211971746Y-98584842D01*
X211961890Y-98593382D01*
X211784290Y-98731613D01*
X211784287Y-98731616D01*
X211784284Y-98731618D01*
X211784284Y-98731619D01*
X211766513Y-98750924D01*
X211627084Y-98902384D01*
X211500143Y-99096683D01*
X211406910Y-99309231D01*
X211349934Y-99534223D01*
X211349932Y-99534234D01*
X211330768Y-99765525D01*
X211330768Y-99765538D01*
X211349932Y-99996829D01*
X211349934Y-99996840D01*
X211406910Y-100221832D01*
X211500143Y-100434380D01*
X211627084Y-100628679D01*
X211627087Y-100628683D01*
X211627089Y-100628685D01*
X211784284Y-100799445D01*
X211784287Y-100799447D01*
X211784290Y-100799450D01*
X211961889Y-100937681D01*
X212002702Y-100994391D01*
X212006377Y-101064164D01*
X211971745Y-101124847D01*
X211961890Y-101133387D01*
X211784286Y-101271622D01*
X211784284Y-101271623D01*
X211784284Y-101271624D01*
X211771939Y-101285034D01*
X211627084Y-101442389D01*
X211500143Y-101636688D01*
X211406910Y-101849236D01*
X211349934Y-102074228D01*
X211349932Y-102074239D01*
X211330768Y-102305530D01*
X211330768Y-102305543D01*
X145304329Y-102305543D01*
X145003862Y-102069253D01*
X144663194Y-101850319D01*
X144303258Y-101664759D01*
X144303257Y-101664758D01*
X144303254Y-101664757D01*
X144303250Y-101664755D01*
X143927314Y-101514253D01*
X143927302Y-101514249D01*
X143538769Y-101400166D01*
X143538752Y-101400162D01*
X143141144Y-101323529D01*
X143141132Y-101323527D01*
X143006755Y-101310695D01*
X142738010Y-101285034D01*
X142333058Y-101285034D01*
X142091186Y-101308129D01*
X141929935Y-101323527D01*
X141929923Y-101323529D01*
X141532315Y-101400162D01*
X141532298Y-101400166D01*
X141143765Y-101514249D01*
X141143753Y-101514253D01*
X140767817Y-101664755D01*
X140767813Y-101664757D01*
X140407877Y-101850317D01*
X140067217Y-102069245D01*
X140067210Y-102069250D01*
X140067206Y-102069253D01*
X139909653Y-102193154D01*
X139748893Y-102319577D01*
X139748891Y-102319578D01*
X139455817Y-102599024D01*
X139455814Y-102599027D01*
X139450888Y-102604712D01*
X139190628Y-102905068D01*
X139190617Y-102905081D01*
X138955740Y-103234919D01*
X138955734Y-103234927D01*
X138753259Y-103585625D01*
X138753251Y-103585641D01*
X138585028Y-103953996D01*
X138585026Y-103954000D01*
X138452587Y-104336659D01*
X138452584Y-104336670D01*
X138357113Y-104730207D01*
X138299482Y-105131035D01*
X138280214Y-105535533D01*
X132790854Y-105535533D01*
X132771586Y-105131040D01*
X132713955Y-104730209D01*
X132618484Y-104336672D01*
X132596699Y-104273727D01*
X132486041Y-103954000D01*
X132486039Y-103953996D01*
X132464273Y-103906336D01*
X132317813Y-103585634D01*
X132115337Y-103234934D01*
X132115333Y-103234927D01*
X132115327Y-103234919D01*
X131880450Y-102905081D01*
X131880439Y-102905068D01*
X131615254Y-102599027D01*
X131322176Y-102319578D01*
X131003862Y-102069253D01*
X130663194Y-101850319D01*
X130303258Y-101664759D01*
X130303257Y-101664758D01*
X130303254Y-101664757D01*
X130303250Y-101664755D01*
X129927314Y-101514253D01*
X129927302Y-101514249D01*
X129538769Y-101400166D01*
X129538752Y-101400162D01*
X129141144Y-101323529D01*
X129141132Y-101323527D01*
X129006756Y-101310696D01*
X128738010Y-101285034D01*
X128333058Y-101285034D01*
X128091186Y-101308129D01*
X127929935Y-101323527D01*
X127929923Y-101323529D01*
X127532315Y-101400162D01*
X127532298Y-101400166D01*
X127143765Y-101514249D01*
X127143753Y-101514253D01*
X126767817Y-101664755D01*
X126767813Y-101664757D01*
X126407877Y-101850317D01*
X126067217Y-102069245D01*
X126067210Y-102069250D01*
X126067206Y-102069253D01*
X125909653Y-102193154D01*
X125748893Y-102319577D01*
X125748891Y-102319578D01*
X125455817Y-102599024D01*
X125455814Y-102599027D01*
X125450888Y-102604712D01*
X125190628Y-102905068D01*
X125190617Y-102905081D01*
X124955740Y-103234919D01*
X124955734Y-103234927D01*
X124753259Y-103585625D01*
X124753251Y-103585641D01*
X124585028Y-103953996D01*
X124585026Y-103954000D01*
X124452587Y-104336659D01*
X124452584Y-104336670D01*
X124357113Y-104730207D01*
X124299482Y-105131035D01*
X124280214Y-105535534D01*
X113790854Y-105535534D01*
X113771586Y-105131040D01*
X113713955Y-104730209D01*
X113618484Y-104336672D01*
X113596699Y-104273727D01*
X113486041Y-103954000D01*
X113486039Y-103953996D01*
X113464273Y-103906336D01*
X113317813Y-103585634D01*
X113115337Y-103234934D01*
X113115333Y-103234927D01*
X113115327Y-103234919D01*
X112880450Y-102905081D01*
X112880439Y-102905068D01*
X112615254Y-102599027D01*
X112322176Y-102319578D01*
X112003862Y-102069253D01*
X111663194Y-101850319D01*
X111303258Y-101664759D01*
X111303257Y-101664758D01*
X111303254Y-101664757D01*
X111303250Y-101664755D01*
X110927314Y-101514253D01*
X110927302Y-101514249D01*
X110538769Y-101400166D01*
X110538752Y-101400162D01*
X110141144Y-101323529D01*
X110141132Y-101323527D01*
X110006756Y-101310696D01*
X109738010Y-101285034D01*
X109333058Y-101285034D01*
X109091186Y-101308129D01*
X108929935Y-101323527D01*
X108929923Y-101323529D01*
X108532315Y-101400162D01*
X108532298Y-101400166D01*
X108143765Y-101514249D01*
X108143753Y-101514253D01*
X107767817Y-101664755D01*
X107767813Y-101664757D01*
X107407877Y-101850317D01*
X107067217Y-102069245D01*
X107067210Y-102069250D01*
X107067206Y-102069253D01*
X106909653Y-102193154D01*
X106748893Y-102319577D01*
X106748891Y-102319578D01*
X106455817Y-102599024D01*
X106455814Y-102599027D01*
X106450888Y-102604712D01*
X106190628Y-102905068D01*
X106190617Y-102905081D01*
X105955740Y-103234919D01*
X105955734Y-103234927D01*
X105753259Y-103585625D01*
X105753251Y-103585641D01*
X105585028Y-103953996D01*
X105585026Y-103954000D01*
X105452587Y-104336659D01*
X105452584Y-104336670D01*
X105357113Y-104730207D01*
X105299482Y-105131035D01*
X105280214Y-105535533D01*
X99790854Y-105535533D01*
X99771586Y-105131040D01*
X99713955Y-104730209D01*
X99618484Y-104336672D01*
X99596699Y-104273727D01*
X99486041Y-103954000D01*
X99486039Y-103953996D01*
X99464273Y-103906336D01*
X99317813Y-103585634D01*
X99115337Y-103234934D01*
X99115333Y-103234927D01*
X99115327Y-103234919D01*
X98880450Y-102905081D01*
X98880439Y-102905068D01*
X98615254Y-102599027D01*
X98322176Y-102319578D01*
X98003862Y-102069253D01*
X97663194Y-101850319D01*
X97303258Y-101664759D01*
X97303257Y-101664758D01*
X97303254Y-101664757D01*
X97303250Y-101664755D01*
X96927314Y-101514253D01*
X96927302Y-101514249D01*
X96538769Y-101400166D01*
X96538752Y-101400162D01*
X96141144Y-101323529D01*
X96141132Y-101323527D01*
X96006755Y-101310695D01*
X95738010Y-101285034D01*
X95333058Y-101285034D01*
X95091186Y-101308129D01*
X94929935Y-101323527D01*
X94929923Y-101323529D01*
X94532315Y-101400162D01*
X94532298Y-101400166D01*
X94143765Y-101514249D01*
X94143753Y-101514253D01*
X93767817Y-101664755D01*
X93767813Y-101664757D01*
X93407877Y-101850317D01*
X93067217Y-102069245D01*
X93067210Y-102069250D01*
X93067206Y-102069253D01*
X92909653Y-102193154D01*
X92748893Y-102319577D01*
X92748891Y-102319578D01*
X92455817Y-102599024D01*
X92455814Y-102599027D01*
X92450888Y-102604712D01*
X92190628Y-102905068D01*
X92190617Y-102905081D01*
X91955740Y-103234919D01*
X91955734Y-103234927D01*
X91753259Y-103585625D01*
X91753251Y-103585641D01*
X91585028Y-103953996D01*
X91585026Y-103954000D01*
X91452587Y-104336659D01*
X91452584Y-104336670D01*
X91357113Y-104730207D01*
X91299482Y-105131035D01*
X91280214Y-105535534D01*
X75500500Y-105535534D01*
X75500500Y-103575539D01*
X79728706Y-103575539D01*
X79747951Y-103795515D01*
X79747953Y-103795525D01*
X79805102Y-104008810D01*
X79805107Y-104008824D01*
X79898425Y-104208945D01*
X79898429Y-104208953D01*
X79943785Y-104273727D01*
X80386578Y-103830934D01*
X80447901Y-103797449D01*
X80517592Y-103802433D01*
X80573526Y-103844304D01*
X80578567Y-103851564D01*
X80613767Y-103906337D01*
X80668763Y-103953991D01*
X80729130Y-104006298D01*
X80726821Y-104008961D01*
X80761534Y-104049038D01*
X80771463Y-104118199D01*
X80742426Y-104181749D01*
X80736410Y-104188208D01*
X80297338Y-104627279D01*
X80362119Y-104672640D01*
X80362121Y-104672641D01*
X80562242Y-104765959D01*
X80562256Y-104765964D01*
X80775541Y-104823113D01*
X80775551Y-104823115D01*
X80995527Y-104842361D01*
X80995529Y-104842361D01*
X81215504Y-104823115D01*
X81215514Y-104823113D01*
X81428799Y-104765964D01*
X81428813Y-104765959D01*
X81628934Y-104672641D01*
X81693715Y-104627279D01*
X81254644Y-104188208D01*
X81221159Y-104126885D01*
X81226143Y-104057193D01*
X81263169Y-104007732D01*
X81261926Y-104006298D01*
X81268628Y-104000491D01*
X81377289Y-103906337D01*
X81412482Y-103851576D01*
X81465283Y-103805822D01*
X81534442Y-103795878D01*
X81597998Y-103824902D01*
X81604477Y-103830935D01*
X82047268Y-104273726D01*
X82092630Y-104208945D01*
X82152873Y-104079754D01*
X82199045Y-104027314D01*
X82266238Y-104008162D01*
X82333119Y-104028377D01*
X82377637Y-104079754D01*
X82437997Y-104209197D01*
X82438001Y-104209205D01*
X82564703Y-104390154D01*
X82564708Y-104390160D01*
X82720912Y-104546364D01*
X82720918Y-104546369D01*
X82901867Y-104673071D01*
X82901869Y-104673072D01*
X82901872Y-104673074D01*
X83102084Y-104766434D01*
X83315465Y-104823610D01*
X83472657Y-104837362D01*
X83535532Y-104842863D01*
X83535534Y-104842863D01*
X83535536Y-104842863D01*
X83590551Y-104838049D01*
X83755603Y-104823610D01*
X83968984Y-104766434D01*
X84169196Y-104673074D01*
X84350154Y-104546366D01*
X84506361Y-104390159D01*
X84633069Y-104209201D01*
X84726429Y-104008989D01*
X84783605Y-103795608D01*
X84802858Y-103575539D01*
X84783605Y-103355470D01*
X84726429Y-103142089D01*
X84633069Y-102941877D01*
X84633067Y-102941874D01*
X84633066Y-102941872D01*
X84506364Y-102760923D01*
X84506359Y-102760917D01*
X84350155Y-102604713D01*
X84350149Y-102604708D01*
X84169200Y-102478006D01*
X84169196Y-102478004D01*
X84040341Y-102417918D01*
X83987902Y-102371746D01*
X83968750Y-102304552D01*
X83988966Y-102237671D01*
X84040341Y-102193154D01*
X84169196Y-102133069D01*
X84350154Y-102006361D01*
X84506361Y-101850154D01*
X84633069Y-101669196D01*
X84726429Y-101468984D01*
X84783605Y-101255603D01*
X84802858Y-101035534D01*
X84783605Y-100815465D01*
X84726429Y-100602084D01*
X84633069Y-100401872D01*
X84633067Y-100401869D01*
X84633066Y-100401867D01*
X84506364Y-100220918D01*
X84506359Y-100220912D01*
X84350155Y-100064708D01*
X84350149Y-100064703D01*
X84169200Y-99938001D01*
X84169196Y-99937999D01*
X84040341Y-99877913D01*
X83987902Y-99831741D01*
X83968750Y-99764547D01*
X83988966Y-99697666D01*
X84040341Y-99653149D01*
X84169196Y-99593064D01*
X84350154Y-99466356D01*
X84506361Y-99310149D01*
X84633069Y-99129191D01*
X84726429Y-98928979D01*
X84783605Y-98715598D01*
X84802858Y-98495529D01*
X84783605Y-98275460D01*
X84726429Y-98062079D01*
X84633069Y-97861867D01*
X84633067Y-97861864D01*
X84633066Y-97861862D01*
X84506364Y-97680913D01*
X84506359Y-97680907D01*
X84350155Y-97524703D01*
X84350149Y-97524698D01*
X84169200Y-97397996D01*
X84169196Y-97397994D01*
X84040341Y-97337908D01*
X83987902Y-97291736D01*
X83968750Y-97224542D01*
X83988966Y-97157661D01*
X84040341Y-97113144D01*
X84169196Y-97053059D01*
X84350154Y-96926351D01*
X84506361Y-96770144D01*
X84633069Y-96589186D01*
X84726429Y-96388974D01*
X84783605Y-96175593D01*
X84802858Y-95955524D01*
X84800325Y-95926576D01*
X84784662Y-95747538D01*
X84783605Y-95735455D01*
X84726429Y-95522074D01*
X84633069Y-95321862D01*
X84633067Y-95321859D01*
X84633066Y-95321857D01*
X84506364Y-95140908D01*
X84506359Y-95140902D01*
X84350155Y-94984698D01*
X84350149Y-94984693D01*
X84169200Y-94857991D01*
X84169196Y-94857989D01*
X84040341Y-94797903D01*
X83987902Y-94751731D01*
X83968750Y-94684537D01*
X83988966Y-94617656D01*
X84040341Y-94573139D01*
X84169196Y-94513054D01*
X84350154Y-94386346D01*
X84506361Y-94230139D01*
X84633069Y-94049181D01*
X84726429Y-93848969D01*
X84783605Y-93635588D01*
X84802858Y-93415519D01*
X84801416Y-93399041D01*
X84791485Y-93285521D01*
X84783605Y-93195450D01*
X84726429Y-92982069D01*
X84633069Y-92781857D01*
X84633067Y-92781854D01*
X84633066Y-92781852D01*
X84506364Y-92600903D01*
X84506359Y-92600897D01*
X84350155Y-92444693D01*
X84350149Y-92444688D01*
X84169200Y-92317986D01*
X84169196Y-92317984D01*
X83968987Y-92224625D01*
X83968984Y-92224624D01*
X83878804Y-92200460D01*
X83755604Y-92167448D01*
X83755597Y-92167447D01*
X83535536Y-92148195D01*
X83535532Y-92148195D01*
X83315470Y-92167447D01*
X83315463Y-92167448D01*
X83102080Y-92224625D01*
X82901871Y-92317984D01*
X82901867Y-92317986D01*
X82720918Y-92444688D01*
X82720912Y-92444693D01*
X82564708Y-92600897D01*
X82564703Y-92600903D01*
X82438001Y-92781852D01*
X82437999Y-92781856D01*
X82377637Y-92911304D01*
X82331465Y-92963743D01*
X82264271Y-92982895D01*
X82197390Y-92962679D01*
X82152873Y-92911303D01*
X82092630Y-92782112D01*
X82092629Y-92782110D01*
X82047268Y-92717330D01*
X81604477Y-93160121D01*
X81543154Y-93193606D01*
X81473462Y-93188622D01*
X81417529Y-93146750D01*
X81412481Y-93139480D01*
X81377289Y-93084721D01*
X81261926Y-92984760D01*
X81264226Y-92982104D01*
X81229488Y-92941947D01*
X81219602Y-92872780D01*
X81248680Y-92809248D01*
X81254644Y-92802848D01*
X81693716Y-92363776D01*
X81628942Y-92318420D01*
X81628934Y-92318416D01*
X81428813Y-92225098D01*
X81428799Y-92225093D01*
X81215514Y-92167944D01*
X81215504Y-92167942D01*
X80995529Y-92148697D01*
X80995527Y-92148697D01*
X80775551Y-92167942D01*
X80775541Y-92167944D01*
X80562256Y-92225093D01*
X80562247Y-92225097D01*
X80362117Y-92318419D01*
X80297338Y-92363777D01*
X80736411Y-92802849D01*
X80769896Y-92864172D01*
X80764912Y-92933863D01*
X80727886Y-92983324D01*
X80729130Y-92984760D01*
X80613766Y-93084721D01*
X80578574Y-93139481D01*
X80525770Y-93185236D01*
X80456611Y-93195179D01*
X80393056Y-93166153D01*
X80386578Y-93160122D01*
X79943786Y-92717329D01*
X79898428Y-92782108D01*
X79805106Y-92982238D01*
X79805102Y-92982247D01*
X79747953Y-93195532D01*
X79747951Y-93195542D01*
X79728706Y-93415518D01*
X79728706Y-93415519D01*
X79747951Y-93635495D01*
X79747953Y-93635505D01*
X79805102Y-93848790D01*
X79805107Y-93848804D01*
X79898425Y-94048925D01*
X79898429Y-94048933D01*
X79943785Y-94113707D01*
X80386578Y-93670914D01*
X80447901Y-93637429D01*
X80517592Y-93642413D01*
X80573526Y-93684284D01*
X80578567Y-93691544D01*
X80578576Y-93691558D01*
X80613767Y-93746317D01*
X80729130Y-93846278D01*
X80726821Y-93848941D01*
X80761534Y-93889018D01*
X80771463Y-93958179D01*
X80742426Y-94021729D01*
X80736410Y-94028188D01*
X80297338Y-94467259D01*
X80362119Y-94512620D01*
X80362121Y-94512621D01*
X80491903Y-94573139D01*
X80544343Y-94619311D01*
X80563495Y-94686504D01*
X80543280Y-94753385D01*
X80491904Y-94797903D01*
X80362117Y-94858423D01*
X80297338Y-94903782D01*
X80736411Y-95342854D01*
X80769896Y-95404177D01*
X80764912Y-95473868D01*
X80727886Y-95523329D01*
X80729130Y-95524765D01*
X80613766Y-95624726D01*
X80578574Y-95679486D01*
X80525770Y-95725241D01*
X80456611Y-95735184D01*
X80393056Y-95706158D01*
X80386578Y-95700127D01*
X79943786Y-95257334D01*
X79898428Y-95322113D01*
X79805106Y-95522243D01*
X79805102Y-95522252D01*
X79747953Y-95735537D01*
X79747951Y-95735547D01*
X79728706Y-95955523D01*
X79728706Y-95955524D01*
X79747951Y-96175500D01*
X79747953Y-96175510D01*
X79805102Y-96388795D01*
X79805107Y-96388809D01*
X79898425Y-96588930D01*
X79898429Y-96588938D01*
X79943785Y-96653712D01*
X80386578Y-96210919D01*
X80447901Y-96177434D01*
X80517592Y-96182418D01*
X80573526Y-96224289D01*
X80578567Y-96231549D01*
X80578576Y-96231563D01*
X80613767Y-96286322D01*
X80729130Y-96386283D01*
X80726821Y-96388946D01*
X80761534Y-96429023D01*
X80771463Y-96498184D01*
X80742426Y-96561734D01*
X80736410Y-96568193D01*
X80297338Y-97007264D01*
X80362119Y-97052625D01*
X80362121Y-97052626D01*
X80491903Y-97113144D01*
X80544343Y-97159316D01*
X80563495Y-97226509D01*
X80543280Y-97293390D01*
X80491904Y-97337908D01*
X80362117Y-97398428D01*
X80297338Y-97443787D01*
X80736411Y-97882859D01*
X80769896Y-97944182D01*
X80764912Y-98013873D01*
X80727886Y-98063334D01*
X80729130Y-98064770D01*
X80613766Y-98164731D01*
X80578574Y-98219491D01*
X80525770Y-98265246D01*
X80456611Y-98275189D01*
X80393056Y-98246163D01*
X80386578Y-98240132D01*
X79943786Y-97797339D01*
X79898428Y-97862118D01*
X79805106Y-98062248D01*
X79805102Y-98062257D01*
X79747953Y-98275542D01*
X79747951Y-98275552D01*
X79728706Y-98495528D01*
X79728706Y-98495529D01*
X79747951Y-98715505D01*
X79747953Y-98715515D01*
X79805102Y-98928800D01*
X79805107Y-98928814D01*
X79898425Y-99128935D01*
X79898429Y-99128943D01*
X79943785Y-99193717D01*
X80386578Y-98750924D01*
X80447901Y-98717439D01*
X80517592Y-98722423D01*
X80573526Y-98764294D01*
X80578567Y-98771554D01*
X80578576Y-98771568D01*
X80613767Y-98826327D01*
X80729130Y-98926288D01*
X80726821Y-98928951D01*
X80761534Y-98969028D01*
X80771463Y-99038189D01*
X80742426Y-99101739D01*
X80736410Y-99108198D01*
X80297338Y-99547269D01*
X80362119Y-99592630D01*
X80362121Y-99592631D01*
X80491903Y-99653149D01*
X80544343Y-99699321D01*
X80563495Y-99766514D01*
X80543280Y-99833395D01*
X80491904Y-99877913D01*
X80362117Y-99938433D01*
X80297338Y-99983792D01*
X80736411Y-100422864D01*
X80769896Y-100484187D01*
X80764912Y-100553878D01*
X80727886Y-100603339D01*
X80729130Y-100604775D01*
X80613766Y-100704736D01*
X80578574Y-100759496D01*
X80525770Y-100805251D01*
X80456611Y-100815194D01*
X80393056Y-100786168D01*
X80386578Y-100780137D01*
X79943786Y-100337344D01*
X79898428Y-100402123D01*
X79805106Y-100602253D01*
X79805102Y-100602262D01*
X79747953Y-100815547D01*
X79747951Y-100815557D01*
X79728706Y-101035533D01*
X79728706Y-101035534D01*
X79747951Y-101255510D01*
X79747953Y-101255520D01*
X79805102Y-101468805D01*
X79805107Y-101468819D01*
X79898425Y-101668940D01*
X79898429Y-101668948D01*
X79943785Y-101733722D01*
X80386578Y-101290929D01*
X80447901Y-101257444D01*
X80517592Y-101262428D01*
X80573526Y-101304299D01*
X80578567Y-101311559D01*
X80613767Y-101366332D01*
X80652809Y-101400162D01*
X80729130Y-101466293D01*
X80726821Y-101468956D01*
X80761534Y-101509033D01*
X80771463Y-101578194D01*
X80742426Y-101641744D01*
X80736410Y-101648203D01*
X80297338Y-102087274D01*
X80362119Y-102132635D01*
X80362121Y-102132636D01*
X80491903Y-102193154D01*
X80544343Y-102239326D01*
X80563495Y-102306519D01*
X80543280Y-102373400D01*
X80491904Y-102417918D01*
X80362117Y-102478438D01*
X80297338Y-102523797D01*
X80736411Y-102962869D01*
X80769896Y-103024192D01*
X80764912Y-103093883D01*
X80727886Y-103143344D01*
X80729130Y-103144780D01*
X80613766Y-103244741D01*
X80578574Y-103299501D01*
X80525770Y-103345256D01*
X80456611Y-103355199D01*
X80393056Y-103326173D01*
X80386578Y-103320142D01*
X79943786Y-102877349D01*
X79898428Y-102942128D01*
X79805106Y-103142258D01*
X79805102Y-103142267D01*
X79747953Y-103355552D01*
X79747951Y-103355562D01*
X79728706Y-103575538D01*
X79728706Y-103575539D01*
X75500500Y-103575539D01*
X75500500Y-91535534D01*
X91280214Y-91535534D01*
X91299482Y-91940032D01*
X91357113Y-92340860D01*
X91452584Y-92734397D01*
X91452587Y-92734408D01*
X91585026Y-93117067D01*
X91585028Y-93117071D01*
X91753251Y-93485426D01*
X91753259Y-93485442D01*
X91955728Y-93836129D01*
X91955740Y-93836148D01*
X92190617Y-94165986D01*
X92190626Y-94165996D01*
X92190627Y-94165998D01*
X92455814Y-94472041D01*
X92748892Y-94751490D01*
X93067206Y-95001815D01*
X93407874Y-95220749D01*
X93767810Y-95406309D01*
X94143755Y-95556815D01*
X94532304Y-95670903D01*
X94576832Y-95679485D01*
X94867220Y-95735453D01*
X94929939Y-95747541D01*
X95333058Y-95786034D01*
X95333064Y-95786034D01*
X95738004Y-95786034D01*
X95738010Y-95786034D01*
X96141129Y-95747541D01*
X96538764Y-95670903D01*
X96927313Y-95556815D01*
X97303258Y-95406309D01*
X97663194Y-95220749D01*
X98003862Y-95001815D01*
X98322176Y-94751490D01*
X98615254Y-94472041D01*
X98880441Y-94165998D01*
X98917678Y-94113707D01*
X99115327Y-93836148D01*
X99115340Y-93836129D01*
X99231170Y-93635505D01*
X99317813Y-93485434D01*
X99486037Y-93117077D01*
X99486039Y-93117070D01*
X99486041Y-93117067D01*
X99618480Y-92734408D01*
X99618480Y-92734405D01*
X99618484Y-92734396D01*
X99713955Y-92340859D01*
X99771586Y-91940028D01*
X99790854Y-91535534D01*
X99790854Y-91535533D01*
X105280214Y-91535533D01*
X105299482Y-91940032D01*
X105357113Y-92340860D01*
X105452584Y-92734397D01*
X105452587Y-92734408D01*
X105585026Y-93117067D01*
X105585028Y-93117071D01*
X105753251Y-93485426D01*
X105753259Y-93485442D01*
X105955728Y-93836129D01*
X105955740Y-93836148D01*
X106190617Y-94165986D01*
X106190626Y-94165996D01*
X106190627Y-94165998D01*
X106455814Y-94472041D01*
X106748892Y-94751490D01*
X107067206Y-95001815D01*
X107407874Y-95220749D01*
X107767810Y-95406309D01*
X108143755Y-95556815D01*
X108532304Y-95670903D01*
X108576832Y-95679485D01*
X108867220Y-95735453D01*
X108929939Y-95747541D01*
X109333058Y-95786034D01*
X109333064Y-95786034D01*
X109738004Y-95786034D01*
X109738010Y-95786034D01*
X110141129Y-95747541D01*
X110538764Y-95670903D01*
X110927313Y-95556815D01*
X111303258Y-95406309D01*
X111663194Y-95220749D01*
X112003862Y-95001815D01*
X112322176Y-94751490D01*
X112615254Y-94472041D01*
X112880441Y-94165998D01*
X112917678Y-94113707D01*
X113115327Y-93836148D01*
X113115340Y-93836129D01*
X113231170Y-93635505D01*
X113317813Y-93485434D01*
X113486037Y-93117077D01*
X113486039Y-93117070D01*
X113486041Y-93117067D01*
X113618480Y-92734408D01*
X113618480Y-92734405D01*
X113618484Y-92734396D01*
X113713955Y-92340859D01*
X113771586Y-91940028D01*
X113790854Y-91535534D01*
X124280214Y-91535534D01*
X124299482Y-91940032D01*
X124357113Y-92340860D01*
X124452584Y-92734397D01*
X124452587Y-92734408D01*
X124585026Y-93117067D01*
X124585028Y-93117071D01*
X124753251Y-93485426D01*
X124753259Y-93485442D01*
X124955728Y-93836129D01*
X124955740Y-93836148D01*
X125190617Y-94165986D01*
X125190626Y-94165996D01*
X125190627Y-94165998D01*
X125455814Y-94472041D01*
X125748892Y-94751490D01*
X126067206Y-95001815D01*
X126407874Y-95220749D01*
X126767810Y-95406309D01*
X127143755Y-95556815D01*
X127532304Y-95670903D01*
X127576832Y-95679485D01*
X127867220Y-95735453D01*
X127929939Y-95747541D01*
X128333058Y-95786034D01*
X128333064Y-95786034D01*
X128738004Y-95786034D01*
X128738010Y-95786034D01*
X129141129Y-95747541D01*
X129538764Y-95670903D01*
X129927313Y-95556815D01*
X130303258Y-95406309D01*
X130663194Y-95220749D01*
X131003862Y-95001815D01*
X131322176Y-94751490D01*
X131615254Y-94472041D01*
X131880441Y-94165998D01*
X131917678Y-94113707D01*
X132115327Y-93836148D01*
X132115340Y-93836129D01*
X132231170Y-93635505D01*
X132317813Y-93485434D01*
X132486037Y-93117077D01*
X132486039Y-93117070D01*
X132486041Y-93117067D01*
X132618480Y-92734408D01*
X132618480Y-92734405D01*
X132618484Y-92734396D01*
X132713955Y-92340859D01*
X132771586Y-91940028D01*
X132790854Y-91535534D01*
X132790854Y-91535533D01*
X138280214Y-91535533D01*
X138299482Y-91940032D01*
X138357113Y-92340860D01*
X138452584Y-92734397D01*
X138452587Y-92734408D01*
X138585026Y-93117067D01*
X138585028Y-93117071D01*
X138753251Y-93485426D01*
X138753259Y-93485442D01*
X138955728Y-93836129D01*
X138955740Y-93836148D01*
X139190617Y-94165986D01*
X139190626Y-94165996D01*
X139190627Y-94165998D01*
X139455814Y-94472041D01*
X139748892Y-94751490D01*
X140067206Y-95001815D01*
X140407874Y-95220749D01*
X140767810Y-95406309D01*
X141143755Y-95556815D01*
X141532304Y-95670903D01*
X141576832Y-95679485D01*
X141867220Y-95735453D01*
X141929939Y-95747541D01*
X142333058Y-95786034D01*
X142333064Y-95786034D01*
X142738004Y-95786034D01*
X142738010Y-95786034D01*
X143141129Y-95747541D01*
X143538764Y-95670903D01*
X143927313Y-95556815D01*
X144303258Y-95406309D01*
X144663194Y-95220749D01*
X145003862Y-95001815D01*
X145322176Y-94751490D01*
X145615254Y-94472041D01*
X145880441Y-94165998D01*
X145917678Y-94113707D01*
X146115327Y-93836148D01*
X146115340Y-93836129D01*
X146231170Y-93635505D01*
X146317813Y-93485434D01*
X146486037Y-93117077D01*
X146486039Y-93117070D01*
X146486041Y-93117067D01*
X146618480Y-92734408D01*
X146618480Y-92734405D01*
X146618484Y-92734396D01*
X146713955Y-92340859D01*
X146771586Y-91940028D01*
X146790854Y-91535534D01*
X146771586Y-91131040D01*
X146713955Y-90730209D01*
X146618484Y-90336672D01*
X146618480Y-90336659D01*
X146486041Y-89954000D01*
X146486039Y-89953996D01*
X146317816Y-89585641D01*
X146317813Y-89585634D01*
X146115337Y-89234934D01*
X146115333Y-89234927D01*
X146115327Y-89234919D01*
X145880450Y-88905081D01*
X145880439Y-88905068D01*
X145615254Y-88599027D01*
X145322176Y-88319578D01*
X145003862Y-88069253D01*
X144663194Y-87850319D01*
X144303258Y-87664759D01*
X144303257Y-87664758D01*
X144303254Y-87664757D01*
X144303250Y-87664755D01*
X143927314Y-87514253D01*
X143927302Y-87514249D01*
X143538769Y-87400166D01*
X143538752Y-87400162D01*
X143141144Y-87323529D01*
X143141132Y-87323527D01*
X143006756Y-87310696D01*
X142738010Y-87285034D01*
X142333058Y-87285034D01*
X142091186Y-87308129D01*
X141929935Y-87323527D01*
X141929923Y-87323529D01*
X141532315Y-87400162D01*
X141532298Y-87400166D01*
X141143765Y-87514249D01*
X141143753Y-87514253D01*
X140767817Y-87664755D01*
X140767813Y-87664757D01*
X140407877Y-87850317D01*
X140067217Y-88069245D01*
X140067210Y-88069250D01*
X140067206Y-88069253D01*
X139827578Y-88257698D01*
X139748893Y-88319577D01*
X139748891Y-88319578D01*
X139455817Y-88599024D01*
X139455815Y-88599026D01*
X139190628Y-88905068D01*
X139190617Y-88905081D01*
X138955740Y-89234919D01*
X138955734Y-89234927D01*
X138753259Y-89585625D01*
X138753251Y-89585641D01*
X138585028Y-89953996D01*
X138585026Y-89954000D01*
X138452587Y-90336659D01*
X138452584Y-90336670D01*
X138357113Y-90730207D01*
X138299482Y-91131035D01*
X138280214Y-91535533D01*
X132790854Y-91535533D01*
X132771586Y-91131040D01*
X132713955Y-90730209D01*
X132618484Y-90336672D01*
X132618480Y-90336659D01*
X132486041Y-89954000D01*
X132486039Y-89953996D01*
X132317816Y-89585641D01*
X132317813Y-89585634D01*
X132115337Y-89234934D01*
X132115333Y-89234927D01*
X132115327Y-89234919D01*
X131880450Y-88905081D01*
X131880439Y-88905068D01*
X131615254Y-88599027D01*
X131322176Y-88319578D01*
X131003862Y-88069253D01*
X130663194Y-87850319D01*
X130303258Y-87664759D01*
X130303257Y-87664758D01*
X130303254Y-87664757D01*
X130303250Y-87664755D01*
X129927314Y-87514253D01*
X129927302Y-87514249D01*
X129538769Y-87400166D01*
X129538752Y-87400162D01*
X129141144Y-87323529D01*
X129141132Y-87323527D01*
X129006756Y-87310696D01*
X128738010Y-87285034D01*
X128333058Y-87285034D01*
X128091186Y-87308129D01*
X127929935Y-87323527D01*
X127929923Y-87323529D01*
X127532315Y-87400162D01*
X127532298Y-87400166D01*
X127143765Y-87514249D01*
X127143753Y-87514253D01*
X126767817Y-87664755D01*
X126767813Y-87664757D01*
X126407877Y-87850317D01*
X126067217Y-88069245D01*
X126067210Y-88069250D01*
X126067206Y-88069253D01*
X125827578Y-88257698D01*
X125748893Y-88319577D01*
X125748891Y-88319578D01*
X125455817Y-88599024D01*
X125455815Y-88599026D01*
X125190628Y-88905068D01*
X125190617Y-88905081D01*
X124955740Y-89234919D01*
X124955734Y-89234927D01*
X124753259Y-89585625D01*
X124753251Y-89585641D01*
X124585028Y-89953996D01*
X124585026Y-89954000D01*
X124452587Y-90336659D01*
X124452584Y-90336670D01*
X124357113Y-90730207D01*
X124299482Y-91131035D01*
X124280214Y-91535534D01*
X113790854Y-91535534D01*
X113771586Y-91131040D01*
X113713955Y-90730209D01*
X113618484Y-90336672D01*
X113618480Y-90336659D01*
X113486041Y-89954000D01*
X113486039Y-89953996D01*
X113317816Y-89585641D01*
X113317813Y-89585634D01*
X113115337Y-89234934D01*
X113115333Y-89234927D01*
X113115327Y-89234919D01*
X112880450Y-88905081D01*
X112880439Y-88905068D01*
X112615254Y-88599027D01*
X112322176Y-88319578D01*
X112003862Y-88069253D01*
X111663194Y-87850319D01*
X111303258Y-87664759D01*
X111303257Y-87664758D01*
X111303254Y-87664757D01*
X111303250Y-87664755D01*
X110927314Y-87514253D01*
X110927302Y-87514249D01*
X110538769Y-87400166D01*
X110538752Y-87400162D01*
X110141144Y-87323529D01*
X110141132Y-87323527D01*
X110006755Y-87310696D01*
X109738010Y-87285034D01*
X109333058Y-87285034D01*
X109091186Y-87308129D01*
X108929935Y-87323527D01*
X108929923Y-87323529D01*
X108532315Y-87400162D01*
X108532298Y-87400166D01*
X108143765Y-87514249D01*
X108143753Y-87514253D01*
X107767817Y-87664755D01*
X107767813Y-87664757D01*
X107407877Y-87850317D01*
X107067217Y-88069245D01*
X107067210Y-88069250D01*
X107067206Y-88069253D01*
X106827578Y-88257698D01*
X106748893Y-88319577D01*
X106748891Y-88319578D01*
X106455817Y-88599024D01*
X106455815Y-88599026D01*
X106190628Y-88905068D01*
X106190617Y-88905081D01*
X105955740Y-89234919D01*
X105955734Y-89234927D01*
X105753259Y-89585625D01*
X105753251Y-89585641D01*
X105585028Y-89953996D01*
X105585026Y-89954000D01*
X105452587Y-90336659D01*
X105452584Y-90336670D01*
X105357113Y-90730207D01*
X105299482Y-91131035D01*
X105280214Y-91535533D01*
X99790854Y-91535533D01*
X99771586Y-91131040D01*
X99713955Y-90730209D01*
X99618484Y-90336672D01*
X99618480Y-90336659D01*
X99486041Y-89954000D01*
X99486039Y-89953996D01*
X99317816Y-89585641D01*
X99317813Y-89585634D01*
X99115337Y-89234934D01*
X99115333Y-89234927D01*
X99115327Y-89234919D01*
X98880450Y-88905081D01*
X98880439Y-88905068D01*
X98615254Y-88599027D01*
X98322176Y-88319578D01*
X98003862Y-88069253D01*
X97663194Y-87850319D01*
X97303258Y-87664759D01*
X97303257Y-87664758D01*
X97303254Y-87664757D01*
X97303250Y-87664755D01*
X96927314Y-87514253D01*
X96927302Y-87514249D01*
X96538769Y-87400166D01*
X96538752Y-87400162D01*
X96141144Y-87323529D01*
X96141132Y-87323527D01*
X96006756Y-87310696D01*
X95738010Y-87285034D01*
X95333058Y-87285034D01*
X95091186Y-87308129D01*
X94929935Y-87323527D01*
X94929923Y-87323529D01*
X94532315Y-87400162D01*
X94532298Y-87400166D01*
X94143765Y-87514249D01*
X94143753Y-87514253D01*
X93767817Y-87664755D01*
X93767813Y-87664757D01*
X93407877Y-87850317D01*
X93067217Y-88069245D01*
X93067210Y-88069250D01*
X93067206Y-88069253D01*
X92827578Y-88257698D01*
X92748893Y-88319577D01*
X92748891Y-88319578D01*
X92455817Y-88599024D01*
X92455815Y-88599026D01*
X92190628Y-88905068D01*
X92190617Y-88905081D01*
X91955740Y-89234919D01*
X91955734Y-89234927D01*
X91753259Y-89585625D01*
X91753251Y-89585641D01*
X91585028Y-89953996D01*
X91585026Y-89954000D01*
X91452587Y-90336659D01*
X91452584Y-90336670D01*
X91357113Y-90730207D01*
X91299482Y-91131035D01*
X91280214Y-91535534D01*
X75500500Y-91535534D01*
X75500500Y-86876716D01*
X187385568Y-86876716D01*
X187405862Y-87011352D01*
X187424672Y-87136144D01*
X187424673Y-87136146D01*
X187424674Y-87136152D01*
X187502006Y-87386855D01*
X187615835Y-87623225D01*
X187615836Y-87623226D01*
X187615838Y-87623229D01*
X187615840Y-87623233D01*
X187763634Y-87840007D01*
X187763635Y-87840008D01*
X187942082Y-88032330D01*
X187942086Y-88032333D01*
X187942087Y-88032334D01*
X188147211Y-88195915D01*
X188374425Y-88327097D01*
X188618652Y-88422949D01*
X188874438Y-88481331D01*
X188874444Y-88481331D01*
X188874447Y-88481332D01*
X189070568Y-88496029D01*
X189070574Y-88496029D01*
X189201568Y-88496029D01*
X189397688Y-88481332D01*
X189397690Y-88481331D01*
X189397698Y-88481331D01*
X189653484Y-88422949D01*
X189897711Y-88327097D01*
X190124925Y-88195915D01*
X190330049Y-88032334D01*
X190508501Y-87840008D01*
X190656296Y-87623233D01*
X190770131Y-87386852D01*
X190847464Y-87136144D01*
X190886567Y-86876716D01*
X211185568Y-86876716D01*
X211205862Y-87011352D01*
X211224672Y-87136144D01*
X211224673Y-87136146D01*
X211224674Y-87136152D01*
X211302006Y-87386855D01*
X211415835Y-87623225D01*
X211415836Y-87623226D01*
X211415838Y-87623229D01*
X211415840Y-87623233D01*
X211563634Y-87840007D01*
X211563635Y-87840008D01*
X211742082Y-88032330D01*
X211742086Y-88032333D01*
X211742087Y-88032334D01*
X211947211Y-88195915D01*
X212174425Y-88327097D01*
X212418652Y-88422949D01*
X212674438Y-88481331D01*
X212674444Y-88481331D01*
X212674447Y-88481332D01*
X212870568Y-88496029D01*
X212870574Y-88496029D01*
X213001568Y-88496029D01*
X213197688Y-88481332D01*
X213197690Y-88481331D01*
X213197698Y-88481331D01*
X213453484Y-88422949D01*
X213697711Y-88327097D01*
X213924925Y-88195915D01*
X214130049Y-88032334D01*
X214308501Y-87840008D01*
X214456296Y-87623233D01*
X214570131Y-87386852D01*
X214647464Y-87136144D01*
X214686568Y-86876711D01*
X214686568Y-86614347D01*
X214647464Y-86354914D01*
X214570131Y-86104206D01*
X214558189Y-86079409D01*
X214456300Y-85867832D01*
X214456299Y-85867831D01*
X214456298Y-85867830D01*
X214456296Y-85867825D01*
X214308501Y-85651050D01*
X214298509Y-85640282D01*
X214130053Y-85458727D01*
X214090601Y-85427265D01*
X213924925Y-85295143D01*
X213697711Y-85163961D01*
X213453484Y-85068109D01*
X213453479Y-85068107D01*
X213453470Y-85068105D01*
X213235886Y-85018443D01*
X213197698Y-85009727D01*
X213197697Y-85009726D01*
X213197693Y-85009726D01*
X213197688Y-85009725D01*
X213001568Y-84995029D01*
X213001562Y-84995029D01*
X212870574Y-84995029D01*
X212870568Y-84995029D01*
X212674447Y-85009725D01*
X212674442Y-85009726D01*
X212418665Y-85068105D01*
X212418646Y-85068111D01*
X212174424Y-85163961D01*
X211947211Y-85295143D01*
X211742082Y-85458727D01*
X211563635Y-85651049D01*
X211415836Y-85867831D01*
X211415835Y-85867832D01*
X211302006Y-86104202D01*
X211224674Y-86354905D01*
X211224673Y-86354910D01*
X211224672Y-86354914D01*
X211209921Y-86452776D01*
X211185568Y-86614341D01*
X211185568Y-86876716D01*
X190886567Y-86876716D01*
X190886568Y-86876711D01*
X190886568Y-86614347D01*
X190847464Y-86354914D01*
X190770131Y-86104206D01*
X190758189Y-86079409D01*
X190656300Y-85867832D01*
X190656299Y-85867831D01*
X190656298Y-85867830D01*
X190656296Y-85867825D01*
X190508501Y-85651050D01*
X190498509Y-85640282D01*
X190330053Y-85458727D01*
X190290601Y-85427265D01*
X190124925Y-85295143D01*
X189897711Y-85163961D01*
X189653484Y-85068109D01*
X189653479Y-85068107D01*
X189653470Y-85068105D01*
X189435886Y-85018443D01*
X189397698Y-85009727D01*
X189397697Y-85009726D01*
X189397693Y-85009726D01*
X189397688Y-85009725D01*
X189201568Y-84995029D01*
X189201562Y-84995029D01*
X189070574Y-84995029D01*
X189070568Y-84995029D01*
X188874447Y-85009725D01*
X188874442Y-85009726D01*
X188618665Y-85068105D01*
X188618646Y-85068111D01*
X188374424Y-85163961D01*
X188147211Y-85295143D01*
X187942082Y-85458727D01*
X187763635Y-85651049D01*
X187615836Y-85867831D01*
X187615835Y-85867832D01*
X187502006Y-86104202D01*
X187424674Y-86354905D01*
X187424673Y-86354910D01*
X187424672Y-86354914D01*
X187409921Y-86452776D01*
X187385568Y-86614341D01*
X187385568Y-86876716D01*
X75500500Y-86876716D01*
X75500500Y-77535534D01*
X91280214Y-77535534D01*
X91299482Y-77940032D01*
X91357113Y-78340860D01*
X91452584Y-78734397D01*
X91452587Y-78734408D01*
X91585026Y-79117067D01*
X91585028Y-79117071D01*
X91753251Y-79485426D01*
X91753259Y-79485442D01*
X91955734Y-79836140D01*
X91955740Y-79836148D01*
X92190617Y-80165986D01*
X92190626Y-80165996D01*
X92190627Y-80165998D01*
X92455814Y-80472041D01*
X92748892Y-80751490D01*
X93067206Y-81001815D01*
X93407874Y-81220749D01*
X93767810Y-81406309D01*
X94143755Y-81556815D01*
X94532304Y-81670903D01*
X94929939Y-81747541D01*
X95333058Y-81786034D01*
X95333064Y-81786034D01*
X95738004Y-81786034D01*
X95738010Y-81786034D01*
X96141129Y-81747541D01*
X96538764Y-81670903D01*
X96927313Y-81556815D01*
X97303258Y-81406309D01*
X97663194Y-81220749D01*
X98003862Y-81001815D01*
X98322176Y-80751490D01*
X98615254Y-80472041D01*
X98880441Y-80165998D01*
X99115337Y-79836134D01*
X99317813Y-79485434D01*
X99486037Y-79117077D01*
X99486039Y-79117070D01*
X99486041Y-79117067D01*
X99618480Y-78734408D01*
X99618480Y-78734405D01*
X99618484Y-78734396D01*
X99713955Y-78340859D01*
X99771586Y-77940028D01*
X99790854Y-77535534D01*
X99790854Y-77535533D01*
X105280214Y-77535533D01*
X105299482Y-77940032D01*
X105357113Y-78340860D01*
X105452584Y-78734397D01*
X105452587Y-78734408D01*
X105585026Y-79117067D01*
X105585028Y-79117071D01*
X105753251Y-79485426D01*
X105753259Y-79485442D01*
X105955734Y-79836140D01*
X105955740Y-79836148D01*
X106190617Y-80165986D01*
X106190626Y-80165996D01*
X106190627Y-80165998D01*
X106455814Y-80472041D01*
X106748892Y-80751490D01*
X107067206Y-81001815D01*
X107407874Y-81220749D01*
X107767810Y-81406309D01*
X108143755Y-81556815D01*
X108532304Y-81670903D01*
X108929939Y-81747541D01*
X109333058Y-81786034D01*
X109333064Y-81786034D01*
X109738004Y-81786034D01*
X109738010Y-81786034D01*
X110141129Y-81747541D01*
X110538764Y-81670903D01*
X110927313Y-81556815D01*
X111303258Y-81406309D01*
X111663194Y-81220749D01*
X112003862Y-81001815D01*
X112322176Y-80751490D01*
X112615254Y-80472041D01*
X112880441Y-80165998D01*
X113115337Y-79836134D01*
X113317813Y-79485434D01*
X113486037Y-79117077D01*
X113486039Y-79117070D01*
X113486041Y-79117067D01*
X113618480Y-78734408D01*
X113618480Y-78734405D01*
X113618484Y-78734396D01*
X113713955Y-78340859D01*
X113771586Y-77940028D01*
X113790854Y-77535534D01*
X124280214Y-77535534D01*
X124299482Y-77940032D01*
X124357113Y-78340860D01*
X124452584Y-78734397D01*
X124452587Y-78734408D01*
X124585026Y-79117067D01*
X124585028Y-79117071D01*
X124753251Y-79485426D01*
X124753259Y-79485442D01*
X124955734Y-79836140D01*
X124955740Y-79836148D01*
X125190617Y-80165986D01*
X125190626Y-80165996D01*
X125190627Y-80165998D01*
X125455814Y-80472041D01*
X125748892Y-80751490D01*
X126067206Y-81001815D01*
X126407874Y-81220749D01*
X126767810Y-81406309D01*
X127143755Y-81556815D01*
X127532304Y-81670903D01*
X127929939Y-81747541D01*
X128333058Y-81786034D01*
X128333064Y-81786034D01*
X128738004Y-81786034D01*
X128738010Y-81786034D01*
X129141129Y-81747541D01*
X129538764Y-81670903D01*
X129927313Y-81556815D01*
X130303258Y-81406309D01*
X130663194Y-81220749D01*
X131003862Y-81001815D01*
X131322176Y-80751490D01*
X131615254Y-80472041D01*
X131880441Y-80165998D01*
X132115337Y-79836134D01*
X132317813Y-79485434D01*
X132486037Y-79117077D01*
X132486039Y-79117070D01*
X132486041Y-79117067D01*
X132618480Y-78734408D01*
X132618480Y-78734405D01*
X132618484Y-78734396D01*
X132713955Y-78340859D01*
X132771586Y-77940028D01*
X132790854Y-77535534D01*
X132790854Y-77535533D01*
X138280214Y-77535533D01*
X138299482Y-77940032D01*
X138357113Y-78340860D01*
X138452584Y-78734397D01*
X138452587Y-78734408D01*
X138585026Y-79117067D01*
X138585028Y-79117071D01*
X138753251Y-79485426D01*
X138753259Y-79485442D01*
X138955734Y-79836140D01*
X138955740Y-79836148D01*
X139190617Y-80165986D01*
X139190626Y-80165996D01*
X139190627Y-80165998D01*
X139455814Y-80472041D01*
X139748892Y-80751490D01*
X140067206Y-81001815D01*
X140407874Y-81220749D01*
X140767810Y-81406309D01*
X141143755Y-81556815D01*
X141532304Y-81670903D01*
X141929939Y-81747541D01*
X142333058Y-81786034D01*
X142333064Y-81786034D01*
X142738004Y-81786034D01*
X142738010Y-81786034D01*
X143141129Y-81747541D01*
X143538764Y-81670903D01*
X143927313Y-81556815D01*
X144303258Y-81406309D01*
X144663194Y-81220749D01*
X145003862Y-81001815D01*
X145322176Y-80751490D01*
X145615254Y-80472041D01*
X145880441Y-80165998D01*
X146115337Y-79836134D01*
X146317813Y-79485434D01*
X146486037Y-79117077D01*
X146486039Y-79117070D01*
X146486041Y-79117067D01*
X146618480Y-78734408D01*
X146618480Y-78734405D01*
X146618484Y-78734396D01*
X146713955Y-78340859D01*
X146771586Y-77940028D01*
X146790854Y-77535534D01*
X146771586Y-77131040D01*
X146713955Y-76730209D01*
X146618484Y-76336672D01*
X146618480Y-76336659D01*
X146486041Y-75954000D01*
X146486039Y-75953996D01*
X146317816Y-75585641D01*
X146317813Y-75585634D01*
X146115337Y-75234934D01*
X146115333Y-75234927D01*
X146115327Y-75234919D01*
X145880450Y-74905081D01*
X145880439Y-74905068D01*
X145615254Y-74599027D01*
X145322176Y-74319578D01*
X145003862Y-74069253D01*
X144663194Y-73850319D01*
X144303258Y-73664759D01*
X144303257Y-73664758D01*
X144303254Y-73664757D01*
X144303250Y-73664755D01*
X143927314Y-73514253D01*
X143927302Y-73514249D01*
X143538769Y-73400166D01*
X143538752Y-73400162D01*
X143141144Y-73323529D01*
X143141132Y-73323527D01*
X143006755Y-73310696D01*
X142738010Y-73285034D01*
X142333058Y-73285034D01*
X142091186Y-73308129D01*
X141929935Y-73323527D01*
X141929923Y-73323529D01*
X141532315Y-73400162D01*
X141532298Y-73400166D01*
X141143765Y-73514249D01*
X141143753Y-73514253D01*
X140767817Y-73664755D01*
X140767813Y-73664757D01*
X140407877Y-73850317D01*
X140067217Y-74069245D01*
X140067210Y-74069250D01*
X140067206Y-74069253D01*
X139827578Y-74257698D01*
X139748893Y-74319577D01*
X139748891Y-74319578D01*
X139455817Y-74599024D01*
X139455815Y-74599026D01*
X139190628Y-74905068D01*
X139190617Y-74905081D01*
X138955740Y-75234919D01*
X138955734Y-75234927D01*
X138753259Y-75585625D01*
X138753251Y-75585641D01*
X138585028Y-75953996D01*
X138585026Y-75954000D01*
X138452587Y-76336659D01*
X138452584Y-76336670D01*
X138357113Y-76730207D01*
X138299482Y-77131035D01*
X138280214Y-77535533D01*
X132790854Y-77535533D01*
X132771586Y-77131040D01*
X132713955Y-76730209D01*
X132618484Y-76336672D01*
X132618480Y-76336659D01*
X132486041Y-75954000D01*
X132486039Y-75953996D01*
X132317816Y-75585641D01*
X132317813Y-75585634D01*
X132115337Y-75234934D01*
X132115333Y-75234927D01*
X132115327Y-75234919D01*
X131880450Y-74905081D01*
X131880439Y-74905068D01*
X131615254Y-74599027D01*
X131322176Y-74319578D01*
X131003862Y-74069253D01*
X130663194Y-73850319D01*
X130303258Y-73664759D01*
X130303257Y-73664758D01*
X130303254Y-73664757D01*
X130303250Y-73664755D01*
X129927314Y-73514253D01*
X129927302Y-73514249D01*
X129538769Y-73400166D01*
X129538752Y-73400162D01*
X129141144Y-73323529D01*
X129141132Y-73323527D01*
X129006756Y-73310696D01*
X128738010Y-73285034D01*
X128333058Y-73285034D01*
X128091186Y-73308129D01*
X127929935Y-73323527D01*
X127929923Y-73323529D01*
X127532315Y-73400162D01*
X127532298Y-73400166D01*
X127143765Y-73514249D01*
X127143753Y-73514253D01*
X126767817Y-73664755D01*
X126767813Y-73664757D01*
X126407877Y-73850317D01*
X126067217Y-74069245D01*
X126067210Y-74069250D01*
X126067206Y-74069253D01*
X125827578Y-74257698D01*
X125748893Y-74319577D01*
X125748891Y-74319578D01*
X125455817Y-74599024D01*
X125455815Y-74599026D01*
X125190628Y-74905068D01*
X125190617Y-74905081D01*
X124955740Y-75234919D01*
X124955734Y-75234927D01*
X124753259Y-75585625D01*
X124753251Y-75585641D01*
X124585028Y-75953996D01*
X124585026Y-75954000D01*
X124452587Y-76336659D01*
X124452584Y-76336670D01*
X124357113Y-76730207D01*
X124299482Y-77131035D01*
X124280214Y-77535534D01*
X113790854Y-77535534D01*
X113771586Y-77131040D01*
X113713955Y-76730209D01*
X113618484Y-76336672D01*
X113618480Y-76336659D01*
X113486041Y-75954000D01*
X113486039Y-75953996D01*
X113317816Y-75585641D01*
X113317813Y-75585634D01*
X113115337Y-75234934D01*
X113115333Y-75234927D01*
X113115327Y-75234919D01*
X112880450Y-74905081D01*
X112880439Y-74905068D01*
X112615254Y-74599027D01*
X112322176Y-74319578D01*
X112003862Y-74069253D01*
X111663194Y-73850319D01*
X111303258Y-73664759D01*
X111303257Y-73664758D01*
X111303254Y-73664757D01*
X111303250Y-73664755D01*
X110927314Y-73514253D01*
X110927302Y-73514249D01*
X110538769Y-73400166D01*
X110538752Y-73400162D01*
X110141144Y-73323529D01*
X110141132Y-73323527D01*
X110006756Y-73310696D01*
X109738010Y-73285034D01*
X109333058Y-73285034D01*
X109091186Y-73308129D01*
X108929935Y-73323527D01*
X108929923Y-73323529D01*
X108532315Y-73400162D01*
X108532298Y-73400166D01*
X108143765Y-73514249D01*
X108143753Y-73514253D01*
X107767817Y-73664755D01*
X107767813Y-73664757D01*
X107407877Y-73850317D01*
X107067217Y-74069245D01*
X107067210Y-74069250D01*
X107067206Y-74069253D01*
X106827578Y-74257698D01*
X106748893Y-74319577D01*
X106748891Y-74319578D01*
X106455817Y-74599024D01*
X106455815Y-74599026D01*
X106190628Y-74905068D01*
X106190617Y-74905081D01*
X105955740Y-75234919D01*
X105955734Y-75234927D01*
X105753259Y-75585625D01*
X105753251Y-75585641D01*
X105585028Y-75953996D01*
X105585026Y-75954000D01*
X105452587Y-76336659D01*
X105452584Y-76336670D01*
X105357113Y-76730207D01*
X105299482Y-77131035D01*
X105280214Y-77535533D01*
X99790854Y-77535533D01*
X99771586Y-77131040D01*
X99713955Y-76730209D01*
X99618484Y-76336672D01*
X99618480Y-76336659D01*
X99486041Y-75954000D01*
X99486039Y-75953996D01*
X99317816Y-75585641D01*
X99317813Y-75585634D01*
X99115337Y-75234934D01*
X99115333Y-75234927D01*
X99115327Y-75234919D01*
X98880450Y-74905081D01*
X98880439Y-74905068D01*
X98615254Y-74599027D01*
X98322176Y-74319578D01*
X98003862Y-74069253D01*
X97663194Y-73850319D01*
X97303258Y-73664759D01*
X97303257Y-73664758D01*
X97303254Y-73664757D01*
X97303250Y-73664755D01*
X96927314Y-73514253D01*
X96927302Y-73514249D01*
X96538769Y-73400166D01*
X96538752Y-73400162D01*
X96141144Y-73323529D01*
X96141132Y-73323527D01*
X96006755Y-73310695D01*
X95738010Y-73285034D01*
X95333058Y-73285034D01*
X95091186Y-73308129D01*
X94929935Y-73323527D01*
X94929923Y-73323529D01*
X94532315Y-73400162D01*
X94532298Y-73400166D01*
X94143765Y-73514249D01*
X94143753Y-73514253D01*
X93767817Y-73664755D01*
X93767813Y-73664757D01*
X93407877Y-73850317D01*
X93067217Y-74069245D01*
X93067210Y-74069250D01*
X93067206Y-74069253D01*
X92827578Y-74257698D01*
X92748893Y-74319577D01*
X92748891Y-74319578D01*
X92455817Y-74599024D01*
X92455815Y-74599026D01*
X92190628Y-74905068D01*
X92190617Y-74905081D01*
X91955740Y-75234919D01*
X91955734Y-75234927D01*
X91753259Y-75585625D01*
X91753251Y-75585641D01*
X91585028Y-75953996D01*
X91585026Y-75954000D01*
X91452587Y-76336659D01*
X91452584Y-76336670D01*
X91357113Y-76730207D01*
X91299482Y-77131035D01*
X91280214Y-77535534D01*
X75500500Y-77535534D01*
X75500500Y-68615544D01*
X79728706Y-68615544D01*
X79747951Y-68835520D01*
X79747953Y-68835530D01*
X79805102Y-69048815D01*
X79805107Y-69048829D01*
X79898425Y-69248950D01*
X79898429Y-69248958D01*
X79943785Y-69313732D01*
X80386578Y-68870939D01*
X80447901Y-68837454D01*
X80517592Y-68842438D01*
X80573526Y-68884309D01*
X80578567Y-68891569D01*
X80578576Y-68891583D01*
X80613767Y-68946342D01*
X80729130Y-69046303D01*
X80726821Y-69048966D01*
X80761534Y-69089043D01*
X80771463Y-69158204D01*
X80742426Y-69221754D01*
X80736410Y-69228213D01*
X80297338Y-69667284D01*
X80362119Y-69712645D01*
X80362121Y-69712646D01*
X80562242Y-69805964D01*
X80562256Y-69805969D01*
X80775541Y-69863118D01*
X80775551Y-69863120D01*
X80995527Y-69882366D01*
X80995529Y-69882366D01*
X81215504Y-69863120D01*
X81215514Y-69863118D01*
X81428799Y-69805969D01*
X81428813Y-69805964D01*
X81628934Y-69712646D01*
X81693715Y-69667284D01*
X81254644Y-69228213D01*
X81221159Y-69166890D01*
X81226143Y-69097198D01*
X81263169Y-69047737D01*
X81261926Y-69046303D01*
X81268628Y-69040496D01*
X81377289Y-68946342D01*
X81412482Y-68891581D01*
X81465283Y-68845827D01*
X81534442Y-68835883D01*
X81597998Y-68864907D01*
X81604477Y-68870940D01*
X82047268Y-69313731D01*
X82092630Y-69248950D01*
X82152873Y-69119759D01*
X82199045Y-69067319D01*
X82266238Y-69048167D01*
X82333119Y-69068382D01*
X82377637Y-69119759D01*
X82437997Y-69249202D01*
X82438001Y-69249210D01*
X82564703Y-69430159D01*
X82564708Y-69430165D01*
X82720912Y-69586369D01*
X82720918Y-69586374D01*
X82901867Y-69713076D01*
X82901869Y-69713077D01*
X82901872Y-69713079D01*
X83102084Y-69806439D01*
X83315465Y-69863615D01*
X83472657Y-69877367D01*
X83535532Y-69882868D01*
X83535534Y-69882868D01*
X83535536Y-69882868D01*
X83590551Y-69878054D01*
X83755603Y-69863615D01*
X83968984Y-69806439D01*
X84169196Y-69713079D01*
X84350154Y-69586371D01*
X84506361Y-69430164D01*
X84633069Y-69249206D01*
X84726429Y-69048994D01*
X84783605Y-68835613D01*
X84802858Y-68615544D01*
X84783605Y-68395475D01*
X84726429Y-68182094D01*
X84633069Y-67981882D01*
X84633067Y-67981879D01*
X84633066Y-67981877D01*
X84506364Y-67800928D01*
X84506359Y-67800922D01*
X84350155Y-67644718D01*
X84350149Y-67644713D01*
X84169200Y-67518011D01*
X84169196Y-67518009D01*
X84040341Y-67457923D01*
X83987902Y-67411751D01*
X83968750Y-67344557D01*
X83988966Y-67277676D01*
X84040341Y-67233159D01*
X84169196Y-67173074D01*
X84350154Y-67046366D01*
X84506361Y-66890159D01*
X84633069Y-66709201D01*
X84726429Y-66508989D01*
X84783605Y-66295608D01*
X84802858Y-66075539D01*
X84783605Y-65855470D01*
X84726429Y-65642089D01*
X84633069Y-65441877D01*
X84633067Y-65441874D01*
X84633066Y-65441872D01*
X84506364Y-65260923D01*
X84506359Y-65260917D01*
X84350155Y-65104713D01*
X84350149Y-65104708D01*
X84169200Y-64978006D01*
X84169196Y-64978004D01*
X84040341Y-64917918D01*
X83987902Y-64871746D01*
X83968750Y-64804552D01*
X83988966Y-64737671D01*
X84040341Y-64693154D01*
X84169196Y-64633069D01*
X84350154Y-64506361D01*
X84506361Y-64350154D01*
X84633069Y-64169196D01*
X84726429Y-63968984D01*
X84783605Y-63755603D01*
X84802858Y-63535534D01*
X91280214Y-63535534D01*
X91299482Y-63940032D01*
X91357113Y-64340860D01*
X91452584Y-64734397D01*
X91452587Y-64734408D01*
X91585026Y-65117067D01*
X91585028Y-65117071D01*
X91753251Y-65485426D01*
X91753259Y-65485442D01*
X91955734Y-65836140D01*
X91955740Y-65836148D01*
X92190617Y-66165986D01*
X92190626Y-66165996D01*
X92190627Y-66165998D01*
X92455814Y-66472041D01*
X92748892Y-66751490D01*
X93067206Y-67001815D01*
X93407874Y-67220749D01*
X93767810Y-67406309D01*
X93767815Y-67406311D01*
X93767817Y-67406312D01*
X93785537Y-67413406D01*
X94143755Y-67556815D01*
X94143763Y-67556817D01*
X94143765Y-67556818D01*
X94225774Y-67580898D01*
X94532304Y-67670903D01*
X94929939Y-67747541D01*
X95333058Y-67786034D01*
X95333064Y-67786034D01*
X95738004Y-67786034D01*
X95738010Y-67786034D01*
X96141129Y-67747541D01*
X96538764Y-67670903D01*
X96927313Y-67556815D01*
X97303258Y-67406309D01*
X97663194Y-67220749D01*
X98003862Y-67001815D01*
X98322176Y-66751490D01*
X98615254Y-66472041D01*
X98880441Y-66165998D01*
X98944856Y-66075541D01*
X99115327Y-65836148D01*
X99115333Y-65836140D01*
X99115334Y-65836137D01*
X99115337Y-65836134D01*
X99317813Y-65485434D01*
X99486037Y-65117077D01*
X99486039Y-65117070D01*
X99486041Y-65117067D01*
X99618480Y-64734408D01*
X99618480Y-64734405D01*
X99618484Y-64734396D01*
X99713955Y-64340859D01*
X99771586Y-63940028D01*
X99790854Y-63535534D01*
X99790854Y-63535533D01*
X105280214Y-63535533D01*
X105299482Y-63940032D01*
X105357113Y-64340860D01*
X105452584Y-64734397D01*
X105452587Y-64734408D01*
X105585026Y-65117067D01*
X105585028Y-65117071D01*
X105753251Y-65485426D01*
X105753259Y-65485442D01*
X105955734Y-65836140D01*
X105955740Y-65836148D01*
X106190617Y-66165986D01*
X106190626Y-66165996D01*
X106190627Y-66165998D01*
X106455814Y-66472041D01*
X106748892Y-66751490D01*
X107067206Y-67001815D01*
X107407874Y-67220749D01*
X107767810Y-67406309D01*
X107767815Y-67406311D01*
X107767817Y-67406312D01*
X107785537Y-67413406D01*
X108143755Y-67556815D01*
X108143763Y-67556817D01*
X108143765Y-67556818D01*
X108225774Y-67580898D01*
X108532304Y-67670903D01*
X108929939Y-67747541D01*
X109333058Y-67786034D01*
X109333064Y-67786034D01*
X109738004Y-67786034D01*
X109738010Y-67786034D01*
X110141129Y-67747541D01*
X110538764Y-67670903D01*
X110927313Y-67556815D01*
X111303258Y-67406309D01*
X111663194Y-67220749D01*
X112003862Y-67001815D01*
X112322176Y-66751490D01*
X112615254Y-66472041D01*
X112880441Y-66165998D01*
X112944856Y-66075541D01*
X113115327Y-65836148D01*
X113115333Y-65836140D01*
X113115334Y-65836137D01*
X113115337Y-65836134D01*
X113317813Y-65485434D01*
X113486037Y-65117077D01*
X113486039Y-65117070D01*
X113486041Y-65117067D01*
X113618480Y-64734408D01*
X113618480Y-64734405D01*
X113618484Y-64734396D01*
X113713955Y-64340859D01*
X113771586Y-63940028D01*
X113790854Y-63535534D01*
X124280214Y-63535534D01*
X124299482Y-63940032D01*
X124357113Y-64340860D01*
X124452584Y-64734397D01*
X124452587Y-64734408D01*
X124585026Y-65117067D01*
X124585028Y-65117071D01*
X124753251Y-65485426D01*
X124753259Y-65485442D01*
X124955734Y-65836140D01*
X124955740Y-65836148D01*
X125190617Y-66165986D01*
X125190626Y-66165996D01*
X125190627Y-66165998D01*
X125455814Y-66472041D01*
X125748892Y-66751490D01*
X126067206Y-67001815D01*
X126407874Y-67220749D01*
X126767810Y-67406309D01*
X126767815Y-67406311D01*
X126767817Y-67406312D01*
X126785537Y-67413406D01*
X127143755Y-67556815D01*
X127143763Y-67556817D01*
X127143765Y-67556818D01*
X127225774Y-67580898D01*
X127532304Y-67670903D01*
X127929939Y-67747541D01*
X128333058Y-67786034D01*
X128333064Y-67786034D01*
X128738004Y-67786034D01*
X128738010Y-67786034D01*
X129141129Y-67747541D01*
X129538764Y-67670903D01*
X129927313Y-67556815D01*
X130303258Y-67406309D01*
X130663194Y-67220749D01*
X131003862Y-67001815D01*
X131322176Y-66751490D01*
X131615254Y-66472041D01*
X131880441Y-66165998D01*
X131944856Y-66075541D01*
X132115327Y-65836148D01*
X132115333Y-65836140D01*
X132115334Y-65836137D01*
X132115337Y-65836134D01*
X132317813Y-65485434D01*
X132486037Y-65117077D01*
X132486039Y-65117070D01*
X132486041Y-65117067D01*
X132618480Y-64734408D01*
X132618480Y-64734405D01*
X132618484Y-64734396D01*
X132713955Y-64340859D01*
X132771586Y-63940028D01*
X132790854Y-63535534D01*
X132790854Y-63535533D01*
X138280214Y-63535533D01*
X138299482Y-63940032D01*
X138357113Y-64340860D01*
X138452584Y-64734397D01*
X138452587Y-64734408D01*
X138585026Y-65117067D01*
X138585028Y-65117071D01*
X138753251Y-65485426D01*
X138753259Y-65485442D01*
X138955734Y-65836140D01*
X138955740Y-65836148D01*
X139190617Y-66165986D01*
X139190626Y-66165996D01*
X139190627Y-66165998D01*
X139455814Y-66472041D01*
X139748892Y-66751490D01*
X140067206Y-67001815D01*
X140407874Y-67220749D01*
X140767810Y-67406309D01*
X140767815Y-67406311D01*
X140767817Y-67406312D01*
X140785537Y-67413406D01*
X141143755Y-67556815D01*
X141143763Y-67556817D01*
X141143765Y-67556818D01*
X141225774Y-67580898D01*
X141532304Y-67670903D01*
X141929939Y-67747541D01*
X142333058Y-67786034D01*
X142333064Y-67786034D01*
X142738004Y-67786034D01*
X142738010Y-67786034D01*
X143141129Y-67747541D01*
X143538764Y-67670903D01*
X143927313Y-67556815D01*
X144303258Y-67406309D01*
X144663194Y-67220749D01*
X145003862Y-67001815D01*
X145322176Y-66751490D01*
X145615254Y-66472041D01*
X145880441Y-66165998D01*
X145944856Y-66075541D01*
X146115327Y-65836148D01*
X146115333Y-65836140D01*
X146115334Y-65836137D01*
X146115337Y-65836134D01*
X146317813Y-65485434D01*
X146486037Y-65117077D01*
X146486039Y-65117070D01*
X146486041Y-65117067D01*
X146618480Y-64734408D01*
X146618480Y-64734405D01*
X146618484Y-64734396D01*
X146713955Y-64340859D01*
X146771586Y-63940028D01*
X146790854Y-63535534D01*
X146771586Y-63131040D01*
X146713955Y-62730209D01*
X146618484Y-62336672D01*
X146618480Y-62336659D01*
X146486041Y-61954000D01*
X146486039Y-61953996D01*
X146420346Y-61810150D01*
X146317813Y-61585634D01*
X146237948Y-61447304D01*
X146115333Y-61234927D01*
X146115327Y-61234919D01*
X145880450Y-60905081D01*
X145880439Y-60905068D01*
X145615254Y-60599027D01*
X145322176Y-60319578D01*
X145003862Y-60069253D01*
X144663194Y-59850319D01*
X144303258Y-59664759D01*
X144303257Y-59664758D01*
X144303254Y-59664757D01*
X144303250Y-59664755D01*
X143927314Y-59514253D01*
X143927302Y-59514249D01*
X143538769Y-59400166D01*
X143538752Y-59400162D01*
X143141144Y-59323529D01*
X143141132Y-59323527D01*
X143006756Y-59310696D01*
X142738010Y-59285034D01*
X142333058Y-59285034D01*
X142091186Y-59308129D01*
X141929935Y-59323527D01*
X141929923Y-59323529D01*
X141532315Y-59400162D01*
X141532298Y-59400166D01*
X141143765Y-59514249D01*
X141143753Y-59514253D01*
X140767817Y-59664755D01*
X140767813Y-59664757D01*
X140407877Y-59850317D01*
X140067217Y-60069245D01*
X140067210Y-60069250D01*
X140067206Y-60069253D01*
X139925224Y-60180909D01*
X139748893Y-60319577D01*
X139748891Y-60319578D01*
X139455817Y-60599024D01*
X139455815Y-60599026D01*
X139190628Y-60905068D01*
X139190617Y-60905081D01*
X138955740Y-61234919D01*
X138955734Y-61234927D01*
X138753259Y-61585625D01*
X138753251Y-61585641D01*
X138585028Y-61953996D01*
X138585026Y-61954000D01*
X138452587Y-62336659D01*
X138452584Y-62336670D01*
X138357113Y-62730207D01*
X138299482Y-63131035D01*
X138280214Y-63535533D01*
X132790854Y-63535533D01*
X132771586Y-63131040D01*
X132713955Y-62730209D01*
X132618484Y-62336672D01*
X132618480Y-62336659D01*
X132486041Y-61954000D01*
X132486039Y-61953996D01*
X132420346Y-61810150D01*
X132317813Y-61585634D01*
X132237948Y-61447304D01*
X132115333Y-61234927D01*
X132115327Y-61234919D01*
X131880450Y-60905081D01*
X131880439Y-60905068D01*
X131615254Y-60599027D01*
X131322176Y-60319578D01*
X131003862Y-60069253D01*
X130663194Y-59850319D01*
X130303258Y-59664759D01*
X130303257Y-59664758D01*
X130303254Y-59664757D01*
X130303250Y-59664755D01*
X129927314Y-59514253D01*
X129927302Y-59514249D01*
X129538769Y-59400166D01*
X129538752Y-59400162D01*
X129141144Y-59323529D01*
X129141132Y-59323527D01*
X129006756Y-59310696D01*
X128738010Y-59285034D01*
X128333058Y-59285034D01*
X128091186Y-59308129D01*
X127929935Y-59323527D01*
X127929923Y-59323529D01*
X127532315Y-59400162D01*
X127532298Y-59400166D01*
X127143765Y-59514249D01*
X127143753Y-59514253D01*
X126767817Y-59664755D01*
X126767813Y-59664757D01*
X126407877Y-59850317D01*
X126067217Y-60069245D01*
X126067210Y-60069250D01*
X126067206Y-60069253D01*
X125925224Y-60180909D01*
X125748893Y-60319577D01*
X125748891Y-60319578D01*
X125455817Y-60599024D01*
X125455815Y-60599026D01*
X125190628Y-60905068D01*
X125190617Y-60905081D01*
X124955740Y-61234919D01*
X124955734Y-61234927D01*
X124753259Y-61585625D01*
X124753251Y-61585641D01*
X124585028Y-61953996D01*
X124585026Y-61954000D01*
X124452587Y-62336659D01*
X124452584Y-62336670D01*
X124357113Y-62730207D01*
X124299482Y-63131035D01*
X124280214Y-63535534D01*
X113790854Y-63535534D01*
X113771586Y-63131040D01*
X113713955Y-62730209D01*
X113618484Y-62336672D01*
X113618480Y-62336659D01*
X113486041Y-61954000D01*
X113486039Y-61953996D01*
X113420346Y-61810150D01*
X113317813Y-61585634D01*
X113237948Y-61447304D01*
X113115333Y-61234927D01*
X113115327Y-61234919D01*
X112880450Y-60905081D01*
X112880439Y-60905068D01*
X112615254Y-60599027D01*
X112322176Y-60319578D01*
X112003862Y-60069253D01*
X111663194Y-59850319D01*
X111303258Y-59664759D01*
X111303257Y-59664758D01*
X111303254Y-59664757D01*
X111303250Y-59664755D01*
X110927314Y-59514253D01*
X110927302Y-59514249D01*
X110538769Y-59400166D01*
X110538752Y-59400162D01*
X110141144Y-59323529D01*
X110141132Y-59323527D01*
X110006755Y-59310696D01*
X109738010Y-59285034D01*
X109333058Y-59285034D01*
X109091186Y-59308129D01*
X108929935Y-59323527D01*
X108929923Y-59323529D01*
X108532315Y-59400162D01*
X108532298Y-59400166D01*
X108143765Y-59514249D01*
X108143753Y-59514253D01*
X107767817Y-59664755D01*
X107767813Y-59664757D01*
X107407877Y-59850317D01*
X107067217Y-60069245D01*
X107067210Y-60069250D01*
X107067206Y-60069253D01*
X106925224Y-60180909D01*
X106748893Y-60319577D01*
X106748891Y-60319578D01*
X106455817Y-60599024D01*
X106455815Y-60599026D01*
X106190628Y-60905068D01*
X106190617Y-60905081D01*
X105955740Y-61234919D01*
X105955734Y-61234927D01*
X105753259Y-61585625D01*
X105753251Y-61585641D01*
X105585028Y-61953996D01*
X105585026Y-61954000D01*
X105452587Y-62336659D01*
X105452584Y-62336670D01*
X105357113Y-62730207D01*
X105299482Y-63131035D01*
X105280214Y-63535533D01*
X99790854Y-63535533D01*
X99771586Y-63131040D01*
X99713955Y-62730209D01*
X99618484Y-62336672D01*
X99618480Y-62336659D01*
X99486041Y-61954000D01*
X99486039Y-61953996D01*
X99420346Y-61810150D01*
X99317813Y-61585634D01*
X99237948Y-61447304D01*
X99115333Y-61234927D01*
X99115327Y-61234919D01*
X98880450Y-60905081D01*
X98880439Y-60905068D01*
X98615254Y-60599027D01*
X98322176Y-60319578D01*
X98003862Y-60069253D01*
X97663194Y-59850319D01*
X97303258Y-59664759D01*
X97303257Y-59664758D01*
X97303254Y-59664757D01*
X97303250Y-59664755D01*
X96927314Y-59514253D01*
X96927302Y-59514249D01*
X96538769Y-59400166D01*
X96538752Y-59400162D01*
X96141144Y-59323529D01*
X96141132Y-59323527D01*
X96006756Y-59310696D01*
X95738010Y-59285034D01*
X95333058Y-59285034D01*
X95091186Y-59308129D01*
X94929935Y-59323527D01*
X94929923Y-59323529D01*
X94532315Y-59400162D01*
X94532298Y-59400166D01*
X94143765Y-59514249D01*
X94143753Y-59514253D01*
X93767817Y-59664755D01*
X93767813Y-59664757D01*
X93407877Y-59850317D01*
X93067217Y-60069245D01*
X93067210Y-60069250D01*
X93067206Y-60069253D01*
X92925224Y-60180909D01*
X92748893Y-60319577D01*
X92748891Y-60319578D01*
X92455817Y-60599024D01*
X92455815Y-60599026D01*
X92190628Y-60905068D01*
X92190617Y-60905081D01*
X91955740Y-61234919D01*
X91955734Y-61234927D01*
X91753259Y-61585625D01*
X91753251Y-61585641D01*
X91585028Y-61953996D01*
X91585026Y-61954000D01*
X91452587Y-62336659D01*
X91452584Y-62336670D01*
X91357113Y-62730207D01*
X91299482Y-63131035D01*
X91280214Y-63535534D01*
X84802858Y-63535534D01*
X84783605Y-63315465D01*
X84726429Y-63102084D01*
X84633069Y-62901872D01*
X84633067Y-62901869D01*
X84633066Y-62901867D01*
X84506364Y-62720918D01*
X84506359Y-62720912D01*
X84350155Y-62564708D01*
X84350149Y-62564703D01*
X84169200Y-62438001D01*
X84169196Y-62437999D01*
X84040341Y-62377913D01*
X83987902Y-62331741D01*
X83968750Y-62264547D01*
X83988966Y-62197666D01*
X84040341Y-62153149D01*
X84169196Y-62093064D01*
X84350154Y-61966356D01*
X84506361Y-61810149D01*
X84633069Y-61629191D01*
X84726429Y-61428979D01*
X84783605Y-61215598D01*
X84802858Y-60995529D01*
X84783605Y-60775460D01*
X84726429Y-60562079D01*
X84633069Y-60361867D01*
X84633067Y-60361864D01*
X84633066Y-60361862D01*
X84506364Y-60180913D01*
X84506359Y-60180907D01*
X84350155Y-60024703D01*
X84350149Y-60024698D01*
X84169200Y-59897996D01*
X84169196Y-59897994D01*
X84040341Y-59837908D01*
X83987902Y-59791736D01*
X83968750Y-59724542D01*
X83988966Y-59657661D01*
X84040341Y-59613144D01*
X84169196Y-59553059D01*
X84350154Y-59426351D01*
X84506361Y-59270144D01*
X84633069Y-59089186D01*
X84726429Y-58888974D01*
X84783605Y-58675593D01*
X84802858Y-58455524D01*
X84783605Y-58235455D01*
X84726429Y-58022074D01*
X84633069Y-57821862D01*
X84633067Y-57821859D01*
X84633066Y-57821857D01*
X84506364Y-57640908D01*
X84506359Y-57640902D01*
X84350155Y-57484698D01*
X84350149Y-57484693D01*
X84169200Y-57357991D01*
X84169196Y-57357989D01*
X83968987Y-57264630D01*
X83968984Y-57264629D01*
X83878804Y-57240465D01*
X83755604Y-57207453D01*
X83755597Y-57207452D01*
X83535536Y-57188200D01*
X83535532Y-57188200D01*
X83315470Y-57207452D01*
X83315463Y-57207453D01*
X83102080Y-57264630D01*
X82901871Y-57357989D01*
X82901867Y-57357991D01*
X82720918Y-57484693D01*
X82720912Y-57484698D01*
X82564708Y-57640902D01*
X82564703Y-57640908D01*
X82438001Y-57821857D01*
X82437999Y-57821861D01*
X82377637Y-57951309D01*
X82331465Y-58003748D01*
X82264271Y-58022900D01*
X82197390Y-58002684D01*
X82152873Y-57951308D01*
X82092630Y-57822117D01*
X82092629Y-57822115D01*
X82047268Y-57757335D01*
X81604477Y-58200126D01*
X81543154Y-58233611D01*
X81473462Y-58228627D01*
X81417529Y-58186755D01*
X81412481Y-58179485D01*
X81377289Y-58124726D01*
X81261926Y-58024765D01*
X81264226Y-58022109D01*
X81229488Y-57981952D01*
X81219602Y-57912785D01*
X81248680Y-57849253D01*
X81254644Y-57842853D01*
X81693716Y-57403781D01*
X81628942Y-57358425D01*
X81628934Y-57358421D01*
X81428813Y-57265103D01*
X81428799Y-57265098D01*
X81215514Y-57207949D01*
X81215504Y-57207947D01*
X80995529Y-57188702D01*
X80995527Y-57188702D01*
X80775551Y-57207947D01*
X80775541Y-57207949D01*
X80562256Y-57265098D01*
X80562247Y-57265102D01*
X80362117Y-57358424D01*
X80297338Y-57403782D01*
X80736411Y-57842854D01*
X80769896Y-57904177D01*
X80764912Y-57973868D01*
X80727886Y-58023329D01*
X80729130Y-58024765D01*
X80613766Y-58124726D01*
X80578574Y-58179486D01*
X80525770Y-58225241D01*
X80456611Y-58235184D01*
X80393056Y-58206158D01*
X80386578Y-58200127D01*
X79943786Y-57757334D01*
X79898428Y-57822113D01*
X79805106Y-58022243D01*
X79805102Y-58022252D01*
X79747953Y-58235537D01*
X79747951Y-58235547D01*
X79728706Y-58455523D01*
X79728706Y-58455524D01*
X79747951Y-58675500D01*
X79747953Y-58675510D01*
X79805102Y-58888795D01*
X79805107Y-58888809D01*
X79898425Y-59088930D01*
X79898429Y-59088938D01*
X79943785Y-59153712D01*
X80386578Y-58710919D01*
X80447901Y-58677434D01*
X80517592Y-58682418D01*
X80573526Y-58724289D01*
X80578567Y-58731549D01*
X80578576Y-58731563D01*
X80613767Y-58786322D01*
X80729130Y-58886283D01*
X80726821Y-58888946D01*
X80761534Y-58929023D01*
X80771463Y-58998184D01*
X80742426Y-59061734D01*
X80736410Y-59068193D01*
X80297338Y-59507264D01*
X80362119Y-59552625D01*
X80362121Y-59552626D01*
X80491903Y-59613144D01*
X80544343Y-59659316D01*
X80563495Y-59726509D01*
X80543280Y-59793390D01*
X80491904Y-59837908D01*
X80362117Y-59898428D01*
X80297338Y-59943787D01*
X80736411Y-60382859D01*
X80769896Y-60444182D01*
X80764912Y-60513873D01*
X80727886Y-60563334D01*
X80729130Y-60564770D01*
X80613766Y-60664731D01*
X80578574Y-60719491D01*
X80525770Y-60765246D01*
X80456611Y-60775189D01*
X80393056Y-60746163D01*
X80386578Y-60740132D01*
X79943786Y-60297339D01*
X79898428Y-60362118D01*
X79805106Y-60562248D01*
X79805102Y-60562257D01*
X79747953Y-60775542D01*
X79747951Y-60775552D01*
X79728706Y-60995528D01*
X79728706Y-60995529D01*
X79747951Y-61215505D01*
X79747953Y-61215515D01*
X79805102Y-61428800D01*
X79805107Y-61428814D01*
X79898425Y-61628935D01*
X79898429Y-61628943D01*
X79943785Y-61693717D01*
X80386578Y-61250924D01*
X80447901Y-61217439D01*
X80517592Y-61222423D01*
X80573526Y-61264294D01*
X80578567Y-61271554D01*
X80578576Y-61271568D01*
X80613767Y-61326327D01*
X80729130Y-61426288D01*
X80726821Y-61428951D01*
X80761534Y-61469028D01*
X80771463Y-61538189D01*
X80742426Y-61601739D01*
X80736410Y-61608198D01*
X80297338Y-62047269D01*
X80362119Y-62092630D01*
X80362121Y-62092631D01*
X80491903Y-62153149D01*
X80544343Y-62199321D01*
X80563495Y-62266514D01*
X80543280Y-62333395D01*
X80491904Y-62377913D01*
X80362117Y-62438433D01*
X80297338Y-62483792D01*
X80736411Y-62922864D01*
X80769896Y-62984187D01*
X80764912Y-63053878D01*
X80727886Y-63103339D01*
X80729130Y-63104775D01*
X80613766Y-63204736D01*
X80578574Y-63259496D01*
X80525770Y-63305251D01*
X80456611Y-63315194D01*
X80393056Y-63286168D01*
X80386578Y-63280137D01*
X79943786Y-62837344D01*
X79898428Y-62902123D01*
X79805106Y-63102253D01*
X79805102Y-63102262D01*
X79747953Y-63315547D01*
X79747951Y-63315557D01*
X79728706Y-63535533D01*
X79728706Y-63535534D01*
X79747951Y-63755510D01*
X79747953Y-63755520D01*
X79805102Y-63968805D01*
X79805107Y-63968819D01*
X79898425Y-64168940D01*
X79898429Y-64168948D01*
X79943785Y-64233722D01*
X80386578Y-63790929D01*
X80447901Y-63757444D01*
X80517592Y-63762428D01*
X80573526Y-63804299D01*
X80578567Y-63811559D01*
X80578576Y-63811573D01*
X80613767Y-63866332D01*
X80729130Y-63966293D01*
X80726821Y-63968956D01*
X80761534Y-64009033D01*
X80771463Y-64078194D01*
X80742426Y-64141744D01*
X80736410Y-64148203D01*
X80297338Y-64587274D01*
X80362119Y-64632635D01*
X80362121Y-64632636D01*
X80491903Y-64693154D01*
X80544343Y-64739326D01*
X80563495Y-64806519D01*
X80543280Y-64873400D01*
X80491904Y-64917918D01*
X80362117Y-64978438D01*
X80297338Y-65023797D01*
X80736411Y-65462869D01*
X80769896Y-65524192D01*
X80764912Y-65593883D01*
X80727886Y-65643344D01*
X80729130Y-65644780D01*
X80613766Y-65744741D01*
X80578574Y-65799501D01*
X80525770Y-65845256D01*
X80456611Y-65855199D01*
X80393056Y-65826173D01*
X80386578Y-65820142D01*
X79943786Y-65377349D01*
X79898428Y-65442128D01*
X79805106Y-65642258D01*
X79805102Y-65642267D01*
X79747953Y-65855552D01*
X79747951Y-65855562D01*
X79728706Y-66075538D01*
X79728706Y-66075539D01*
X79747951Y-66295515D01*
X79747953Y-66295525D01*
X79805102Y-66508810D01*
X79805107Y-66508824D01*
X79898425Y-66708945D01*
X79898429Y-66708953D01*
X79943785Y-66773727D01*
X80386578Y-66330934D01*
X80447901Y-66297449D01*
X80517592Y-66302433D01*
X80573526Y-66344304D01*
X80578567Y-66351564D01*
X80613767Y-66406337D01*
X80689594Y-66472041D01*
X80729130Y-66506298D01*
X80726821Y-66508961D01*
X80761534Y-66549038D01*
X80771463Y-66618199D01*
X80742426Y-66681749D01*
X80736410Y-66688208D01*
X80297338Y-67127279D01*
X80362119Y-67172640D01*
X80362121Y-67172641D01*
X80491903Y-67233159D01*
X80544343Y-67279331D01*
X80563495Y-67346524D01*
X80543280Y-67413405D01*
X80491904Y-67457923D01*
X80362117Y-67518443D01*
X80297338Y-67563802D01*
X80736411Y-68002874D01*
X80769896Y-68064197D01*
X80764912Y-68133888D01*
X80727886Y-68183349D01*
X80729130Y-68184785D01*
X80613766Y-68284746D01*
X80578574Y-68339506D01*
X80525770Y-68385261D01*
X80456611Y-68395204D01*
X80393056Y-68366178D01*
X80386578Y-68360147D01*
X79943786Y-67917354D01*
X79898428Y-67982133D01*
X79805106Y-68182263D01*
X79805102Y-68182272D01*
X79747953Y-68395557D01*
X79747951Y-68395567D01*
X79728706Y-68615543D01*
X79728706Y-68615544D01*
X75500500Y-68615544D01*
X75500500Y-49535534D01*
X91280214Y-49535534D01*
X91299482Y-49940032D01*
X91357113Y-50340860D01*
X91452584Y-50734397D01*
X91452587Y-50734408D01*
X91585026Y-51117067D01*
X91585028Y-51117071D01*
X91753251Y-51485426D01*
X91753259Y-51485442D01*
X91955734Y-51836140D01*
X91955740Y-51836148D01*
X92190617Y-52165986D01*
X92190626Y-52165996D01*
X92190627Y-52165998D01*
X92455814Y-52472041D01*
X92748892Y-52751490D01*
X93067206Y-53001815D01*
X93407874Y-53220749D01*
X93767810Y-53406309D01*
X94143755Y-53556815D01*
X94532304Y-53670903D01*
X94929939Y-53747541D01*
X95333058Y-53786034D01*
X95333064Y-53786034D01*
X95738004Y-53786034D01*
X95738010Y-53786034D01*
X96141129Y-53747541D01*
X96538764Y-53670903D01*
X96927313Y-53556815D01*
X97303258Y-53406309D01*
X97663194Y-53220749D01*
X98003862Y-53001815D01*
X98322176Y-52751490D01*
X98615254Y-52472041D01*
X98880441Y-52165998D01*
X99115337Y-51836134D01*
X99317813Y-51485434D01*
X99486037Y-51117077D01*
X99486039Y-51117070D01*
X99486041Y-51117067D01*
X99618480Y-50734408D01*
X99618480Y-50734405D01*
X99618484Y-50734396D01*
X99713955Y-50340859D01*
X99771586Y-49940028D01*
X99790854Y-49535534D01*
X99790854Y-49535533D01*
X105280214Y-49535533D01*
X105299482Y-49940032D01*
X105357113Y-50340860D01*
X105452584Y-50734397D01*
X105452587Y-50734408D01*
X105585026Y-51117067D01*
X105585028Y-51117071D01*
X105753251Y-51485426D01*
X105753259Y-51485442D01*
X105955734Y-51836140D01*
X105955740Y-51836148D01*
X106190617Y-52165986D01*
X106190626Y-52165996D01*
X106190627Y-52165998D01*
X106455814Y-52472041D01*
X106748892Y-52751490D01*
X107067206Y-53001815D01*
X107407874Y-53220749D01*
X107767810Y-53406309D01*
X108143755Y-53556815D01*
X108532304Y-53670903D01*
X108929939Y-53747541D01*
X109333058Y-53786034D01*
X109333064Y-53786034D01*
X109738004Y-53786034D01*
X109738010Y-53786034D01*
X110141129Y-53747541D01*
X110538764Y-53670903D01*
X110927313Y-53556815D01*
X111303258Y-53406309D01*
X111663194Y-53220749D01*
X112003862Y-53001815D01*
X112322176Y-52751490D01*
X112615254Y-52472041D01*
X112880441Y-52165998D01*
X113115337Y-51836134D01*
X113317813Y-51485434D01*
X113486037Y-51117077D01*
X113486039Y-51117070D01*
X113486041Y-51117067D01*
X113618480Y-50734408D01*
X113618480Y-50734405D01*
X113618484Y-50734396D01*
X113713955Y-50340859D01*
X113771586Y-49940028D01*
X113790854Y-49535534D01*
X124280214Y-49535534D01*
X124299482Y-49940032D01*
X124357113Y-50340860D01*
X124452584Y-50734397D01*
X124452587Y-50734408D01*
X124585026Y-51117067D01*
X124585028Y-51117071D01*
X124753251Y-51485426D01*
X124753259Y-51485442D01*
X124955734Y-51836140D01*
X124955740Y-51836148D01*
X125190617Y-52165986D01*
X125190626Y-52165996D01*
X125190627Y-52165998D01*
X125455814Y-52472041D01*
X125748892Y-52751490D01*
X126067206Y-53001815D01*
X126407874Y-53220749D01*
X126767810Y-53406309D01*
X127143755Y-53556815D01*
X127532304Y-53670903D01*
X127929939Y-53747541D01*
X128333058Y-53786034D01*
X128333064Y-53786034D01*
X128738004Y-53786034D01*
X128738010Y-53786034D01*
X129141129Y-53747541D01*
X129538764Y-53670903D01*
X129927313Y-53556815D01*
X130303258Y-53406309D01*
X130663194Y-53220749D01*
X131003862Y-53001815D01*
X131322176Y-52751490D01*
X131615254Y-52472041D01*
X131880441Y-52165998D01*
X132115337Y-51836134D01*
X132317813Y-51485434D01*
X132486037Y-51117077D01*
X132486039Y-51117070D01*
X132486041Y-51117067D01*
X132618480Y-50734408D01*
X132618480Y-50734405D01*
X132618484Y-50734396D01*
X132713955Y-50340859D01*
X132771586Y-49940028D01*
X132790854Y-49535534D01*
X132790854Y-49535533D01*
X138280214Y-49535533D01*
X138299482Y-49940032D01*
X138357113Y-50340860D01*
X138452584Y-50734397D01*
X138452587Y-50734408D01*
X138585026Y-51117067D01*
X138585028Y-51117071D01*
X138753251Y-51485426D01*
X138753259Y-51485442D01*
X138955734Y-51836140D01*
X138955740Y-51836148D01*
X139190617Y-52165986D01*
X139190626Y-52165996D01*
X139190627Y-52165998D01*
X139455814Y-52472041D01*
X139748892Y-52751490D01*
X140067206Y-53001815D01*
X140407874Y-53220749D01*
X140767810Y-53406309D01*
X141143755Y-53556815D01*
X141532304Y-53670903D01*
X141929939Y-53747541D01*
X142333058Y-53786034D01*
X142333064Y-53786034D01*
X142738004Y-53786034D01*
X142738010Y-53786034D01*
X143141129Y-53747541D01*
X143538764Y-53670903D01*
X143927313Y-53556815D01*
X144303258Y-53406309D01*
X144663194Y-53220749D01*
X145003862Y-53001815D01*
X145322176Y-52751490D01*
X145615254Y-52472041D01*
X145880441Y-52165998D01*
X146115337Y-51836134D01*
X146317813Y-51485434D01*
X146486037Y-51117077D01*
X146486039Y-51117070D01*
X146486041Y-51117067D01*
X146618480Y-50734408D01*
X146618480Y-50734405D01*
X146618484Y-50734396D01*
X146713955Y-50340859D01*
X146771586Y-49940028D01*
X146790854Y-49535534D01*
X146771586Y-49131040D01*
X146713955Y-48730209D01*
X146618484Y-48336672D01*
X146618480Y-48336659D01*
X146486041Y-47954000D01*
X146486039Y-47953996D01*
X146317816Y-47585641D01*
X146317813Y-47585634D01*
X146115337Y-47234934D01*
X146115333Y-47234927D01*
X146115327Y-47234919D01*
X145880450Y-46905081D01*
X145880439Y-46905068D01*
X145615254Y-46599027D01*
X145322176Y-46319578D01*
X145003862Y-46069253D01*
X144663194Y-45850319D01*
X144303258Y-45664759D01*
X144303257Y-45664758D01*
X144303254Y-45664757D01*
X144303250Y-45664755D01*
X143927314Y-45514253D01*
X143927302Y-45514249D01*
X143538769Y-45400166D01*
X143538752Y-45400162D01*
X143141144Y-45323529D01*
X143141132Y-45323527D01*
X143006756Y-45310696D01*
X142738010Y-45285034D01*
X142333058Y-45285034D01*
X142091186Y-45308129D01*
X141929935Y-45323527D01*
X141929923Y-45323529D01*
X141532315Y-45400162D01*
X141532298Y-45400166D01*
X141143765Y-45514249D01*
X141143753Y-45514253D01*
X140767817Y-45664755D01*
X140767813Y-45664757D01*
X140407877Y-45850317D01*
X140067217Y-46069245D01*
X140067210Y-46069250D01*
X140067206Y-46069253D01*
X139827578Y-46257698D01*
X139748893Y-46319577D01*
X139748891Y-46319578D01*
X139455817Y-46599024D01*
X139455815Y-46599026D01*
X139190628Y-46905068D01*
X139190617Y-46905081D01*
X138955740Y-47234919D01*
X138955734Y-47234927D01*
X138753259Y-47585625D01*
X138753251Y-47585641D01*
X138585028Y-47953996D01*
X138585026Y-47954000D01*
X138452587Y-48336659D01*
X138452584Y-48336670D01*
X138357113Y-48730207D01*
X138299482Y-49131035D01*
X138280214Y-49535533D01*
X132790854Y-49535533D01*
X132771586Y-49131040D01*
X132713955Y-48730209D01*
X132618484Y-48336672D01*
X132618480Y-48336659D01*
X132486041Y-47954000D01*
X132486039Y-47953996D01*
X132317816Y-47585641D01*
X132317813Y-47585634D01*
X132115337Y-47234934D01*
X132115333Y-47234927D01*
X132115327Y-47234919D01*
X131880450Y-46905081D01*
X131880439Y-46905068D01*
X131615254Y-46599027D01*
X131322176Y-46319578D01*
X131003862Y-46069253D01*
X130663194Y-45850319D01*
X130303258Y-45664759D01*
X130303257Y-45664758D01*
X130303254Y-45664757D01*
X130303250Y-45664755D01*
X129927314Y-45514253D01*
X129927302Y-45514249D01*
X129538769Y-45400166D01*
X129538752Y-45400162D01*
X129141144Y-45323529D01*
X129141132Y-45323527D01*
X129006756Y-45310696D01*
X128738010Y-45285034D01*
X128333058Y-45285034D01*
X128091186Y-45308129D01*
X127929935Y-45323527D01*
X127929923Y-45323529D01*
X127532315Y-45400162D01*
X127532298Y-45400166D01*
X127143765Y-45514249D01*
X127143753Y-45514253D01*
X126767817Y-45664755D01*
X126767813Y-45664757D01*
X126407877Y-45850317D01*
X126067217Y-46069245D01*
X126067210Y-46069250D01*
X126067206Y-46069253D01*
X125827578Y-46257698D01*
X125748893Y-46319577D01*
X125748891Y-46319578D01*
X125455817Y-46599024D01*
X125455815Y-46599026D01*
X125190628Y-46905068D01*
X125190617Y-46905081D01*
X124955740Y-47234919D01*
X124955734Y-47234927D01*
X124753259Y-47585625D01*
X124753251Y-47585641D01*
X124585028Y-47953996D01*
X124585026Y-47954000D01*
X124452587Y-48336659D01*
X124452584Y-48336670D01*
X124357113Y-48730207D01*
X124299482Y-49131035D01*
X124280214Y-49535534D01*
X113790854Y-49535534D01*
X113771586Y-49131040D01*
X113713955Y-48730209D01*
X113618484Y-48336672D01*
X113618480Y-48336659D01*
X113486041Y-47954000D01*
X113486039Y-47953996D01*
X113317816Y-47585641D01*
X113317813Y-47585634D01*
X113115337Y-47234934D01*
X113115333Y-47234927D01*
X113115327Y-47234919D01*
X112880450Y-46905081D01*
X112880439Y-46905068D01*
X112615254Y-46599027D01*
X112322176Y-46319578D01*
X112003862Y-46069253D01*
X111663194Y-45850319D01*
X111303258Y-45664759D01*
X111303257Y-45664758D01*
X111303254Y-45664757D01*
X111303250Y-45664755D01*
X110927314Y-45514253D01*
X110927302Y-45514249D01*
X110538769Y-45400166D01*
X110538752Y-45400162D01*
X110141144Y-45323529D01*
X110141132Y-45323527D01*
X110006755Y-45310696D01*
X109738010Y-45285034D01*
X109333058Y-45285034D01*
X109091186Y-45308129D01*
X108929935Y-45323527D01*
X108929923Y-45323529D01*
X108532315Y-45400162D01*
X108532298Y-45400166D01*
X108143765Y-45514249D01*
X108143753Y-45514253D01*
X107767817Y-45664755D01*
X107767813Y-45664757D01*
X107407877Y-45850317D01*
X107067217Y-46069245D01*
X107067210Y-46069250D01*
X107067206Y-46069253D01*
X106827578Y-46257698D01*
X106748893Y-46319577D01*
X106748891Y-46319578D01*
X106455817Y-46599024D01*
X106455815Y-46599026D01*
X106190628Y-46905068D01*
X106190617Y-46905081D01*
X105955740Y-47234919D01*
X105955734Y-47234927D01*
X105753259Y-47585625D01*
X105753251Y-47585641D01*
X105585028Y-47953996D01*
X105585026Y-47954000D01*
X105452587Y-48336659D01*
X105452584Y-48336670D01*
X105357113Y-48730207D01*
X105299482Y-49131035D01*
X105280214Y-49535533D01*
X99790854Y-49535533D01*
X99771586Y-49131040D01*
X99713955Y-48730209D01*
X99618484Y-48336672D01*
X99618480Y-48336659D01*
X99486041Y-47954000D01*
X99486039Y-47953996D01*
X99317816Y-47585641D01*
X99317813Y-47585634D01*
X99115337Y-47234934D01*
X99115333Y-47234927D01*
X99115327Y-47234919D01*
X98880450Y-46905081D01*
X98880439Y-46905068D01*
X98615254Y-46599027D01*
X98322176Y-46319578D01*
X98003862Y-46069253D01*
X97663194Y-45850319D01*
X97303258Y-45664759D01*
X97303257Y-45664758D01*
X97303254Y-45664757D01*
X97303250Y-45664755D01*
X96927314Y-45514253D01*
X96927302Y-45514249D01*
X96538769Y-45400166D01*
X96538752Y-45400162D01*
X96141144Y-45323529D01*
X96141132Y-45323527D01*
X96006756Y-45310696D01*
X95738010Y-45285034D01*
X95333058Y-45285034D01*
X95091186Y-45308129D01*
X94929935Y-45323527D01*
X94929923Y-45323529D01*
X94532315Y-45400162D01*
X94532298Y-45400166D01*
X94143765Y-45514249D01*
X94143753Y-45514253D01*
X93767817Y-45664755D01*
X93767813Y-45664757D01*
X93407877Y-45850317D01*
X93067217Y-46069245D01*
X93067210Y-46069250D01*
X93067206Y-46069253D01*
X92827578Y-46257698D01*
X92748893Y-46319577D01*
X92748891Y-46319578D01*
X92455817Y-46599024D01*
X92455815Y-46599026D01*
X92190628Y-46905068D01*
X92190617Y-46905081D01*
X91955740Y-47234919D01*
X91955734Y-47234927D01*
X91753259Y-47585625D01*
X91753251Y-47585641D01*
X91585028Y-47953996D01*
X91585026Y-47954000D01*
X91452587Y-48336659D01*
X91452584Y-48336670D01*
X91357113Y-48730207D01*
X91299482Y-49131035D01*
X91280214Y-49535534D01*
X75500500Y-49535534D01*
X75500500Y-39922903D01*
X82595793Y-39922903D01*
X82605672Y-40230970D01*
X82605672Y-40230975D01*
X82605673Y-40230978D01*
X82654867Y-40535261D01*
X82699137Y-40684419D01*
X82742571Y-40830763D01*
X82867333Y-41112601D01*
X82867337Y-41112609D01*
X83027123Y-41376193D01*
X83027127Y-41376198D01*
X83027133Y-41376207D01*
X83219297Y-41617174D01*
X83219299Y-41617176D01*
X83219303Y-41617180D01*
X83219304Y-41617181D01*
X83440724Y-41831614D01*
X83607862Y-41956352D01*
X83687741Y-42015968D01*
X83687743Y-42015969D01*
X83687747Y-42015972D01*
X83956318Y-42167228D01*
X84097057Y-42224207D01*
X84242018Y-42282897D01*
X84242023Y-42282898D01*
X84242025Y-42282899D01*
X84540179Y-42361084D01*
X84845883Y-42400500D01*
X84845890Y-42400500D01*
X85076980Y-42400500D01*
X85175814Y-42394154D01*
X85307601Y-42385693D01*
X85610151Y-42326772D01*
X85902683Y-42229644D01*
X85902689Y-42229640D01*
X85902693Y-42229640D01*
X86093571Y-42137717D01*
X86180393Y-42095907D01*
X86438720Y-41927754D01*
X86673424Y-41727948D01*
X86880650Y-41499769D01*
X87056996Y-41246963D01*
X87199567Y-40973683D01*
X87306020Y-40684415D01*
X87374609Y-40383908D01*
X87404206Y-40077098D01*
X87399261Y-39922903D01*
X212595793Y-39922903D01*
X212605672Y-40230970D01*
X212605672Y-40230975D01*
X212605673Y-40230978D01*
X212654867Y-40535261D01*
X212699137Y-40684419D01*
X212742571Y-40830763D01*
X212867333Y-41112601D01*
X212867337Y-41112609D01*
X213027123Y-41376193D01*
X213027127Y-41376198D01*
X213027133Y-41376207D01*
X213219297Y-41617174D01*
X213219299Y-41617176D01*
X213219303Y-41617180D01*
X213219304Y-41617181D01*
X213440724Y-41831614D01*
X213607862Y-41956352D01*
X213687741Y-42015968D01*
X213687743Y-42015969D01*
X213687747Y-42015972D01*
X213956318Y-42167228D01*
X214097057Y-42224207D01*
X214242018Y-42282897D01*
X214242023Y-42282898D01*
X214242025Y-42282899D01*
X214540179Y-42361084D01*
X214845883Y-42400500D01*
X214845890Y-42400500D01*
X215076980Y-42400500D01*
X215175814Y-42394154D01*
X215307601Y-42385693D01*
X215610151Y-42326772D01*
X215902683Y-42229644D01*
X215902689Y-42229640D01*
X215902693Y-42229640D01*
X216093571Y-42137717D01*
X216180393Y-42095907D01*
X216438720Y-41927754D01*
X216673424Y-41727948D01*
X216880650Y-41499769D01*
X217056996Y-41246963D01*
X217199567Y-40973683D01*
X217306020Y-40684415D01*
X217374609Y-40383908D01*
X217404206Y-40077098D01*
X217394327Y-39769022D01*
X217345133Y-39464739D01*
X217257431Y-39169244D01*
X217257429Y-39169239D01*
X217257428Y-39169236D01*
X217132666Y-38887398D01*
X217132663Y-38887391D01*
X216972877Y-38623807D01*
X216972870Y-38623799D01*
X216972866Y-38623792D01*
X216780702Y-38382825D01*
X216780700Y-38382823D01*
X216559279Y-38168389D01*
X216559276Y-38168386D01*
X216430450Y-38072241D01*
X216312258Y-37984031D01*
X216312253Y-37984028D01*
X216043682Y-37832772D01*
X216006383Y-37817671D01*
X215757981Y-37717102D01*
X215590660Y-37673226D01*
X215459821Y-37638916D01*
X215154117Y-37599500D01*
X214923026Y-37599500D01*
X214923020Y-37599500D01*
X214692406Y-37614306D01*
X214692389Y-37614308D01*
X214389854Y-37673226D01*
X214389849Y-37673228D01*
X214097310Y-37770358D01*
X214097306Y-37770359D01*
X213819613Y-37904089D01*
X213819605Y-37904094D01*
X213561286Y-38072241D01*
X213561276Y-38072248D01*
X213326581Y-38272046D01*
X213326571Y-38272056D01*
X213119354Y-38500225D01*
X213119350Y-38500229D01*
X212943005Y-38753033D01*
X212943003Y-38753037D01*
X212800432Y-39026319D01*
X212800429Y-39026326D01*
X212693981Y-39315580D01*
X212693979Y-39315590D01*
X212625391Y-39616089D01*
X212595794Y-39922902D01*
X212595793Y-39922903D01*
X87399261Y-39922903D01*
X87394327Y-39769022D01*
X87345133Y-39464739D01*
X87257431Y-39169244D01*
X87257429Y-39169239D01*
X87257428Y-39169236D01*
X87132666Y-38887398D01*
X87132663Y-38887391D01*
X86972877Y-38623807D01*
X86972870Y-38623799D01*
X86972866Y-38623792D01*
X86780702Y-38382825D01*
X86780700Y-38382823D01*
X86559279Y-38168389D01*
X86559276Y-38168386D01*
X86430450Y-38072241D01*
X86312258Y-37984031D01*
X86312253Y-37984028D01*
X86043682Y-37832772D01*
X86006383Y-37817671D01*
X85757981Y-37717102D01*
X85590660Y-37673226D01*
X85459821Y-37638916D01*
X85154117Y-37599500D01*
X84923026Y-37599500D01*
X84923020Y-37599500D01*
X84692406Y-37614306D01*
X84692389Y-37614308D01*
X84389854Y-37673226D01*
X84389849Y-37673228D01*
X84097310Y-37770358D01*
X84097306Y-37770359D01*
X83819613Y-37904089D01*
X83819605Y-37904094D01*
X83561286Y-38072241D01*
X83561276Y-38072248D01*
X83326581Y-38272046D01*
X83326571Y-38272056D01*
X83119354Y-38500225D01*
X83119350Y-38500229D01*
X82943005Y-38753033D01*
X82943003Y-38753037D01*
X82800432Y-39026319D01*
X82800429Y-39026326D01*
X82693981Y-39315580D01*
X82693979Y-39315590D01*
X82625391Y-39616089D01*
X82595794Y-39922902D01*
X82595793Y-39922903D01*
X75500500Y-39922903D01*
X75500500Y-34999997D01*
X75517506Y-34610529D01*
X75517975Y-34605177D01*
X75568510Y-34221342D01*
X75569447Y-34216035D01*
X75653237Y-33838091D01*
X75654638Y-33832864D01*
X75771047Y-33463668D01*
X75772898Y-33458583D01*
X75921042Y-33100935D01*
X75923319Y-33096048D01*
X76102089Y-32752636D01*
X76104774Y-32747987D01*
X76312795Y-32421463D01*
X76315876Y-32417063D01*
X76551560Y-32109914D01*
X76555015Y-32105798D01*
X76816564Y-31820367D01*
X76820367Y-31816564D01*
X77105798Y-31555015D01*
X77109914Y-31551560D01*
X77417067Y-31315872D01*
X77421471Y-31312789D01*
X77747987Y-31104774D01*
X77752636Y-31102089D01*
X78096048Y-30923319D01*
X78100935Y-30921042D01*
X78240619Y-30863182D01*
X78458586Y-30772896D01*
X78463663Y-30771048D01*
X78832865Y-30654637D01*
X78838085Y-30653238D01*
X79216041Y-30569445D01*
X79221342Y-30568510D01*
X79605175Y-30517975D01*
X79610531Y-30517506D01*
X80000003Y-30500500D01*
X80065896Y-30500500D01*
X219934107Y-30500500D01*
X219934111Y-30500501D01*
G37*
G04 #@! TD.AperFunction*
G04 #@! TD*
M02*
